<?xml version="1.0" standalone="no"?>
<!DOCTYPE svg PUBLIC "-//W3C//DTD SVG 1.1//EN" "http://www.w3.org/Graphics/SVG/1.1/DTD/svg11.dtd" >
<svg>
<metadata>
Created by FontForge 20090914 at Thu Feb 23 19:05:48 2012
 By ffonts
Copyright (c) ShyFonts Type Foundry, 2000. All rights reserved.
</metadata>
<defs>
<font id="SFButtacupLetteringShaded" horiz-adv-x="1109" >
  <font-face 
    font-family="SF Buttacup Lettering Shaded"
    font-weight="400"
    font-stretch="normal"
    units-per-em="2048"
    panose-1="0 0 4 0 0 0 0 0 0 0"
    ascent="1638"
    descent="-410"
    x-height="1442"
    cap-height="1442"
    bbox="-287 -399 1908 1889"
    underline-thickness="20"
    underline-position="-123"
    unicode-range="U+0020-U+20AC"
  />
<missing-glyph horiz-adv-x="1024" 
 />
    <glyph glyph-name=".notdef" horiz-adv-x="1024" 
 />
    <glyph glyph-name="quotedbl" unicode="&#x22;" horiz-adv-x="785" 
d="M531 1442l-2 -10l125 -123l-52 -416h-198l-22 20l-1 -20h-198l-123 122h-11l-51 427h533zM46 1399l43 -341h129l43 341h-215zM268 1399l43 -341h129l43 341h-215z" />
    <glyph glyph-name="numbersign" unicode="#" horiz-adv-x="1161" 
d="M133 555h-10l3 44l-107 109h-10v581h179l13 153h581l-2 -10l125 -123l-4 -36l118 -118v-279h-10l10 -11v-280h-179l-14 -153h-280l-10 8v-8h-280zM492 956h-86l7 85h85zM853 956h-157l7 85h150v205h-131l14 153h-205l-14 -153h-85l13 153h-204l-14 -153h-176v-205h157
l-7 -85h-150v-205h132l-14 -154h205l13 154h86l-14 -154h205l14 154h175v205z" />
    <glyph glyph-name="dollar" unicode="$" horiz-adv-x="1215" 
d="M730 1377q36 -20 67.5 -48t55.5 -63l82 -80q24 -24 48 -56q90 -128 90 -357h-279l-64 63v-114q28 -16 52 -33t44 -34l32 -33t26 -33l3 -4l79 -76q51 -52 77.5 -112t26.5 -132q0 -175 -99 -299q-46 -60 -106 -96.5t-135 -52.5v-186h-245l-123 123h-10v113q-20 13 -38.5 27
t-35.5 31l-87 85q-26 20 -48.5 43t-41.5 51q-48 66 -70 156.5t-22 208.5h290v-10l53 -53v115q-31 19 -57 39t-46 42l-83 82q-154 118 -154 289q0 173 101 304q45 57 104.5 92.5t134.5 55.5v188h256v-10l122 -123v-103zM700 393q0 -167 -135 -210v363q135 -63 135 -153z
M394 817q-135 64 -135 156q0 165 135 210v-366zM908 939q0 175 -84 297q-92 129 -259 157v177h-171v-179q-157 -27 -248 -142q-91 -112 -91 -276q0 -234 339 -360v-430q-140 44 -138 244h-205q0 -176 84 -297q92 -131 259 -156v-177h171v179q158 24 249 142q91 112 91 275
q0 138 -106 232q-80 67 -234 126v432q139 -45 138 -244h205z" />
    <glyph glyph-name="percent" unicode="%" horiz-adv-x="1399" 
d="M1132 1324l-6 -6l125 -123l-355 -586q40 -13 73.5 -38t63.5 -61q2 -4 4 -6.5t4 -6.5l91 -89l12.5 -14t12.5 -15q38 -51 56.5 -108t18.5 -126q0 -136 -75 -235q-42 -54 -99 -81t-126 -27q-123 0 -203 80l-86 86q-19 13 -36.5 28.5t-33.5 35.5l-7.5 9.5l-7.5 9.5l-165 -275
l-246 139l-115 112l-22 14l359 594q-57 20 -101 66l-21 21l16 -17q-4 4 -7.5 8t-8.5 9l-64 63q-40 25 -70 67q-42 51 -60.5 109.5t-18.5 130.5t18.5 131t60.5 110q84 109 230 109q140 0 229 -113q1 -4 3.5 -6.5l4.5 -4.5l91 -91q-2 2 -3 2l-2 2l5 -4q6 -6 12.5 -13.5
t12.5 -15.5q3 -5 9 -12l171 283zM896 273q0 -136 -92 -136q-48 0 -75 46q-21 37 -21 90t21 91q27 46 75 46q92 0 92 -137zM435 1092q0 -136 -92 -136q-48 0 -75 46q-21 37 -21 90t21 91q27 46 75 46q92 0 92 -137zM1067 273q0 127 -67 212q-75 95 -196 95q-123 0 -198 -94
q-68 -89 -68 -213t68 -213q75 -92 198 -92q121 0 196 93q67 85 67 212zM893 1411l-821 -1355l179 -100l821 1353zM606 1092q0 127 -67 212q-75 95 -196 95q-123 0 -198 -93q-68 -89 -68 -214q0 -124 68 -213q75 -94 198 -94q121 0 196 96q67 85 67 211z" />
    <glyph glyph-name="ampersand" unicode="&#x26;" horiz-adv-x="1196" 
d="M556 213v214q-43 -11 -80 -48q-53 -53 -53 -121q0 -11 0.5 -21t3.5 -19q11 -2 22 -3.5t22 -1.5h85zM456 845h15h85v136h291v-10l122 -123v-51l86 -85v-280h-86v-630h-370q-182 0 -319 128l-87 87q-22 15 -45 38q-70 69 -104.5 145t-34.5 170q0 213 153 342
q-119 119 -119 297t134 312v-2q123 123 294 123h437l-2 -10l125 -123l-34 -280h-398q-58 0 -101 -49q-42 -45 -42 -111v-24zM471 171q-87 0 -150 64t-63 151q0 85 64 148t149 63h128v-426h-128zM889 802h-85v137h-205v-137h-128q-75 0 -128 59t-53 136q0 75 53 137
q52 61 128 61h364l25 204h-389q-157 0 -272 -117q-114 -116 -114 -273q0 -189 144 -301q-178 -115 -178 -338q0 -166 126 -284q127 -118 294 -118h333v629h85v205z" />
    <glyph glyph-name="quotesingle" unicode="'" horiz-adv-x="563" 
d="M309 1442l-2 -10l125 -123l-51 -416h-198l-123 122h-11l-51 427h311zM46 1399l43 -341h129l43 341h-215z" />
    <glyph glyph-name="parenleft" unicode="(" horiz-adv-x="734" 
d="M215 -246h-8q-198 460 -198 929q0 235 48 466t148 464h304l-6 -10l125 -123q-103 -247 -154.5 -476t-51.5 -449q0 -221 51.5 -450t154.5 -474h-290zM444 -203q-188 442 -188 886q0 440 188 887h-210q-183 -432 -183 -887q0 -459 183 -886h210z" />
    <glyph glyph-name="parenright" unicode=")" horiz-adv-x="734" 
d="M-17 -246h-14q105 249 157.5 480t52.5 449q0 432 -210 930h304l5 -16l120 -117q97 -233 145.5 -461.5t48.5 -463.5q0 -236 -48.5 -464t-147.5 -460h-290zM427 683q0 455 -183 887h-210q188 -447 188 -887q0 -441 -188 -886h210q183 427 183 886z" />
    <glyph glyph-name="asterisk" unicode="*" horiz-adv-x="939" 
d="M135 814l-7 -5l-152 263l55 27l-34 38l-21 10l152 263l68 -50v82h290v-10l41 -43l28 21l15 -29l109 -108l147 -252l-53 -28l53 -51l-147 -253l-70 50v-85h-280l-51 49l-19 -14zM538 1109l107 55l-106 183l-95 -70v122h-205v-122l-96 70l-105 -183l107 -55l-107 -54
l105 -183l96 70v-123h205v123l95 -70l106 183z" />
    <glyph glyph-name="plus" unicode="+" horiz-adv-x="939" 
d="M674 817l123 -122v-280h-188v-188h-280l-122 123h-11v65h-54l-123 123h-10v290h187v187h290v-10l123 -123v-54h65v-11zM631 785h-187v188h-205v-188h-188v-205h188v-187h205v187h187v205z" />
    <glyph glyph-name="comma" unicode="," horiz-adv-x="563" 
d="M309 213l-2 -10l125 -123l-51 -415h-198l-123 123h-11l-51 425h311zM46 171l43 -340h129l43 340h-215z" />
    <glyph glyph-name="hyphen" unicode="-" horiz-adv-x="939" 
d="M717 860l123 -123v-30l123 -123v-335h-710l-123 123h-31l-123 123h-10v375h751v-10zM631 580h-580v205h580v-205zM674 828h-665v-290h10l123 -123h655v280l-123 122v11z" />
    <glyph glyph-name="period" unicode="." horiz-adv-x="563" 
d="M299 203l123 -123v-278h-280l-123 123h-10v288h290v-10zM256 171h-205v-203h205v203z" />
    <glyph glyph-name="slash" unicode="/" horiz-adv-x="915" 
d="M712 1545l-4 -9l125 -123l-481 -1785l-270 70l-121 121l-14 4l485 1795zM461 1565l-461 -1712l198 -51l461 1712z" />
    <glyph glyph-name="zero" unicode="0" horiz-adv-x="1536" 
d="M1024 683q0 88 -21.5 166t-63.5 141q-38 19 -79.5 29t-89.5 10q-94 0 -164.5 -35.5t-125.5 -107.5q-101 -137 -101 -331q0 -169 73 -290q79 -52 190 -52q181 0 285 144q97 133 97 326zM244 55q-27 22 -53 47.5t-49 54.5q-90 109 -133 239.5t-43 286.5t43 286t133 239
q192 234 500 234q307 0 496 -234q2 -2 3.5 -4.5t3.5 -3.5l68 -68l26.5 -27.5t23.5 -27.5q174 -213 174 -522q0 -310 -174 -523q-96 -115 -216.5 -172.5t-276.5 -57.5q-269 0 -451 179zM1067 683q0 -210 -106 -352q-118 -160 -319 -160q-202 0 -321 158q-108 144 -108 354
q0 207 108 353q118 159 321 159q200 0 319 -161q106 -142 106 -351zM1271 683q0 295 -165 498q-176 218 -464 218q-289 0 -468 -218q-165 -203 -165 -498q0 -297 165 -499q178 -216 468 -216q288 0 464 216q165 202 165 499z" />
    <glyph glyph-name="one" unicode="1" horiz-adv-x="657" 
d="M393 1432l122 -123v-1507h-279l-123 123h-11v1104h-3l-123 123h-10v290h427v-10zM350 1399h-341v-204h136v-1227h205v1431z" />
    <glyph glyph-name="two" unicode="2" horiz-adv-x="1215" 
d="M928 201l122 -121l34 -278h-939l-123 123h-10v212q0 191 183 365l23.5 18.5l23.5 18.5l23.5 18l24.5 20l215 169q152 125 152 227q0 12 -1.5 24t-3.5 25q-11 3 -22 5t-22 2q-186 0 -186 -213v-43h-280l-123 123h-10v82q0 103 32 185.5t101 148.5q133 130 338 130
q200 0 327 -124v1q25 -26 48 -54l85 -86q130 -130 130 -334q0 -192 -162 -360q-26 -27 -99 -87l-200 -157q-10 -8 -19 -14.5t-17 -13.5h354zM887 171h-622q23 98 194 228l198.5 156.5t95.5 82.5q152 158 152 335q0 188 -119 307t-306 119q-188 0 -309 -117
q-120 -116 -120 -304v-39h205q-3 256 224 256q103 0 161.5 -58t58.5 -164q0 -121 -168 -260l-155 -121l-155 -123q-167 -158 -167 -332v-169h858z" />
    <glyph glyph-name="three" unicode="3" horiz-adv-x="1196" 
d="M930 555q4 -4 7 -5zM456 845h13q54 0 98 44q41 44 41 108q0 17 -4 32h-7q-69 0 -105 -44.5t-36 -117.5v-22zM930 555l7 -5q118 -119 118 -308q0 -179 -139 -312q-137 -128 -319 -128q-193 0 -326 123l-90 89q-11 8 -20.5 16.5l-20.5 18.5q-66 63 -98.5 153.5t-32.5 215.5
h286v-12l123 -121l3.5 -35.5t5.5 -31.5q25 -5 42 -5q69 0 120 52q51 51 51 121q0 10 -1.5 21t-5.5 21q-16 4 -36 4h-218l-123 123h-10l30 269h-100l-123 123h-10v84q0 91 30.5 163t93.5 132t137 88t165 28q171 0 294 -123v2l24.5 -27.5l23.5 -27.5l85 -85q125 -125 125 -300
q0 -183 -120 -297l24 -24zM889 370q0 222 -177 338q143 111 143 301q0 158 -115 273q-114 117 -271 117q-160 0 -273 -104q-111 -104 -111 -264v-41h205q-1 45 10.5 82.5t34.5 65t56.5 42.5t77.5 15q76 0 128 -61q53 -62 53 -137q0 -77 -53 -136t-128 -59h-150l-25 -205h175
q85 0 150 -63q64 -63 64 -148q0 -87 -64 -151q-63 -64 -150 -64q-97 0 -154 53.5t-61 150.5h-203q0 -180 118 -294q119 -113 300 -113q170 0 294 118q126 119 126 284z" />
    <glyph glyph-name="four" unicode="4" horiz-adv-x="1118" 
d="M563 555v703l-118 -703h118zM853 1432l123 -123v-1507h-280l-123 123h-10v217h-478l-123 123h-11l196 1177h302l-2 -8l116 -116v124h290v-10zM811 1399h-205v-887h-355l148 887h-215l-182 -1092h604v-339h205v1431z" />
    <glyph glyph-name="five" unicode="5" horiz-adv-x="1203" 
d="M428 280q4 -18 9 -33.5t10 -29.5q9 -3 19 -3.5t20 -0.5q69 0 125 84q18 33 28 69.5t10 78.5q0 31 -6.5 60.5t-17.5 55.5q-7 0 -13 1t-11 1q-73 0 -123 -53q-45 -45 -63 -162h-55zM503 976q185 -7 309 -169l82 -80h-1l3 -2q13 -13 24.5 -27l23.5 -29q118 -154 118 -353
q0 -103 -29 -189.5t-89 -162.5q-131 -162 -331 -162q-161 0 -282 96q-6 5 -12.5 11l-13.5 12l-85 84l-10 8t-10 9q-112 94 -173 292l99 36l-119 119h-10l143 973h701l-3 -10l125 -123l-70 -280h-379zM896 444q0 184 -111 331q-122 159 -299 159q-96 0 -181 -43l48 304h383
l51 204h-610l-131 -887l208 2q16 94 69 150q59 65 150 65q97 0 162 -96q56 -86 56 -188q0 -106 -49 -182q-59 -92 -156 -92q-162 0 -211 187l-195 -71q45 -147 147 -232q109 -87 258 -87q184 0 302 148q109 136 109 328z" />
    <glyph glyph-name="six" unicode="6" horiz-adv-x="1195" 
d="M364 251l5 -5zM640 425q0 47 -17 89q-7 1 -13 2t-13 1q-76 0 -126 -68q-49 -70 -49 -152q0 -47 10 -80q16 -4 37 -4q38 0 67.5 16.5t54.5 48.5q49 65 49 147zM681 874q68 -41 123 -103l11.5 -15t12.5 -15l73 -72q12 -11 27 -29q125 -146 125 -343q0 -195 -125 -341
q-135 -154 -331 -154q-178 0 -303 125l-81 78q-20 16 -40 34.5t-38 40.5q-126 148 -126 345q0 117 83 300l17 -27q38 104 128 295.5l234 475.5l259 -131l-3 -7l125 -123zM683 425q0 -99 -58 -172q-61 -82 -156 -82q-94 0 -157 82q-56 77 -56 172q0 97 56 174q63 84 157 84
t156 -84q58 -76 58 -174zM887 425q0 182 -116 319q-122 143 -302 143h-17l220 432l-182 92q-364 -712 -364 -815q0 -1 2 -9l-31 48q-46 -98 -46 -210q0 -183 116 -317q122 -140 302 -140t302 140q116 134 116 317z" />
    <glyph glyph-name="seven" unicode="7" 
d="M930 1442l-5 -10l125 -123l-678 -1507h-311l-122 123h-14l495 1104h-297l-123 123h-10l34 290h906zM63 1399l-25 -204h505l-552 -1227h229l644 1431h-801z" />
    <glyph glyph-name="eight" unicode="8" horiz-adv-x="1196" 
d="M681 995q0 2 -2 2zM608 997q0 17 -4 32h-7q-60 0 -99 -46q-42 -47 -42 -114v-24h13q54 0 98 44q41 44 41 108zM640 386q0 10 -1.5 21t-5.5 21q-16 4 -36 4q-71 0 -124 -53q-51 -50 -51 -121q0 -11 0.5 -21t2.5 -19q25 -5 44 -5q69 0 120 52q51 51 51 121zM937 550
q118 -119 118 -308q0 -91 -34.5 -169.5t-104.5 -142.5q-137 -128 -319 -128t-319 128l-85 85q-25 18 -46 40q-72 66 -105 143.5t-33 173.5q0 213 151 340q-117 120 -117 297q0 175 124 303q126 130 302 130q90 0 164 -32t138 -96q13 -13 24.5 -26.5t21.5 -26.5l79 -78
q125 -125 125 -302q0 -183 -120 -297l24 -24q2 -3 6 -5.5t6 -4.5zM683 386q0 -87 -64 -151q-63 -64 -150 -64t-150 64t-63 151t63 149q65 62 150 62t150 -63q64 -63 64 -148zM650 997q0 -77 -53 -136t-128 -59t-128 59q-51 58 -51 136t51 138q52 60 128 60q77 0 129 -61
t52 -137zM889 370q0 222 -177 338q143 111 143 301q0 159 -115 274q-114 116 -271 116q-158 0 -271 -116t-113 -274q0 -190 142 -301q-176 -114 -176 -336q0 -169 124 -287q124 -117 294 -117q168 0 294 117q126 118 126 285z" />
    <glyph glyph-name="nine" unicode="9" horiz-adv-x="1195" 
d="M640 940q0 44 -15 86l-13.5 2t-14.5 1q-76 0 -126 -68q-26 -32 -37.5 -69t-11.5 -80q0 -23 1.5 -43.5t8.5 -39.5q16 -4 37 -4q74 0 123 67q48 67 48 148zM294 440l-76 74q-22 17 -43 37t-40 43q-126 148 -126 346q0 196 126 345q136 157 334 157q103 0 184.5 -39.5
t150.5 -117.5q5 -6 10 -13.5t10 -13.5l4 -4l73 -71l14 -14t13 -15q63 -75 94 -159t31 -183q0 -117 -78 -288l-21 20q-36 -104 -126 -295l-234 -473l-251 125l-118 118l-17 8l174 342q-24 15 -46 33t-42 38q-5 4 -10.5 9l-10.5 10zM683 940q0 -98 -57 -174q-63 -83 -157 -83
q-93 0 -155 83q-58 76 -58 174q0 100 58 173q61 82 155 82t157 -82q57 -75 57 -173zM887 940q0 181 -116 318q-122 141 -302 141q-179 0 -302 -141q-116 -137 -116 -318q0 -182 116 -319q123 -143 302 -143h17l-220 -432l183 -90q363 711 363 814q0 7 -1 8l30 -48
q46 98 46 210z" />
    <glyph glyph-name="colon" unicode=":" horiz-adv-x="563" 
d="M299 203l123 -123v-278h-280l-123 123h-10v288h290v-10zM299 1005l123 -123v-280h-280l-123 123h-10v290h290v-10zM256 171h-205v-203h205v203zM256 973h-205v-205h205v205z" />
    <glyph glyph-name="semicolon" unicode=";" horiz-adv-x="563" 
d="M299 1005l123 -123v-280h-280l-123 123h-10v290h290v-10zM309 213l-2 -10l125 -123l-51 -415h-198l-123 123h-11l-51 425h311zM46 171l43 -340h129l43 340h-215zM256 973h-205v-205h205v205z" />
    <glyph glyph-name="less" unicode="&#x3c;" horiz-adv-x="879" 
d="M691 1092l125 -124l-331 -413l331 -413h-365l-123 123h-7l-335 418l335 418h377zM309 683l300 375h-268l-300 -375l300 -376h268z" />
    <glyph glyph-name="equal" unicode="=" horiz-adv-x="939" 
d="M674 954l123 -123v-553h-655l-123 123h-10v563h665v-10zM631 649h-580v-205h580v205zM631 922h-580v-205h580v205z" />
    <glyph glyph-name="greater" unicode="&#x3e;" horiz-adv-x="879" 
d="M329 1067l99 -99l330 -413l-330 -413h-365l-123 123h-15l334 418l-334 418h377zM282 1058h-268l300 -375l-300 -376h268l300 376z" />
    <glyph glyph-name="question" unicode="?" horiz-adv-x="1215" 
d="M19 896h-10v82q0 103 32 185.5t101 148.5q133 130 338 130q200 0 327 -124v1q25 -26 48 -54l85 -86q130 -130 130 -334q0 -150 -77 -254q-28 -39 -75.5 -81t-117.5 -88q-61 -40 -100.5 -71.5t-56.5 -53.5q-47 -61 -47 -166v-329h-280l-123 123h-10v334q0 233 133 372
q23 24 234 175q107 71 107 167q0 31 -7 53l-21 2t-21 1q-186 0 -186 -213v-43h-280zM430 171h-205v-203h205v203zM905 973q0 188 -119 307t-306 119q-188 0 -309 -117q-120 -116 -120 -304v-39h205q-3 256 224 256q103 0 161.5 -59.5t58.5 -162.5q0 -115 -125 -202
q-209 -149 -229 -169q-122 -133 -121 -351v-12h205v10q-2 129 56 200q38 47 166 132q130 86 183 160q70 94 70 232z" />
    <glyph glyph-name="at" unicode="@" horiz-adv-x="1536" 
d="M568 247l33 -32l-33 34v-2zM719 220q5 2 11 3t11 2l-17 17zM379 527l89 342q-89 -133 -89 -314v-28zM1024 683q0 91 -21.5 167.5t-63.5 139.5q-25 13 -52.5 21t-57.5 13l41 -39l127 -487q13 43 20 88.5t7 96.5zM244 55q-27 22 -53 47.5t-49 54.5q-90 109 -133 239.5
t-43 286.5t43 286t133 239q192 234 500 234q307 0 496 -234q2 -2 3.5 -4.5t3.5 -3.5l68 -68l26.5 -27.5t23.5 -27.5q174 -213 174 -522q0 -310 -174 -523q-96 -115 -216.5 -172.5t-276.5 -57.5q-269 0 -451 179zM620 631l20 74l19 -74h-39zM713 1075h-148l-205 -785h176
l44 171h120l44 -171h176zM1067 683q0 -210 -106 -352q-118 -160 -319 -160q-202 0 -321 158q-108 145 -108 354q0 207 108 353q118 159 321 159q200 0 319 -161q106 -142 106 -351zM1271 683q0 295 -165 498q-176 218 -464 218q-289 0 -468 -218q-165 -203 -165 -498
q0 -297 165 -499q178 -216 468 -216q288 0 464 216q165 202 165 499z" />
    <glyph glyph-name="A" unicode="A" 
d="M558 1430l121 -121l394 -1507h-290l-123 123h-8l-56 217h-185l-85 -340h-288l-123 123h-12l394 1517h258zM299 512l128 481l128 -481h-256zM522 1399h-193l-372 -1431h212l87 339h341l87 -339h214z" />
    <glyph glyph-name="B" unicode="B" horiz-adv-x="1246" 
d="M657 990q0 9 -1 18.5l-2 18.5q-6 2 -12 2h-220v-201h92q33 0 59 12.5t45 34t29 51t10 64.5zM691 375q0 9 -1 19t-2 19q-6 2 -12 2h-254v-202h126q33 0 59 12.5t45 34t29 51t10 64.5zM949 1178q121 -130 121 -316q0 -180 -111 -292l24 -22l-3 2l15 -14q109 -109 109 -289
q0 -189 -119 -314q-119 -131 -309 -131h-534l-123 123h-10v1517h505q97 0 172 -32t138 -101q11 -11 19.5 -22l16.5 -22l82 -82l3 -3t4 -2zM734 375q0 -88 -51 -146q-49 -58 -135 -58h-292v409h292q85 0 135 -59q51 -59 51 -146zM700 990q0 -88 -51 -146q-50 -59 -135 -59
h-258v410h258q85 0 135 -59q51 -59 51 -146zM939 375q0 216 -169 318q135 106 135 297q0 171 -111 290q-110 119 -280 119h-463v-1431h497q171 0 281 119q110 116 110 288z" />
    <glyph glyph-name="C" unicode="C" horiz-adv-x="1493" 
d="M1295 471q-1 -1 -1 -4q0 -2 -2 -4l125 -123q-45 -135 -106.5 -233t-139.5 -165q-88 -69 -187 -104.5t-214 -35.5q-269 0 -451 179l-75 74q-27 22 -53 47.5t-49 54.5q-90 109 -133 239.5t-43 286.5t43 286t133 239q192 234 500 234q232 0 404 -145q23 -20 45 -42t42 -48
l75 -75q129 -131 209 -367l-277 -48l-123 123l-8 -2q-17 45 -35 82t-40 68q-74 41 -164 41q-94 0 -164.5 -35.5t-125.5 -107.5q-101 -137 -101 -331q0 -85 18 -156t54 -134q79 -52 191 -52q255 0 367 316zM1036 478q-111 -307 -394 -307q-202 0 -321 158q-108 145 -108 354
q0 207 108 353q118 159 321 159q283 0 394 -308l203 36q-72 215 -220 342q-161 134 -377 134q-289 0 -468 -218q-165 -203 -165 -498q0 -297 165 -499q178 -216 468 -216q216 0 377 131q147 124 220 340z" />
    <glyph glyph-name="D" unicode="D" horiz-adv-x="1289" 
d="M777 683q0 88 -22 166t-64 141q-37 19 -79 29t-90 10h-100v-816q162 10 257 144q48 66 73 147.5t25 178.5zM19 -75h-10v1517h385q308 0 497 -234q2 -2 2.5 -4t2.5 -4l70 -68l25.5 -27.5t23.5 -27.5q175 -217 175 -522q0 -306 -175 -523q-96 -115 -216.5 -172.5
t-276.5 -57.5h-380zM819 683q0 -210 -106 -352q-117 -160 -319 -160h-138v1024h138q202 0 319 -161q106 -142 106 -351zM1024 683q0 293 -166 498q-176 218 -464 218h-343v-1431h343q288 0 464 216q166 205 166 499z" />
    <glyph glyph-name="E" unicode="E" horiz-adv-x="1024" 
d="M737 201l121 -121l35 -278h-751l-123 123h-10v1517h761l-2 -10l125 -123l-35 -280h-436v-201h143l2 -12l121 -121l34 -280h-300v-202h314zM696 171h-440v409h295l-25 205h-270v410h440l26 204h-671v-1431h671z" />
    <glyph glyph-name="F" unicode="F" horiz-adv-x="981" 
d="M770 1442l-2 -10l125 -123l-35 -280h-436v-201h143l2 -12l121 -121l34 -280h-300v-613h-280l-123 123h-10v1517h761zM51 1399v-1431h205v612h295l-25 205h-270v410h440l26 204h-671z" />
    <glyph glyph-name="G" unicode="G" horiz-adv-x="1536" 
d="M379 555q0 -85 18 -156t54 -134q79 -52 191 -52q85 0 154 35t120 98h-220l-123 123h-10v290h533l-81 81l-8 -2q-32 89 -72 152q-37 19 -78.5 29t-86.5 10q-94 0 -164.5 -35.5t-125.5 -107.5q-101 -137 -101 -331zM247 53q-28 22 -53.5 48.5t-50.5 55.5q-177 216 -177 526
q0 309 177 525q190 234 499 234q232 0 404 -145q23 -20 45 -42t42 -48l68 -69l-2 2q-1 0 -3 2l12 -10q129 -131 209 -367l-139 -24l116 -115v-824h-280l-68 68q-60 -35 -129 -51.5t-147 -16.5q-270 0 -449 179zM1239 923q-72 215 -220 342q-161 134 -377 134
q-289 0 -466 -218q-167 -203 -167 -498q0 -296 167 -499q177 -216 466 -216q230 0 382 158v-158h205v749h-623v-205h418v-68q-49 -125 -150 -199t-232 -74q-202 0 -321 158q-108 145 -108 354q0 207 108 353q118 159 321 159q141 0 245 -87q99 -81 149 -221z" />
    <glyph glyph-name="H" unicode="H" horiz-adv-x="1161" 
d="M896 1432l123 -123v-1507h-280l-123 123h-10v490h-184v-613h-280l-123 123h-10v1517h290v-10l123 -123v-481h184v614h290v-10zM853 1399h-204v-614h-393v614h-205v-1431h205v612h393v-612h204v1431z" />
    <glyph glyph-name="I" unicode="I" horiz-adv-x="563" 
d="M299 1432l123 -123v-1507h-280l-123 123h-10v1517h290v-10zM256 1399h-205v-1431h205v1431z" />
    <glyph glyph-name="J" unicode="J" horiz-adv-x="1050" 
d="M785 1432l123 -123v-1096q0 -169 -118 -290q-115 -121 -287 -121q-85 0 -155.5 30.5t-130.5 90.5l-79 77q-14 11 -27 23l-26 25q-119 124 -119 293v248h290v-10l123 -123v-243q24 1 45.5 12t37 28.5t24.5 40t9 47.5v1101h290v-10zM742 1399h-204v-1058q0 -66 -47 -119
q-47 -51 -116 -51q-66 0 -114 52t-48 118v205h-204v-205q0 -150 108 -262q108 -111 258 -111q153 0 260 110t107 263v1058z" />
    <glyph glyph-name="K" unicode="K" horiz-adv-x="1118" 
d="M966 1434l125 -125l-565 -754l565 -753h-350l-123 123h-7l-189 261v-384h-280l-123 123h-10v1517h290v-10l123 -123v-128l187 261h364zM350 683l537 716h-256l-375 -520v520h-205v-1431h205v518l375 -518h256z" />
    <glyph glyph-name="L" unicode="L" horiz-adv-x="981" 
d="M737 201l121 -121l35 -278h-751l-123 123h-10v1517h290v-10l123 -123v-1096h314zM696 171h-440v1228h-205v-1431h671z" />
    <glyph glyph-name="M" unicode="M" horiz-adv-x="1343" 
d="M1096 1430l123 -121l71 -1507h-302l-123 123h-10l-5 97l-51 -220h-255l-122 123h-11l-44 183l-12 -306h-300l-123 123h-11l70 1517h345l4 -14l119 -119l130 -536l162 669h345v-12zM1055 1399h-270l-241 -991l-242 991h-270l-66 -1431h225l38 909l216 -909h197l216 909
l38 -909h227z" />
    <glyph glyph-name="N" unicode="N" horiz-adv-x="1161" 
d="M896 1432l123 -123v-1507h-254l-123 123h-9l-211 485v-608h-280l-123 123h-10v1517h262l7 -15l118 -118l210 -481v614h290v-10zM853 1399h-204v-928l-405 928h-193v-1431h205v926l404 -926h193v1431z" />
    <glyph glyph-name="O" unicode="O" horiz-adv-x="1536" 
d="M1024 683q0 88 -21.5 166t-63.5 141q-38 19 -79.5 29t-89.5 10q-94 0 -164.5 -35.5t-125.5 -107.5q-101 -137 -101 -331q0 -169 73 -290q79 -52 190 -52q181 0 285 144q97 133 97 326zM244 55q-27 22 -53 47.5t-49 54.5q-90 109 -133 239.5t-43 286.5t43 286t133 239
q192 234 500 234q307 0 496 -234q2 -2 3.5 -4.5t3.5 -3.5l68 -68l26.5 -27.5t23.5 -27.5q174 -213 174 -522q0 -310 -174 -523q-96 -115 -216.5 -172.5t-276.5 -57.5q-269 0 -451 179zM1067 683q0 -210 -106 -352q-118 -160 -319 -160q-202 0 -321 158q-108 144 -108 354
t108 353q118 159 321 159q200 0 319 -161q106 -142 106 -351zM1271 683q0 295 -165 498q-176 218 -464 218q-289 0 -468 -218q-165 -203 -165 -498q0 -297 165 -499q178 -216 468 -216q288 0 464 216q165 202 165 499z" />
    <glyph glyph-name="P" unicode="P" horiz-adv-x="1203" 
d="M770 993q0 2 -2 2zM691 990q0 9 -1 18.5l-2 18.5q-6 2 -12 2h-254v-201h126q33 0 59 12.5t45 34t29 51t10 64.5zM983 1178q121 -130 121 -316q0 -189 -119 -314q-120 -133 -309 -133h-254v-613h-280l-123 123h-10v1517h539q190 0 310 -133q11 -11 19.5 -22l16.5 -22
l82 -82q3 -3 7 -5zM734 990q0 -88 -51 -146q-50 -59 -135 -59h-292v410h292q85 0 135 -59q51 -59 51 -146zM939 990q0 171 -110 290t-281 119h-497v-1431h205v612h292q172 0 281 121q110 116 110 289z" />
    <glyph glyph-name="Q" unicode="Q" horiz-adv-x="1536" 
d="M1024 683q0 88 -21.5 166t-63.5 141q-38 19 -79.5 29t-89.5 10q-94 0 -164.5 -35.5t-125.5 -107.5q-101 -137 -101 -331q0 -85 17 -157t55 -132q80 -53 191 -53h18l-240 241l208 203l299 -299q97 135 97 325zM244 55q-27 22 -53 47.5t-49 54.5q-90 109 -133 239.5
t-43 286.5t43 286t133 239q192 234 500 234q307 0 496 -234q2 -2 3.5 -4.5t3.5 -3.5l68 -68l26.5 -27.5t23.5 -27.5q174 -213 174 -522q0 -313 -177 -529l100 -98l-3 -3l124 -125l-199 -199l-125 124l-3 -3l-132 130q-123 -50 -252 -50q-269 0 -451 179zM1067 683
q0 -237 -137 -389l-304 303l-145 -143l270 -270q-49 -13 -109 -13q-202 0 -321 158q-108 144 -108 354q0 207 108 353q118 159 321 159q200 0 319 -161q106 -142 106 -351zM1075 148q196 211 196 535q0 295 -165 498q-176 218 -464 218q-289 0 -468 -218
q-165 -203 -165 -498q0 -297 165 -499q178 -216 468 -216q143 0 268 58l244 -243l145 145z" />
    <glyph glyph-name="R" unicode="R" horiz-adv-x="1203" 
d="M691 990q0 9 -1 18.5l-2 18.5q-6 2 -12 2h-254v-201h126q33 0 59 12.5t45 34t29 51t10 64.5zM19 -75h-10v1517h539q190 0 310 -133q8 -11 16.5 -20t14.5 -19l75 -74q-1 0 -3 1t-2 3l9 -9q-2 0 -2 4l17 -17q60 -67 90.5 -144.5t30.5 -171.5q0 -189 -119 -314
q-120 -133 -309 -133h-5l515 -613h-353l-123 123h-7l-281 333v-456h-280zM734 990q0 -88 -51 -146q-50 -59 -135 -59h-292v410h292q85 0 135 -59q51 -59 51 -146zM463 580h85q172 0 281 121q110 116 110 289q0 171 -110 290t-281 119h-497v-1431h205v553l466 -553h256z" />
    <glyph glyph-name="S" unicode="S" horiz-adv-x="1215" 
d="M952 522q2 0 2 -1zM200 5q-18 14 -35.5 29.5t-33.5 33.5q-122 136 -122 350v51h290v-10l123 -123v-42q0 -22 1 -40.5t5 -35.5q12 -2 25 -3.5t27 -1.5q85 0 131 47.5t46 132.5q-4 1 -6.5 1.5t-5.5 3.5q-291 121 -319 138l3 -2q-24 16 -45.5 32.5t-39.5 34.5l-80 80
q-152 110 -152 292q0 208 130 338q131 131 338 131q218 0 348 -145q8 -9 15 -19t15 -18l87 -89q3 -3 7 -5q121 -133 121 -347v-46h-279l-123 123h-11v48q0 23 -2 42.5t-6 37.5q-25 5 -44 5q-85 0 -133 -47t-50 -132q7 -4 17 -7q156 -64 237.5 -100.5t86.5 -39.5
q42 -27 74 -57.5t54 -65.5l58 -58l2 -1l14 -12q51 -51 76.5 -111t25.5 -133q0 -208 -131 -333l1 -2q-128 -128 -332 -128q-203 0 -328 125l-5 5q-3 2 -6.5 5t-5.5 7zM908 939q2 203 -111 329q-119 131 -317 131q-188 0 -307 -119q-118 -118 -118 -307q0 -176 167 -278
q12 -11 310 -135q168 -71 168 -167q0 -106 -57 -164t-163 -58q-227 0 -224 256h-205q-2 -203 111 -330q118 -129 318 -129q187 0 306 117q119 119 119 308q0 174 -168 278q-5 4 -82.5 37l-227.5 96q-168 70 -168 169q0 106 57.5 164t163.5 58q227 0 223 -256h205z" />
    <glyph glyph-name="T" unicode="T" horiz-adv-x="1161" 
d="M949 1442l-2 -10l125 -123l-34 -280h-318v-1227h-280l-123 123h-10v1104h-218l-123 123h-10l34 290h959zM29 1399l-26 -204h347v-1227h205v1227h321l25 204h-872z" />
    <glyph glyph-name="U" unicode="U" horiz-adv-x="1280" 
d="M1015 1432l123 -123v-1010q0 -208 -145 -352q-145 -145 -351 -145q-209 0 -354 145l-78 77q-14 11 -27 23l-26 25q-75 75 -111.5 162t-36.5 193v1015h290v-10l123 -123v-1010q0 -40 10 -70q33 -16 82 -16q85 0 157 72v-2q27 31 40.5 65t13.5 79v1015h290v-10zM973 1399
h-205v-972q0 -104 -75 -180t-179 -76q-105 0 -181 76q-77 77 -77 180v972h-205v-972q0 -190 136 -325q137 -134 327 -134q187 0 324 134q135 135 135 325v972z" />
    <glyph glyph-name="V" unicode="V" 
d="M952 1442l-3 -10l124 -123l-394 -1507h-251l-123 123h-8l-394 1517h298l2 -12l123 -121l145 -580l181 713h300zM684 1399l-257 -1020l-258 1020h-212l372 -1431h193l376 1431h-214z" />
    <glyph glyph-name="W" unicode="W" horiz-adv-x="1343" 
d="M1179 1442l-1 -10l122 -123l-259 -1507h-336l-60 60l-7 -60h-336l-123 123h-10l-259 1517h298l2 -14l121 -119l34 -193l38 326h281l2 -12l121 -121l19 -169l53 302h300zM916 1399l-163 -925l-108 925h-203l-107 -925l-164 925h-210l246 -1431h269l68 636l67 -636h270
l247 1431h-212z" />
    <glyph glyph-name="X" unicode="X" 
d="M925 1432l125 -123l-340 -754l340 -753h-311l-123 123h-8l-94 217l-144 -340h-309l-122 123h-14l341 758l-341 759h322l6 -15l119 -118l87 -213l147 346h324zM541 683l323 716h-229l-208 -493l-209 493h-227l321 -716l-321 -715h227l209 491l208 -491h229z" />
    <glyph glyph-name="Y" unicode="Y" horiz-adv-x="1024" 
d="M882 1442l-5 -10l125 -123l-350 -852v-655h-280l-123 123h-10v659l-352 858h321l5 -14l120 -119l87 -234l140 367h322zM591 1399l-207 -544l-207 544h-226l331 -808v-623h204v623l333 808h-228z" />
    <glyph glyph-name="Z" unicode="Z" 
d="M930 1442l-5 -10l125 -123l-495 -1096h274l2 -12l121 -121l34 -278h-925l-122 123h-14l495 1104h-297l-123 123h-10l34 290h906zM63 1399l-25 -204h505l-552 -1227h825l-26 203h-479l553 1228h-801z" />
    <glyph glyph-name="bracketleft" unicode="[" horiz-adv-x="768" 
d="M503 32l123 -122v-279h-484l-123 123h-10v1859h494v-10l123 -123v-280h-204v-1157h81v-11zM461 0h-205v1365h205v205h-410v-1773h410v203z" />
    <glyph glyph-name="backslash" unicode="\" horiz-adv-x="915" 
d="M230 1604l122 -121l481 -1785l-270 -70l-123 123l-8 -2l-485 1796l280 73zM198 1565l-198 -51l461 -1712l198 51z" />
    <glyph glyph-name="bracketright" unicode="]" horiz-adv-x="768" 
d="M503 1603l123 -123v-1849h-484l-123 123h-10v289h204v1157h-71l-123 123h-10v290h494v-10zM461 1570h-410v-205h205v-1365h-205v-203h410v1773z" />
    <glyph glyph-name="asciicircum" unicode="^" horiz-adv-x="1058" 
d="M536 1428l121 -119l288 -826h-307l-123 123h-8l-24 77l-63 -200h-307l-123 123h-12l292 836h262zM502 1399h-202l-262 -750h227l136 435l137 -435h227z" />
    <glyph glyph-name="underscore" unicode="_" horiz-adv-x="939" 
d="M759 169l123 -123v-244h-824l-123 123h-10v254h834v-10zM717 137h-749v-169h749v169z" />
    <glyph glyph-name="grave" unicode="`" horiz-adv-x="700" 
d="M314 1821l121 -119l152 -451h-246l-123 123h-8l-254 461h355zM280 1792h-253l209 -375h170z" />
    <glyph glyph-name="a" unicode="a" 
d="M558 1430l121 -121l394 -1507h-290l-123 123h-8l-56 217h-185l-85 -340h-288l-123 123h-12l394 1517h258zM299 512l128 481l128 -481h-256zM522 1399h-193l-372 -1431h212l87 339h341l87 -339h214z" />
    <glyph glyph-name="b" unicode="b" horiz-adv-x="1246" 
d="M657 990q0 9 -1 18.5l-2 18.5q-6 2 -12 2h-220v-201h92q33 0 59 12.5t45 34t29 51t10 64.5zM691 375q0 9 -1 19t-2 19q-6 2 -12 2h-254v-202h126q33 0 59 12.5t45 34t29 51t10 64.5zM949 1178q121 -130 121 -316q0 -180 -111 -292l24 -22l-3 2l15 -14q109 -109 109 -289
q0 -189 -119 -314q-119 -131 -309 -131h-534l-123 123h-10v1517h505q97 0 172 -32t138 -101q11 -11 19.5 -22l16.5 -22l82 -82l3 -3t4 -2zM734 375q0 -88 -51 -146q-49 -58 -135 -58h-292v409h292q85 0 135 -59q51 -59 51 -146zM700 990q0 -88 -51 -146q-50 -59 -135 -59
h-258v410h258q85 0 135 -59q51 -59 51 -146zM939 375q0 216 -169 318q135 106 135 297q0 171 -111 290q-110 119 -280 119h-463v-1431h497q171 0 281 119q110 116 110 288z" />
    <glyph glyph-name="c" unicode="c" horiz-adv-x="1493" 
d="M1295 471q-1 -1 -1 -4q0 -2 -2 -4l125 -123q-45 -135 -106.5 -233t-139.5 -165q-88 -69 -187 -104.5t-214 -35.5q-269 0 -451 179l-75 74q-27 22 -53 47.5t-49 54.5q-90 109 -133 239.5t-43 286.5q0 309 177 525q190 234 499 234q232 0 404 -145q23 -20 45 -42t42 -48
l75 -75q129 -131 209 -367l-277 -48l-123 123l-8 -2q-17 45 -35 82t-40 68q-74 41 -164 41q-94 0 -164.5 -35.5t-125.5 -107.5q-101 -137 -101 -331q0 -85 18 -156t54 -134q79 -52 191 -52q255 0 367 316zM1036 478q-111 -307 -394 -307q-202 0 -321 158q-108 145 -108 354
q0 207 108 353q118 159 321 159q283 0 394 -308l203 36q-72 215 -220 342q-161 134 -377 134q-289 0 -466 -218q-167 -203 -167 -498q0 -297 165 -499q178 -216 468 -216q216 0 377 131q147 124 220 340z" />
    <glyph glyph-name="d" unicode="d" horiz-adv-x="1289" 
d="M777 683q0 88 -22 166t-64 141q-37 19 -79 29t-90 10h-100v-816q162 10 257 144q48 66 73 147.5t25 178.5zM19 -75h-10v1517h385q308 0 497 -234q2 -2 2.5 -4t2.5 -4l70 -68l25.5 -27.5t23.5 -27.5q175 -217 175 -522q0 -306 -175 -523q-96 -115 -216.5 -172.5
t-276.5 -57.5h-380zM819 683q0 -210 -106 -352q-117 -160 -319 -160h-138v1024h138q202 0 319 -161q106 -142 106 -351zM1024 683q0 293 -166 498q-176 218 -464 218h-343v-1431h343q288 0 464 216q166 205 166 499z" />
    <glyph glyph-name="e" unicode="e" horiz-adv-x="1024" 
d="M737 201l121 -121l35 -278h-751l-123 123h-10v1517h761l-2 -10l125 -123l-35 -280h-436v-201h143l2 -12l121 -121l34 -280h-300v-202h314zM696 171h-440v409h295l-25 205h-270v410h440l26 204h-671v-1431h671z" />
    <glyph glyph-name="f" unicode="f" horiz-adv-x="981" 
d="M770 1442l-2 -10l125 -123l-35 -280h-436v-201h143l2 -12l121 -121l34 -280h-300v-613h-280l-123 123h-10v1517h761zM51 1399v-1431h205v612h295l-25 205h-270v410h440l26 204h-671z" />
    <glyph glyph-name="g" unicode="g" horiz-adv-x="1536" 
d="M379 555q0 -85 18 -156t54 -134q79 -52 191 -52q85 0 154 35t120 98h-220l-123 123h-10v290h533l-81 81l-8 -2q-32 89 -72 152q-37 19 -78.5 29t-86.5 10q-94 0 -164.5 -35.5t-125.5 -107.5q-101 -137 -101 -331zM247 53q-28 22 -53.5 48.5t-50.5 55.5q-177 216 -177 526
q0 309 177 525q190 234 499 234q232 0 404 -145q23 -20 45 -42t42 -48l68 -69l-2 2q-1 0 -3 2l12 -10q129 -131 209 -367l-139 -24l116 -115v-824h-280l-68 68q-60 -35 -129 -51.5t-147 -16.5q-270 0 -449 179zM1239 923q-72 215 -220 342q-161 134 -377 134
q-289 0 -466 -218q-167 -203 -167 -498q0 -296 167 -499q177 -216 466 -216q230 0 382 158v-158h205v749h-623v-205h418v-68q-49 -125 -150 -199t-232 -74q-202 0 -321 158q-108 145 -108 354q0 207 108 353q118 159 321 159q141 0 245 -87q99 -81 149 -221z" />
    <glyph glyph-name="h" unicode="h" horiz-adv-x="1161" 
d="M896 1432l123 -123v-1507h-280l-123 123h-10v490h-184v-613h-280l-123 123h-10v1517h290v-10l123 -123v-481h184v614h290v-10zM853 1399h-204v-614h-393v614h-205v-1431h205v612h393v-612h204v1431z" />
    <glyph glyph-name="i" unicode="i" horiz-adv-x="563" 
d="M299 1432l123 -123v-1507h-280l-123 123h-10v1517h290v-10zM256 1399h-205v-1431h205v1431z" />
    <glyph glyph-name="j" unicode="j" horiz-adv-x="1050" 
d="M785 1432l123 -123v-1096q0 -169 -118 -290q-115 -121 -287 -121q-85 0 -155.5 30.5t-130.5 90.5l-79 77q-14 11 -27 23l-26 25q-119 124 -119 293v248h290v-10l123 -123v-243q24 1 45.5 12t37 28.5t24.5 40t9 47.5v1101h290v-10zM742 1399h-204v-1058q0 -66 -47 -119
q-47 -51 -116 -51q-66 0 -114 52t-48 118v205h-204v-205q0 -150 108 -262q108 -111 258 -111q153 0 260 110t107 263v1058z" />
    <glyph glyph-name="k" unicode="k" horiz-adv-x="1118" 
d="M966 1434l125 -125l-565 -754l565 -753h-350l-123 123h-7l-189 261v-384h-280l-123 123h-10v1517h290v-10l123 -123v-128l187 261h364zM350 683l537 716h-256l-375 -520v520h-205v-1431h205v518l375 -518h256z" />
    <glyph glyph-name="l" unicode="l" horiz-adv-x="981" 
d="M737 201l121 -121l35 -278h-751l-123 123h-10v1517h290v-10l123 -123v-1096h314zM696 171h-440v1228h-205v-1431h671z" />
    <glyph glyph-name="m" unicode="m" horiz-adv-x="1343" 
d="M1096 1430l123 -121l71 -1507h-302l-123 123h-10l-5 97l-51 -220h-255l-122 123h-11l-44 183l-12 -306h-300l-123 123h-11l70 1517h345l4 -14l119 -119l130 -536l162 669h345v-12zM1055 1399h-270l-241 -991l-242 991h-270l-66 -1431h225l38 909l216 -909h197l216 909
l38 -909h227z" />
    <glyph glyph-name="n" unicode="n" horiz-adv-x="1161" 
d="M896 1432l123 -123v-1507h-254l-123 123h-9l-211 485v-608h-280l-123 123h-10v1517h262l7 -15l118 -118l210 -481v614h290v-10zM853 1399h-204v-928l-405 928h-193v-1431h205v926l404 -926h193v1431z" />
    <glyph glyph-name="o" unicode="o" horiz-adv-x="1536" 
d="M1024 683q0 88 -21.5 166t-63.5 141q-38 19 -79.5 29t-89.5 10q-94 0 -164.5 -35.5t-125.5 -107.5q-101 -137 -101 -331q0 -169 73 -290q79 -52 190 -52q181 0 285 144q97 133 97 326zM244 55q-27 22 -53 47.5t-49 54.5q-90 109 -133 239.5t-43 286.5t43 286t133 239
q192 234 500 234q307 0 496 -234q2 -2 3.5 -4.5t3.5 -3.5l68 -68l26.5 -27.5t23.5 -27.5q174 -213 174 -522q0 -310 -174 -523q-96 -115 -216.5 -172.5t-276.5 -57.5q-269 0 -451 179zM1067 683q0 -210 -106 -352q-118 -160 -319 -160q-202 0 -321 158q-108 144 -108 354
t108 353q118 159 321 159q200 0 319 -161q106 -142 106 -351zM1271 683q0 295 -165 498q-176 218 -464 218q-289 0 -468 -218q-165 -203 -165 -498q0 -297 165 -499q178 -216 468 -216q288 0 464 216q165 202 165 499z" />
    <glyph glyph-name="p" unicode="p" horiz-adv-x="1203" 
d="M770 993q0 2 -2 2zM691 990q0 9 -1 18.5l-2 18.5q-6 2 -12 2h-254v-201h126q33 0 59 12.5t45 34t29 51t10 64.5zM983 1178q121 -130 121 -316q0 -189 -119 -314q-120 -133 -309 -133h-254v-613h-280l-123 123h-10v1517h539q190 0 310 -133q11 -11 19.5 -22l16.5 -22
l82 -82q3 -3 7 -5zM734 990q0 -88 -51 -146q-50 -59 -135 -59h-292v410h292q85 0 135 -59q51 -59 51 -146zM939 990q0 171 -110 290t-281 119h-497v-1431h205v612h292q172 0 281 121q110 116 110 289z" />
    <glyph glyph-name="q" unicode="q" horiz-adv-x="1536" 
d="M1024 683q0 88 -21.5 166t-63.5 141q-38 19 -79.5 29t-89.5 10q-94 0 -164.5 -35.5t-125.5 -107.5q-101 -137 -101 -331q0 -85 17 -157t55 -132q80 -53 191 -53h18l-240 241l208 203l299 -299q97 135 97 325zM244 55q-27 22 -53 47.5t-49 54.5q-90 109 -133 239.5
t-43 286.5t43 286t133 239q192 234 500 234q307 0 496 -234q2 -2 3.5 -4.5t3.5 -3.5l68 -68l26.5 -27.5t23.5 -27.5q174 -213 174 -522q0 -313 -177 -529l100 -98l-3 -3l124 -125l-199 -199l-125 124l-3 -3l-132 130q-123 -50 -252 -50q-269 0 -451 179zM1067 683
q0 -237 -137 -389l-304 303l-145 -143l270 -270q-49 -13 -109 -13q-202 0 -321 158q-108 144 -108 354q0 207 108 353q118 159 321 159q200 0 319 -161q106 -142 106 -351zM1075 148q196 211 196 535q0 295 -165 498q-176 218 -464 218q-289 0 -468 -218
q-165 -203 -165 -498q0 -297 165 -499q178 -216 468 -216q143 0 268 58l244 -243l145 145z" />
    <glyph glyph-name="r" unicode="r" horiz-adv-x="1203" 
d="M691 990q0 9 -1 18.5l-2 18.5q-6 2 -12 2h-254v-201h126q33 0 59 12.5t45 34t29 51t10 64.5zM983 1178q121 -130 121 -316q0 -189 -119 -314q-120 -133 -309 -133h-5l515 -613h-353l-123 123h-7l-281 333v-456h-280l-123 123h-10v1517h539q190 0 310 -133
q11 -11 19.5 -22l16.5 -22l82 -82q3 -3 7 -5zM734 990q0 -88 -51 -146q-50 -59 -135 -59h-292v410h292q85 0 135 -59q51 -59 51 -146zM463 580h85q172 0 281 121q110 116 110 289q0 171 -110 290t-281 119h-497v-1431h205v553l466 -553h256z" />
    <glyph glyph-name="s" unicode="s" horiz-adv-x="1215" 
d="M952 522q2 0 2 -1zM200 5q-18 14 -35.5 29.5t-33.5 33.5q-122 136 -122 350v51h290v-10l123 -123v-42q0 -22 1 -40.5t5 -35.5q12 -2 25 -3.5t27 -1.5q85 0 131 47.5t46 132.5q-4 1 -6.5 1.5t-5.5 3.5q-291 121 -319 138l3 -2q-24 16 -45.5 32.5t-39.5 34.5l-80 80
q-152 110 -152 292q0 208 130 338q131 131 338 131q218 0 348 -145q8 -9 15 -19t15 -18l87 -89q3 -3 7 -5q121 -133 121 -347v-46h-279l-123 123h-11v48q0 23 -2 42.5t-6 37.5q-25 5 -44 5q-85 0 -133 -47t-50 -132q7 -4 17 -7q156 -64 237.5 -100.5t86.5 -39.5
q42 -27 74 -57.5t54 -65.5l58 -58l2 -1l14 -12q51 -51 76.5 -111t25.5 -133q0 -208 -131 -333l1 -2q-128 -128 -332 -128q-203 0 -328 125l-5 5q-3 2 -6.5 5t-5.5 7zM908 939q2 203 -111 329q-119 131 -317 131q-188 0 -307 -119q-118 -118 -118 -307q0 -176 167 -278
q12 -11 310 -135q168 -71 168 -167q0 -106 -57 -164t-163 -58q-227 0 -224 256h-205q-2 -203 111 -330q118 -129 318 -129q187 0 306 117q119 119 119 308q0 174 -168 278q-5 4 -82.5 37l-227.5 96q-168 70 -168 169q0 106 57.5 164t163.5 58q227 0 223 -256h205z" />
    <glyph glyph-name="t" unicode="t" horiz-adv-x="1161" 
d="M949 1442l-2 -10l125 -123l-34 -280h-318v-1227h-280l-123 123h-10v1104h-218l-123 123h-10l34 290h959zM29 1399l-26 -204h347v-1227h205v1227h321l25 204h-872z" />
    <glyph glyph-name="u" unicode="u" horiz-adv-x="1280" 
d="M1015 1432l123 -123v-1010q0 -208 -145 -352q-145 -145 -351 -145q-209 0 -354 145l-78 77q-14 11 -27 23l-26 25q-75 75 -111.5 162t-36.5 193v1015h290v-10l123 -123v-1010q0 -40 10 -70q33 -16 82 -16q85 0 157 72v-2q27 31 40.5 65t13.5 79v1015h290v-10zM973 1399
h-205v-972q0 -104 -75 -180t-179 -76q-105 0 -181 76q-77 77 -77 180v972h-205v-972q0 -190 136 -325q137 -134 327 -134q187 0 324 134q135 135 135 325v972z" />
    <glyph glyph-name="v" unicode="v" 
d="M952 1442l-3 -10l124 -123l-394 -1507h-251l-123 123h-8l-394 1517h298l2 -12l123 -121l145 -580l181 713h300zM684 1399l-257 -1020l-258 1020h-212l372 -1431h193l376 1431h-214z" />
    <glyph glyph-name="w" unicode="w" horiz-adv-x="1343" 
d="M1179 1442l-1 -10l122 -123l-259 -1507h-336l-60 60l-7 -60h-336l-123 123h-10l-259 1517h298l2 -14l121 -119l34 -193l38 326h281l2 -12l121 -121l19 -169l53 302h300zM916 1399l-163 -925l-108 925h-203l-107 -925l-164 925h-210l246 -1431h269l68 636l67 -636h270
l247 1431h-212z" />
    <glyph glyph-name="x" unicode="x" 
d="M925 1432l125 -123l-340 -754l340 -753h-311l-123 123h-8l-94 217l-144 -340h-309l-122 123h-14l341 758l-341 759h322l6 -15l119 -118l87 -213l147 346h324zM541 683l323 716h-229l-208 -493l-209 493h-227l321 -716l-321 -715h227l209 491l208 -491h229z" />
    <glyph glyph-name="y" unicode="y" horiz-adv-x="1024" 
d="M882 1442l-5 -10l125 -123l-350 -852v-655h-280l-123 123h-10v659l-352 858h321l5 -14l120 -119l87 -234l140 367h322zM591 1399l-207 -544l-207 544h-226l331 -808v-623h204v623l333 808h-228z" />
    <glyph glyph-name="z" unicode="z" 
d="M930 1442l-5 -10l125 -123l-495 -1096h274l2 -12l121 -121l34 -278h-925l-122 123h-14l495 1104h-297l-123 123h-10l34 290h906zM63 1399l-25 -204h505l-552 -1227h825l-26 203h-479l553 1228h-801z" />
    <glyph glyph-name="braceleft" unicode="{" horiz-adv-x="973" 
d="M222 546h2l-2 2v-2zM495 1333q-2 0 -2 -1v-1h2v2zM493 34q0 -2 2 -2v2h-2zM708 32l123 -122v-279h-276q-45 0 -82 16.5t-65 45.5l-92 92q-48 29 -75.5 77t-27.5 106v447h-71l-123 123h-10v290h204v571q0 44 17 83t46 68t68 46t83 17h281v-10l123 -123v-280h-205v-509
q0 -42 -9 -75.5t-26 -60.5q35 -56 35 -137v-375h82v-11zM666 0h-171q-34 0 -34 34v512q0 87 -48 137q48 49 48 136v512q0 34 34 34h171v205h-239q-70 0 -121 -51q-50 -50 -50 -120v-580q0 -34 -34 -34h-171v-205h171q34 0 34 -34v-578q0 -70 50 -120q51 -51 121 -51h239v203
z" />
    <glyph glyph-name="bar" unicode="|" horiz-adv-x="563" 
d="M299 1603l123 -123v-1849h-280l-123 123h-10v1859h290v-10zM256 1570h-205v-1773h205v1773z" />
    <glyph glyph-name="braceright" unicode="}" horiz-adv-x="973" 
d="M222 1331h2l-2 2v-2zM495 548q-2 0 -2 -1v-1h2v2zM493 819q0 -2 2 -2v2h-2zM708 817l123 -122v-280h-205v-575q0 -43 -16.5 -81t-45 -66.5t-66 -45t-80.5 -16.5h-276l-123 123h-10v289h204v503q0 77 36 137q-36 55 -36 136v381h-71l-123 123h-10v290h281q58 0 106 -27.5
t77 -75.5l92 -92q28 -28 44.5 -66t16.5 -81v-443h82v-11zM666 785h-171q-34 0 -34 34v580q0 70 -51 120q-50 51 -120 51h-239v-205h171q34 0 34 -34v-512q0 -87 48 -136q-48 -50 -48 -137v-512q0 -34 -34 -34h-171v-203h239q70 0 120 51q51 49 51 120v578q0 34 34 34h171
v205z" />
    <glyph glyph-name="asciitilde" unicode="~" horiz-adv-x="1041" 
d="M777 1454l122 -123v-379q-149 -162 -276 -162q-73 0 -143 70l-19 17q-33 33 -43 33q-61 0 -276 -227l-125 124q-2 -2 -4.5 -4t-3.5 -4v392q153 166 281 166q75 0 147 -72q48 -48 58 -48q63 0 282 234v-17zM734 1365q-161 -170 -239 -170q-27 0 -89 59q-60 60 -116 60
q-107 0 -239 -140v-269q161 170 239 170q29 0 89 -60q62 -59 116 -59q107 0 239 140v269z" />
    <glyph glyph-name="Adieresis" unicode="&#xc4;" 
d="M558 1430l121 -121l394 -1507h-290l-123 123h-8l-56 217h-185l-85 -340h-288l-123 123h-12l394 1517h258zM299 512l128 481l128 -481h-256zM522 1399h-193l-372 -1431h212l87 339h341l87 -339h214zM709 1654l123 -123v-280h-553l-123 123h-10v290h563v-10zM393 1621h-205
v-204h205v204zM666 1621h-205v-204h205v204z" />
    <glyph glyph-name="Aring" unicode="&#xc5;" 
d="M558 1430l121 -121l394 -1507h-290l-123 123h-8l-56 217h-185l-85 -340h-288l-123 123h-12l394 1517h258zM299 512l128 481l128 -481h-256zM522 1399h-193l-372 -1431h212l87 339h341l87 -339h214zM287 1415q-9 6 -18 14t-18 17q-35 37 -53 79t-18 96q0 103 71 174
q38 38 80 56t96 18q101 0 172 -74q12 -11 21.5 -22.5t18.5 -24.5l90 -89q33 -33 50.5 -74t17.5 -92t-18 -93.5t-53 -78.5q-70 -70 -171 -70t-172 70zM478 1621q0 -51 -51 -51t-51 51q0 52 51 52t51 -52zM632 1621q0 84 -61 144q-60 61 -144 61t-145 -61q-60 -60 -60 -144
q0 -83 60 -144q61 -60 145 -60t144 60q61 61 61 144z" />
    <glyph glyph-name="Eacute" unicode="&#xc9;" horiz-adv-x="1024" 
d="M737 201l121 -121l35 -278h-751l-123 123h-10v1517h761l-2 -10l125 -123l-35 -280h-436v-201h143l2 -12l121 -121l34 -280h-300v-202h314zM696 171h-440v409h295l-25 205h-270v410h440l26 204h-671v-1431h671zM650 1835l-5 -9l125 -124l-250 -451h-245l-123 123h-12
l155 461h355zM326 1792l-126 -375h170l208 375h-252z" />
    <glyph glyph-name="Ntilde" unicode="&#xd1;" horiz-adv-x="1161" 
d="M896 1432l123 -123v-1507h-254l-123 123h-9l-211 485v-608h-280l-123 123h-10v1517h262l7 -15l118 -118l210 -481v614h290v-10zM853 1399h-204v-928l-405 928h-193v-1431h205v926l404 -926h193v1431zM785 1871l123 -123v-350q-131 -147 -242 -147q-31 0 -61 13.5
t-59 42.5l-37 38q-11 8 -14 8q-45 0 -242 -215l-125 125q-2 -2 -4.5 -4t-3.5 -5v362q139 150 247 150q31 0 61.5 -13.5t59.5 -42.5v2q48 -48 50 -48q42 0 247 225v-18zM742 1778q-141 -157 -204 -157q-21 0 -72 51q-49 52 -99 52q-93 0 -205 -123v-239q144 157 205 157
q21 0 71 -51q49 -51 100 -51q94 0 204 122v239z" />
    <glyph glyph-name="Odieresis" unicode="&#xd6;" horiz-adv-x="1536" 
d="M1024 683q0 88 -21.5 166t-63.5 141q-38 19 -79.5 29t-89.5 10q-94 0 -164.5 -35.5t-125.5 -107.5q-101 -137 -101 -331q0 -169 73 -290q79 -52 190 -52q181 0 285 144q97 133 97 326zM244 55q-27 22 -53 47.5t-49 54.5q-90 109 -133 239.5t-43 286.5t43 286t133 239
q192 234 500 234q307 0 496 -234q2 -2 3.5 -4.5t3.5 -3.5l68 -68l26.5 -27.5t23.5 -27.5q174 -213 174 -522q0 -310 -174 -523q-96 -115 -216.5 -172.5t-276.5 -57.5q-269 0 -451 179zM1067 683q0 -210 -106 -352q-118 -160 -319 -160q-202 0 -321 158q-108 144 -108 354
t108 353q118 159 321 159q200 0 319 -161q106 -142 106 -351zM1271 683q0 295 -165 498q-176 218 -464 218q-289 0 -468 -218q-165 -203 -165 -498q0 -297 165 -499q178 -216 468 -216q288 0 464 216q165 202 165 499zM922 1654l123 -123v-280h-553l-123 123h-10v290h563
v-10zM606 1621h-205v-204h205v204zM879 1621h-205v-204h205v204z" />
    <glyph glyph-name="Udieresis" unicode="&#xdc;" horiz-adv-x="1280" 
d="M1015 1432l123 -123v-1010q0 -208 -145 -352q-145 -145 -351 -145q-209 0 -354 145l-78 77q-14 11 -27 23l-26 25q-75 75 -111.5 162t-36.5 193v1015h290v-10l123 -123v-1010q0 -40 10 -70q33 -16 82 -16q85 0 157 72v-2q27 31 40.5 65t13.5 79v1015h290v-10zM973 1399
h-205v-972q0 -104 -75 -180t-179 -76q-105 0 -181 76q-77 77 -77 180v972h-205v-972q0 -190 136 -325q137 -134 327 -134q187 0 324 134q135 135 135 325v972zM794 1654l123 -123v-280h-553l-123 123h-10v290h563v-10zM478 1621h-205v-204h205v204zM751 1621h-205v-204h205
v204z" />
    <glyph glyph-name="aacute" unicode="&#xe1;" 
d="M558 1430l121 -121l394 -1507h-290l-123 123h-8l-56 217h-185l-85 -340h-288l-123 123h-12l394 1517h258zM299 512l128 481l128 -481h-256zM522 1399h-193l-372 -1431h212l87 339h341l87 -339h214zM693 1835l-5 -9l125 -124l-250 -451h-245l-123 123h-12l155 461h355z
M369 1792l-126 -375h170l208 375h-252z" />
    <glyph glyph-name="agrave" unicode="&#xe0;" 
d="M558 1430l121 -121l394 -1507h-290l-123 123h-8l-56 217h-185l-85 -340h-288l-123 123h-12l394 1517h258zM299 512l128 481l128 -481h-256zM522 1399h-193l-372 -1431h212l87 339h341l87 -339h214zM519 1821l121 -119l152 -451h-246l-123 123h-8l-254 461h355zM485 1792
h-253l209 -375h170z" />
    <glyph glyph-name="acircumflex" unicode="&#xe2;" 
d="M558 1430l121 -121l394 -1507h-290l-123 123h-8l-56 217h-185l-85 -340h-288l-123 123h-12l394 1517h258zM299 512l128 481l128 -481h-256zM522 1399h-193l-372 -1431h212l87 339h341l87 -339h214zM585 1758l108 -108l293 -399h-333l-116 114l-82 -114h-332l-123 123h-16
l303 409h279zM546 1741h-239l-237 -324h237l119 165l120 -165h237z" />
    <glyph glyph-name="adieresis" unicode="&#xe4;" 
d="M558 1430l121 -121l394 -1507h-290l-123 123h-8l-56 217h-185l-85 -340h-288l-123 123h-12l394 1517h258zM299 512l128 481l128 -481h-256zM522 1399h-193l-372 -1431h212l87 339h341l87 -339h214zM709 1654l123 -123v-280h-553l-123 123h-10v290h563v-10zM393 1621h-205
v-204h205v204zM666 1621h-205v-204h205v204z" />
    <glyph glyph-name="atilde" unicode="&#xe3;" 
d="M558 1430l121 -121l394 -1507h-290l-123 123h-8l-56 217h-185l-85 -340h-288l-123 123h-12l394 1517h258zM299 512l128 481l128 -481h-256zM522 1399h-193l-372 -1431h212l87 339h341l87 -339h214zM759 1871l123 -123v-350q-131 -147 -242 -147q-31 0 -61 13.5t-59 42.5
l-37 38q-11 8 -14 8q-45 0 -242 -215l-125 125q-2 -2 -4.5 -4t-3.5 -5v362q139 150 247 150q31 0 61.5 -13.5t59.5 -42.5v2q48 -48 50 -48q42 0 247 225v-18zM716 1778q-141 -157 -204 -157q-21 0 -72 51q-49 52 -99 52q-93 0 -205 -123v-239q144 157 205 157q21 0 71 -51
q49 -51 100 -51q94 0 204 122v239z" />
    <glyph glyph-name="aring" unicode="&#xe5;" 
d="M558 1430l121 -121l394 -1507h-290l-123 123h-8l-56 217h-185l-85 -340h-288l-123 123h-12l394 1517h258zM299 512l128 481l128 -481h-256zM522 1399h-193l-372 -1431h212l87 339h341l87 -339h214zM287 1415q-9 6 -18 14t-18 17q-35 37 -53 79t-18 96q0 103 71 174
q38 38 80 56t96 18q101 0 172 -74q12 -11 21.5 -22.5t18.5 -24.5l90 -89q33 -33 50.5 -74t17.5 -92t-18 -93.5t-53 -78.5q-70 -70 -171 -70t-172 70zM478 1621q0 -51 -51 -51t-51 51q0 52 51 52t51 -52zM632 1621q0 84 -61 144q-60 61 -144 61t-145 -61q-60 -60 -60 -144
q0 -83 60 -144q61 -60 145 -60t144 60q61 61 61 144z" />
    <glyph glyph-name="eacute" unicode="&#xe9;" horiz-adv-x="1024" 
d="M737 201l121 -121l35 -278h-751l-123 123h-10v1517h761l-2 -10l125 -123l-35 -280h-436v-201h143l2 -12l121 -121l34 -280h-300v-202h314zM696 171h-440v409h295l-25 205h-270v410h440l26 204h-671v-1431h671zM650 1835l-5 -9l125 -124l-250 -451h-245l-123 123h-12
l155 461h355zM326 1792l-126 -375h170l208 375h-252z" />
    <glyph glyph-name="egrave" unicode="&#xe8;" horiz-adv-x="1024" 
d="M737 201l121 -121l35 -278h-751l-123 123h-10v1517h761l-2 -10l125 -123l-35 -280h-436v-201h143l2 -12l121 -121l34 -280h-300v-202h314zM696 171h-440v409h295l-25 205h-270v410h440l26 204h-671v-1431h671zM476 1821l121 -119l152 -451h-246l-123 123h-8l-254 461h355
zM442 1792h-253l209 -375h170z" />
    <glyph glyph-name="ecircumflex" unicode="&#xea;" horiz-adv-x="1024" 
d="M737 201l121 -121l35 -278h-751l-123 123h-10v1517h761l-2 -10l125 -123l-35 -280h-436v-201h143l2 -12l121 -121l34 -280h-300v-202h314zM696 171h-440v409h295l-25 205h-270v410h440l26 204h-671v-1431h671zM543 1758l108 -108l293 -399h-333l-116 114l-82 -114h-332
l-123 123h-16l303 409h279zM504 1741h-239l-237 -324h237l119 165l120 -165h237z" />
    <glyph glyph-name="edieresis" unicode="&#xeb;" horiz-adv-x="1024" 
d="M737 201l121 -121l35 -278h-751l-123 123h-10v1517h761l-2 -10l125 -123l-35 -280h-436v-201h143l2 -12l121 -121l34 -280h-300v-202h314zM696 171h-440v409h295l-25 205h-270v410h440l26 204h-671v-1431h671zM666 1654l123 -123v-280h-553l-123 123h-10v290h563v-10z
M350 1621h-205v-204h205v204zM623 1621h-205v-204h205v204z" />
    <glyph glyph-name="iacute" unicode="&#xed;" horiz-adv-x="563" 
d="M299 1432l123 -123v-1507h-280l-123 123h-10v1517h290v-10zM256 1399h-205v-1431h205v1431zM422 1835l-5 -9l125 -124l-250 -451h-245l-123 123h-12l155 461h355zM98 1792l-126 -375h170l208 375h-252z" />
    <glyph glyph-name="igrave" unicode="&#xec;" horiz-adv-x="563" 
d="M299 1432l123 -123v-1507h-280l-123 123h-10v1517h290v-10zM256 1399h-205v-1431h205v1431zM248 1821l121 -119l152 -451h-246l-123 123h-8l-254 461h355zM214 1792h-253l209 -375h170z" />
    <glyph glyph-name="icircumflex" unicode="&#xee;" horiz-adv-x="563" 
d="M299 1432l123 -123v-1507h-280l-123 123h-10v1517h290v-10zM256 1399h-205v-1431h205v1431zM314 1758l108 -108l293 -399h-333l-116 114l-82 -114h-332l-123 123h-16l303 409h279zM275 1741h-239l-237 -324h237l119 165l120 -165h237z" />
    <glyph glyph-name="idieresis" unicode="&#xef;" horiz-adv-x="563" 
d="M299 1432l123 -123v-1507h-280l-123 123h-10v1517h290v-10zM256 1399h-205v-1431h205v1431zM437 1654l123 -123v-280h-553l-123 123h-10v290h563v-10zM121 1621h-205v-204h205v204zM394 1621h-205v-204h205v204z" />
    <glyph glyph-name="ntilde" unicode="&#xf1;" horiz-adv-x="1161" 
d="M896 1432l123 -123v-1507h-254l-123 123h-9l-211 485v-608h-280l-123 123h-10v1517h262l7 -15l118 -118l210 -481v614h290v-10zM853 1399h-204v-928l-405 928h-193v-1431h205v926l404 -926h193v1431zM785 1871l123 -123v-350q-131 -147 -242 -147q-31 0 -61 13.5
t-59 42.5l-37 38q-11 8 -14 8q-45 0 -242 -215l-125 125q-2 -2 -4.5 -4t-3.5 -5v362q139 150 247 150q31 0 61.5 -13.5t59.5 -42.5v2q48 -48 50 -48q42 0 247 225v-18zM742 1778q-141 -157 -204 -157q-21 0 -72 51q-49 52 -99 52q-93 0 -205 -123v-239q144 157 205 157
q21 0 71 -51q49 -51 100 -51q94 0 204 122v239z" />
    <glyph glyph-name="oacute" unicode="&#xf3;" horiz-adv-x="1536" 
d="M1024 683q0 88 -21.5 166t-63.5 141q-38 19 -79.5 29t-89.5 10q-94 0 -164.5 -35.5t-125.5 -107.5q-101 -137 -101 -331q0 -169 73 -290q79 -52 190 -52q181 0 285 144q97 133 97 326zM244 55q-27 22 -53 47.5t-49 54.5q-90 109 -133 239.5t-43 286.5t43 286t133 239
q192 234 500 234q307 0 496 -234q2 -2 3.5 -4.5t3.5 -3.5l68 -68l26.5 -27.5t23.5 -27.5q174 -213 174 -522q0 -310 -174 -523q-96 -115 -216.5 -172.5t-276.5 -57.5q-269 0 -451 179zM1067 683q0 -210 -106 -352q-118 -160 -319 -160q-202 0 -321 158q-108 144 -108 354
t108 353q118 159 321 159q200 0 319 -161q106 -142 106 -351zM1271 683q0 295 -165 498q-176 218 -464 218q-289 0 -468 -218q-165 -203 -165 -498q0 -297 165 -499q178 -216 468 -216q288 0 464 216q165 202 165 499zM906 1835l-5 -9l125 -124l-250 -451h-245l-123 123h-12
l155 461h355zM582 1792l-126 -375h170l208 375h-252z" />
    <glyph glyph-name="ograve" unicode="&#xf2;" horiz-adv-x="1536" 
d="M1024 683q0 88 -21.5 166t-63.5 141q-38 19 -79.5 29t-89.5 10q-94 0 -164.5 -35.5t-125.5 -107.5q-101 -137 -101 -331q0 -169 73 -290q79 -52 190 -52q181 0 285 144q97 133 97 326zM244 55q-27 22 -53 47.5t-49 54.5q-90 109 -133 239.5t-43 286.5t43 286t133 239
q192 234 500 234q307 0 496 -234q2 -2 3.5 -4.5t3.5 -3.5l68 -68l26.5 -27.5t23.5 -27.5q174 -213 174 -522q0 -310 -174 -523q-96 -115 -216.5 -172.5t-276.5 -57.5q-269 0 -451 179zM1067 683q0 -210 -106 -352q-118 -160 -319 -160q-202 0 -321 158q-108 144 -108 354
t108 353q118 159 321 159q200 0 319 -161q106 -142 106 -351zM1271 683q0 295 -165 498q-176 218 -464 218q-289 0 -468 -218q-165 -203 -165 -498q0 -297 165 -499q178 -216 468 -216q288 0 464 216q165 202 165 499zM732 1821l121 -119l152 -451h-246l-123 123h-8
l-254 461h355zM698 1792h-253l209 -375h170z" />
    <glyph glyph-name="ocircumflex" unicode="&#xf4;" horiz-adv-x="1536" 
d="M1024 683q0 88 -21.5 166t-63.5 141q-38 19 -79.5 29t-89.5 10q-94 0 -164.5 -35.5t-125.5 -107.5q-101 -137 -101 -331q0 -169 73 -290q79 -52 190 -52q181 0 285 144q97 133 97 326zM244 55q-27 22 -53 47.5t-49 54.5q-90 109 -133 239.5t-43 286.5t43 286t133 239
q192 234 500 234q307 0 496 -234q2 -2 3.5 -4.5t3.5 -3.5l68 -68l26.5 -27.5t23.5 -27.5q174 -213 174 -522q0 -310 -174 -523q-96 -115 -216.5 -172.5t-276.5 -57.5q-269 0 -451 179zM1067 683q0 -210 -106 -352q-118 -160 -319 -160q-202 0 -321 158q-108 144 -108 354
t108 353q118 159 321 159q200 0 319 -161q106 -142 106 -351zM1271 683q0 295 -165 498q-176 218 -464 218q-289 0 -468 -218q-165 -203 -165 -498q0 -297 165 -499q178 -216 468 -216q288 0 464 216q165 202 165 499zM799 1758l108 -108l293 -399h-333l-116 114l-82 -114
h-332l-123 123h-16l303 409h279zM760 1741h-239l-237 -324h237l119 165l120 -165h237z" />
    <glyph glyph-name="odieresis" unicode="&#xf6;" horiz-adv-x="1536" 
d="M1024 683q0 88 -21.5 166t-63.5 141q-38 19 -79.5 29t-89.5 10q-94 0 -164.5 -35.5t-125.5 -107.5q-101 -137 -101 -331q0 -169 73 -290q79 -52 190 -52q181 0 285 144q97 133 97 326zM244 55q-27 22 -53 47.5t-49 54.5q-90 109 -133 239.5t-43 286.5t43 286t133 239
q192 234 500 234q307 0 496 -234q2 -2 3.5 -4.5t3.5 -3.5l68 -68l26.5 -27.5t23.5 -27.5q174 -213 174 -522q0 -310 -174 -523q-96 -115 -216.5 -172.5t-276.5 -57.5q-269 0 -451 179zM1067 683q0 -210 -106 -352q-118 -160 -319 -160q-202 0 -321 158q-108 144 -108 354
t108 353q118 159 321 159q200 0 319 -161q106 -142 106 -351zM1271 683q0 295 -165 498q-176 218 -464 218q-289 0 -468 -218q-165 -203 -165 -498q0 -297 165 -499q178 -216 468 -216q288 0 464 216q165 202 165 499zM922 1654l123 -123v-280h-553l-123 123h-10v290h563
v-10zM606 1621h-205v-204h205v204zM879 1621h-205v-204h205v204z" />
    <glyph glyph-name="otilde" unicode="&#xf5;" horiz-adv-x="1536" 
d="M1024 683q0 88 -21.5 166t-63.5 141q-38 19 -79.5 29t-89.5 10q-94 0 -164.5 -35.5t-125.5 -107.5q-101 -137 -101 -331q0 -169 73 -290q79 -52 190 -52q181 0 285 144q97 133 97 326zM244 55q-27 22 -53 47.5t-49 54.5q-90 109 -133 239.5t-43 286.5t43 286t133 239
q192 234 500 234q307 0 496 -234q2 -2 3.5 -4.5t3.5 -3.5l68 -68l26.5 -27.5t23.5 -27.5q174 -213 174 -522q0 -310 -174 -523q-96 -115 -216.5 -172.5t-276.5 -57.5q-269 0 -451 179zM1067 683q0 -210 -106 -352q-118 -160 -319 -160q-202 0 -321 158q-108 144 -108 354
t108 353q118 159 321 159q200 0 319 -161q106 -142 106 -351zM1271 683q0 295 -165 498q-176 218 -464 218q-289 0 -468 -218q-165 -203 -165 -498q0 -297 165 -499q178 -216 468 -216q288 0 464 216q165 202 165 499zM973 1871l123 -123v-350q-131 -147 -242 -147
q-31 0 -61 13.5t-59 42.5l-37 38q-11 8 -14 8q-45 0 -242 -215l-125 125q-2 -2 -4.5 -4t-3.5 -5v362q139 150 247 150q31 0 61.5 -13.5t59.5 -42.5v2q48 -48 50 -48q42 0 247 225v-18zM930 1778q-141 -157 -204 -157q-21 0 -72 51q-49 52 -99 52q-93 0 -205 -123v-239
q144 157 205 157q21 0 71 -51q49 -51 100 -51q94 0 204 122v239z" />
    <glyph glyph-name="uacute" unicode="&#xfa;" horiz-adv-x="1280" 
d="M1015 1432l123 -123v-1010q0 -208 -145 -352q-145 -145 -351 -145q-209 0 -354 145l-78 77q-14 11 -27 23l-26 25q-75 75 -111.5 162t-36.5 193v1015h290v-10l123 -123v-1010q0 -40 10 -70q33 -16 82 -16q85 0 157 72v-2q27 31 40.5 65t13.5 79v1015h290v-10zM973 1399
h-205v-972q0 -104 -75 -180t-179 -76q-105 0 -181 76q-77 77 -77 180v972h-205v-972q0 -190 136 -325q137 -134 327 -134q187 0 324 134q135 135 135 325v972zM778 1835l-5 -9l125 -124l-250 -451h-245l-123 123h-12l155 461h355zM454 1792l-126 -375h170l208 375h-252z" />
    <glyph glyph-name="ugrave" unicode="&#xf9;" horiz-adv-x="1280" 
d="M1015 1432l123 -123v-1010q0 -208 -145 -352q-145 -145 -351 -145q-209 0 -354 145l-78 77q-14 11 -27 23l-26 25q-75 75 -111.5 162t-36.5 193v1015h290v-10l123 -123v-1010q0 -40 10 -70q33 -16 82 -16q85 0 157 72v-2q27 31 40.5 65t13.5 79v1015h290v-10zM973 1399
h-205v-972q0 -104 -75 -180t-179 -76q-105 0 -181 76q-77 77 -77 180v972h-205v-972q0 -190 136 -325q137 -134 327 -134q187 0 324 134q135 135 135 325v972zM604 1821l121 -119l152 -451h-246l-123 123h-8l-254 461h355zM570 1792h-253l209 -375h170z" />
    <glyph glyph-name="ucircumflex" unicode="&#xfb;" horiz-adv-x="1280" 
d="M1015 1432l123 -123v-1010q0 -208 -145 -352q-145 -145 -351 -145q-209 0 -354 145l-78 77q-14 11 -27 23l-26 25q-75 75 -111.5 162t-36.5 193v1015h290v-10l123 -123v-1010q0 -40 10 -70q33 -16 82 -16q85 0 157 72v-2q27 31 40.5 65t13.5 79v1015h290v-10zM973 1399
h-205v-972q0 -104 -75 -180t-179 -76q-105 0 -181 76q-77 77 -77 180v972h-205v-972q0 -190 136 -325q137 -134 327 -134q187 0 324 134q135 135 135 325v972zM671 1758l108 -108l293 -399h-333l-116 114l-82 -114h-332l-123 123h-16l303 409h279zM632 1741h-239l-237 -324
h237l119 165l120 -165h237z" />
    <glyph glyph-name="udieresis" unicode="&#xfc;" horiz-adv-x="1280" 
d="M1015 1432l123 -123v-1010q0 -208 -145 -352q-145 -145 -351 -145q-209 0 -354 145l-78 77q-14 11 -27 23l-26 25q-75 75 -111.5 162t-36.5 193v1015h290v-10l123 -123v-1010q0 -40 10 -70q33 -16 82 -16q85 0 157 72v-2q27 31 40.5 65t13.5 79v1015h290v-10zM973 1399
h-205v-972q0 -104 -75 -180t-179 -76q-105 0 -181 76q-77 77 -77 180v972h-205v-972q0 -190 136 -325q137 -134 327 -134q187 0 324 134q135 135 135 325v972zM794 1654l123 -123v-280h-553l-123 123h-10v290h563v-10zM478 1621h-205v-204h205v204zM751 1621h-205v-204h205
v204z" />
    <glyph glyph-name="dagger" horiz-adv-x="973" 
d="M708 1159l123 -123v-280h-205v-1125h-280l-122 123h-11v1002h-71l-123 123h-10v290h204v273h290v-10l123 -123v-140h82v-10zM666 1126h-205v273h-205v-273h-205v-204h205v-1125h205v1125h205v204z" />
    <glyph glyph-name="dagger" unicode="&#x2020;" horiz-adv-x="973" 
d="M708 1159l123 -123v-280h-205v-1125h-280l-122 123h-11v1002h-71l-123 123h-10v290h204v273h290v-10l123 -123v-140h82v-10zM666 1126h-205v273h-205v-273h-205v-204h205v-1125h205v1125h205v204z" />
    <glyph glyph-name="degree" unicode="&#xb0;" horiz-adv-x="768" 
d="M116 988l-19 15.5t-17 15.5q-35 37 -53 79.5t-18 96.5q0 103 71 174q38 37 80 55t96 18q102 0 172 -73q12 -12 21.5 -23.5t18.5 -24.5l90 -89q33 -33 50.5 -73.5t17.5 -91.5q0 -52 -18 -94.5t-53 -78.5q-70 -70 -171 -70t-172 70zM307 1195q0 -52 -51 -52t-51 52
q0 51 51 51t51 -51zM461 1195q0 83 -61 143q-60 61 -144 61t-145 -61q-60 -60 -60 -143q0 -84 60 -145q61 -60 145 -60t144 60q61 61 61 145z" />
    <glyph glyph-name="cent" unicode="&#xa2;" horiz-adv-x="1236" 
d="M241 26h-12l49 230l-36 38q-51 38 -91 87t-69 112q-38 76 -55.5 157t-17.5 169q0 263 146 442q78 91 175 136t218 45l39 171h277l-4 -10l125 -123l-51 -224q5 -5 9 -10t9 -10l58 -57q-2 1 -6 5l15 -13q26 -26 52.5 -59l54.5 -71l-239 -138l-27 25l-75 -331l222 -129
q-2 -2 -2.5 -3.5t-2.5 -3.5l124 -123q-97 -132 -210 -198.5t-245 -66.5h-4l-39 -170h-264zM379 502q-123 102 -123 317q0 149 67 249q76 122 213 127zM766 560q-92 -113 -210 -116l157 694q25 -20 55 -59l176 102q-85 121 -183 169l50 220h-190l-39 -172q-244 13 -394 -164
q-137 -167 -137 -415q0 -163 68 -305q76 -155 212 -226l-49 -220h189l39 173q264 -17 434 215z" />
    <glyph glyph-name="bullet" horiz-adv-x="1143" 
d="M207 234q-50 35 -93 95q-105 142 -105 354q0 210 105 353q63 85 144.5 126t186.5 41q106 0 186.5 -41t143.5 -126l72 -72q-2 0 -6 4l12 -11q12 -11 24 -24.5t22 -27.5q103 -145 103 -350t-103 -350q-123 -166 -326 -166q-170 0 -283 113zM836 683q0 193 -95 327
q-109 151 -296 151q-188 0 -297 -151q-97 -133 -97 -327q0 -195 97 -328q109 -150 297 -150q186 0 296 150q95 137 95 328z" />
    <glyph glyph-name="bullet" unicode="&#x2022;" horiz-adv-x="1143" 
d="M207 234q-50 35 -93 95q-105 142 -105 354q0 210 105 353q63 85 144.5 126t186.5 41q106 0 186.5 -41t143.5 -126l72 -72q-2 0 -6 4l12 -11q12 -11 24 -24.5t22 -27.5q103 -145 103 -350t-103 -350q-123 -166 -326 -166q-170 0 -283 113zM836 683q0 193 -95 327
q-109 151 -296 151q-188 0 -297 -151q-97 -133 -97 -327q0 -195 97 -328q109 -150 297 -150q186 0 296 150q95 137 95 328z" />
    <glyph glyph-name="paragraph" unicode="&#xb6;" horiz-adv-x="1415" 
d="M1161 1442l-2 -10l124 -123l-34 -280h-164v-1398h-279l-28 28v-28h-280l-123 123h-10v709q-48 26 -89 68l-81 80q-22 15 -40.5 33t-36.5 40q-57 66 -83 141t-26 165q0 186 121 319q60 69 137.5 101t174.5 32h719zM442 1399q-171 0 -281 -119t-110 -290q0 -161 99 -279
q99 -117 258 -129v-785h205v1398h102v-1398h205v1398h167l26 204h-671z" />
    <glyph glyph-name="germandbls" unicode="&#xdf;" horiz-adv-x="1246" 
d="M736 993q0 2 -2 2zM770 379q0 2 -2 2zM422 828h92q32 0 59 11.5t45 34.5q39 45 39 116q0 9 -1 18.5l-2 18.5q-6 2 -12 2h-220v-201zM422 213h126q67 0 104 46q39 43 39 116q0 9 -1 19t-2 19q-6 2 -12 2h-210l-44 44v-246zM19 -246h-10v1688h505q97 0 172 -32t138 -101
q8 -11 16.5 -20t14.5 -19l75 -74q-5 0 -5 4l9 -9q-2 0 -2 4l17 -17q60 -67 90.5 -144.5t30.5 -171.5q0 -180 -111 -292l24 -22l-3 2l15 -14q109 -109 109 -289q0 -182 -121 -315q-60 -66 -135.5 -98t-171.5 -32h-210l-44 44v-215h-280zM939 375q0 216 -169 318
q135 106 135 297q0 171 -111 290q-110 119 -280 119h-463v-1602h205v1398h258q85 0 135 -59q51 -59 51 -146t-50 -143q-51 -62 -136 -62h-139v-205h173q85 0 135 -59q51 -59 51 -146t-50 -143q-51 -61 -136 -61h-173v-203h173q172 0 281 118q110 119 110 289z" />
    <glyph glyph-name="registered" unicode="&#xae;" horiz-adv-x="1536" 
d="M703 292v-75q16 2 32 6t30 9l-31 33h-7zM969 898q20 -21 29 -36q-10 35 -25 67t-34 61q-20 10 -42 18t-45 13l12.5 -14t11.5 -15zM1015 582q-23 -46 -62 -78.5t-93 -46.5l75 -88q31 46 51.5 99.5t28.5 113.5zM244 55q-27 22 -53 47.5t-49 54.5q-90 109 -133 239.5
t-43 286.5t43 286t133 239q192 234 500 234q307 0 496 -234q2 -2 3.5 -4.5t3.5 -3.5l68 -68l26.5 -27.5t23.5 -27.5q174 -213 174 -522q0 -310 -174 -523q-96 -115 -216.5 -172.5t-276.5 -57.5q-269 0 -451 179zM742 836q0 -85 -75 -85h-129v171h129q75 0 75 -86zM660 614
q95 0 157 62q62 65 62 160q0 92 -60 157t-152 65h-266v-751h137v248l208 -248h172zM1067 683q0 -210 -106 -352q-118 -160 -319 -160q-202 0 -321 158q-108 144 -108 354q0 207 108 353q118 159 321 159q200 0 319 -161q106 -142 106 -351zM1271 683q0 295 -165 498
q-176 218 -464 218q-289 0 -468 -218q-165 -203 -165 -498q0 -297 165 -499q178 -216 468 -216q288 0 464 216q165 202 165 499z" />
    <glyph glyph-name="copyright" unicode="&#xa9;" horiz-adv-x="1536" 
d="M1019 608h-4h4zM442 328q-9 6 -17 13.5l-17 15.5q9 -25 19.5 -47.5t24.5 -44.5q44 -29 98 -41q-9 7 -19 18zM620 555q0 -20 1 -35.5t5 -31.5q10 -2 12 -2h14q99 0 159 166l95 -21l-87 88l-8 -2q-4 10 -8 19l-8 18q-5 0 -8 1t-7 1q-78 0 -118 -60q-20 -28 -31 -63.5
t-11 -77.5zM244 55q-27 22 -53 47.5t-49 54.5q-90 109 -133 239.5t-43 286.5t43 286t133 239q192 234 500 234q307 0 496 -234q2 -2 3.5 -4.5t3.5 -3.5l68 -68l26.5 -27.5t23.5 -27.5q174 -213 174 -522q0 -310 -174 -523q-96 -115 -216.5 -172.5t-276.5 -57.5
q-269 0 -451 179zM838 601q-55 -157 -186 -157q-94 0 -149 75q-49 64 -49 164q0 97 49 164q55 75 149 75q130 0 186 -156l135 24q-88 268 -321 268q-152 0 -246 -114q-89 -110 -89 -261q0 -154 89 -261q94 -115 246 -115q232 0 321 266zM1067 683q0 -210 -106 -352
q-118 -160 -319 -160q-202 0 -321 158q-108 144 -108 354q0 207 108 353q118 159 321 159q200 0 319 -161q106 -142 106 -351zM1271 683q0 295 -165 498q-176 218 -464 218q-289 0 -468 -218q-165 -203 -165 -498q0 -297 165 -499q178 -216 468 -216q288 0 464 216
q165 202 165 499z" />
    <glyph glyph-name="trademark" horiz-adv-x="1329" 
d="M1029 1430l123 -121l39 -826h-222l-27 26l-5 -26h-184l-31 31l-2 -31h-408l-123 123h-10v491h-48l-122 123h-11l26 222h619l4 -14l112 -112l31 126h239v-12zM988 1399h-164l-107 -440l-108 440h-546l-17 -136h176v-614h136v614h81l-29 -614h146l16 348l82 -348h126
l82 348l15 -348h147z" />
    <glyph glyph-name="trademark" unicode="&#x2122;" horiz-adv-x="1329" 
d="M1029 1430l123 -121l39 -826h-222l-27 26l-5 -26h-184l-31 31l-2 -31h-408l-123 123h-10v491h-48l-122 123h-11l26 222h619l4 -14l112 -112l31 126h239v-12zM988 1399h-164l-107 -440l-108 440h-546l-17 -136h176v-614h136v614h81l-29 -614h146l16 348l82 -348h126
l82 348l15 -348h147z" />
    <glyph glyph-name="acute" unicode="&#xb4;" horiz-adv-x="700" 
d="M488 1835l-5 -9l125 -124l-250 -451h-245l-123 123h-12l155 461h355zM164 1792l-126 -375h170l208 375h-252z" />
    <glyph glyph-name="dieresis" unicode="&#xa8;" horiz-adv-x="836" 
d="M572 1654l123 -123v-280h-553l-123 123h-10v290h563v-10zM256 1621h-205v-204h205v204zM529 1621h-205v-204h205v204z" />
    <glyph glyph-name="AE" unicode="&#xc6;" horiz-adv-x="1650" 
d="M1364 201l121 -121l34 -278h-736l-123 123h-8l-56 217h-185l-85 -340h-288l-123 123h-12l394 1517h261l3 -14l74 -73v87h761l-2 -10l125 -123l-34 -280h-437v-201h143l2 -12l121 -121l34 -280h-300v-202h314zM299 512l128 481l128 -481h-256zM1323 171h-441v409h296
l-26 205h-270v410h441l25 204h-670v-614l-154 614h-195l-372 -1431h212l87 339h341l87 -339h664z" />
    <glyph glyph-name="Oslash" unicode="&#xd8;" horiz-adv-x="1536" 
d="M927 357q83 114 95 274l-394 -418h14q181 0 285 144zM480 886q-45 -60 -70.5 -130t-30.5 -154l396 427h-5q-94 0 -164.5 -35.5t-125.5 -107.5zM1388 1282l-4 -4l125 -124l-174 -185q102 -186 102 -414q0 -310 -174 -523q-96 -115 -216.5 -172.5t-276.5 -57.5
q-229 0 -400 135l-157 -167l-124 124l-4 -3l-189 194l171 183q-101 194 -101 415q0 309 177 525q190 234 499 234q216 0 394 -136l157 170zM1067 683q0 -210 -106 -352q-118 -160 -319 -160q-153 0 -263 95l635 678q53 -121 53 -261zM268 422q-55 119 -55 261q0 207 108 353
q118 159 321 159q153 0 259 -94zM1193 1415l-152 -166q-167 150 -399 150q-289 0 -466 -218q-167 -203 -167 -498q0 -232 110 -420l-165 -178l131 -133l156 164q166 -148 401 -148q288 0 464 216q165 202 165 499q0 232 -110 420l167 177z" />
    <glyph glyph-name="plusminus" unicode="&#xb1;" horiz-adv-x="939" 
d="M674 203l123 -123v-278h-655l-123 123h-10v288h665v-10zM674 817l123 -122v-280h-188v-188h-280l-122 123h-11v65h-54l-123 123h-10v290h187v187h290v-10l123 -123v-54h65v-11zM631 171h-580v-203h580v203zM631 785h-187v188h-205v-188h-188v-205h188v-187h205v187h187
v205z" />
    <glyph glyph-name="yen" unicode="&#xa5;" horiz-adv-x="1024" 
d="M882 1442l-5 -10l125 -123l-350 -852v-655h-280l-123 123h-10v659l-352 858h321l5 -14l120 -119l87 -234l140 367h322zM591 1399l-207 -544l-207 544h-226l331 -808v-623h204v623l333 808h-228z" />
    <glyph glyph-name="ae" unicode="&#xe6;" horiz-adv-x="1650" 
d="M1364 201l121 -121l34 -278h-736l-123 123h-8l-56 217h-185l-85 -340h-288l-123 123h-12l394 1517h261l3 -14l74 -73v87h761l-2 -10l125 -123l-34 -280h-437v-201h143l2 -12l121 -121l34 -280h-300v-202h314zM299 512l128 481l128 -481h-256zM1323 171h-441v409h296
l-26 205h-270v410h441l25 204h-670v-614l-154 614h-195l-372 -1431h212l87 339h341l87 -339h664z" />
    <glyph glyph-name="oslash" unicode="&#xf8;" horiz-adv-x="1536" 
d="M927 357q83 114 95 274l-394 -418h14q181 0 285 144zM480 886q-45 -60 -70.5 -130t-30.5 -154l396 427h-5q-94 0 -164.5 -35.5t-125.5 -107.5zM1388 1282l-4 -4l125 -124l-174 -185q102 -186 102 -414q0 -310 -174 -523q-96 -115 -216.5 -172.5t-276.5 -57.5
q-229 0 -400 135l-157 -167l-124 124l-4 -3l-189 194l171 183q-101 194 -101 415q0 309 177 525q190 234 499 234q216 0 394 -136l157 170zM1067 683q0 -210 -106 -352q-118 -160 -319 -160q-153 0 -263 95l635 678q53 -121 53 -261zM268 422q-55 119 -55 261q0 207 108 353
q118 159 321 159q153 0 259 -94zM1193 1415l-152 -166q-167 150 -399 150q-289 0 -466 -218q-167 -203 -167 -498q0 -232 110 -420l-165 -178l131 -133l156 164q166 -148 401 -148q288 0 464 216q165 202 165 499q0 232 -110 420l167 177z" />
    <glyph glyph-name="questiondown" unicode="&#xbf;" horiz-adv-x="1215" 
d="M773 1261l123 -123v-353q0 -213 -133 -352q-4 -4 -61.5 -45.5l-172.5 -122.5q-107 -80 -107 -171q0 -13 0.5 -24.5t2.5 -21.5q11 -3 24 -4t27 -1q181 0 181 208v48h290v-11l123 -122v-77q0 -201 -133 -330q-131 -128 -333 -128q-204 0 -334 130l-81 80q-27 21 -51 45
q-129 129 -129 336q0 128 54 223q38 69 137 142q9 7 18 13t18 14l11.5 9.5l11.5 9.5l33.5 24.5t33.5 23.5l18 12l20 14q34 27 56.5 52t36.5 52.5t20 60t6 73.5v326h290v-10zM905 256h-205q3 -256 -224 -256q-103 0 -161.5 59.5t-58.5 162.5q0 112 123 201q222 159 229 166
q122 125 122 324v43h-204v-11q0 -92 -29 -153q-14 -29 -41 -58.5t-65 -59.5l-83 -60l-83 -59q-87 -67 -124 -130q-50 -86 -50 -203q0 -188 118 -306q119 -119 307 -119t308 117q121 117 121 303v39zM730 1229h-204v-205h204v205z" />
    <glyph glyph-name="exclamdown" unicode="&#xa1;" horiz-adv-x="563" 
d="M299 1261l123 -123v-280h-18l18 -1227h-280l-123 123h-10l17 1221l-7 6h-10v290h290v-10zM239 956h-171l-17 -1159h205zM256 1229h-205v-205h205v205z" />
    <glyph glyph-name="guillemotleft" unicode="&#xab;" horiz-adv-x="1161" 
d="M247 845h709l-7 -10l124 -123l-249 -413l249 -413h-344l-14 13l9 -13h-345l-123 123h-9l-252 418zM304 427l225 375h-258l-225 -375l225 -376h258zM654 427l225 375h-258l-225 -375l225 -376h258z" />
    <glyph glyph-name="guillemotright" unicode="&#xbb;" horiz-adv-x="1161" 
d="M669 823l113 -111l249 -413l-249 -413h-345l-4 3l-1 -3h-345l-123 123h-15l251 418l-251 418h708zM283 802h-257l225 -375l-225 -376h257l226 376zM633 802h-258l226 -375l-226 -376h258l225 376z" />
    <glyph glyph-name="ellipsis" unicode="&#x85;" 
d="M845 203l123 -123v-278h-826l-123 123h-10v288h836v-10zM256 171h-205v-203h205v203zM529 171h-205v-203h205v203zM802 171h-205v-203h205v203z" />
    <glyph glyph-name="ellipsis" unicode="&#x2026;" 
d="M845 203l123 -123v-278h-826l-123 123h-10v288h836v-10zM256 171h-205v-203h205v203zM529 171h-205v-203h205v203zM802 171h-205v-203h205v203z" />
    <glyph glyph-name="Agrave" unicode="&#xc0;" 
d="M558 1430l121 -121l394 -1507h-290l-123 123h-8l-56 217h-185l-85 -340h-288l-123 123h-12l394 1517h258zM299 512l128 481l128 -481h-256zM522 1399h-193l-372 -1431h212l87 339h341l87 -339h214zM519 1821l121 -119l152 -451h-246l-123 123h-8l-254 461h355zM485 1792
h-253l209 -375h170z" />
    <glyph glyph-name="Atilde" unicode="&#xc3;" 
d="M558 1430l121 -121l394 -1507h-290l-123 123h-8l-56 217h-185l-85 -340h-288l-123 123h-12l394 1517h258zM299 512l128 481l128 -481h-256zM522 1399h-193l-372 -1431h212l87 339h341l87 -339h214zM759 1871l123 -123v-350q-131 -147 -242 -147q-31 0 -61 13.5t-59 42.5
l-37 38q-11 8 -14 8q-45 0 -242 -215l-125 125q-2 -2 -4.5 -4t-3.5 -5v362q139 150 247 150q31 0 61.5 -13.5t59.5 -42.5v2q48 -48 50 -48q42 0 247 225v-18zM716 1778q-141 -157 -204 -157q-21 0 -72 51q-49 52 -99 52q-93 0 -205 -123v-239q144 157 205 157q21 0 71 -51
q49 -51 100 -51q94 0 204 122v239z" />
    <glyph glyph-name="Otilde" unicode="&#xd5;" horiz-adv-x="1536" 
d="M1024 683q0 88 -21.5 166t-63.5 141q-38 19 -79.5 29t-89.5 10q-94 0 -164.5 -35.5t-125.5 -107.5q-101 -137 -101 -331q0 -169 73 -290q79 -52 190 -52q181 0 285 144q97 133 97 326zM244 55q-27 22 -53 47.5t-49 54.5q-90 109 -133 239.5t-43 286.5t43 286t133 239
q192 234 500 234q307 0 496 -234q2 -2 3.5 -4.5t3.5 -3.5l68 -68l26.5 -27.5t23.5 -27.5q174 -213 174 -522q0 -310 -174 -523q-96 -115 -216.5 -172.5t-276.5 -57.5q-269 0 -451 179zM1067 683q0 -210 -106 -352q-118 -160 -319 -160q-202 0 -321 158q-108 144 -108 354
t108 353q118 159 321 159q200 0 319 -161q106 -142 106 -351zM1271 683q0 295 -165 498q-176 218 -464 218q-289 0 -468 -218q-165 -203 -165 -498q0 -297 165 -499q178 -216 468 -216q288 0 464 216q165 202 165 499zM973 1871l123 -123v-350q-131 -147 -242 -147
q-31 0 -61 13.5t-59 42.5l-37 38q-11 8 -14 8q-45 0 -242 -215l-125 125q-2 -2 -4.5 -4t-3.5 -5v362q139 150 247 150q31 0 61.5 -13.5t59.5 -42.5v2q48 -48 50 -48q42 0 247 225v-18zM930 1778q-141 -157 -204 -157q-21 0 -72 51q-49 52 -99 52q-93 0 -205 -123v-239
q144 157 205 157q21 0 71 -51q49 -51 100 -51q94 0 204 122v239z" />
    <glyph glyph-name="OE" horiz-adv-x="2039" 
d="M1024 683q0 88 -21.5 166t-63.5 141q-38 19 -79.5 29t-89.5 10q-94 0 -164.5 -35.5t-125.5 -107.5q-101 -137 -101 -331q0 -85 18 -156t54 -134q79 -52 191 -52q181 0 285 144q97 133 97 326zM1753 201l121 -121l34 -278h-751l-75 75q-69 -37 -146.5 -56t-165.5 -19
q-269 0 -451 179l-75 74q-27 22 -53 47.5t-49 54.5q-90 109 -133 239.5t-43 286.5q0 309 177 525q190 234 499 234q218 0 382 -121v121h761l-2 -10l125 -123l-34 -280h-437v-201h143l2 -12l121 -121l34 -280h-300v-202h314zM1067 683q0 -210 -106 -352q-118 -160 -319 -160
q-202 0 -321 158q-108 145 -108 354q0 207 108 353q118 159 321 159q200 0 319 -161q106 -142 106 -351zM1712 171h-441v409h296l-26 205h-270v410h441l25 204h-670v-172q-171 172 -425 172q-289 0 -466 -218q-167 -203 -167 -498q0 -297 165 -499q178 -216 468 -216
q252 0 425 170v-170h670z" />
    <glyph glyph-name="OE" unicode="&#x152;" horiz-adv-x="2039" 
d="M1024 683q0 88 -21.5 166t-63.5 141q-38 19 -79.5 29t-89.5 10q-94 0 -164.5 -35.5t-125.5 -107.5q-101 -137 -101 -331q0 -85 18 -156t54 -134q79 -52 191 -52q181 0 285 144q97 133 97 326zM1753 201l121 -121l34 -278h-751l-75 75q-69 -37 -146.5 -56t-165.5 -19
q-269 0 -451 179l-75 74q-27 22 -53 47.5t-49 54.5q-90 109 -133 239.5t-43 286.5q0 309 177 525q190 234 499 234q218 0 382 -121v121h761l-2 -10l125 -123l-34 -280h-437v-201h143l2 -12l121 -121l34 -280h-300v-202h314zM1067 683q0 -210 -106 -352q-118 -160 -319 -160
q-202 0 -321 158q-108 145 -108 354q0 207 108 353q118 159 321 159q200 0 319 -161q106 -142 106 -351zM1712 171h-441v409h296l-26 205h-270v410h441l25 204h-670v-172q-171 172 -425 172q-289 0 -466 -218q-167 -203 -167 -498q0 -297 165 -499q178 -216 468 -216
q252 0 425 170v-170h670z" />
    <glyph glyph-name="oe" horiz-adv-x="2039" 
d="M1024 683q0 88 -21.5 166t-63.5 141q-38 19 -79.5 29t-89.5 10q-94 0 -164.5 -35.5t-125.5 -107.5q-101 -137 -101 -331q0 -85 18 -156t54 -134q79 -52 191 -52q181 0 285 144q97 133 97 326zM1753 201l121 -121l34 -278h-751l-75 75q-69 -37 -146.5 -56t-165.5 -19
q-269 0 -451 179l-75 74q-27 22 -53 47.5t-49 54.5q-90 109 -133 239.5t-43 286.5q0 309 177 525q190 234 499 234q109 0 204.5 -31.5t177.5 -92.5v124h761l-2 -10l125 -123l-34 -280h-437v-201h143l2 -12l121 -121l34 -280h-300v-202h314zM1067 683q0 -210 -106 -352
q-118 -160 -319 -160q-202 0 -321 158q-108 145 -108 354q0 207 108 353q118 159 321 159q200 0 319 -161q106 -142 106 -351zM1712 171h-441v409h296l-26 205h-270v410h441l25 204h-670v-174q-173 174 -425 174q-289 0 -466 -218q-167 -203 -167 -498q0 -297 165 -499
q178 -216 468 -216q252 0 425 170v-170h670z" />
    <glyph glyph-name="oe" unicode="&#x153;" horiz-adv-x="2039" 
d="M1024 683q0 88 -21.5 166t-63.5 141q-38 19 -79.5 29t-89.5 10q-94 0 -164.5 -35.5t-125.5 -107.5q-101 -137 -101 -331q0 -85 18 -156t54 -134q79 -52 191 -52q181 0 285 144q97 133 97 326zM1753 201l121 -121l34 -278h-751l-75 75q-69 -37 -146.5 -56t-165.5 -19
q-269 0 -451 179l-75 74q-27 22 -53 47.5t-49 54.5q-90 109 -133 239.5t-43 286.5q0 309 177 525q190 234 499 234q109 0 204.5 -31.5t177.5 -92.5v124h761l-2 -10l125 -123l-34 -280h-437v-201h143l2 -12l121 -121l34 -280h-300v-202h314zM1067 683q0 -210 -106 -352
q-118 -160 -319 -160q-202 0 -321 158q-108 145 -108 354q0 207 108 353q118 159 321 159q200 0 319 -161q106 -142 106 -351zM1712 171h-441v409h296l-26 205h-270v410h441l25 204h-670v-174q-173 174 -425 174q-289 0 -466 -218q-167 -203 -167 -498q0 -297 165 -499
q178 -216 468 -216q252 0 425 170v-170h670z" />
    <glyph glyph-name="endash" horiz-adv-x="768" 
d="M503 817l123 -122v-280h-484l-123 123h-10v290h494v-11zM461 785h-410v-205h410v205z" />
    <glyph glyph-name="endash" unicode="&#x2013;" horiz-adv-x="768" 
d="M503 817l123 -122v-280h-484l-123 123h-10v290h494v-11zM461 785h-410v-205h410v205z" />
    <glyph glyph-name="emdash" 
d="M845 817l123 -122v-280h-826l-123 123h-10v290h836v-11zM802 785h-751v-205h751v205z" />
    <glyph glyph-name="emdash" unicode="&#x2014;" 
d="M845 817l123 -122v-280h-826l-123 123h-10v290h836v-11zM802 785h-751v-205h751v205z" />
    <glyph glyph-name="quotedblleft" horiz-adv-x="785" 
d="M531 1442l-2 -10l125 -123l-52 -416h-198l-22 20l-1 -20h-198l-123 122h-11l-51 427h533zM46 1399l43 -341h129l43 341h-215zM268 1399l43 -341h129l43 341h-215z" />
    <glyph glyph-name="quotedblleft" unicode="&#x201c;" horiz-adv-x="785" 
d="M531 1442l-2 -10l125 -123l-52 -416h-198l-22 20l-1 -20h-198l-123 122h-11l-51 427h533zM46 1399l43 -341h129l43 341h-215zM268 1399l43 -341h129l43 341h-215z" />
    <glyph glyph-name="quotedblright" horiz-adv-x="785" 
d="M531 1442l-2 -10l125 -123l-52 -416h-198l-22 20l-1 -20h-198l-123 122h-11l-51 427h533zM46 1399l43 -341h129l43 341h-215zM268 1399l43 -341h129l43 341h-215z" />
    <glyph glyph-name="quotedblright" unicode="&#x201d;" horiz-adv-x="785" 
d="M531 1442l-2 -10l125 -123l-52 -416h-198l-22 20l-1 -20h-198l-123 122h-11l-51 427h533zM46 1399l43 -341h129l43 341h-215zM268 1399l43 -341h129l43 341h-215z" />
    <glyph glyph-name="quoteleft" horiz-adv-x="563" 
d="M309 1442l-2 -10l125 -123l-51 -416h-198l-123 122h-11l-51 427h311zM46 1399l43 -341h129l43 341h-215z" />
    <glyph glyph-name="quoteleft" unicode="&#x2018;" horiz-adv-x="563" 
d="M309 1442l-2 -10l125 -123l-51 -416h-198l-123 122h-11l-51 427h311zM46 1399l43 -341h129l43 341h-215z" />
    <glyph glyph-name="quoteright" horiz-adv-x="563" 
d="M309 1442l-2 -10l125 -123l-51 -416h-198l-123 122h-11l-51 427h311zM46 1399l43 -341h129l43 341h-215z" />
    <glyph glyph-name="quoteright" unicode="&#x2019;" horiz-adv-x="563" 
d="M309 1442l-2 -10l125 -123l-51 -416h-198l-123 122h-11l-51 427h311zM46 1399l43 -341h129l43 341h-215z" />
    <glyph glyph-name="divide" unicode="&#xf7;" horiz-adv-x="939" 
d="M674 817l123 -122v-280h-188v-273h-280l-122 123h-11v150h-54l-123 123h-10v290h187v273h290v-10l123 -123v-140h65v-11zM444 512h-205v-205h205v205zM631 785h-580v-205h580v205zM444 1058h-205v-205h205v205z" />
    <glyph glyph-name="ydieresis" unicode="&#xff;" horiz-adv-x="1024" 
d="M882 1442l-5 -10l125 -123l-350 -852v-655h-280l-123 123h-10v659l-352 858h321l5 -14l120 -119l87 -234l140 367h322zM591 1399l-207 -544l-207 544h-226l331 -808v-623h204v623l333 808h-228zM666 1654l123 -123v-280h-553l-123 123h-10v290h563v-10zM350 1621h-205
v-204h205v204zM623 1621h-205v-204h205v204z" />
    <glyph glyph-name="Ydieresis" horiz-adv-x="1024" 
d="M882 1442l-5 -10l125 -123l-350 -852v-655h-280l-123 123h-10v659l-352 858h321l5 -14l120 -119l87 -234l140 367h322zM591 1399l-207 -544l-207 544h-226l331 -808v-623h204v623l333 808h-228zM666 1654l123 -123v-280h-553l-123 123h-10v290h563v-10zM350 1621h-205
v-204h205v204zM623 1621h-205v-204h205v204z" />
    <glyph glyph-name="Ydieresis" unicode="&#x178;" horiz-adv-x="1024" 
d="M882 1442l-5 -10l125 -123l-350 -852v-655h-280l-123 123h-10v659l-352 858h321l5 -14l120 -119l87 -234l140 367h322zM591 1399l-207 -544l-207 544h-226l331 -808v-623h204v623l333 808h-228zM666 1654l123 -123v-280h-553l-123 123h-10v290h563v-10zM350 1621h-205
v-204h205v204zM623 1621h-205v-204h205v204z" />
    <glyph glyph-name="currency" unicode="&#xa4;" horiz-adv-x="1369" 
d="M770 683q0 45 -16 78q-17 5 -34.5 8.5t-35.5 3.5q-44 0 -83.5 -18t-69.5 -48t-47.5 -69.5t-17.5 -82.5q0 -20 2 -36.5t8 -33.5q33 -16 80 -16q43 0 81.5 16.5t69.5 46.5q63 63 63 151zM184 108l-3 -4l-203 203l133 137q-58 113 -58 239t58 239l-133 136l203 203l136 -135
q114 60 239 60t239 -60l137 135l203 -203l-3 -3l124 -125l-133 -136q29 -54 44.5 -113.5t15.5 -125.5t-15.5 -125t-44.5 -113l12 -10l-2 -2l123 -126l-196 -196l-126 123l-2 -2l-12 10q-106 -58 -236 -58q-66 0 -125.5 15.5t-113.5 44.5l-136 -133zM812 683q0 -106 -75 -181
t-181 -75q-105 0 -181 75q-75 75 -75 181q0 105 75 180q76 76 181 76q106 0 181 -76q75 -75 75 -180zM947 439q70 109 70 244t-70 244l128 129l-145 145l-130 -128q-109 70 -244 70t-244 -70l-129 128l-145 -145l128 -129q-70 -109 -70 -244t70 -244l-128 -130l145 -145
l129 128q109 -70 244 -70t244 70l130 -128l145 145z" />
    <glyph glyph-name="guilsinglleft" horiz-adv-x="794" 
d="M597 922l125 -125l-241 -328l241 -327h-357l-123 123h-6l-246 332l246 333h368zM307 597l212 290h-263l-213 -290l213 -290h263z" />
    <glyph glyph-name="guilsinglleft" unicode="&#x2039;" horiz-adv-x="794" 
d="M597 922l125 -125l-241 -328l241 -327h-357l-123 123h-6l-246 332l246 333h368zM307 597l212 290h-263l-213 -290l213 -290h263z" />
    <glyph glyph-name="guilsinglright" horiz-adv-x="794" 
d="M321 903l107 -106l243 -328l-243 -327h-356l-123 123h-16l244 332l-244 333h369zM282 887h-263l211 -290l-211 -290h263l213 290z" />
    <glyph glyph-name="guilsinglright" unicode="&#x203a;" horiz-adv-x="794" 
d="M321 903l107 -106l243 -328l-243 -327h-356l-123 123h-16l244 332l-244 333h369zM282 887h-263l211 -290l-211 -290h263l213 290z" />
    <glyph glyph-name="daggerdbl" horiz-adv-x="973" 
d="M626 1169h82v-10l123 -123v-280h-123v-7l123 -123v-280h-205v-715h-280l-122 123h-11v592h-71l-123 123h-10v290h129l-119 120h-10v290h204v273h290v-10l123 -123v-140zM666 717h-205v205h205v204h-205v273h-205v-273h-205v-204h205v-205h-205v-205h205v-715h205v715h205
v205z" />
    <glyph glyph-name="daggerdbl" unicode="&#x2021;" horiz-adv-x="973" 
d="M626 1169h82v-10l123 -123v-280h-123v-7l123 -123v-280h-205v-715h-280l-122 123h-11v592h-71l-123 123h-10v290h129l-119 120h-10v290h204v273h290v-10l123 -123v-140zM666 717h-205v205h205v204h-205v273h-205v-273h-205v-204h205v-205h-205v-205h205v-715h205v715h205
v205z" />
    <glyph glyph-name="periodcentered" unicode="&#xb7;" horiz-adv-x="563" 
d="M341 860l123 -123v-30l123 -123v-335h-334l-123 123h-31l-123 123h-10v375h375v-10zM256 580h-205v205h205v-205zM299 828h-290v-290h10l123 -123h280v280l-123 122v11z" />
    <glyph glyph-name="quotesinglbase" horiz-adv-x="563" 
d="M309 213l-2 -10l125 -123l-51 -415h-198l-123 123h-11l-51 425h311zM46 171l43 -340h129l43 340h-215z" />
    <glyph glyph-name="quotesinglbase" unicode="&#x201a;" horiz-adv-x="563" 
d="M309 213l-2 -10l125 -123l-51 -415h-198l-123 123h-11l-51 425h311zM46 171l43 -340h129l43 340h-215z" />
    <glyph glyph-name="quotedblbase" horiz-adv-x="785" 
d="M531 213l-2 -10l125 -123l-52 -415h-198l-22 23l-1 -23h-198l-123 123h-11l-51 425h533zM46 171l43 -340h129l43 340h-215zM268 171l43 -340h129l43 340h-215z" />
    <glyph glyph-name="quotedblbase" unicode="&#x201e;" horiz-adv-x="785" 
d="M531 213l-2 -10l125 -123l-52 -415h-198l-22 23l-1 -23h-198l-123 123h-11l-51 425h533zM46 171l43 -340h129l43 340h-215zM268 171l43 -340h129l43 340h-215z" />
    <glyph glyph-name="perthousand" horiz-adv-x="1920" 
d="M183 785q-40 25 -70 67q-42 51 -60.5 109.5t-18.5 130.5t18.5 131t60.5 110q84 109 230 109q140 0 229 -113q1 -4 3.5 -6.5l4.5 -4.5l91 -91q6 -6 12.5 -13.5t12.5 -15.5q3 -5 9 -12l171 283l256 -145l-6 -6l125 -123l-355 -586q40 -13 73.5 -38t63.5 -61q2 -4 5.5 -8.5
t5.5 -8.5l36 -37q8 15 18.5 29.5l21.5 28.5q84 109 230 109q139 0 229 -113q2 -4 4 -6.5t4 -6.5l91 -89l12.5 -14t12.5 -15q38 -51 56.5 -108t18.5 -126q0 -136 -75 -235q-42 -54 -99 -81t-126 -27q-123 0 -203 80l-84 84q-6 -16 -15.5 -29t-18.5 -27q-42 -54 -99 -81
t-126 -27q-123 0 -203 80l-86 86q-19 13 -36.5 28.5t-33.5 35.5l-7.5 9.5l-7.5 9.5l-165 -275l-246 139l-115 112l-22 14l359 594q-57 20 -101 66l-21 21l16 -17q-4 4 -7.5 8t-8.5 9zM896 273q0 -136 -92 -136q-48 0 -75 46q-21 37 -21 90t21 91q27 46 75 46q92 0 92 -137z
M435 1092q0 -136 -92 -136q-48 0 -75 46q-21 37 -21 90t21 91q27 46 75 46q92 0 92 -137zM1442 273q0 -136 -92 -136q-48 0 -75 46q-21 37 -21 90t21 91q27 46 75 46q92 0 92 -137zM1067 273q0 127 -67 212q-75 95 -196 95q-123 0 -198 -94q-68 -89 -68 -213t68 -213
q75 -92 198 -92q121 0 196 93q67 85 67 212zM893 1411l-821 -1355l179 -100l821 1353zM606 1092q0 127 -67 212q-75 95 -196 95q-123 0 -198 -93q-68 -89 -68 -214q0 -124 68 -213q75 -94 198 -94q121 0 196 96q67 85 67 211zM1613 273q0 127 -67 212q-75 95 -196 95
q-123 0 -198 -94q-68 -89 -68 -213t68 -213q75 -92 198 -92q121 0 196 93q67 85 67 212z" />
    <glyph glyph-name="perthousand" unicode="&#x2030;" horiz-adv-x="1920" 
d="M183 785q-40 25 -70 67q-42 51 -60.5 109.5t-18.5 130.5t18.5 131t60.5 110q84 109 230 109q140 0 229 -113q1 -4 3.5 -6.5l4.5 -4.5l91 -91q6 -6 12.5 -13.5t12.5 -15.5q3 -5 9 -12l171 283l256 -145l-6 -6l125 -123l-355 -586q40 -13 73.5 -38t63.5 -61q2 -4 5.5 -8.5
t5.5 -8.5l36 -37q8 15 18.5 29.5l21.5 28.5q84 109 230 109q139 0 229 -113q2 -4 4 -6.5t4 -6.5l91 -89l12.5 -14t12.5 -15q38 -51 56.5 -108t18.5 -126q0 -136 -75 -235q-42 -54 -99 -81t-126 -27q-123 0 -203 80l-84 84q-6 -16 -15.5 -29t-18.5 -27q-42 -54 -99 -81
t-126 -27q-123 0 -203 80l-86 86q-19 13 -36.5 28.5t-33.5 35.5l-7.5 9.5l-7.5 9.5l-165 -275l-246 139l-115 112l-22 14l359 594q-57 20 -101 66l-21 21l16 -17q-4 4 -7.5 8t-8.5 9zM896 273q0 -136 -92 -136q-48 0 -75 46q-21 37 -21 90t21 91q27 46 75 46q92 0 92 -137z
M435 1092q0 -136 -92 -136q-48 0 -75 46q-21 37 -21 90t21 91q27 46 75 46q92 0 92 -137zM1442 273q0 -136 -92 -136q-48 0 -75 46q-21 37 -21 90t21 91q27 46 75 46q92 0 92 -137zM1067 273q0 127 -67 212q-75 95 -196 95q-123 0 -198 -94q-68 -89 -68 -213t68 -213
q75 -92 198 -92q121 0 196 93q67 85 67 212zM893 1411l-821 -1355l179 -100l821 1353zM606 1092q0 127 -67 212q-75 95 -196 95q-123 0 -198 -93q-68 -89 -68 -214q0 -124 68 -213q75 -94 198 -94q121 0 196 96q67 85 67 211zM1613 273q0 127 -67 212q-75 95 -196 95
q-123 0 -198 -94q-68 -89 -68 -213t68 -213q75 -92 198 -92q121 0 196 93q67 85 67 212z" />
    <glyph glyph-name="Acircumflex" unicode="&#xc2;" 
d="M558 1430l121 -121l394 -1507h-290l-123 123h-8l-56 217h-185l-85 -340h-288l-123 123h-12l394 1517h258zM299 512l128 481l128 -481h-256zM522 1399h-193l-372 -1431h212l87 339h341l87 -339h214zM585 1758l108 -108l293 -399h-333l-116 114l-82 -114h-332l-123 123h-16
l303 409h279zM546 1741h-239l-237 -324h237l119 165l120 -165h237z" />
    <glyph glyph-name="Ecircumflex" unicode="&#xca;" horiz-adv-x="1024" 
d="M737 201l121 -121l35 -278h-751l-123 123h-10v1517h761l-2 -10l125 -123l-35 -280h-436v-201h143l2 -12l121 -121l34 -280h-300v-202h314zM696 171h-440v409h295l-25 205h-270v410h440l26 204h-671v-1431h671zM543 1758l108 -108l293 -399h-333l-116 114l-82 -114h-332
l-123 123h-16l303 409h279zM504 1741h-239l-237 -324h237l119 165l120 -165h237z" />
    <glyph glyph-name="Aacute" unicode="&#xc1;" 
d="M558 1430l121 -121l394 -1507h-290l-123 123h-8l-56 217h-185l-85 -340h-288l-123 123h-12l394 1517h258zM299 512l128 481l128 -481h-256zM522 1399h-193l-372 -1431h212l87 339h341l87 -339h214zM693 1835l-5 -9l125 -124l-250 -451h-245l-123 123h-12l155 461h355z
M369 1792l-126 -375h170l208 375h-252z" />
    <glyph glyph-name="Edieresis" unicode="&#xcb;" horiz-adv-x="1024" 
d="M737 201l121 -121l35 -278h-751l-123 123h-10v1517h761l-2 -10l125 -123l-35 -280h-436v-201h143l2 -12l121 -121l34 -280h-300v-202h314zM696 171h-440v409h295l-25 205h-270v410h440l26 204h-671v-1431h671zM666 1654l123 -123v-280h-553l-123 123h-10v290h563v-10z
M350 1621h-205v-204h205v204zM623 1621h-205v-204h205v204z" />
    <glyph glyph-name="Egrave" unicode="&#xc8;" horiz-adv-x="1024" 
d="M737 201l121 -121l35 -278h-751l-123 123h-10v1517h761l-2 -10l125 -123l-35 -280h-436v-201h143l2 -12l121 -121l34 -280h-300v-202h314zM696 171h-440v409h295l-25 205h-270v410h440l26 204h-671v-1431h671zM476 1821l121 -119l152 -451h-246l-123 123h-8l-254 461h355
zM442 1792h-253l209 -375h170z" />
    <glyph glyph-name="Iacute" unicode="&#xcd;" horiz-adv-x="563" 
d="M299 1432l123 -123v-1507h-280l-123 123h-10v1517h290v-10zM256 1399h-205v-1431h205v1431zM422 1835l-5 -9l125 -124l-250 -451h-245l-123 123h-12l155 461h355zM98 1792l-126 -375h170l208 375h-252z" />
    <glyph glyph-name="Icircumflex" unicode="&#xce;" horiz-adv-x="563" 
d="M299 1432l123 -123v-1507h-280l-123 123h-10v1517h290v-10zM256 1399h-205v-1431h205v1431zM314 1758l108 -108l293 -399h-333l-116 114l-82 -114h-332l-123 123h-16l303 409h279zM275 1741h-239l-237 -324h237l119 165l120 -165h237z" />
    <glyph glyph-name="Idieresis" unicode="&#xcf;" horiz-adv-x="563" 
d="M299 1432l123 -123v-1507h-280l-123 123h-10v1517h290v-10zM256 1399h-205v-1431h205v1431zM437 1654l123 -123v-280h-553l-123 123h-10v290h563v-10zM121 1621h-205v-204h205v204zM394 1621h-205v-204h205v204z" />
    <glyph glyph-name="Igrave" unicode="&#xcc;" horiz-adv-x="563" 
d="M299 1432l123 -123v-1507h-280l-123 123h-10v1517h290v-10zM256 1399h-205v-1431h205v1431zM248 1821l121 -119l152 -451h-246l-123 123h-8l-254 461h355zM214 1792h-253l209 -375h170z" />
    <glyph glyph-name="Oacute" unicode="&#xd3;" horiz-adv-x="1536" 
d="M1024 683q0 88 -21.5 166t-63.5 141q-38 19 -79.5 29t-89.5 10q-94 0 -164.5 -35.5t-125.5 -107.5q-101 -137 -101 -331q0 -169 73 -290q79 -52 190 -52q181 0 285 144q97 133 97 326zM244 55q-27 22 -53 47.5t-49 54.5q-90 109 -133 239.5t-43 286.5t43 286t133 239
q192 234 500 234q307 0 496 -234q2 -2 3.5 -4.5t3.5 -3.5l68 -68l26.5 -27.5t23.5 -27.5q174 -213 174 -522q0 -310 -174 -523q-96 -115 -216.5 -172.5t-276.5 -57.5q-269 0 -451 179zM1067 683q0 -210 -106 -352q-118 -160 -319 -160q-202 0 -321 158q-108 144 -108 354
t108 353q118 159 321 159q200 0 319 -161q106 -142 106 -351zM1271 683q0 295 -165 498q-176 218 -464 218q-289 0 -468 -218q-165 -203 -165 -498q0 -297 165 -499q178 -216 468 -216q288 0 464 216q165 202 165 499zM906 1835l-5 -9l125 -124l-250 -451h-245l-123 123h-12
l155 461h355zM582 1792l-126 -375h170l208 375h-252z" />
    <glyph glyph-name="Ocircumflex" unicode="&#xd4;" horiz-adv-x="1536" 
d="M1024 683q0 88 -21.5 166t-63.5 141q-38 19 -79.5 29t-89.5 10q-94 0 -164.5 -35.5t-125.5 -107.5q-101 -137 -101 -331q0 -169 73 -290q79 -52 190 -52q181 0 285 144q97 133 97 326zM244 55q-27 22 -53 47.5t-49 54.5q-90 109 -133 239.5t-43 286.5t43 286t133 239
q192 234 500 234q307 0 496 -234q2 -2 3.5 -4.5t3.5 -3.5l68 -68l26.5 -27.5t23.5 -27.5q174 -213 174 -522q0 -310 -174 -523q-96 -115 -216.5 -172.5t-276.5 -57.5q-269 0 -451 179zM1067 683q0 -210 -106 -352q-118 -160 -319 -160q-202 0 -321 158q-108 144 -108 354
t108 353q118 159 321 159q200 0 319 -161q106 -142 106 -351zM1271 683q0 295 -165 498q-176 218 -464 218q-289 0 -468 -218q-165 -203 -165 -498q0 -297 165 -499q178 -216 468 -216q288 0 464 216q165 202 165 499zM799 1758l108 -108l293 -399h-333l-116 114l-82 -114
h-332l-123 123h-16l303 409h279zM760 1741h-239l-237 -324h237l119 165l120 -165h237z" />
    <glyph glyph-name="Ograve" unicode="&#xd2;" horiz-adv-x="1536" 
d="M1024 683q0 88 -21.5 166t-63.5 141q-38 19 -79.5 29t-89.5 10q-94 0 -164.5 -35.5t-125.5 -107.5q-101 -137 -101 -331q0 -169 73 -290q79 -52 190 -52q181 0 285 144q97 133 97 326zM244 55q-27 22 -53 47.5t-49 54.5q-90 109 -133 239.5t-43 286.5t43 286t133 239
q192 234 500 234q307 0 496 -234q2 -2 3.5 -4.5t3.5 -3.5l68 -68l26.5 -27.5t23.5 -27.5q174 -213 174 -522q0 -310 -174 -523q-96 -115 -216.5 -172.5t-276.5 -57.5q-269 0 -451 179zM1067 683q0 -210 -106 -352q-118 -160 -319 -160q-202 0 -321 158q-108 144 -108 354
t108 353q118 159 321 159q200 0 319 -161q106 -142 106 -351zM1271 683q0 295 -165 498q-176 218 -464 218q-289 0 -468 -218q-165 -203 -165 -498q0 -297 165 -499q178 -216 468 -216q288 0 464 216q165 202 165 499zM732 1821l121 -119l152 -451h-246l-123 123h-8
l-254 461h355zM698 1792h-253l209 -375h170z" />
    <glyph glyph-name="Uacute" unicode="&#xda;" horiz-adv-x="1280" 
d="M1015 1432l123 -123v-1010q0 -208 -145 -352q-145 -145 -351 -145q-209 0 -354 145l-78 77q-14 11 -27 23l-26 25q-75 75 -111.5 162t-36.5 193v1015h290v-10l123 -123v-1010q0 -40 10 -70q33 -16 82 -16q85 0 157 72v-2q27 31 40.5 65t13.5 79v1015h290v-10zM973 1399
h-205v-972q0 -104 -75 -180t-179 -76q-105 0 -181 76q-77 77 -77 180v972h-205v-972q0 -190 136 -325q137 -134 327 -134q187 0 324 134q135 135 135 325v972zM778 1835l-5 -9l125 -124l-250 -451h-245l-123 123h-12l155 461h355zM454 1792l-126 -375h170l208 375h-252z" />
    <glyph glyph-name="Ucircumflex" unicode="&#xdb;" horiz-adv-x="1280" 
d="M1015 1432l123 -123v-1010q0 -208 -145 -352q-145 -145 -351 -145q-209 0 -354 145l-78 77q-14 11 -27 23l-26 25q-75 75 -111.5 162t-36.5 193v1015h290v-10l123 -123v-1010q0 -40 10 -70q33 -16 82 -16q85 0 157 72v-2q27 31 40.5 65t13.5 79v1015h290v-10zM973 1399
h-205v-972q0 -104 -75 -180t-179 -76q-105 0 -181 76q-77 77 -77 180v972h-205v-972q0 -190 136 -325q137 -134 327 -134q187 0 324 134q135 135 135 325v972zM671 1758l108 -108l293 -399h-333l-116 114l-82 -114h-332l-123 123h-16l303 409h279zM632 1741h-239l-237 -324
h237l119 165l120 -165h237z" />
    <glyph glyph-name="Ugrave" unicode="&#xd9;" horiz-adv-x="1280" 
d="M1015 1432l123 -123v-1010q0 -208 -145 -352q-145 -145 -351 -145q-209 0 -354 145l-78 77q-14 11 -27 23l-26 25q-75 75 -111.5 162t-36.5 193v1015h290v-10l123 -123v-1010q0 -40 10 -70q33 -16 82 -16q85 0 157 72v-2q27 31 40.5 65t13.5 79v1015h290v-10zM973 1399
h-205v-972q0 -104 -75 -180t-179 -76q-105 0 -181 76q-77 77 -77 180v972h-205v-972q0 -190 136 -325q137 -134 327 -134q187 0 324 134q135 135 135 325v972zM604 1821l121 -119l152 -451h-246l-123 123h-8l-254 461h355zM570 1792h-253l209 -375h170z" />
    <glyph glyph-name="dotlessi" unicode="&#x131;" horiz-adv-x="553" 
d="M288 1304l123 -123v-1253h-269l-123 123h-10v1263h279v-10zM246 1271h-195v-1177h195v1177z" />
    <glyph glyph-name="circumflex" horiz-adv-x="1007" 
d="M534 1758l108 -108l293 -399h-333l-116 114l-82 -114h-332l-123 123h-16l303 409h279zM495 1741h-239l-237 -324h237l119 165l120 -165h237z" />
    <glyph glyph-name="circumflex" unicode="&#x2c6;" horiz-adv-x="1007" 
d="M534 1758l108 -108l293 -399h-333l-116 114l-82 -114h-332l-123 123h-16l303 409h279zM495 1741h-239l-237 -324h237l119 165l120 -165h237z" />
    <glyph glyph-name="tilde" horiz-adv-x="939" 
d="M674 1871l123 -123v-350q-131 -147 -242 -147q-31 0 -61 13.5t-59 42.5l-37 38q-11 8 -14 8q-45 0 -242 -215l-125 125q-2 -2 -4.5 -4t-3.5 -5v362q139 150 247 150q31 0 61.5 -13.5t59.5 -42.5v2q48 -48 50 -48q42 0 247 225v-18zM631 1778q-141 -157 -204 -157
q-21 0 -72 51q-49 52 -99 52q-93 0 -205 -123v-239q144 157 205 157q21 0 71 -51q49 -51 100 -51q94 0 204 122v239z" />
    <glyph glyph-name="tilde" unicode="&#x2dc;" horiz-adv-x="939" 
d="M674 1871l123 -123v-350q-131 -147 -242 -147q-31 0 -61 13.5t-59 42.5l-37 38q-11 8 -14 8q-45 0 -242 -215l-125 125q-2 -2 -4.5 -4t-3.5 -5v362q139 150 247 150q31 0 61.5 -13.5t59.5 -42.5v2q48 -48 50 -48q42 0 247 225v-18zM631 1778q-141 -157 -204 -157
q-21 0 -72 51q-49 52 -99 52q-93 0 -205 -123v-239q144 157 205 157q21 0 71 -51q49 -51 100 -51q94 0 204 122v239z" />
    <glyph glyph-name="macron" unicode="&#xaf;" horiz-adv-x="939" 
d="M717 1696l123 -122v-31l123 -123v-335h-710l-123 123h-31l-123 123h-10v376h751v-11zM631 1417h-580v204h580v-204zM674 1664h-665v-290h10l123 -123h655v280l-123 123v10z" />
    <glyph glyph-name="ring" unicode="&#x2da;" horiz-adv-x="768" 
d="M116 1415q-9 6 -18 14t-18 17q-35 37 -53 79t-18 96q0 103 71 174q38 38 80 56t96 18q101 0 172 -74q12 -11 21.5 -22.5t18.5 -24.5l90 -89q33 -33 50.5 -74t17.5 -92t-18 -93.5t-53 -78.5q-70 -70 -171 -70t-172 70zM307 1621q0 -51 -51 -51t-51 51q0 52 51 52t51 -52z
M461 1621q0 84 -61 144q-60 61 -144 61t-145 -61q-60 -60 -60 -144q0 -83 60 -144q61 -60 145 -60t144 60q61 61 61 144z" />
    <glyph glyph-name="caron" unicode="&#x2c7;" horiz-adv-x="1007" 
d="M817 1783l-6 -8l124 -125l-293 -399h-277l-123 123h-6l-303 409h345l19 -25l90 -92l86 117h344zM495 1741l-120 -166l-119 166h-237l237 -324h239l237 324h-237z" />
    <glyph glyph-name="nonbreakingspace" unicode="&#xa0;" horiz-adv-x="853" 
 />
    <glyph glyph-name="space" unicode=" " horiz-adv-x="853" 
 />
    <glyph glyph-name="exclam" unicode="!" horiz-adv-x="563" 
d="M299 1442v-10l123 -123l-18 -1212l18 -17v-278h-280l-123 123h-10v288h17l-17 1229h290zM256 171h-205v-203h205v203zM51 1399l17 -1160h171l17 1160h-205z" />
    <glyph glyph-name="Scaron" horiz-adv-x="1215" 
d="M952 522q2 0 2 -1zM200 5q-18 14 -35.5 29.5t-33.5 33.5q-122 136 -122 350v51h290v-10l123 -123v-42q0 -22 1 -40.5t5 -35.5q12 -2 25 -3.5t27 -1.5q85 0 131 47.5t46 132.5q-4 1 -6.5 1.5t-5.5 3.5q-291 121 -319 138l3 -2q-24 16 -45.5 32.5t-39.5 34.5l-80 80
q-152 110 -152 292q0 208 130 338q131 131 338 131q218 0 348 -145q8 -9 15 -19t15 -18l87 -89q3 -3 7 -5q121 -133 121 -347v-46h-279l-123 123h-11v48q0 23 -2 42.5t-6 37.5q-25 5 -44 5q-85 0 -133 -47t-50 -132q7 -4 17 -7q156 -64 237.5 -100.5t86.5 -39.5
q42 -27 74 -57.5t54 -65.5l58 -58l2 -1l14 -12q51 -51 76.5 -111t25.5 -133q0 -208 -131 -333l1 -2q-128 -128 -332 -128q-203 0 -328 125l-5 5q-3 2 -6.5 5t-5.5 7zM908 939q2 203 -111 329q-119 131 -317 131q-188 0 -307 -119q-118 -118 -118 -307q0 -176 167 -278
q12 -11 310 -135q168 -71 168 -167q0 -106 -57 -164t-163 -58q-227 0 -224 256h-205q-2 -203 111 -330q118 -129 318 -129q187 0 306 117q119 119 119 308q0 174 -168 278q-5 4 -82.5 37l-227.5 96q-168 70 -168 169q0 106 57.5 164t163.5 58q227 0 223 -256h205zM921 1783
l-6 -8l124 -125l-293 -399h-277l-123 123h-6l-303 409h345l19 -25l90 -92l86 117h344zM599 1741l-120 -166l-119 166h-237l237 -324h239l237 324h-237z" />
    <glyph glyph-name="Scaron" unicode="&#x160;" horiz-adv-x="1215" 
d="M952 522q2 0 2 -1zM200 5q-18 14 -35.5 29.5t-33.5 33.5q-122 136 -122 350v51h290v-10l123 -123v-42q0 -22 1 -40.5t5 -35.5q12 -2 25 -3.5t27 -1.5q85 0 131 47.5t46 132.5q-4 1 -6.5 1.5t-5.5 3.5q-291 121 -319 138l3 -2q-24 16 -45.5 32.5t-39.5 34.5l-80 80
q-152 110 -152 292q0 208 130 338q131 131 338 131q218 0 348 -145q8 -9 15 -19t15 -18l87 -89q3 -3 7 -5q121 -133 121 -347v-46h-279l-123 123h-11v48q0 23 -2 42.5t-6 37.5q-25 5 -44 5q-85 0 -133 -47t-50 -132q7 -4 17 -7q156 -64 237.5 -100.5t86.5 -39.5
q42 -27 74 -57.5t54 -65.5l58 -58l2 -1l14 -12q51 -51 76.5 -111t25.5 -133q0 -208 -131 -333l1 -2q-128 -128 -332 -128q-203 0 -328 125l-5 5q-3 2 -6.5 5t-5.5 7zM908 939q2 203 -111 329q-119 131 -317 131q-188 0 -307 -119q-118 -118 -118 -307q0 -176 167 -278
q12 -11 310 -135q168 -71 168 -167q0 -106 -57 -164t-163 -58q-227 0 -224 256h-205q-2 -203 111 -330q118 -129 318 -129q187 0 306 117q119 119 119 308q0 174 -168 278q-5 4 -82.5 37l-227.5 96q-168 70 -168 169q0 106 57.5 164t163.5 58q227 0 223 -256h205zM921 1783
l-6 -8l124 -125l-293 -399h-277l-123 123h-6l-303 409h345l19 -25l90 -92l86 117h344zM599 1741l-120 -166l-119 166h-237l237 -324h239l237 324h-237z" />
    <glyph glyph-name="scaron" horiz-adv-x="1215" 
d="M952 522q2 0 2 -1zM200 5q-18 14 -35.5 29.5t-33.5 33.5q-122 136 -122 350v51h290v-10l123 -123v-42q0 -22 1 -40.5t5 -35.5q12 -2 25 -3.5t27 -1.5q85 0 131 47.5t46 132.5q-4 1 -6.5 1.5t-5.5 3.5q-291 121 -319 138l3 -2q-24 16 -45.5 32.5t-39.5 34.5l-80 80
q-152 110 -152 292q0 208 130 338q131 131 338 131q218 0 348 -145q8 -9 15 -19t15 -18l87 -89q3 -3 7 -5q121 -133 121 -347v-46h-279l-123 123h-11v48q0 23 -2 42.5t-6 37.5q-25 5 -44 5q-85 0 -133 -47t-50 -132q7 -4 17 -7q156 -64 237.5 -100.5t86.5 -39.5
q42 -27 74 -57.5t54 -65.5l58 -58l2 -1l14 -12q51 -51 76.5 -111t25.5 -133q0 -208 -131 -333l1 -2q-128 -128 -332 -128q-203 0 -328 125l-5 5q-3 2 -6.5 5t-5.5 7zM908 939q2 203 -111 329q-119 131 -317 131q-188 0 -307 -119q-118 -118 -118 -307q0 -176 167 -278
q12 -11 310 -135q168 -71 168 -167q0 -106 -57 -164t-163 -58q-227 0 -224 256h-205q-2 -203 111 -330q118 -129 318 -129q187 0 306 117q119 119 119 308q0 174 -168 278q-5 4 -82.5 37l-227.5 96q-168 70 -168 169q0 106 57.5 164t163.5 58q227 0 223 -256h205zM921 1783
l-6 -8l124 -125l-293 -399h-277l-123 123h-6l-303 409h345l19 -25l90 -92l86 117h344zM599 1741l-120 -166l-119 166h-237l237 -324h239l237 324h-237z" />
    <glyph glyph-name="scaron" unicode="&#x161;" horiz-adv-x="1215" 
d="M952 522q2 0 2 -1zM200 5q-18 14 -35.5 29.5t-33.5 33.5q-122 136 -122 350v51h290v-10l123 -123v-42q0 -22 1 -40.5t5 -35.5q12 -2 25 -3.5t27 -1.5q85 0 131 47.5t46 132.5q-4 1 -6.5 1.5t-5.5 3.5q-291 121 -319 138l3 -2q-24 16 -45.5 32.5t-39.5 34.5l-80 80
q-152 110 -152 292q0 208 130 338q131 131 338 131q218 0 348 -145q8 -9 15 -19t15 -18l87 -89q3 -3 7 -5q121 -133 121 -347v-46h-279l-123 123h-11v48q0 23 -2 42.5t-6 37.5q-25 5 -44 5q-85 0 -133 -47t-50 -132q7 -4 17 -7q156 -64 237.5 -100.5t86.5 -39.5
q42 -27 74 -57.5t54 -65.5l58 -58l2 -1l14 -12q51 -51 76.5 -111t25.5 -133q0 -208 -131 -333l1 -2q-128 -128 -332 -128q-203 0 -328 125l-5 5q-3 2 -6.5 5t-5.5 7zM908 939q2 203 -111 329q-119 131 -317 131q-188 0 -307 -119q-118 -118 -118 -307q0 -176 167 -278
q12 -11 310 -135q168 -71 168 -167q0 -106 -57 -164t-163 -58q-227 0 -224 256h-205q-2 -203 111 -330q118 -129 318 -129q187 0 306 117q119 119 119 308q0 174 -168 278q-5 4 -82.5 37l-227.5 96q-168 70 -168 169q0 106 57.5 164t163.5 58q227 0 223 -256h205zM921 1783
l-6 -8l124 -125l-293 -399h-277l-123 123h-6l-303 409h345l19 -25l90 -92l86 117h344zM599 1741l-120 -166l-119 166h-237l237 -324h239l237 324h-237z" />
    <glyph glyph-name="Zcaron" unicode="&#x17d;" 
d="M930 1442l-5 -10l125 -123l-495 -1096h274l2 -12l121 -121l34 -278h-925l-122 123h-14l495 1104h-297l-123 123h-10l34 290h906zM63 1399l-25 -204h505l-552 -1227h825l-26 203h-479l553 1228h-801zM868 1783l-6 -8l124 -125l-293 -399h-277l-123 123h-6l-303 409h345
l19 -25l90 -92l86 117h344zM546 1741l-120 -166l-119 166h-237l237 -324h239l237 324h-237z" />
    <glyph glyph-name="zcaron" unicode="&#x17e;" 
d="M930 1442l-5 -10l125 -123l-495 -1096h274l2 -12l121 -121l34 -278h-925l-122 123h-14l495 1104h-297l-123 123h-10l34 290h906zM63 1399l-25 -204h505l-552 -1227h825l-26 203h-479l553 1228h-801zM868 1783l-6 -8l124 -125l-293 -399h-277l-123 123h-6l-303 409h345
l19 -25l90 -92l86 117h344zM546 1741l-120 -166l-119 166h-237l237 -324h239l237 324h-237z" />
    <glyph glyph-name="brokenbar" unicode="&#xa6;" horiz-adv-x="563" 
d="M299 1603l123 -123v-1849h-280l-123 123h-10v1859h290v-10zM256 649h-205v-852h205v852zM256 1570h-205v-853h205v853z" />
    <glyph glyph-name="Yacute" unicode="&#xdd;" horiz-adv-x="1024" 
d="M882 1442l-5 -10l125 -123l-350 -852v-655h-280l-123 123h-10v659l-352 858h321l5 -14l120 -119l87 -234l140 367h322zM591 1399l-207 -544l-207 544h-226l331 -808v-623h204v623l333 808h-228zM650 1835l-5 -9l125 -124l-250 -451h-245l-123 123h-12l155 461h355z
M326 1792l-126 -375h170l208 375h-252z" />
    <glyph glyph-name="yacute" unicode="&#xfd;" horiz-adv-x="1024" 
d="M882 1442l-5 -10l125 -123l-350 -852v-655h-280l-123 123h-10v659l-352 858h321l5 -14l120 -119l87 -234l140 367h322zM591 1399l-207 -544l-207 544h-226l331 -808v-623h204v623l333 808h-228zM650 1835l-5 -9l125 -124l-250 -451h-245l-123 123h-12l155 461h355z
M326 1792l-126 -375h170l208 375h-252z" />
    <glyph glyph-name="Thorn" unicode="&#xde;" horiz-adv-x="1203" 
d="M691 683q0 9 -1 18.5l-2 18.5q-6 2 -12 2h-254v-201h126q33 0 59 12.5t45 34t29 51t10 64.5zM422 1135h126q190 0 310 -133q8 -11 16.5 -20t14.5 -19l87 -87q5 -5 7 -6q121 -133 121 -315q0 -189 -119 -314q-120 -133 -309 -133h-254v-306h-280l-123 123h-10v1517h290
v-10l123 -123v-174zM734 683q0 -88 -51 -146q-50 -59 -135 -59h-292v409h292q85 0 135 -59q51 -59 51 -145zM939 683q0 170 -110 289q-110 120 -281 120h-292v307h-205v-1431h205v305h292q172 0 281 121q110 116 110 289z" />
    <glyph glyph-name="thorn" unicode="&#xfe;" horiz-adv-x="1203" 
d="M691 683q0 9 -1 18.5l-2 18.5q-6 2 -12 2h-254v-201h126q33 0 59 12.5t45 34t29 51t10 64.5zM422 1135h126q190 0 310 -133q8 -11 16.5 -20t14.5 -19l87 -87q5 -5 7 -6q121 -133 121 -315q0 -189 -119 -314q-120 -133 -309 -133h-254v-306h-280l-123 123h-10v1517h290
v-10l123 -123v-174zM734 683q0 -88 -51 -146q-50 -59 -135 -59h-292v409h292q85 0 135 -59q51 -59 51 -145zM939 683q0 170 -110 289q-110 120 -281 120h-292v307h-205v-1431h205v305h292q172 0 281 121q110 116 110 289z" />
    <glyph glyph-name="minus" unicode="&#xad;" horiz-adv-x="939" 
d="M717 860l123 -123v-30l123 -123v-335h-710l-123 123h-31l-123 123h-10v375h751v-10zM631 580h-580v205h580v-205zM674 828h-665v-290h10l123 -123h655v280l-123 122v11z" />
    <glyph glyph-name="multiply" unicode="&#xd7;" horiz-adv-x="884" 
d="M650 811l125 -125l-135 -123l14 -12l-4 -3l125 -125l-202 -201l-124 124l-4 -3l-13 14l-121 -135l-125 124l-3 -3l-209 208l140 128l-58 60l-82 75l209 208l64 -73l64 -62l5 -8l129 143l209 -208zM445 683l147 131l-147 147l-131 -147l-131 147l-147 -147l147 -131
l-147 -132l147 -147l131 147l131 -147l147 147z" />
    <glyph glyph-name="Euro" unicode="&#x20ac;" horiz-adv-x="1608" 
d="M725 295q4 -12 14 -27q42 -27 85 -41t94 -14q92 0 214 82h-407zM1408 1224l125 -123l-166 -232q-166 160 -321 160q-116 0 -210 -77q-4 -2 -7 -5h419l-6 -10l125 -123l-102 -246h-40l28 -27l-94 -227q35 24 71 55.5l76 69.5v-17l122 -123v-360q-100 -69 -198 -103
t-201 -34q-221 0 -396 157l-90 89l-21 17t-20 19q-95 87 -159 211h-237l-123 123h-14l108 256h36l-17 17h-14l107 256h103q36 105 89.5 188.5t128.5 149.5q91 81 192.5 119t215.5 38q127 0 249.5 -52t243.5 -161zM1355 1224q-196 175 -437 175q-213 0 -379 -145
q-153 -135 -215 -349h-106l-71 -171h147q-1 -13 -1.5 -25.5t-0.5 -25.5t0.5 -26t1.5 -26h-188l-72 -170h290q60 -212 207 -347q161 -146 370 -146q191 0 362 117v255q-175 -169 -345 -169q-131 0 -234 85q-95 77 -145 205h458l71 170h-570q-1 5 -1 11v13v28v27v13t1 11h613
l72 171h-644q52 126 145 204q104 86 234 86q167 0 316 -140z" />
  </font>
</defs>
</svg>
