<?xml version="1.0" standalone="no"?>
<!DOCTYPE svg PUBLIC "-//W3C//DTD SVG 1.1//EN" "http://www.w3.org/Graphics/SVG/1.1/DTD/svg11.dtd" >
<svg>
<metadata>
Created by FontForge 20120731 at Sat Sep  7 10:48:21 2019
 By ffonts
School Holic (Orenari). 2019. All Rights Reserved
</metadata>
<defs>
<font id="SchoolHolic5-SchoolHolic5" horiz-adv-x="508" >
  <font-face 
    font-family="School Holic 5"
    font-weight="400"
    font-stretch="normal"
    units-per-em="2048"
    panose-1="2 0 5 0 0 0 0 0 0 0"
    ascent="1638"
    descent="-410"
    x-height="894"
    cap-height="1569"
    bbox="-294.76 -833.392 2179.5 1831.47"
    underline-thickness="150"
    underline-position="-142"
    unicode-range="U+001D-007A"
  />
<missing-glyph horiz-adv-x="1024" 
 />
    <glyph glyph-name=".notdef" horiz-adv-x="1024" 
 />
    <glyph glyph-name=".null" horiz-adv-x="0" 
 />
    <glyph glyph-name=".null" horiz-adv-x="0" 
 />
    <glyph glyph-name="nonmarkingreturn" 
 />
    <glyph glyph-name="space" unicode=" " 
 />
    <glyph glyph-name="space" unicode="&#xa0;" 
 />
    <glyph glyph-name="exclam" unicode="!" horiz-adv-x="540" 
 />
    <glyph glyph-name="quotedbl" unicode="&#x22;" horiz-adv-x="698" 
 />
    <glyph glyph-name="numbersign" unicode="#" horiz-adv-x="1620" 
 />
    <glyph glyph-name="dollar" unicode="$" horiz-adv-x="1019" 
 />
    <glyph glyph-name="percent" unicode="%" horiz-adv-x="1120" 
 />
    <glyph glyph-name="ampersand" unicode="&#x26;" horiz-adv-x="788" 
 />
    <glyph glyph-name="quotesingle" unicode="'" horiz-adv-x="412" 
 />
    <glyph glyph-name="parenleft" unicode="(" horiz-adv-x="798" 
 />
    <glyph glyph-name="parenright" unicode=")" horiz-adv-x="800" 
 />
    <glyph glyph-name="asterisk" unicode="*" horiz-adv-x="818" 
 />
    <glyph glyph-name="plus" unicode="+" horiz-adv-x="987" 
 />
    <glyph glyph-name="comma" unicode="," horiz-adv-x="516" 
 />
    <glyph glyph-name="hyphenminus" unicode="-" horiz-adv-x="1051" 
 />
    <glyph glyph-name="hyphenminus" unicode="&#xad;" horiz-adv-x="1051" 
 />
    <glyph glyph-name="period" unicode="." horiz-adv-x="473" 
 />
    <glyph glyph-name="slash" unicode="/" horiz-adv-x="1389" 
 />
    <glyph glyph-name="zero" unicode="0" horiz-adv-x="1228" 
 />
    <glyph glyph-name="one" unicode="1" horiz-adv-x="721" 
 />
    <glyph glyph-name="two" unicode="2" horiz-adv-x="1181" 
 />
    <glyph glyph-name="three" unicode="3" horiz-adv-x="1250" 
 />
    <glyph glyph-name="four" unicode="4" horiz-adv-x="1179" 
 />
    <glyph glyph-name="five" unicode="5" horiz-adv-x="1116" 
 />
    <glyph glyph-name="six" unicode="6" horiz-adv-x="1144" 
 />
    <glyph glyph-name="seven" unicode="7" horiz-adv-x="1148" 
 />
    <glyph glyph-name="eight" unicode="8" horiz-adv-x="1301" 
 />
    <glyph glyph-name="nine" unicode="9" horiz-adv-x="1140" 
 />
    <glyph glyph-name="colon" unicode=":" horiz-adv-x="452" 
 />
    <glyph glyph-name="semicolon" unicode=";" horiz-adv-x="473" 
 />
    <glyph glyph-name="semicolon" unicode="&#x37e;" horiz-adv-x="473" 
 />
    <glyph glyph-name="less" unicode="&#x3c;" horiz-adv-x="789" 
 />
    <glyph glyph-name="equal" unicode="=" horiz-adv-x="901" 
 />
    <glyph glyph-name="greater" unicode="&#x3e;" horiz-adv-x="794" 
 />
    <glyph glyph-name="question" unicode="?" horiz-adv-x="951" 
 />
    <glyph glyph-name="at" unicode="@" horiz-adv-x="1586" 
 />
    <glyph glyph-name="A" unicode="A" horiz-adv-x="1689" 
d="M1115 1291c5 -15 10 -31 14 -46c4 -12 8 -24 12 -37c29 -87 60 -174 94 -259c22 -57 43 -113 63 -170c37 -101 75 -201 114 -301c14 -37 28 -75 43 -113c21 -55 44 -109 68 -162c11 -26 22 -52 33 -77c4 -10 8 -20 12 -29c17 -40 34 -80 51 -119c7 -17 9 -32 7 -46
c-2 -15 -11 -22 -27 -22c-63 3 -118 1 -164 -5c-25 -3 -52 -5 -83 -7c-47 -1 -79 11 -96 37c-23 24 -42 43 -56 56c-15 14 -28 27 -37 38c-10 11 -20 26 -29 45c-9 18 -21 44 -34 79c-1 1 -1 2 -1 3c-3 9 -8 20 -14 34l-164 -2h-9c-23 1 -58 1 -103 1c-46 -1 -90 -2 -131 -3
s-67 -4 -76 -8c-8 -5 -17 -21 -28 -46c-11 -26 -23 -55 -35 -88c-13 -33 -25 -64 -37 -91s-22 -44 -31 -51c-8 -5 -21 -7 -38 -7c-18 0 -38 1 -61 4c-24 2 -45 3 -64 3c-11 -1 -22 -1 -32 -1c-48 -2 -84 -2 -107 0c-24 2 -44 9 -59 21c-16 12 -37 32 -62 60
c-9 11 -21 24 -34 37c-9 7 -13 19 -10 36c2 17 7 36 15 56c8 19 15 36 21 49c3 5 5 10 6 13c19 43 38 85 57 127c39 80 73 162 104 247c26 76 53 145 80 206c9 21 18 43 28 67c81 198 159 397 234 598c24 63 54 101 90 115c36 13 85 18 148 15c33 1 66 -1 97 -5
s55 -14 72 -30c29 -30 59 -60 88 -91c17 -9 30 -22 39 -41s18 -44 27 -75c2 -5 4 -10 5 -15zM233 6c11 -1 22 -1 33 -2c5 0 9 0 13 -1l-49 -49c-17 1 -32 2 -46 3zM151 -42c-3 1 -5 1 -7 1c-5 0 -9 0 -13 1l-5 5l41 41c11 1 21 1 32 1zM85 7c8 -8 16 -16 23 -24l23 22
c-15 0 -31 1 -46 2zM312 1l-48 -48h10h19l48 48h-29zM365 -11l-37 -37c18 0 35 1 50 2l11 10zM390 50l160 160c11 21 23 33 35 35l48 48c-9 0 -19 0 -28 -1l-195 -193c-7 -19 -14 -35 -20 -49zM433 157l45 45l89 89c-21 -1 -38 -2 -51 -3l-49 -48c-11 -24 -22 -52 -34 -83z
M671 294l-47 -47v0c13 -1 28 -1 47 0l48 47h-48zM755 294l-46 -46h1c15 1 30 1 45 2l44 44h-36h-8zM836 294l-43 -43c12 0 24 0 37 -1h9l45 45c-5 -1 -11 -1 -16 -1h-32zM922 295l-47 -46h46l33 32l15 15c-15 0 -30 0 -47 -1zM1004 294l-46 -45l46 -1l31 31
c-7 8 -13 13 -20 14c-3 1 -6 1 -11 1zM1051 258l-10 -10l16 -1c-2 4 -4 8 -6 11zM518 142l-54 -54c-23 -23 -46 -45 -69 -68c5 -6 11 -12 16 -17l8 -8l63 62c7 16 12 29 16 38c1 3 1 5 2 7c3 7 6 13 9 20s6 13 9 20zM1261 4l-6 -5l12 -12c3 -4 7 -8 11 -12l26 26l8 8
c-17 -2 -34 -4 -51 -5zM1353 13l-55 -55c9 -1 24 -1 46 0l58 58c-13 -1 -27 -2 -40 -3h-9zM1440 17l-57 -58h3c9 1 19 1 28 2c9 9 19 18 28 27c10 9 20 19 29 28c-11 1 -21 1 -31 1zM1496 5l-43 -42c19 1 35 2 49 3l16 16zM932 1442c-4 9 -8 18 -12 26c-5 7 -10 12 -15 13
c-19 4 -48 7 -87 10s-77 2 -114 -3s-61 -16 -73 -33c-16 -29 -40 -84 -72 -165s-63 -161 -94 -241c-28 -73 -48 -125 -60 -155c-10 -24 -20 -47 -29 -68c-31 -72 -62 -150 -93 -234c-57 -153 -121 -304 -191 -452c0 -1 0 -1 -1 -2c-6 -13 -11 -24 -14 -35
c-4 -11 -7 -24 -8 -38c18 -2 46 -4 84 -6c37 -2 73 -2 108 -1s57 5 66 12c5 4 11 13 18 28s14 31 21 48s14 32 19 45c3 7 6 13 7 16s2 5 3 7c19 46 34 79 45 99s21 32 32 36c10 4 25 5 44 3c12 -1 28 -1 47 0c12 1 24 1 36 2c41 2 82 2 123 1c17 -1 48 -1 92 -1h100
c35 -1 65 -2 91 -3s42 -3 47 -6c21 -15 43 -47 66 -95c3 -7 8 -19 15 -35c9 -19 18 -39 29 -62s21 -43 31 -60c9 -17 17 -27 22 -30c4 -1 17 0 38 1s46 2 74 3s54 3 77 4c25 2 42 3 49 3c-17 40 -35 80 -52 120c-43 96 -84 193 -121 291c-5 11 -9 23 -13 34
c-48 131 -97 261 -146 391c-1 4 -3 8 -4 12c-59 153 -115 307 -166 462l-16 52zM1034 1351l-10 -10c1 -4 3 -8 4 -12l3 -12l12 12c-3 7 -6 15 -9 22zM1052 1302l-12 -12l12 -33l11 11c-2 5 -4 11 -5 16c-1 4 -3 8 -4 11zM1072 1241l-11 -11c4 -12 8 -24 13 -36l10 10
c-4 13 -8 25 -12 37zM1093 1178l-10 -9c1 -3 2 -5 3 -7c3 -9 6 -17 9 -26l9 9c-2 5 -4 11 -5 16c-2 6 -4 12 -6 17zM1114 1118l-9 -8c3 -6 5 -12 7 -19c3 -6 5 -12 7 -18l8 8c-5 12 -9 24 -13 37zM1136 1055l-7 -7l12 -33l7 7c-2 5 -4 11 -6 16c-2 6 -4 12 -6 17zM1158 995
l-6 -6c1 -2 1 -4 2 -7c2 -5 4 -11 7 -17l6 6zM1176 945l-6 -6l12 -33l7 7zM1199 886l-7 -7c3 -7 5 -15 8 -23l7 7zM1217 838l-7 -8c2 -5 4 -11 6 -16s4 -11 6 -17l7 8zM1239 778l-7 -7c4 -12 8 -24 13 -35l8 7zM1262 718l-7 -8l12 -32l7 7zM1284 658l-7 -7l14 -36l7 7z
M1308 596l-7 -6l12 -33l7 7zM1330 537l-6 -6l9 -24l6 6zM1348 487l-5 -6l4 -10c3 -7 5 -15 8 -22l5 5zM1370 427l-4 -4c3 -7 6 -15 9 -22l4 4zM817 1111l48 -131l130 -327l31 -63c8 -14 9 -27 2 -39c-7 -13 -20 -15 -40 -8c-7 2 -20 3 -37 3c-18 -1 -36 -1 -55 -2
c-17 -1 -31 -2 -40 -2c-27 1 -51 2 -72 3c-31 1 -59 2 -85 1c-27 -1 -59 -3 -98 -7c-31 -3 -50 0 -59 9s-10 21 -5 37s11 33 20 51c5 10 10 20 14 30c28 71 54 144 78 217c13 38 26 76 39 113c17 48 37 95 60 140c9 17 18 26 27 25s17 -7 25 -17c7 -11 13 -22 17 -33z
M695 861l-18 -51c-2 -5 -4 -11 -5 -16c47 47 94 93 141 140c1 1 1 3 1 5c2 3 4 7 5 10l-12 27l-74 -74c-12 -13 -24 -25 -37 -37zM717 923c26 27 52 53 79 79l-13 32l-19 -19l-20 -20zM790 876c-46 -45 -92 -91 -137 -137c-8 -22 -16 -44 -25 -65l-4 -9l104 104l38 38z
M747 750l-56 -56l-90 -89c0 -1 0 -1 -1 -2c-1 -3 -1 -5 -2 -8c15 1 29 3 44 4c27 26 53 52 80 79c9 24 17 48 25 72zM703 623l-23 -23c5 1 9 1 13 1h2c3 7 5 15 8 22zM848 878c-20 -51 -38 -102 -55 -153c-14 -41 -29 -83 -44 -124c28 -1 52 -3 73 -4c21 -2 43 -3 64 -4
s46 1 74 4z" />
    <glyph glyph-name="B" unicode="B" horiz-adv-x="1307" 
d="M794 914c-13 4 -26 7 -39 10l71 70c-5 -27 -14 -51 -26 -74zM449 1139c-1 7 -3 13 -6 19c-23 -24 -47 -48 -70 -71v-14c18 3 35 11 51 24s24 27 25 42zM373 1123l53 53c-11 7 -22 12 -34 15l-19 -19v-49zM103 18c8 -1 16 -1 23 -1h1l-11 -12zM133 -13l27 28h2
c9 -1 18 -1 27 -1l-41 -42zM179 -32l44 44h26c7 0 15 0 22 -1l-43 -42h-10c-13 -1 -26 -1 -39 -1zM263 -31l43 42h45l-44 -44c-8 1 -16 1 -23 1c-7 1 -14 1 -21 1zM341 -35l45 46h25h25l-14 -14l-34 -34c-17 1 -32 1 -47 2zM422 -38l49 50c16 0 32 0 48 1l-51 -52
c-16 0 -31 0 -46 1zM502 -40l54 53l49 1l-55 -55c-16 0 -32 0 -48 1zM585 -41l56 56h14h11h6l-57 -56h-30zM651 -41l19 18l40 40c18 1 36 3 54 5l-63 -62c-16 -1 -33 -1 -50 -1zM739 -38l68 68c12 2 24 5 36 8l-75 -75c-9 -1 -19 -1 -29 -1zM807 -34c31 31 61 61 92 91
c87 33 152 97 195 194c14 14 28 28 43 42l43 43c0 -16 -1 -32 -2 -48l-316 -316c-17 -2 -36 -4 -55 -6zM905 -21l267 266c-1 -3 -1 -7 -2 -11v-1c-3 -15 -7 -30 -10 -45l-10 -10c-62 -61 -124 -122 -185 -183c-17 -6 -37 -11 -60 -16zM1041 35l93 92c-1 -3 -3 -5 -5 -8
c-27 -34 -56 -62 -88 -84zM1178 370c-11 -11 -22 -21 -33 -32l-33 -33c3 12 6 24 8 37l20 19l36 36c1 -9 1 -18 2 -27zM1171 429l-45 -44c1 16 2 32 2 48l34 33c3 -12 6 -24 9 -37zM1154 494l-27 -26c0 9 -1 19 -2 28l21 21c3 -7 5 -15 8 -23zM1135 544l-15 -15
c-2 13 -5 25 -8 37l8 8zM1107 596l-2 -1l-3 9c1 -3 3 -5 5 -8zM139 -82c13 -3 25 -5 38 -6s23 -1 32 0h12c152 -7 304 -9 456 -4c29 1 58 1 87 1c103 0 195 19 276 58c80 39 138 110 175 213c21 74 27 149 17 224c-11 75 -34 146 -71 213c-25 43 -53 75 -83 97
c-17 14 -35 31 -54 51c-49 57 -108 100 -177 129c33 63 47 135 41 217c-7 82 -35 149 -85 202l-83 76c-8 9 -14 17 -18 22l-12 12s-7 7 -12 11c-5 5 -12 11 -21 20c-69 59 -149 93 -242 104s-182 9 -269 -5c-13 -3 -27 -6 -40 -10c-25 -9 -50 -12 -76 -9c-10 2 -17 0 -21 -7
s-6 -14 -7 -23s-2 -17 -1 -24c1 -51 3 -103 5 -154c4 -105 7 -210 9 -315c1 -112 2 -224 3 -335c1 -68 1 -136 2 -204l-3 -334c1 -6 1 -12 0 -18c0 -18 1 -36 4 -53c2 -17 8 -32 19 -44zM418 625l1 -1v1h-1zM437 606c3 -4 7 -8 11 -12s8 -8 12 -11l22 22s15 15 23 22
c-15 2 -29 3 -44 3zM487 573c15 3 33 5 53 6l34 34c-7 3 -15 5 -23 6c-4 1 -9 2 -14 3zM577 579c9 -1 19 -1 28 -2l4 4l11 11c-7 4 -13 7 -19 10zM638 573c2 0 4 0 7 -1l-3 3c-1 0 -1 0 -2 1zM429 552l-23 24l-37 -38c-1 -16 -1 -31 0 -45c20 20 40 40 60 59zM389 594l-7 7
c-3 -7 -6 -14 -8 -22zM370 457c-1 -15 -1 -31 -1 -49l54 54c2 22 5 41 10 57zM370 373c1 -9 2 -18 3 -26l47 47v1c0 9 0 19 1 29zM385 323c8 -5 20 -7 35 -7v41zM857 820c30 -15 57 -32 82 -51s46 -44 64 -75c63 -111 82 -230 59 -355c0 -1 0 -1 -1 -2
c-5 -41 -19 -78 -40 -113c-43 -55 -90 -93 -142 -114s-112 -34 -180 -38c-87 -7 -179 -10 -278 -7c-99 2 -192 5 -279 10c-5 0 -12 0 -23 -1c-9 -1 -17 -1 -25 -1c-8 -1 -13 -1 -16 0l-2 149l-6 775l-13 462c0 11 5 17 16 19c147 43 294 43 441 0c65 -24 118 -67 158 -130
s58 -128 53 -193c-7 -65 -19 -109 -35 -134c-17 -25 -33 -42 -49 -51c-7 -5 -14 -10 -19 -15c-6 -5 -10 -12 -13 -21c-10 -29 -7 -48 8 -55s38 -11 67 -10c33 1 65 -4 98 -14zM684 927c1 1 2 3 3 5l4 4l3 3c10 11 19 22 27 33l44 44l45 45l24 24c1 -12 1 -24 0 -36
c-1 -3 -1 -7 -2 -11l-110 -110c-7 1 -14 1 -21 0h-3h-7c-3 -1 -6 -1 -7 -1zM760 1046c7 21 12 42 15 63l47 47c4 -13 7 -26 9 -39zM779 1150c1 15 2 31 1 46l18 17c5 -10 9 -20 14 -30zM778 1229c-1 7 -2 15 -3 22c3 -5 7 -10 10 -15zM589 667c68 -19 117 -58 146 -119
c6 -13 10 -29 13 -47s3 -33 2 -45c-14 -68 -43 -114 -88 -139s-100 -42 -163 -51c-17 -3 -39 -5 -64 -7s-49 -1 -71 3c-22 3 -37 12 -44 26c-3 9 -6 25 -7 48s-2 47 -1 74v71c1 11 1 20 1 27v7c-1 25 1 52 5 83c3 30 14 53 31 68c17 11 40 17 71 18s62 0 94 -3
c32 -4 57 -9 75 -14zM685 507c-16 5 -37 10 -62 14c-25 3 -50 4 -74 2c-25 -2 -43 -9 -54 -22c-10 -13 -16 -30 -17 -51s-1 -42 0 -61v-19v-24c-1 -8 -1 -17 -1 -26c27 4 53 9 78 16c24 6 42 11 53 15c71 32 96 84 77 156zM315 1099c1 23 1 45 0 67c-1 27 0 49 4 64
s16 24 37 26c24 1 49 -5 76 -19c26 -14 46 -32 61 -55s16 -48 5 -74c-27 -59 -72 -91 -137 -96c-23 -1 -36 6 -41 22c-5 15 -6 37 -5 65z" />
    <glyph glyph-name="C" unicode="C" horiz-adv-x="1373" 
d="M599 -78c-101 26 -197 74 -286 144c-89 69 -161 149 -214 240c-35 64 -59 131 -74 200s-23 140 -25 213c5 173 45 338 118 495c62 127 155 226 280 295c100 53 212 76 336 67s234 -39 331 -90c33 -19 71 -50 115 -91s80 -76 107 -105c12 -6 19 -12 22 -19s1 -16 -6 -28
c-49 -88 -103 -174 -161 -257c-10 -15 -22 -26 -36 -34c-14 -9 -29 -5 -46 10c-29 27 -62 45 -99 54c-37 8 -74 13 -113 14c-61 1 -113 -14 -154 -45s-74 -72 -97 -122c-23 -51 -38 -103 -45 -158c-5 -43 -5 -90 0 -141s18 -97 38 -140c53 -23 110 -33 171 -30
c60 3 109 23 148 58c15 15 27 23 38 25c10 2 21 -2 34 -13l93 -95c8 -4 18 -12 29 -24c25 -28 52 -66 79 -114c23 -40 48 -77 73 -111c11 -14 15 -24 12 -31c-4 -7 -14 -13 -31 -18c-5 -2 -10 -4 -13 -7c-4 -3 -7 -7 -10 -11c-2 -3 -4 -5 -7 -8c-85 -83 -179 -132 -283 -146
c-105 -14 -213 -6 -324 23zM1176 1311l-9 -9l-78 -123l111 111c-8 9 -16 16 -24 21zM1173 101l-6 7l-104 -103c14 8 27 17 40 27zM1149 127l-23 24c-65 -65 -130 -129 -195 -194c23 5 45 11 66 18zM1025 88c-22 -15 -45 -29 -69 -40l-101 -100l33 3zM897 25
c-21 -7 -43 -13 -66 -17l-19 -19l-42 -42c16 -1 32 -1 48 -1zM789 2c-17 -2 -34 -3 -51 -4l-43 -43c14 -2 28 -4 42 -5l26 26zM702 -3c-15 1 -31 2 -46 3l-31 -31c13 -3 27 -6 40 -9zM623 3c-13 1 -27 3 -40 5l-21 -22c11 -3 23 -7 34 -10zM553 13c-13 3 -27 6 -40 9
l-12 -12c11 -5 23 -10 35 -14zM484 29c-7 2 -15 4 -22 6l-5 -4c7 -3 13 -7 20 -10zM1032 1086l12 -12s8 -8 12 -13c53 54 107 108 161 161c1 1 1 3 2 4s1 3 2 4c5 13 4 26 -5 39c-61 -61 -123 -122 -184 -183zM1073 1044l19 -19c8 12 16 24 25 36c18 26 36 52 53 79l-48 -48
s-32 -32 -49 -48zM1002 333c-14 27 -32 51 -53 73c-43 -34 -94 -56 -152 -65c-59 -9 -116 -6 -173 9c-103 29 -172 85 -207 167c-36 81 -48 180 -37 296c4 53 18 107 42 162c23 55 56 102 98 142c41 40 91 63 149 70c111 13 216 -7 313 -59c9 13 19 27 28 41
c39 53 73 108 103 167c5 11 4 22 -2 33c-7 11 -15 22 -25 32c-10 9 -19 17 -27 22c-60 38 -128 64 -205 79s-150 20 -219 17c-70 -2 -135 -20 -196 -54c-110 -65 -191 -144 -242 -235c-51 -92 -88 -199 -110 -321c-22 -108 -25 -218 -10 -330c15 -113 54 -215 117 -308
c46 -64 104 -113 175 -146c70 -33 144 -55 221 -66c68 -10 138 -10 211 1c73 10 137 36 194 77c25 20 48 42 68 67c9 9 10 19 1 30c-21 28 -40 57 -55 86c-2 5 -4 9 -7 13zM493 507c-2 12 -4 24 -5 35l-8 -9c4 -9 8 -17 13 -26zM469 559l16 16c-1 15 -1 31 -1 46l-27 -26
c3 -13 7 -25 12 -36zM450 624l35 35c0 10 0 20 1 29l-40 -40c1 -8 3 -16 4 -24zM442 680l48 49c3 19 7 38 12 58l-63 -62zM440 762l27 27l34 34c6 5 12 11 17 16c7 18 14 36 22 53l-98 -98c-1 -11 -1 -21 -2 -32zM448 836c57 57 114 115 171 172l127 127h-7
c-13 1 -26 0 -38 -1c-80 -79 -160 -158 -239 -237c-6 -20 -11 -40 -14 -61zM482 953c58 57 116 115 174 172c-41 -13 -75 -34 -104 -64c-29 -31 -53 -67 -70 -108zM781 1132l-65 -64c14 5 29 9 44 12l50 49c-10 1 -20 2 -29 3zM840 1124l-12 -12l-28 -28c16 1 31 1 46 1
l29 29c-11 4 -23 7 -35 10zM901 1103l-19 -19c9 -1 19 -2 29 -3l10 11c-7 4 -13 8 -20 11z" />
    <glyph glyph-name="D" unicode="D" horiz-adv-x="1356" 
d="M493 410c41 7 77 22 106 46c29 23 55 52 77 86c28 49 45 102 52 159c6 56 4 112 -7 167c-7 36 -20 70 -38 101c-46 23 -95 33 -147 28c-21 -2 -33 -9 -37 -20s-5 -26 -4 -44c1 -8 1 -17 1 -26c-1 -77 -1 -153 -2 -229c-1 -89 -1 -178 -1 -268zM439 1071l31 32
c-14 1 -28 0 -42 -1h-3l-9 -8c7 -8 15 -16 23 -23zM503 1099l-46 -47l11 -11c5 3 10 5 15 7l45 45c-8 2 -16 4 -25 6zM84 -13l2 1c16 1 32 1 49 1l-27 -27c-8 8 -16 16 -24 25zM125 -56c7 7 15 15 23 22c7 8 15 16 22 23c15 0 31 0 47 1l-54 -54c-11 0 -22 0 -31 1zM199 -64
l55 55c17 1 35 3 52 4l-22 -22l-35 -35h-4c-3 0 -8 0 -17 -1c-8 0 -18 0 -29 -1zM284 -62l61 60c17 1 34 3 51 5l-62 -63c-17 -1 -33 -1 -50 -2zM371 -58l64 64c17 1 35 2 53 3l-65 -64c-17 -1 -35 -2 -52 -3zM461 -52l65 65c11 1 23 2 34 4l-33 -33l-33 -33
c-5 -1 -11 -1 -16 -2c-5 0 -11 0 -17 -1zM534 -46c23 24 47 48 71 71c22 5 44 10 65 17l-83 -83c-18 -1 -36 -3 -53 -5zM627 -37l100 100c18 7 35 15 52 24l-91 -91l-30 -30l-5 -1zM701 -27c64 63 128 127 192 191c19 16 37 33 52 51c67 66 133 132 200 198
c-8 -24 -17 -48 -26 -71l-352 -352c-22 -7 -44 -13 -66 -17zM827 14l259 258l1 1c-7 -14 -14 -28 -22 -41c-16 -29 -35 -57 -56 -82c-17 -16 -33 -32 -49 -48c-4 -3 -8 -7 -11 -10c-37 -31 -78 -57 -122 -78zM1160 464c-47 -47 -95 -94 -142 -141c9 18 18 36 26 55l126 127
c-3 -14 -7 -28 -10 -41zM1178 550l-110 -110c7 21 15 43 23 66v2l91 91l3 3c-2 -17 -4 -35 -7 -52zM1188 641l-82 -82c4 14 8 28 11 43l73 73c-1 -11 -1 -23 -2 -34zM1190 712l-64 -64c3 17 5 35 7 52l55 54c1 -14 1 -28 2 -42zM1185 787l-48 -48c1 17 1 35 2 52l40 40
c2 -15 4 -29 6 -44zM1173 862l-34 -34c0 14 -1 28 -2 43l28 28c3 -12 6 -24 8 -37zM1158 927l-24 -24c-1 15 -3 29 -5 43l18 19c1 -3 1 -5 2 -7s1 -4 2 -6c3 -8 5 -16 7 -25zM1138 991l-14 -14c-3 13 -5 25 -8 37l9 10c5 -11 9 -22 13 -33zM1114 1048l-5 -6
c-3 9 -5 17 -8 25l3 2c3 -7 7 -14 10 -21zM113 -106c8 -7 24 -10 47 -11s46 -1 67 0h27c75 1 150 5 224 12c40 4 80 7 120 9c118 6 228 39 329 100c78 49 136 107 175 172s71 139 97 224c65 202 66 391 5 566s-176 324 -345 447c-63 38 -128 66 -194 84
c-67 18 -136 31 -208 39c-51 6 -96 10 -134 11s-79 0 -124 -1c-13 -1 -26 -1 -40 -1c-23 0 -44 1 -63 4c-22 3 -40 4 -55 2c-15 -3 -26 -13 -32 -31c-6 -19 -7 -50 -3 -94c9 -99 12 -199 9 -298c-1 -82 -1 -165 0 -248c2 -111 1 -217 -3 -320c-1 -21 -1 -42 -2 -63
c-1 -52 -1 -104 2 -156c4 -67 4 -133 0 -200c-1 -7 -1 -15 -2 -24c-3 -22 -4 -45 -5 -68c-1 -24 2 -41 9 -51c33 -35 66 -69 99 -104zM774 889c15 -74 17 -151 4 -230c-9 -62 -30 -114 -61 -157s-73 -82 -124 -116c-35 -20 -74 -32 -116 -36c-3 0 -7 0 -11 -1
c-7 -1 -14 -3 -21 -4c-26 -7 -49 -8 -70 -5s-34 19 -41 48c-3 17 -5 63 -6 136s-1 154 0 245c1 90 2 170 5 239c2 69 5 109 8 119c13 21 36 32 70 33s69 -3 105 -11c36 -9 63 -18 82 -27c57 -30 100 -69 129 -116c23 -36 38 -75 47 -117zM619 1044c-4 3 -8 7 -12 10l-6 -6
c6 -1 12 -3 18 -4zM569 1053l16 16c-10 5 -20 10 -30 14l-29 -28c14 0 28 -1 43 -2zM387 1063c-1 -11 -1 -23 0 -34v-9l21 21zM426 1021l-39 -38v-30l54 53zM440 969l-53 -53v-45l36 36l14 14c1 17 2 33 3 48zM436 883l-49 -50l-1 -45l50 49v46zM436 801l-50 -50v-46l51 51
c-1 15 -1 30 -1 45zM437 719l-52 -52v-46l20 19l33 33c0 14 0 29 -1 46zM439 638l-54 -54v-47l53 53v24c1 8 1 16 1 24zM438 553l-53 -53v-29c17 17 35 35 53 52v30zM438 487l-53 -52c0 -24 3 -37 9 -39l44 44v47zM438 403l-3 -2h3v2zM1079 870c13 -190 -28 -368 -122 -533
c-43 -75 -100 -136 -173 -182c-73 -47 -153 -75 -239 -84c-21 -2 -43 -4 -65 -6c-114 -13 -228 -20 -343 -22h-19c-18 -1 -31 0 -38 3c-8 3 -12 13 -13 30c-1 16 -1 43 1 81c1 9 1 18 1 28c2 30 2 60 1 90c-5 93 -6 185 -3 277c1 48 2 96 2 145c0 103 1 205 4 307
c2 91 3 183 3 274l-10 203c3 5 16 9 37 12s45 4 74 5h78c23 -1 39 -1 47 -2c91 -4 172 -13 245 -26c72 -14 149 -41 231 -81c68 -34 124 -80 168 -137c43 -57 76 -122 97 -194c19 -61 31 -124 36 -188z" />
    <glyph glyph-name="E" unicode="E" horiz-adv-x="1162" 
d="M173 -116c-17 0 -29 0 -37 1s-14 3 -18 6s-9 8 -14 14c-4 5 -9 11 -16 18l-19 19c-12 11 -23 23 -33 35c-11 12 -19 24 -24 37c3 37 3 74 0 111c-1 21 -2 43 -2 64c-1 127 -2 253 -4 380c-4 189 -5 379 -3 568c3 123 2 247 -1 371c-1 21 1 35 7 41s19 10 40 12
c12 2 24 3 36 3c63 0 126 -1 190 -3c79 -3 154 -4 226 -3c69 1 139 -1 208 -5c71 -3 143 -5 214 -4c17 1 30 -2 37 -9l97 -99c15 -4 23 -18 22 -43c1 -19 1 -39 1 -59c1 -71 1 -141 -2 -211c-1 -21 -6 -35 -14 -41s-22 -9 -42 -8c-47 0 -100 -1 -159 -2
c-143 -4 -269 -3 -378 2c-7 1 -12 0 -14 -2c-3 -3 -4 -7 -5 -14c-2 -43 -2 -87 1 -130v-14l81 -3c49 -3 97 -4 146 -1c29 3 48 0 55 -8c32 -33 64 -66 97 -99c9 -2 15 -8 18 -17c2 -10 3 -25 4 -44c3 -75 1 -149 -5 -224c-1 -11 -1 -21 0 -28c1 -11 0 -19 -4 -24
c-5 -5 -17 -8 -37 -8c-73 -1 -147 -3 -220 -4c-30 -1 -60 -1 -89 -1h-14c-7 0 -13 -1 -16 -2s-5 -6 -6 -13s0 -19 1 -36c1 -21 2 -52 2 -93c7 1 14 1 21 1c49 1 98 4 146 9c55 5 104 5 148 0c28 -2 57 -3 88 -3c20 1 33 -3 40 -11c31 -32 63 -64 94 -97c7 -2 13 -6 17 -12
c3 -7 6 -16 9 -28c7 -41 10 -87 8 -137c-2 -41 -1 -79 3 -113c2 -24 -10 -36 -35 -37c-27 -2 -55 -2 -82 0c-95 7 -191 9 -287 6c-40 -1 -80 -1 -120 -1c-76 0 -152 -1 -228 -4zM981 1458l-9 -9v-32l24 24zM84 -10l11 -11l11 11h-22zM142 -9l-30 -30l15 -15l46 46zM209 -7
l-60 -61c15 1 31 2 50 3l60 59c-16 0 -32 0 -49 -1h-1zM295 -5l-59 -59c3 1 5 1 6 1h20h21l58 59c-10 0 -20 0 -30 -1h-16zM377 -4l-59 -59c9 1 17 1 25 1h25l19 20l39 38h-4h-45zM461 -4l-57 -57l48 1l57 57c-16 -1 -32 -1 -48 -1zM545 -3l-56 -56h24c9 1 17 1 26 1l55 56
c-16 -1 -32 -1 -48 -1h-1zM630 -2l-55 -55h30l27 27l28 28h-30zM696 -2l-55 -55c17 1 33 1 49 1l53 52c-15 1 -31 1 -47 2zM778 -5l-52 -51h1h27l50 49c-9 1 -17 1 -26 2zM838 -8l-48 -49c15 0 31 0 47 -1l50 50h-49zM923 -9l-51 -51h8h9l25 -1l30 30zM962 -50l-13 -13h26z
M944 48l55 56c-1 16 -2 31 -3 44l-54 -54c0 -16 1 -31 2 -46zM942 131c16 15 32 31 47 46c-1 1 -1 2 -1 3l-12 12l-34 -33v-28zM942 195l16 16l-17 18c1 -11 1 -22 1 -34zM1000 69l-47 -47c4 -4 8 -8 11 -12l11 -11l26 26c0 14 0 29 -1 44zM1001 -12l-8 -7l7 -8
c0 3 0 8 1 15zM401 563c7 -7 15 -15 22 -23l23 24zM441 522l9 -9s6 -7 9 -10c5 2 10 4 16 5l57 57l-48 -1zM513 510h30l32 32l25 24h-31zM580 510h47l57 58l-47 -1zM664 511h29l46 45l-12 13h-5zM730 511h46l3 3l-23 24zM430 470l-20 21l-40 -39l1 -48l58 58c1 3 1 6 1 8z
M392 510l-22 24l-1 -1l1 -45zM371 368v-28v-1l56 56v29zM379 311c5 -1 13 -1 26 0c6 1 14 1 23 2v20c-1 8 -1 17 -1 26zM755 601l14 -15l50 49c1 11 1 21 1 31zM787 568c7 -8 15 -16 23 -23l4 4c1 16 2 32 3 49zM820 703c-1 12 -2 24 -3 35v2v5c-7 -6 -13 -12 -20 -19
l-38 -38c-1 -17 -3 -33 -4 -49l38 38zM813 778c-2 3 -7 9 -14 17l-38 -38c0 -11 0 -21 -1 -32zM780 814c-2 1 -4 3 -6 6l-14 14c1 -13 1 -27 1 -40zM394 1183l11 -11l11 -11l22 21c-21 1 -35 1 -44 1zM434 1143l11 -12h18l4 -1l50 51h-44zM502 1129c11 -1 21 -1 31 -1l53 53
h-32zM568 1127c15 -1 29 -1 44 -1l55 55h-23h-22l-37 -37zM649 1126h31l56 55h-32zM716 1126c15 0 30 0 45 1l56 55c-15 0 -30 0 -46 -1zM798 1127l49 1l57 57c-14 -1 -31 -2 -50 -2zM883 1129h46l39 39l-20 20c-1 0 -3 0 -6 -1zM966 1130h38l-19 19zM415 1099l-12 13
l-46 -46c1 -7 1 -14 1 -21c1 -7 1 -15 1 -22l18 18l37 37c1 7 1 14 1 21zM385 1130l-23 25l-5 -4c-1 -17 -1 -33 -1 -50zM360 987c1 -10 1 -20 1 -31l53 53c-1 10 -1 20 -1 31zM361 921c2 -3 6 -5 11 -5c5 -1 11 -1 20 0c3 1 7 1 12 1l12 13c-1 14 -1 29 -2 44zM976 1221
c7 -7 15 -15 22 -23l33 33v33c-1 4 -1 8 -1 11zM1016 1180l12 -13c1 9 1 18 2 27zM1030 1310v48c-19 -19 -39 -38 -58 -57c0 -18 -1 -35 -2 -50zM1029 1393c-1 5 -2 11 -4 18l-11 12l-42 -41c1 -15 1 -30 0 -45zM64 69c1 -2 1 -4 1 -5c0 -8 1 -14 2 -17c1 -4 3 -6 8 -6
c4 -1 11 -1 20 0s22 1 39 1c73 1 147 2 221 4c142 5 284 4 426 -1l78 -3h6c13 -1 21 0 24 3s4 11 3 25v3v32c1 25 1 49 1 71c-1 21 -3 47 -6 76c0 10 -5 15 -15 15c-17 1 -33 1 -49 2c-58 5 -116 5 -173 0c-59 -5 -118 -8 -177 -8c-11 0 -21 0 -32 -1c-19 -1 -35 -1 -49 -2
c-28 -3 -47 -2 -57 3s-15 19 -15 43v112c-1 43 -1 87 -1 131c-1 46 21 69 68 68c90 1 180 1 270 1h17c11 -1 18 0 23 1s7 5 8 12l3 60c5 51 5 103 1 154v4c-1 9 -2 15 -4 17s-8 3 -17 2h-5c-12 -1 -24 -1 -37 -2c-21 -3 -43 -3 -65 -2c-37 4 -75 6 -112 6
c-10 0 -21 0 -34 -1h-50s-30 1 -39 4h-2c-15 3 -24 7 -28 12c-5 5 -7 15 -6 31c1 41 0 83 -2 125c-3 51 -3 102 -2 153c1 21 4 34 9 39s18 7 39 5c121 -5 241 -6 361 -3c60 1 120 2 179 2c9 0 15 1 19 4c3 3 5 8 6 17c3 46 4 92 3 137c-1 30 -1 60 0 90c0 7 -1 11 -4 14
c-3 2 -8 3 -15 3c-63 -2 -125 -1 -187 3c-37 2 -74 3 -111 4l-491 8c-14 0 -28 -1 -42 -2h-4c-11 -1 -16 -7 -15 -19c2 -31 3 -63 3 -94c1 -89 0 -179 -2 -268c-3 -118 -4 -236 -1 -354c3 -109 5 -219 5 -328c0 -127 2 -254 6 -381z" />
    <glyph glyph-name="F" unicode="F" horiz-adv-x="1098" 
d="M135 -82c-31 33 -63 66 -94 99c-11 10 -17 26 -18 48c-3 38 -5 76 -6 114c-3 164 -6 328 -9 491c-1 33 -1 65 -2 98c-4 95 -5 191 -2 286c1 54 2 108 2 162c-1 49 -1 99 -2 148c-1 31 -1 63 -2 95c-1 31 3 52 14 63s31 17 62 18c29 1 57 2 86 3c30 1 60 2 90 4
c203 11 407 13 611 7h6c8 0 16 -1 23 -2s14 -5 19 -11c31 -31 62 -63 93 -96c6 -7 10 -19 11 -36s1 -35 0 -54v-14c-1 -41 -1 -83 0 -124v-72c0 -11 -1 -20 -2 -25s-4 -9 -8 -12s-10 -6 -19 -9c-2 -1 -4 -3 -7 -4c-22 -8 -46 -12 -71 -12c-23 0 -46 0 -69 1h-75
c-37 0 -75 -2 -112 -5c-54 -5 -108 -6 -162 -3c-12 1 -18 -5 -18 -18v-150c39 1 78 3 117 8c33 6 55 4 66 -6l96 -99l4 -4c7 -7 12 -15 17 -24c4 -9 6 -24 7 -44c2 -62 3 -124 4 -187c1 -19 0 -34 -3 -45c-4 -12 -15 -18 -32 -19h-57c-65 1 -130 -1 -195 -6
c-8 -1 -13 -3 -16 -6s-4 -9 -3 -17c3 -81 5 -162 4 -243c-1 -93 0 -185 5 -277c2 -19 -8 -30 -30 -31c-18 -1 -41 -2 -70 -4c-52 -5 -104 -7 -155 -7c-52 0 -85 7 -98 21zM910 1283l57 57l-1 49l-57 -57c1 -17 1 -34 1 -49zM967 1305l-58 -57c-1 -5 -1 -10 -1 -14l16 -16
l43 42v45zM134 11l-15 -14c6 -5 12 -11 17 -16c2 -3 4 -5 7 -8l41 40c-17 0 -33 -1 -50 -2zM219 13l-58 -58l2 -3l42 2l60 59h-46zM303 15l-61 -60l51 2l7 7l49 49c-15 5 -31 5 -46 2zM370 -2l-41 -40l50 2l14 14zM379 50l4 -3l50 50v49l-44 -44l-12 -12c1 -13 1 -27 2 -40z
M376 125l57 57v44l-58 -58c0 -14 0 -28 1 -43zM375 203l58 59v47l-59 -57c0 -17 0 -33 1 -49zM374 288c10 9 20 19 29 29c9 9 19 19 29 28v1c0 9 0 17 -1 26l-57 -56v-28zM374 352l56 55c-1 5 -1 9 -1 14v7v25l-55 -53v-48zM374 436c18 18 36 36 55 54v14l-8 8l-47 -47v-15
v-14zM373 500l31 31l-24 24l-8 -9c0 -15 0 -31 1 -46zM433 62l-33 -33l12 -12s8 -8 11 -12l11 11c0 15 0 30 -1 45v1zM415 589l-4 -4l23 -23v-1l29 29zM501 591l-49 -48l11 -11h8l17 16l44 44zM569 593l-60 -60l48 1l59 60zM653 593l-58 -58l29 1l43 42zM685 560l-24 -23h45
zM676 653l30 31l26 26c-1 16 -1 30 -2 42l-55 -54zM675 733l47 48l-15 16l-33 -33zM674 801l14 15l-15 16zM733 673l-50 -50l15 -15l35 36v10v19zM733 608l-17 -18l17 -18v36zM407 1180l8 -8l7 8h-8h-7zM433 1154l16 -17l44 44c-11 -1 -23 -1 -34 -1zM475 1128h12l1 -1
c10 -1 20 -1 30 -1l61 61l-48 -3l-33 -33zM554 1125c11 0 21 0 32 1v0l65 64c-11 0 -22 0 -33 -1zM623 1127l48 3l59 59c-15 1 -29 1 -44 1zM711 1134c19 1 36 2 51 2l52 52h-12c-12 0 -24 0 -36 1zM796 1135c9 0 19 0 28 -1c5 -1 10 -1 15 -1l55 55l-15 15
c-9 -3 -16 -6 -23 -8zM874 1132c16 0 34 1 53 2l9 9l-25 26zM418 1106l-16 17l-36 -37v-32zM384 1142l-18 19v-38zM365 1018v-45l58 58c1 18 1 33 2 46zM364 935v-7c0 -9 2 -14 6 -17l53 52v30zM402 907h21v21zM942 1200c5 -5 10 -11 15 -16l10 -10v50zM966 1424l-22 23
l-36 -36c0 -14 0 -29 1 -44zM927 1465l-16 17l-3 -3v-33zM67 213c1 -41 2 -83 5 -124v-8c0 -11 1 -17 4 -19c3 -3 9 -4 19 -3c23 1 47 1 70 2c45 2 91 4 137 6h4c7 0 12 1 15 2s4 3 5 6s1 9 0 16c-1 59 -2 119 -1 178c1 88 -1 176 -5 264c-1 23 -1 45 0 67c0 13 3 22 8 27
s13 9 26 10l235 6h1c17 -1 28 0 31 3s5 13 4 29v3c0 47 0 94 -1 141v4c1 23 -1 37 -6 42c-5 4 -19 4 -40 0c-3 -1 -6 -1 -9 -1c-60 -7 -120 -8 -181 -5c-14 0 -28 0 -42 1c-25 -1 -37 11 -34 36c3 55 4 109 3 163c-1 39 0 77 1 115c0 25 4 41 13 50c9 8 26 11 51 9
c70 -4 140 -2 210 5c49 4 88 5 119 2c19 -1 40 -2 63 -2s52 2 87 6c0 27 0 55 -1 82c0 55 0 109 1 164c-1 5 -2 9 -5 11c-3 1 -7 2 -12 2h-3c-127 7 -254 7 -381 0c-55 -2 -111 -4 -166 -5c-37 -1 -74 -2 -111 -4c-15 -1 -30 -1 -45 -2c-8 0 -15 0 -21 -1
c-21 0 -35 -1 -44 -2s-14 -4 -15 -8c-2 -5 -3 -12 -3 -21v-2c1 -20 1 -40 2 -60c1 -35 2 -70 1 -105c-3 -272 -1 -544 6 -816c2 -88 4 -176 5 -264z" />
    <glyph glyph-name="G" unicode="G" horiz-adv-x="1278" 
d="M1012 1250c5 20 10 38 13 53c1 2 1 4 2 7l58 58l22 -23c-15 -16 -31 -32 -47 -48c-16 -15 -32 -31 -48 -47zM1118 1319c-2 -19 -6 -40 -13 -61l-124 -124l-9 9c9 16 18 35 25 56c40 40 80 80 121 120zM689 491c1 -17 1 -31 2 -43l-12 12l-11 11l19 19zM4 692
c-3 -96 13 -186 48 -269c35 -84 85 -160 150 -229c101 -110 213 -191 335 -243c122 -53 267 -70 434 -52c4 1 8 1 12 2c46 3 91 12 135 27c53 21 78 60 73 117c-2 89 -3 177 -2 266c1 61 1 123 0 184c0 11 0 24 1 39c1 29 1 58 0 88s-7 54 -17 71c-7 9 -16 17 -27 22l-95 98
c-17 11 -39 18 -64 19s-49 0 -72 -1c-7 -1 -14 -1 -21 -2h-51c-31 1 -65 1 -104 0s-73 -3 -103 -7c-31 -5 -50 -12 -58 -23c-1 -4 -2 -21 -1 -50c0 -30 1 -63 2 -100s2 -68 3 -94c1 -15 1 -25 1 -31c1 -7 2 -13 3 -20s4 -14 9 -19l99 -104c9 -13 23 -17 42 -13
c-9 -4 -21 -5 -37 -4c-17 1 -33 3 -48 6c-16 3 -28 5 -35 8c-27 10 -51 22 -73 35c-34 58 -54 129 -60 214c-3 52 2 104 15 156c12 51 35 97 70 138c31 35 68 61 110 78s86 27 132 30c42 0 83 -4 122 -13c35 -7 70 -12 105 -13c17 1 32 14 45 37c12 23 22 49 31 79
s16 56 21 79c2 10 4 18 6 24c5 17 10 33 16 47c10 22 15 42 16 60c0 18 -12 35 -37 51c-3 2 -9 7 -16 15c-7 7 -16 16 -25 26c-14 15 -27 29 -40 42s-23 20 -28 23l-133 44c-96 25 -192 30 -287 13c-96 -17 -186 -53 -269 -106c-47 -32 -89 -70 -126 -113
c-62 -71 -107 -138 -135 -199c-29 -62 -47 -127 -56 -195s-14 -147 -16 -238zM1078 99v1c0 1 0 2 1 3l60 61v-21v-26l-40 -40c-7 7 -14 15 -21 22zM1117 58l23 23l2 -42l-3 -3zM1140 200c-9 -9 -19 -19 -29 -28l-28 -28v7v10c0 4 0 8 -1 11l58 57v-29zM1140 267l-58 -59v1
c-1 15 -1 30 -1 45l60 59v-15c0 -11 0 -21 -1 -31zM1141 349c-20 -20 -40 -40 -60 -59v15v15l28 28l32 32v-31zM1141 417l-60 -60v23v23l59 59c1 -15 1 -30 1 -45zM1140 497c-10 -9 -20 -19 -30 -29l-29 -29v48l58 58c0 -15 0 -31 1 -48zM1137 580l-56 -56v45
c17 18 35 36 53 53c1 -12 2 -26 3 -42zM1129 653l-48 -48v47l29 29c3 -3 5 -6 8 -9s4 -5 5 -6c3 -1 5 -6 6 -13zM1088 696l-7 -6l1 7c2 0 4 0 6 -1zM1108 5l-22 -22c-6 -5 -12 -11 -17 -16c-20 -5 -37 -8 -52 -11h-3l73 72zM1069 47l-96 -96c-17 -2 -35 -3 -52 -4
c29 28 57 56 85 85c1 0 1 0 2 1c18 7 34 17 47 29zM955 18l-36 -36l-36 -36h-27l65 66c11 1 23 3 34 6zM880 6l-59 -58l-45 3l50 50c13 1 25 2 37 3zM788 -1l-45 -44c-8 1 -16 2 -25 3l40 41h30zM723 0l-36 -37c-13 3 -27 6 -40 9l30 30c15 -1 31 -1 46 -2zM644 6l-26 -27
c-13 3 -25 7 -37 10l23 22c13 -2 27 -4 40 -5zM573 16l-19 -18c-12 4 -24 8 -35 13l14 14c13 -3 27 -6 40 -9zM504 32l-10 -10c-11 5 -21 9 -30 14l5 6c11 -3 23 -7 35 -10zM442 51l-1 -2c-1 1 -3 1 -4 2s-3 2 -4 3zM998 1116c9 10 19 20 29 29l58 58c-5 -11 -8 -21 -11 -30
c-3 -7 -5 -16 -7 -27c-1 -3 -1 -5 -2 -8l-45 -45c-3 4 -7 8 -11 12zM1068 1386l-25 -25l13 37zM986 1066c-11 1 -22 3 -33 5l14 15zM950 1104l-28 -28c-10 1 -20 2 -31 3c-4 1 -8 1 -12 1l28 29c16 -1 28 0 36 3zM874 1113l-31 -31c-15 0 -31 -1 -46 -2l39 39c2 0 4 0 6 -1
c11 -2 22 -4 32 -5zM806 1124l-50 -49c-13 -3 -27 -6 -40 -9l62 63c9 -1 19 -3 28 -5zM746 1133l-85 -85c-43 -17 -82 -42 -115 -73c-34 -32 -60 -71 -77 -117l-1 -3l-95 -95c0 16 1 32 2 48c94 93 187 186 280 279l47 47c13 1 28 0 44 -1zM662 1130
c-93 -94 -187 -188 -282 -281l9 39l20 20c35 36 71 72 106 107l106 106c13 3 27 6 41 9zM565 1102l-118 -118l-37 -38c29 69 80 121 155 156zM375 725l76 76c-3 -13 -6 -25 -9 -38c-21 -21 -43 -42 -64 -63v-1c-1 9 -2 17 -3 26zM382 667l53 53c-2 -17 -3 -33 -4 -50
l-40 -41c-3 13 -6 25 -9 38zM399 601l32 32c1 -14 2 -28 3 -41l-23 -24c-5 11 -9 22 -12 33zM422 543l17 16c2 -13 5 -26 8 -39l-8 -8c-6 10 -12 20 -17 31zM798 386c0 9 0 18 -1 27c-1 43 -6 78 -16 103c-11 25 -37 33 -79 26c-2 -1 -4 -1 -6 -1c-10 -3 -21 -5 -33 -6
s-20 1 -25 6c-1 5 -3 19 -4 40s-2 44 -3 71s-1 50 -1 71s1 33 2 38c4 5 15 8 33 10c18 1 37 2 56 3h40c13 -1 36 -1 69 0c25 1 50 1 77 2h71c20 -1 32 -2 37 -4c7 -7 11 -38 14 -94c2 -56 3 -120 4 -193c0 -73 0 -138 -1 -194c-1 -57 -1 -88 -1 -95v-1c0 -13 1 -25 2 -36
c3 -17 3 -32 0 -44s-14 -22 -32 -30c-19 -9 -50 -16 -93 -23c-148 -22 -293 -11 -436 33c-63 18 -122 46 -176 83c-61 45 -110 100 -147 164c-38 64 -65 133 -82 207c-6 25 -10 51 -11 78c-4 75 -2 155 6 240c7 84 26 160 57 229c36 75 82 142 137 202
c55 59 120 107 196 143c137 59 280 73 427 40l120 -39c6 -21 6 -44 -1 -69c-7 -26 -15 -50 -24 -73c-3 -8 -6 -15 -9 -22c-3 -12 -6 -24 -9 -37c-3 -21 -9 -39 -18 -53c-9 -15 -26 -21 -52 -18c-15 2 -30 4 -43 6c-32 5 -62 9 -91 11c-29 1 -62 -1 -100 -7
c-66 -10 -125 -33 -177 -68s-90 -85 -115 -149c-43 -117 -49 -236 -17 -357c17 -64 39 -113 66 -146c26 -34 62 -64 107 -89c12 -7 29 -15 51 -24c21 -9 40 -16 55 -20c27 -7 55 -10 84 -9c29 0 54 4 76 13c7 3 11 10 13 21c2 10 3 21 3 34z" />
    <glyph glyph-name="H" unicode="H" horiz-adv-x="1236" 
d="M199 -112c-21 -10 -44 -4 -68 18c-24 21 -45 44 -62 67c-7 9 -14 17 -19 22c-7 9 -11 19 -13 31c-3 12 -4 23 -4 34c-1 111 -4 221 -9 332c-5 131 -8 262 -8 393c0 171 -3 343 -9 514c-1 55 -3 109 -4 164c0 5 0 10 -1 15c-1 20 0 36 4 49c3 12 15 19 35 20
c8 0 20 0 36 1c27 2 60 4 97 5s70 1 101 -1s51 -7 61 -16l95 -97c16 -4 23 -18 21 -41c-2 -80 -1 -160 3 -240c2 -43 3 -87 4 -131c5 0 9 0 14 1c29 0 60 1 93 2s62 3 89 6c7 1 13 3 16 7s4 10 3 17v116c1 81 0 160 -5 239c-3 33 -4 65 -3 98c-1 27 12 42 39 44
c81 7 163 10 245 9c13 0 25 -2 36 -7c8 -4 20 -14 37 -31l48 -51c15 -15 26 -27 33 -34c10 -10 16 -22 18 -37c1 -15 1 -31 0 -46v-20c1 -85 1 -169 2 -254c1 -223 3 -446 6 -669c3 -93 7 -185 13 -278c3 -43 5 -87 7 -130c1 -15 2 -28 3 -40c2 -29 2 -50 1 -63
s-6 -20 -15 -22c-9 -3 -24 -3 -45 -2c-27 2 -68 1 -124 -4c-35 -3 -71 -3 -107 -1h-10h-4c-9 1 -17 2 -23 3s-10 3 -13 6l-99 105l-9 32c-3 38 -4 76 -5 114c-1 35 -3 69 -5 103c-3 53 -3 107 -2 160c2 51 2 102 -1 153l-193 1c-9 0 -14 -2 -17 -5c-3 -4 -5 -10 -5 -19
c0 -55 2 -109 5 -164c3 -49 5 -99 5 -148v-82s0 -82 1 -122c1 -41 2 -66 4 -77c4 -14 0 -25 -12 -33c-7 -5 -13 -6 -18 -4s-10 5 -14 8c-3 3 -6 5 -9 6s-6 2 -9 1c-26 -5 -60 -8 -101 -9c-27 -1 -53 -2 -77 -4c-24 -3 -42 -7 -53 -14zM366 1443l-24 -23c0 -15 0 -30 1 -45
l45 45zM342 1455l7 6l-6 7c-1 -2 -1 -4 -1 -6v-7zM403 659l11 -10l10 11c-7 0 -14 0 -21 -1zM432 630l15 -15l45 44h-31zM479 611c5 1 9 1 13 0h34l47 48c-15 -1 -31 -1 -46 -1zM563 611h29l52 51c-9 -1 -20 -1 -33 -2zM628 611h46l2 2l12 12c0 3 0 6 -1 9c0 9 0 16 -1 21
s-2 8 -4 9zM416 584l-15 15l-32 -31c1 -10 1 -20 1 -29l4 3zM383 618l-14 16v-30zM372 504v-8c1 -12 1 -24 2 -36l47 46c1 20 2 37 4 51zM376 425c1 -9 1 -18 1 -27l45 45c-1 9 -1 18 -1 27zM378 363c1 -13 1 -26 1 -39v-9l47 48c-1 11 -1 21 -2 31v9v4zM378 279v-20v-24
c17 17 35 34 52 51c-1 14 -1 28 -2 43zM378 199c0 -6 0 -12 1 -18v-30l52 52c0 16 0 32 -1 47zM379 116c1 -17 1 -32 2 -45l50 50v23v23zM385 38l16 -16l8 -8l23 23v48zM426 -4l6 -6c1 3 1 7 0 12zM792 -19l-5 -5c8 -8 16 -16 23 -24l30 30c-15 -1 -31 -1 -48 -1zM879 -16
l-51 -50l3 -3c12 0 24 1 37 2c2 0 4 0 6 1c9 9 18 17 27 26l27 27c-13 -1 -26 -1 -38 -2c-4 0 -8 0 -11 -1zM966 -12l-53 -53c16 0 32 0 48 1l51 51c-16 1 -31 1 -46 1zM1033 -29l-35 -34c11 0 21 0 31 1l18 18zM105 -1l6 -6c5 -4 9 -8 13 -13l27 28c-16 -2 -31 -5 -46 -9z
M189 10l-47 -48l16 -16c6 1 12 1 18 2l10 10l54 54c-4 0 -8 0 -11 -1c-13 0 -27 0 -40 -1zM277 14l-59 -59c17 1 34 3 51 4c10 10 20 20 31 30c10 11 20 21 30 31c-3 1 -6 1 -9 0c-13 -3 -28 -5 -44 -6zM352 6l-44 -44c8 0 16 0 25 1s18 1 27 2l18 18l-20 22c-2 0 -4 0 -6 1
zM1046 20l46 47c-1 15 -1 29 -2 44l-45 -45c0 -15 0 -31 1 -46zM1043 101l46 45c-1 2 -1 4 -1 6c-1 13 -1 26 -2 39l-45 -45c1 -15 2 -30 2 -45zM1039 181l45 45l-2 43l-45 -44c1 -8 1 -16 1 -23c1 -7 1 -14 1 -21zM1035 258l45 45c-1 15 -1 30 -2 45l-46 -46zM1030 337
l47 46c-1 15 -1 29 -2 44l-47 -47c1 -15 1 -29 2 -43zM1026 414l48 47c-1 5 -1 10 -1 15v15l-48 -48v-10c0 -7 0 -13 1 -19zM1023 479l49 48v1c0 15 0 29 -1 44c-8 -9 -16 -17 -24 -25l-25 -25c1 -14 1 -28 1 -43zM1022 558l49 49v32l-49 -49v-32zM1021 627l50 49v45
l-50 -50v-44zM1021 706l50 50l-1 50l-50 -51zM1020 792l50 50v45l-51 -51zM1019 871l51 51l-1 48l-51 -51zM1018 955l51 51v44l-51 -51v-44zM1017 1034l52 51l-1 32l-51 -51v-32zM1017 1102l51 51v44l-52 -51zM1016 1181l51 51v33l-51 -51v-33zM1015 1250l52 50
c-1 17 -1 32 -1 45l-51 -51v-44zM1014 1329l51 51c-1 26 -1 40 -2 42l-2 3l-47 -46v-50zM1014 1414l29 29l-22 24l-8 -8zM1094 32l-31 -31l15 -15l17 17c0 10 0 20 -1 29zM1096 -32v-1v1zM396 1392l-52 -52c1 -16 1 -32 2 -49l50 51v20v14v16zM397 1307l-50 -50v0
c1 -15 1 -29 2 -43l49 49zM398 1227l-48 -48v-16s0 -11 1 -16l48 48zM400 1160l-16 -15l-33 -33c0 -11 0 -21 1 -31c0 -4 0 -8 1 -12l48 47zM402 1080l-47 -46c3 -5 11 -8 24 -8l23 24v30zM748 556c3 -54 3 -106 1 -156c-1 -49 -1 -98 1 -147c2 -31 3 -61 3 -92
c1 -31 2 -63 4 -94v-3c1 -8 2 -14 3 -17s3 -5 7 -6c3 -1 9 -1 18 -1c61 1 121 2 181 5c11 0 18 1 21 4c2 3 2 9 1 18v6c-3 66 -6 132 -10 198c-8 141 -13 281 -15 420l-6 777v11c1 11 0 19 -2 24s-8 7 -18 6c-43 -1 -87 -3 -130 -5l-72 -3c-8 0 -13 -3 -14 -9
c-1 -7 -1 -17 1 -30c7 -94 9 -189 8 -284c0 -48 0 -96 1 -144c1 -19 0 -32 -5 -38c-5 -7 -17 -11 -36 -13c-31 -4 -77 -7 -139 -10c-63 -3 -118 -3 -165 -2c-21 -1 -38 -3 -51 -6c-13 -4 -22 -4 -28 -1s-9 16 -9 38c-4 155 -7 310 -10 465c0 9 -2 16 -5 21s-10 7 -20 7
c-5 0 -11 0 -17 1c-9 1 -17 1 -25 1c-26 -1 -52 -2 -77 -3c-9 0 -19 0 -29 -1c-9 0 -16 0 -23 -1c-17 1 -27 -1 -30 -5c-4 -4 -5 -15 -3 -34c0 -6 0 -14 1 -23c1 -50 3 -100 4 -151c6 -154 9 -308 8 -462c0 -154 3 -312 9 -473c3 -89 5 -177 7 -264v-2c-1 -6 0 -11 2 -14
c1 -3 6 -5 13 -4l196 15c12 1 19 3 22 8c3 4 4 12 3 24c-1 43 -1 85 -1 127c1 89 -2 177 -7 265c-3 49 -3 97 -2 146c1 21 7 39 20 52c12 13 29 20 50 20l241 1c15 1 28 3 40 5c22 4 40 4 53 1s20 -16 22 -39z" />
    <glyph glyph-name="I" unicode="I" horiz-adv-x="570" 
d="M131 -127c-3 3 -9 9 -18 19c-10 10 -21 21 -32 34c-12 12 -22 23 -31 32s-13 13 -13 14c-9 5 -14 15 -17 29l-9 740c1 11 1 21 1 31c2 169 1 338 -2 507c-2 53 -4 107 -5 160c-1 18 -1 36 -2 53c0 4 0 8 -1 12c-1 15 0 28 3 39s14 18 31 20c9 1 19 2 29 4c21 3 41 4 61 2
c22 -2 45 -3 68 -3c32 1 63 -2 92 -7c8 -1 17 -1 26 1c8 2 16 3 25 3c8 -1 15 -4 21 -11c32 -31 64 -64 95 -97c19 -6 25 -22 19 -48c-3 -15 -4 -31 -3 -46c6 -156 9 -312 9 -469c0 -124 2 -248 5 -371c3 -139 3 -279 0 -418c-1 -26 -1 -52 -1 -77c0 -37 1 -67 4 -88
c3 -22 2 -37 -1 -45c-4 -9 -16 -13 -36 -12c-78 1 -156 1 -235 1c-14 0 -26 -3 -37 -10c-4 -3 -9 -5 -16 -6s-13 -1 -18 0c-6 1 -10 3 -12 7zM149 -12l-35 -35l16 -16l6 -6h3l56 56c-17 1 -32 1 -46 1zM97 -29l16 16c-15 -1 -25 -1 -30 -2zM396 2l24 -24l8 7v24v25zM428 70
v30l-50 -51l1 -27zM429 136v24v24l-55 -55l2 -46zM429 221v46l-54 -54l-1 -47c9 9 19 18 28 27s18 19 27 28zM429 303v5c0 14 0 28 -1 42l-52 -52l-1 -48zM428 386c0 14 0 28 -1 43l-50 -50v-44zM427 466l-1 45l-49 -48v-31v-16zM425 546v29l-48 -48v-28zM424 612v20
c-1 8 -1 16 -1 25l-48 -48c1 -15 1 -30 1 -45zM423 692v31l-50 -49c1 -5 1 -10 1 -15v-15zM423 761v45l-51 -51v-23c0 -7 0 -15 1 -22l26 27zM423 841v25v24l-52 -52v-24v-24zM422 927v44l-52 -51v-45zM421 1006v32v15l-52 -51l1 -47zM420 1089c0 7 0 15 -1 22v22l-50 -50
v-44zM418 1168c0 10 0 20 -1 30v1l-49 -49l1 -31zM416 1234c0 7 0 14 -1 21v22l-48 -47c1 -15 1 -29 1 -44zM413 1311v16c-1 5 -1 11 -1 16l-46 -45c0 -6 0 -12 1 -17v-16zM412 1380l1 45l-49 -48v-19c1 -9 1 -17 1 -25zM400 1448l-25 26l-14 -15c1 -16 1 -32 2 -49z
M390 -53l-24 25l-33 -33h24h25zM344 -13c-8 -1 -18 -1 -30 -1l-48 -47h30zM279 -14c-15 1 -31 1 -47 1h-1l-26 -26c-9 -8 -17 -16 -26 -25c12 2 21 3 28 3c8 -1 16 -1 24 0zM71 366c1 -81 2 -161 3 -242c1 -18 1 -36 1 -55v-5c0 -7 0 -11 1 -14s3 -5 6 -5c3 -1 9 -1 17 -1
h93c37 1 73 1 110 0c7 0 12 2 15 5c2 3 3 7 2 14c0 51 0 101 1 152c1 66 1 132 1 198c-1 65 -2 129 -3 193c-2 86 -3 172 -4 258c1 195 -2 391 -10 586c-1 9 -1 16 0 22c0 9 -1 16 -2 21s-6 8 -14 9c-71 9 -142 11 -214 8c-6 -1 -10 -2 -12 -5c-3 -3 -4 -7 -3 -13
c10 -271 14 -544 11 -819c0 -103 0 -205 1 -307z" />
    <glyph glyph-name="J" unicode="J" horiz-adv-x="1107" 
d="M489 -127c-74 17 -139 50 -196 98c-57 47 -111 99 -160 154c-61 68 -103 146 -128 235c-2 6 -3 12 -2 19c0 3 0 6 -1 9c-1 21 9 34 30 37c18 3 39 10 62 21s42 21 59 30c25 13 52 24 79 33c9 3 18 7 27 10c16 5 28 3 35 -7c31 -31 62 -63 93 -96c12 -2 19 -11 22 -28
c4 -21 11 -41 21 -59c17 1 34 9 49 23s29 31 41 50c19 32 31 69 36 111s8 82 9 121c1 4 1 8 1 12c3 98 3 207 -1 327s-9 236 -14 348c-2 41 -4 81 -6 119c-1 14 -2 27 -4 39c-4 20 -4 36 -1 49c3 12 16 19 39 20l260 7c3 1 7 1 11 1c9 1 19 1 30 1c11 -1 18 -3 23 -8
c33 -33 66 -67 99 -101c5 -9 8 -20 8 -31c0 -12 -1 -23 -2 -34c-3 -31 -3 -74 -2 -130c1 -57 3 -115 6 -175c3 -69 5 -126 6 -169c0 -43 1 -86 4 -129c3 -59 4 -118 3 -177c-1 -26 -2 -51 -2 -76c-1 -84 -6 -162 -16 -234c-10 -73 -35 -150 -75 -233
c-32 -66 -71 -114 -118 -143s-106 -49 -177 -59c-47 -4 -94 0 -140 13c-3 1 -5 1 -8 2zM438 -34l-14 -14c11 -5 22 -9 33 -13l22 22c-13 1 -27 3 -41 5zM400 -36l8 8c-13 3 -24 5 -35 8c9 -6 18 -11 27 -16zM947 1417c-17 -16 -33 -32 -49 -49v-20v-11l50 50c0 9 0 19 -1 30
zM949 1351l-50 -48c1 -7 1 -14 1 -21c1 -8 1 -16 1 -23l48 48v44zM950 1272l-48 -47l2 -47l47 47c-1 16 -1 32 -1 47zM952 1191l-47 -47c1 -15 1 -30 2 -43l47 46c-1 15 -1 29 -2 44zM955 1113l-47 -47c1 -20 1 -36 1 -49l48 47c-1 16 -1 32 -2 49zM958 1030l-48 -48
c0 -15 0 -29 1 -44l47 47v30v15zM958 950l-45 -46l1 -32l45 44c0 11 0 23 -1 34zM959 882l-44 -44c1 -15 1 -29 2 -44l43 44v21s0 15 -1 23zM961 802l-44 -43v-33l45 45zM963 737l-47 -47v-4c-1 -15 -1 -29 -1 -42l49 49c-1 7 -1 14 -1 21v23zM964 657l-50 -51
c-1 -17 -1 -33 -2 -49l53 53c0 15 0 31 -1 47zM965 574l-24 -24l-31 -30c-1 -17 -2 -33 -3 -48l58 58v44zM965 492l-62 -62c-2 -19 -5 -38 -9 -57l70 69c0 16 0 33 1 50zM962 404c-26 -25 -52 -51 -77 -77h-1c-5 -21 -12 -43 -20 -65l28 27l66 67c1 15 3 31 4 48zM953 313
l-99 -99l-14 -14c-5 -11 -10 -23 -16 -35c-4 -8 -8 -16 -12 -23c44 44 88 88 133 132c3 13 5 26 8 39zM933 226c-71 -70 -141 -140 -212 -210l-105 -105c5 0 9 0 13 1c16 3 31 7 46 10c79 80 159 160 239 239c7 21 13 42 19 65zM891 101l-163 -162c23 9 43 20 60 31l35 35
l32 32c13 19 25 41 36 64zM581 -87l90 90c1 1 1 1 2 1c-15 -7 -32 -14 -49 -19l-69 -69c1 0 3 0 5 -1c7 -1 14 -1 21 -2zM524 -79l50 51c-14 -3 -29 -6 -45 -9c-4 -1 -8 -1 -13 -2l-31 -31zM897 1403l45 44l-22 23l-23 -22v-45zM245 98c55 -39 117 -64 188 -75
c5 0 9 0 13 -1c25 -5 50 -7 75 -4c99 17 170 53 212 106s74 127 95 221c10 36 17 73 21 110c9 127 11 272 4 436c-1 65 -2 124 -3 177c-1 65 -2 129 -5 194c-3 71 -4 141 -4 211c-1 13 -5 20 -13 23c-8 2 -18 2 -30 1c-6 -1 -12 -1 -19 -1c-48 -1 -96 -2 -144 -2h-20
s-12 -1 -14 -4s-3 -8 -2 -15c1 -21 2 -44 3 -67c6 -115 12 -237 17 -368s7 -248 4 -351v-15c1 -65 -5 -127 -16 -188c-12 -61 -42 -115 -89 -164c-43 -41 -84 -54 -123 -39c-39 14 -72 44 -101 90c-13 21 -22 37 -27 50c-6 13 -12 22 -17 26s-14 4 -26 -1
c-13 -5 -33 -14 -60 -29c-5 -3 -11 -6 -16 -9c-32 -16 -54 -26 -67 -30c-7 -3 -11 -5 -14 -6c-3 -2 -5 -4 -5 -6c0 -3 1 -7 2 -12c31 -107 92 -193 181 -258z" />
    <glyph glyph-name="K" unicode="K" horiz-adv-x="1266" 
d="M131 -99l-100 105c-5 7 -7 16 -6 27c0 11 1 22 2 33c1 2 1 4 1 6c6 64 7 133 2 207c0 15 0 29 -1 43c-3 106 -4 212 -4 318c-1 68 -1 136 -2 204c-3 143 -6 287 -11 430c-2 60 -4 120 -5 179c-1 12 -2 22 -3 30c-3 17 -1 30 4 37s22 12 51 15c28 2 74 3 139 4
c3 0 8 0 13 1c15 0 36 0 61 1c25 0 48 -1 70 -2c21 -2 35 -5 40 -10l97 -99c5 -3 9 -7 13 -14c3 -7 5 -15 5 -26l3 -254c5 7 11 14 16 21c35 47 72 92 111 136c28 31 52 60 71 86s38 54 59 84c7 11 16 23 25 36c18 26 34 37 48 33s29 -14 45 -31c8 -9 17 -17 27 -25
c25 -20 42 -35 53 -45c11 -11 22 -23 35 -37c7 -7 15 -17 25 -28l64 -56c18 -19 36 -38 53 -58c2 -3 4 -5 6 -8c12 -13 22 -23 31 -30c9 -8 16 -15 20 -21c3 -7 2 -15 -4 -25s-18 -25 -37 -44c-71 -76 -144 -162 -219 -258c-20 -25 -39 -48 -57 -70c-3 -4 -8 -10 -15 -17
c-11 -13 -23 -28 -38 -45s-27 -34 -37 -50s-14 -28 -12 -36c8 -21 23 -51 46 -90s46 -78 69 -116c21 -35 38 -62 49 -83c75 -137 158 -270 249 -398c15 -21 22 -37 19 -47s-12 -17 -26 -20c-15 -3 -31 -5 -48 -6c-2 0 -4 0 -6 -1c-15 -1 -32 -2 -51 -5
c-46 -6 -94 -9 -145 -10s-93 8 -125 29c-61 65 -109 124 -143 179c-35 55 -70 117 -106 187c-12 24 -25 50 -40 77c2 -28 5 -56 8 -85c5 -47 9 -94 10 -141v-41c-2 -44 1 -87 10 -129c3 -17 -2 -28 -16 -33c-15 -5 -30 -9 -45 -10c-5 0 -9 0 -12 -1c-48 -5 -96 -7 -144 -6
c-52 2 -101 0 -148 -7c-9 -1 -18 -1 -26 1c-9 2 -15 5 -18 9zM385 1024l62 62c-1 16 -1 32 -2 49l-58 -59v-1c-1 -17 -1 -34 -2 -51zM451 426l-42 -41l3 -21s1 -15 2 -22l39 39c-1 13 -2 28 -2 45zM456 348l-39 -39c1 -8 1 -16 2 -25v-2l39 39c-1 9 -1 17 -2 26v1zM461 287
l-40 -40c1 -8 1 -16 1 -23v-23l42 41c-1 8 -1 16 -2 23s-1 15 -1 22zM466 208l-44 -44v-27l45 45v1c0 9 0 17 -1 25zM469 147l-45 -45c1 -14 3 -28 6 -42l41 41c-1 15 -1 31 -2 46zM472 66l-25 -25c7 -7 14 -15 21 -22l5 4c0 15 0 29 -1 43zM406 419l12 11l30 30l-19 27
l-26 -25c1 -15 2 -29 3 -43zM402 497l11 12l-12 17c0 -10 0 -20 1 -29zM416 11l-58 -58c5 0 9 0 14 1c12 1 23 1 33 1l33 33zM456 -30l-12 -12c10 1 17 2 20 3zM321 -48l60 59c-15 -2 -33 -4 -54 -5l-49 -49l-7 -7c8 0 16 0 24 1c9 0 17 0 26 1zM233 -51c10 9 20 19 29 28
l28 28c-10 -1 -20 -1 -29 -1l-57 -56h17c4 0 8 0 12 1zM168 -53l57 57c-17 0 -34 0 -49 -1l-43 -42l15 -14h20zM116 -21l23 24c-11 -1 -22 -1 -31 -2l-7 -6zM793 -11l-8 -8l23 -24l31 31c-17 0 -32 0 -46 1zM876 -13l-45 -44c7 -1 16 -2 25 -3l24 24l24 24
c-9 -1 -19 -1 -28 -1zM942 -11l-51 -51c15 -1 30 -1 46 -1l54 54c-16 -1 -32 -2 -49 -2zM1031 -6l-57 -57c16 1 31 1 46 2l4 4l52 51l-6 6c-9 -2 -22 -4 -39 -6zM1094 -25l-35 -35c13 1 24 2 32 3c3 1 7 2 12 4s8 5 10 8zM711 658c0 9 2 17 5 25l-3 3l-12 -11zM689 698l6 7
l-22 23zM674 789l9 -10c139 139 279 278 419 417c-7 8 -15 16 -22 24l-302 -302l-14 -17c-10 -11 -20 -22 -29 -33c-22 -23 -42 -49 -61 -79zM929 1105c45 45 90 89 135 133c-2 2 -4 4 -5 6c-1 1 -2 1 -3 2v1c-5 -6 -9 -11 -13 -14l-3 -3c-35 -37 -72 -78 -111 -125z
M1092 1150c-131 -129 -261 -259 -390 -389c8 -9 16 -17 24 -26l131 131l2 2c74 97 152 191 233 282zM389 1115l55 55l-2 43l-51 -51c-1 -16 -1 -32 -2 -47zM392 1198l49 49c-1 16 -1 32 -1 47l-48 -48v-4v-44zM391 1282l49 48v29v10c0 2 0 4 1 7l-50 -50v-44zM390 1361
l48 48l-15 17l-33 -34v-31zM389 1428l16 16l-16 17v-17v-16zM87 291c1 -21 1 -42 2 -63c3 -56 2 -112 -2 -168c9 -1 27 -1 55 -1c27 -1 58 -1 91 -1s63 1 88 3c25 1 39 4 43 8c2 5 3 26 2 63c-1 36 -3 78 -6 127c-3 48 -5 92 -8 132c-3 39 -5 65 -6 77v4c-1 12 -2 30 -3 53
s0 46 3 67s11 33 24 38c11 2 21 -1 32 -10c10 -9 18 -18 24 -26c25 -30 53 -74 86 -131s65 -117 98 -179c35 -66 66 -120 91 -163c3 -7 7 -12 10 -17c11 -21 20 -34 29 -41s25 -11 49 -14l-2 1c19 -3 42 -4 69 -5s53 -1 77 0c23 1 40 2 49 3c13 2 20 6 22 11c1 5 0 11 -5 18
s-10 13 -16 19c-5 5 -9 10 -12 14c-70 100 -135 204 -194 313c-13 22 -26 44 -39 67c-2 3 -4 7 -7 12c-11 20 -26 46 -45 79s-36 65 -52 96s-26 55 -31 70c-3 21 2 41 15 61c13 19 27 37 43 54c9 9 17 18 24 27c22 28 44 56 66 85c81 107 166 210 257 308
c-53 65 -111 125 -176 178c-9 -7 -18 -17 -28 -31c-11 -14 -21 -28 -31 -42c-9 -13 -17 -24 -24 -33c-31 -39 -63 -77 -96 -115c-44 -51 -87 -103 -129 -156c-3 -5 -8 -12 -15 -21c-14 -19 -31 -42 -51 -69c-21 -27 -41 -50 -60 -70c-20 -20 -35 -29 -45 -28
c-9 3 -15 11 -17 24c-3 13 -4 28 -3 45s2 31 3 44c1 6 1 11 2 14c3 116 1 232 -6 348c-1 31 -1 63 0 94c0 7 -1 12 -4 15s-9 4 -16 4l-222 -5h-6c-9 -1 -15 -2 -17 -4s-3 -8 -2 -17v-7c2 -111 5 -223 9 -335c4 -123 7 -247 9 -371l3 -243c0 -70 0 -140 1 -210z" />
    <glyph glyph-name="L" unicode="L" horiz-adv-x="949" 
d="M382 1473l-2 -1l1 -48l24 24zM433 1343l1 -33l-51 -51l-1 50l51 51v-17zM434 1275v-22s0 -15 1 -22l-51 -51v44zM435 1194v-33l-50 -49v32zM435 1126v-44l-49 -50l-1 44l24 24zM436 1045v-31l-49 -49l-1 31zM436 978v-45l-49 -48v45zM436 896l-1 -47l-47 -47v46zM435 813
v-45l-46 -47c-1 8 -1 16 -1 23v23zM435 730v-47l-46 -46v47l30 31zM434 646v-46l-45 -46v24v23zM434 562v-30l-35 -34l-11 -10l1 29zM433 496v-47l-46 -46c0 3 0 6 1 9v17v22zM432 412v-29l-2 -2c-12 0 -21 0 -28 1zM382 1345l-1 44l42 41l10 -10c1 -7 1 -15 1 -23zM93 2
c14 1 28 1 43 1l-22 -22c-3 4 -7 8 -11 11zM131 -37l41 41l10 1c12 1 24 1 36 1h1l-53 -53c-15 0 -24 1 -27 2zM202 -47l54 54c17 1 33 1 50 1l-53 -53c-17 -1 -34 -1 -51 -2zM290 -43l51 51h47l-50 -49l-27 -1h-12c-3 -1 -6 -1 -9 -1zM375 -41l18 19l31 30h25
c8 1 16 1 24 1l-48 -49zM461 -39l48 48h30l-48 -47zM528 -38l48 48c17 1 33 1 50 2l-48 -49zM614 -36l51 50c7 1 15 1 23 2h6l-26 -26s-17 -17 -25 -26h-29zM680 -35l44 44c3 -1 6 -3 9 -5l17 -17l-21 -21zM122 -90c6 -7 19 -11 38 -12c19 -2 40 -3 63 -2c22 1 40 2 55 3
c5 0 9 0 12 1c75 3 149 4 224 3c94 -1 188 1 282 7c13 1 24 -1 35 -7c11 -5 19 -6 26 -1s11 13 12 24l-5 253c0 17 -3 33 -9 47c-7 14 -14 25 -22 33l-98 101c-15 16 -40 23 -75 22c-55 -1 -109 -2 -163 -1c1 255 -1 511 -6 767c-1 86 -2 172 -3 259c0 25 -7 38 -20 39
l-98 101c-5 4 -12 6 -20 6c-8 -1 -16 -2 -24 -5c-8 -2 -15 -3 -22 -3c-25 -1 -51 -2 -77 -3c-61 -3 -122 -3 -182 2c-18 3 -30 1 -36 -6s-9 -19 -8 -36c1 -19 2 -37 3 -55c1 -19 2 -39 2 -58l8 -556v-783c0 -16 3 -28 8 -36zM761 36v10v0l48 48l3 -45l-32 -32l-6 6zM798 -1
l15 14v-30zM808 129c0 -1 0 -1 -1 -1l-47 -47v14c-1 4 -1 8 -1 13l48 48c0 -6 0 -12 1 -18v-9zM807 193l-49 -49c-1 15 -1 30 -1 45l42 42l3 -3c2 -5 4 -10 5 -15s1 -9 1 -12zM781 250l-25 -25v29l11 11zM432 325l250 -1c11 0 17 -6 17 -18c-1 -42 0 -84 3 -127
c1 -29 2 -59 3 -89c0 -6 -1 -10 -3 -13s-6 -5 -13 -5c-128 -1 -256 -4 -384 -7c-34 -1 -68 -1 -102 -2c-33 -1 -59 -2 -78 -4c-17 -1 -30 -2 -37 -1c-8 1 -13 3 -14 8c-2 5 -3 12 -2 23v251c1 67 1 133 1 200v187v62c-5 110 -7 220 -7 329c1 115 -2 229 -8 343v2
c-1 12 -1 19 2 22c3 2 10 2 22 0h1c45 -3 89 -3 133 0c19 1 37 2 56 3c5 0 10 0 15 1c13 1 22 0 27 -2s9 -8 10 -19s2 -29 2 -54v-34c2 -323 1 -647 -3 -970c0 -8 1 -18 3 -30c1 -12 5 -23 10 -33c5 -11 11 -17 20 -19z" />
    <glyph glyph-name="M" unicode="M" horiz-adv-x="1542" 
d="M666 899c-1 3 -3 7 -4 10c-3 7 -7 14 -10 23l11 11l14 -33zM470 572c1 -11 1 -21 1 -32l-45 -45c-1 0 -1 0 -2 -1c-1 15 -1 29 -2 44l42 42zM472 505c1 -9 1 -17 1 -26c1 -7 1 -13 1 -19l-45 -45c0 7 0 15 -1 22s-1 15 -2 23zM475 424l2 -27l-1 -1l-43 -43v12
c-1 5 -1 11 -1 16zM478 361l2 -45l-43 -43v0c-1 15 -1 31 -2 46zM482 281l1 -26l-45 -45v1v10v17zM484 220c1 -8 1 -16 1 -23c1 -8 1 -16 1 -24l-44 -44c-1 16 -1 32 -2 47zM487 139c1 -7 1 -14 1 -21c1 -7 1 -15 1 -22l-44 -44l-7 7c3 9 4 21 4 35zM490 61
c0 -8 0 -16 1 -24v-23l-4 -5c-8 9 -16 17 -24 25l8 8zM420 573c0 15 0 30 -1 45l12 12c6 -9 12 -19 19 -28zM32 40c0 -6 1 -11 4 -15s6 -8 10 -12l3 -3c16 -17 29 -31 40 -44c18 -21 34 -37 47 -47c13 -11 31 -17 53 -18c22 -2 55 -1 98 3h4c55 6 111 7 168 4
c47 -2 75 11 84 38s11 63 6 107c-1 20 -2 41 -3 62c-1 70 -4 141 -9 214c-4 53 -7 106 -9 159c2 -3 5 -7 10 -14c17 -27 45 -67 83 -118c37 -52 76 -97 116 -134c39 -37 71 -49 95 -34c6 5 18 18 35 40s34 46 53 72c18 25 33 46 44 62c3 5 6 8 8 11c-1 -53 -1 -102 0 -147
s4 -95 7 -148c0 -5 0 -11 -1 -18c-1 -11 -1 -23 0 -34s4 -19 11 -23c25 -26 49 -51 73 -76c1 -1 1 -2 2 -3c5 -5 10 -10 13 -14s6 -7 9 -9s6 -3 11 -4c4 -1 11 -1 20 -2c1 -1 3 -1 5 -1l179 -11c23 -2 42 -3 55 -2c13 0 27 0 40 1c11 1 25 2 42 3c14 1 23 7 28 18
c4 11 2 22 -6 34c-5 7 -7 14 -8 21s-2 14 -1 21v10c1 471 -3 941 -14 1412c-1 25 -7 41 -20 50c-33 34 -66 68 -99 101c-7 10 -20 16 -41 19c-33 3 -70 4 -113 3c-43 -2 -82 -5 -115 -8h-11c-13 0 -25 -2 -36 -5c-11 -4 -20 -13 -25 -27c-37 -104 -82 -205 -134 -303
c-15 -31 -30 -63 -45 -94c-27 -60 -57 -118 -89 -174c-64 142 -125 285 -184 429c-7 20 -18 34 -35 42c-30 31 -60 62 -89 92c-9 9 -21 15 -36 18c-16 3 -45 5 -86 7c-41 1 -83 3 -124 4c-42 1 -71 1 -88 0c-11 0 -20 1 -27 3c-10 2 -18 2 -24 -1s-10 -13 -12 -30
c-3 -17 -3 -46 -2 -87s2 -81 3 -122c5 -235 13 -470 23 -705c4 -114 5 -228 3 -343c-1 -37 -1 -73 -1 -110v-12c-1 -36 0 -72 2 -108zM117 1l2 3c16 1 30 2 42 3c4 1 8 1 11 1l-31 -31zM158 -41l53 53c10 1 20 1 29 2h2l-57 -58c-8 -1 -16 -1 -23 -1zM223 -41l56 56
c16 1 32 1 49 0l-52 -52l-2 -2c-16 -1 -32 -1 -47 -2h-4v0zM311 -37l50 50c19 -1 36 2 52 11l2 -2l-57 -57c-15 -1 -31 -1 -47 -2zM395 -33l37 36l24 -25l-11 -11h-50zM728 296c2 2 5 5 8 9c78 78 156 156 235 233c1 -17 1 -31 1 -43c-49 -49 -98 -99 -147 -148l-74 -74z
M769 254l172 172l6 6c-13 -21 -29 -44 -46 -71c-18 -27 -36 -51 -53 -74c-13 -13 -25 -25 -38 -37c-6 -7 -12 -13 -19 -19zM969 572c-43 -43 -87 -85 -130 -128c21 29 39 54 55 77s27 38 32 46c1 1 2 4 5 8c2 4 5 9 8 14l26 26c1 -11 3 -25 4 -43zM1057 -3
c15 -1 30 -3 45 -4l-23 -22c-7 8 -15 16 -23 24zM1136 -9c3 0 7 0 11 -1c11 -1 22 -1 33 -1l-20 -20s-14 -13 -21 -20c-15 1 -29 2 -41 3l-1 1zM1215 -13c16 -1 31 -1 46 -1l-40 -40c-3 0 -6 0 -10 1h-36zM1300 -12l33 3l-17 -17c-11 -11 -22 -21 -33 -32c-4 0 -8 0 -11 1
c-6 0 -11 0 -16 1zM1351 -28l22 -23l-10 -11c-13 0 -28 1 -45 2zM1359 26c-1 4 -2 7 -3 10c-1 2 -2 3 -3 4l32 33l11 11l-1 -31l-31 -32zM1343 69v25v20l53 53v-46zM1343 150v48l53 53v-49c-18 -17 -36 -35 -53 -52zM1343 235v45l53 53v-23v-22zM1343 316v47l52 52v-47z
M1343 400v45l22 22l29 29l1 -44zM1343 480v31l51 52v-32zM1342 548v45l51 50v-44zM1342 628v32l50 51l1 -33zM1341 697v44l50 51l1 -45zM1340 776v50l50 50l1 -50zM1340 862l-1 44l51 50v-44zM1339 941l-1 48l50 50l1 -38v-10zM1337 1024v44l50 50l1 -44zM1336 1103v32
l49 49l1 -32zM1335 1170l-1 44l49 48l1 -44zM1334 1249l-1 33c17 16 33 32 49 48l1 -33zM1333 1316l-1 45l48 48l1 -45zM1331 1396l-1 49l17 16l24 -26zM1395 16v-27l-14 14zM1029 455l-1 199v10c1 11 1 25 0 42c-1 16 -5 29 -10 40c-6 10 -16 12 -31 5
c-15 -9 -33 -30 -55 -63s-43 -67 -63 -101c-15 -26 -27 -46 -36 -59l-132 -184c-19 23 -41 54 -68 94s-53 80 -79 120c-14 22 -27 42 -39 60c-10 15 -23 35 -38 58c-16 23 -31 45 -45 64c-15 19 -25 31 -30 34c-13 5 -22 3 -28 -7s-10 -22 -11 -37s-2 -26 -2 -34
c3 -93 6 -187 11 -281c5 -99 8 -199 11 -298c0 -7 0 -14 1 -20c1 -9 1 -16 0 -19c-2 -4 -8 -6 -19 -6c-62 1 -124 -1 -186 -5l-60 -3c-16 -1 -26 0 -29 3s-5 11 -4 25v5c0 81 0 162 1 243c1 129 -2 259 -8 388c-3 59 -5 117 -7 176c-4 137 -8 274 -11 411
c-1 45 -2 91 -3 136c-1 3 -1 7 -1 10c-1 13 0 22 2 28c1 5 6 8 15 8h52c37 0 75 -1 112 -3c8 0 16 0 24 -1c23 -3 47 -4 71 -3c13 0 23 -4 29 -12c6 -9 11 -20 16 -34c2 -5 4 -11 7 -17l84 -203c25 -61 54 -123 85 -187c21 -45 42 -89 61 -132c2 -4 4 -8 5 -12
c9 -21 18 -39 27 -54s20 -22 32 -21c11 1 25 15 40 43c23 41 57 105 101 192c43 87 84 171 123 253c38 82 60 137 67 164c0 1 0 1 1 2c0 3 0 5 1 8s2 5 3 7c5 11 19 18 41 22s46 6 72 7c26 0 48 0 67 -1h18h24c15 1 25 0 30 -3s7 -14 7 -31c0 -22 0 -44 1 -65
c3 -103 5 -207 6 -310l3 -270c3 -250 4 -500 3 -751v-10c1 -12 -1 -20 -4 -25s-13 -8 -28 -7c-15 0 -41 1 -77 4c-16 1 -34 3 -55 4c-3 1 -7 1 -12 1c-8 0 -17 0 -27 1c-11 0 -20 1 -28 2c-9 1 -14 4 -16 7c-4 9 -7 34 -8 74c-1 39 -2 84 -2 133c-1 49 -1 93 -1 131
c1 24 1 42 0 55zM641 958l-14 31l11 12l14 -32zM616 1014l-9 22l12 12l9 -22zM596 1062l-13 32l11 11l14 -31zM572 1119l-10 22l12 12l10 -23zM551 1167l-13 32l12 12l13 -32zM527 1224l-15 35l13 12l15 -35zM502 1284l-14 32l13 13c3 -6 5 -12 8 -19c2 -4 4 -8 5 -13z
M478 1341l-15 34l13 12c2 -3 4 -5 5 -7c2 -7 5 -15 10 -26zM453 1400l-8 19c1 -1 2 -3 5 -5s5 -5 8 -8z" />
    <glyph glyph-name="N" unicode="N" horiz-adv-x="1370" 
d="M119 -90l-99 105c-9 9 -14 20 -15 33s-1 27 0 41v21c0 60 1 120 2 181c1 57 2 115 2 172c-1 212 -2 424 -4 636l-3 363c-1 30 2 49 9 57c7 7 26 10 56 9c63 1 126 0 189 -1c34 -1 68 -1 103 -2c12 0 25 -2 40 -5c14 -4 26 -10 36 -17c31 -31 54 -53 70 -67
c15 -13 26 -24 35 -33c9 -10 18 -24 27 -41s22 -44 39 -79c33 -71 67 -141 101 -211c25 -51 51 -103 76 -154l-14 536c-1 23 2 45 11 65c9 19 27 28 56 27c47 -3 103 -4 169 -4c35 -1 65 -1 92 -2h15c12 0 23 -1 34 -2c10 -1 18 -6 23 -13c33 -33 65 -66 98 -100
c6 -7 10 -18 12 -33s3 -28 2 -38c-6 -157 -8 -374 -7 -651c1 -278 5 -498 12 -660c3 -50 3 -85 2 -106s-5 -33 -11 -36s-15 -3 -27 0c-10 3 -22 4 -37 5c-79 -1 -159 2 -239 9c-1 0 -3 0 -5 1c-11 1 -21 1 -31 1c-10 -1 -20 -4 -29 -9c-5 -3 -10 -4 -16 -4c-7 0 -12 1 -16 2
l-99 104c-7 3 -13 9 -17 16c-9 13 -16 27 -22 42c-22 49 -47 97 -76 142c-17 29 -34 58 -50 87c-37 69 -75 138 -115 205c4 -117 5 -234 3 -351l-16 -231c-4 -12 -10 -18 -18 -19c-9 -1 -18 0 -28 3c-6 1 -12 3 -17 4c-34 1 -77 0 -130 -5c-39 -3 -75 -5 -108 -5
c-33 -1 -55 3 -65 12zM319 12l-53 -52c11 0 22 0 33 1l45 45v1c-5 1 -9 2 -14 3c-3 1 -7 1 -11 2zM230 -42l56 56c-16 1 -33 0 -50 -1l-56 -56c17 0 33 0 50 1zM134 -43h12l53 53l-39 -3c-5 0 -9 0 -14 -1l-30 -30zM337 -36c17 1 31 3 44 4l-20 20zM108 3v0h-17l8 -9z
M434 -25c5 3 8 6 9 11l-10 -10zM443 21c1 17 1 33 1 50l-52 -53l24 -24zM444 107v30l-63 -64l-3 -32l22 22zM444 172v49l-47 -47l-10 -11l-4 -52zM444 257v46l-52 -52c-1 -13 -1 -25 -2 -36l-1 -13zM444 338c0 16 0 32 -1 48l-49 -49c0 -17 0 -33 -1 -49zM443 422
c0 15 0 29 -1 44l-48 -49v-43c17 16 33 32 49 48zM442 501c0 15 0 31 -1 47l-48 -48c0 -15 0 -31 1 -47zM440 584v23l-2 3l-46 -47v-27l24 24zM426 634l-16 31l-21 -21c1 -15 1 -30 2 -46zM874 -28h1l44 45l-45 3l-23 -24l8 -8c5 -5 10 -11 15 -16zM911 -27h15h14l41 40
c-9 1 -19 1 -28 2zM976 -29c15 -1 29 -2 44 -3l44 43c-16 0 -32 0 -47 1zM1054 -35c9 0 17 0 26 -1c7 7 15 15 23 22l22 22l-20 3h-5zM1116 -38c15 0 31 0 46 -1l15 15l-23 24zM1233 -20l-1 15l-7 -7zM1231 30l-2 44l-45 -44l23 -23v-1zM1227 109l-1 27l-47 -47v-27l8 7z
M1224 172l-2 44l-46 -46c1 -5 1 -9 1 -13c0 -3 0 -6 1 -9v-22zM1221 251v3v7v13v7l-4 -4l-43 -43c0 -10 0 -20 1 -29zM1220 317v23c-1 7 -1 15 -1 22l-47 -47v-20c0 -9 0 -17 1 -25zM1219 398v24v24l-49 -49c0 -16 0 -32 1 -47zM1219 483v23v22l-51 -50c1 -15 1 -30 1 -44z
M1219 564v48l-52 -52c0 -16 0 -32 1 -47zM1219 649l1 45l-23 -23l-31 -30l1 -45zM1220 730v32l-54 -55v-31zM1221 799v45l-56 -56l1 -44zM1222 880v33l-57 -57v-33zM1223 950v45l-58 -57v-45zM1223 1031c0 17 0 34 1 51l-59 -59v-25v-25zM1224 1118v45l-58 -58
c0 -15 0 -30 -1 -45v0zM1224 1198v24s0 16 -1 24l-57 -57v-23v-26zM1223 1282v44l-55 -55c-1 -15 -1 -30 -1 -45zM1222 1361c1 12 1 21 2 27c1 3 1 5 1 8l-56 -56c-1 -11 -1 -22 -1 -33zM1213 1419l-12 12l-11 11l-19 -19v-10c-1 -12 -1 -24 -1 -37zM773 127
c6 -18 13 -31 20 -38c7 -8 14 -12 21 -13s14 0 21 1s13 2 20 1c76 -8 153 -12 230 -11h15c9 -1 15 0 19 1c3 1 5 3 6 8c0 5 0 12 -1 23v6c-1 24 -3 48 -4 72c-3 55 -5 111 -7 167c-3 196 -3 392 0 588c3 173 3 347 1 520c0 15 -2 25 -6 28s-12 4 -25 3h-24l-87 3
c-42 1 -84 2 -125 4c-11 1 -17 -1 -19 -7c-3 -6 -3 -16 -2 -31v-8c0 -19 0 -43 1 -74c1 -74 3 -164 6 -270c3 -107 7 -207 12 -302s11 -162 20 -201c2 -12 0 -21 -6 -28s-13 -10 -22 -9s-18 7 -25 18l-72 162c-62 145 -128 289 -199 430c-36 73 -71 146 -106 219
c-3 5 -5 10 -7 15c-8 21 -18 38 -30 51s-31 19 -57 17c-63 -4 -127 -5 -191 -2c-23 1 -47 1 -70 2c-8 0 -14 -1 -18 -4s-6 -8 -5 -17c1 -98 2 -195 3 -292c3 -256 5 -513 6 -770c0 -19 -1 -51 -2 -98c-1 -31 -1 -63 -2 -95c-1 -33 -1 -60 -1 -83s1 -36 2 -40
c3 -4 13 -6 32 -7s40 -1 65 0c24 1 47 2 68 4c21 1 35 2 43 3h3c20 2 34 4 43 6c9 1 14 4 16 8s3 10 2 19v11c3 200 1 400 -4 601v16c-1 18 -1 39 -1 62c-1 23 0 39 2 50c3 9 8 16 15 19s15 3 22 0s12 -8 15 -17c9 -31 22 -60 39 -87c8 -13 15 -26 22 -40
c39 -77 78 -149 117 -215c31 -54 62 -110 93 -169c27 -54 57 -106 90 -157c0 -1 0 -1 1 -1c11 -16 20 -33 27 -52z" />
    <glyph glyph-name="O" unicode="O" horiz-adv-x="1281" 
d="M406 -43c-46 21 -98 60 -157 115s-103 105 -130 152c-55 99 -87 204 -98 317c-12 87 -18 175 -18 264c-2 88 7 175 26 260s51 164 97 237c46 72 109 132 188 179c57 35 107 61 148 78s85 25 131 22c45 -3 103 -17 174 -42c39 -17 82 -47 127 -90s87 -89 126 -137
c39 -49 68 -88 87 -119c31 -51 53 -99 64 -144s20 -93 25 -144c3 -23 6 -47 10 -73c10 -75 12 -155 6 -241c-6 -87 -19 -166 -39 -239c-15 -54 -40 -112 -75 -175s-76 -112 -122 -147c-177 -129 -367 -154 -570 -73zM593 1145c-35 -34 -69 -68 -103 -103l-51 -51
c-6 -20 -11 -40 -15 -61c66 66 132 132 198 197c-9 7 -19 13 -29 18zM458 1048c37 36 73 72 109 108c-9 2 -18 0 -27 -7c-38 -26 -65 -60 -82 -101zM1070 1141l-3 -3c2 -9 4 -17 6 -26l8 8c-3 7 -7 14 -11 21zM1092 1096l-14 -14c2 -13 4 -26 6 -40l21 22
c-4 11 -8 21 -13 32zM1113 1036l-25 -26c1 -13 3 -27 5 -42l29 29c-2 13 -5 26 -9 39zM1128 967l-30 -30c1 -13 3 -27 4 -40l32 31c-2 11 -4 23 -5 34c-1 1 -1 3 -1 5zM1139 896l-34 -33c1 -16 2 -32 2 -48l38 37c-2 15 -4 29 -6 44zM1148 820l-41 -40c0 -15 0 -31 -1 -46
l46 45c-1 14 -3 28 -4 41zM1154 745l-50 -51c-1 -11 -2 -23 -3 -35l55 54c-1 11 -1 21 -2 32zM1156 679l-30 -30l-30 -30c-2 -18 -4 -36 -7 -53l67 68c1 15 1 30 0 45zM1154 595l-74 -75l-9 -39l81 81c1 11 1 22 2 33zM1148 522c-31 -30 -61 -60 -91 -91
c-8 -24 -18 -49 -30 -75l77 77l36 36c3 18 6 36 8 53zM1131 423l-65 -66l-78 -77c-35 -61 -75 -110 -120 -145c-23 -17 -47 -32 -70 -45l-121 -120c13 1 25 3 37 5c5 1 9 1 14 2c88 88 176 175 264 262c41 41 83 82 124 123c3 11 6 21 9 32c2 10 4 20 6 29zM1097 307
l-64 -64c-85 -85 -171 -169 -256 -254c29 9 57 21 84 36l98 98l98 98c15 29 29 57 40 86zM639 -32l89 88c-25 -9 -49 -17 -73 -24c-7 -7 -13 -13 -20 -19l-39 -39l-5 -5c16 -1 32 -1 48 -1zM559 -28l50 50c-11 -1 -22 -3 -33 -4l-42 -42c8 -1 16 -3 25 -4zM505 -17l33 33
c-16 -1 -32 0 -48 1l-22 -23c12 -5 24 -8 37 -11zM442 4l15 16c-8 1 -17 2 -26 4l-10 -10c7 -4 14 -7 21 -10zM363 579c-14 94 -14 197 0 309c14 111 51 206 110 285c45 51 90 66 135 43s83 -62 116 -117c32 -55 52 -106 59 -153c12 -74 15 -154 9 -240
c-6 -87 -23 -164 -51 -232c-17 -42 -41 -77 -71 -106s-70 -38 -120 -27c-55 15 -98 45 -129 89s-51 94 -58 149zM594 402c29 3 51 15 66 36s26 43 35 68c25 61 39 126 44 197c4 71 3 138 -4 203c-4 51 -17 97 -38 136c-4 4 -11 7 -20 9c-9 1 -19 -1 -29 -7
c-26 -17 -47 -39 -62 -64c-15 -26 -27 -54 -36 -83c-26 -93 -38 -188 -36 -285v-12c1 -33 3 -66 6 -99s11 -64 24 -93l-2 1c16 -5 33 -8 52 -7zM475 454c-1 7 -3 13 -4 20v3l-9 -8c4 -5 8 -10 13 -15zM447 491l20 19c-1 8 -1 16 -2 25l-27 -26zM428 535l34 35
c-1 15 -1 30 -1 45l-43 -43c2 -13 5 -25 10 -37zM412 604c7 6 13 12 20 19l19 19l10 10c0 10 0 20 1 30l-52 -52c1 -9 1 -17 2 -26zM408 665l56 57c1 17 3 35 6 52l-64 -64c1 -15 1 -30 2 -45zM406 747c12 11 24 23 35 34c12 12 24 24 36 35c3 21 8 41 13 61l-18 -18
l-64 -64c-1 -16 -2 -32 -2 -48zM411 835l96 96c10 29 22 57 37 83l-85 -85l-42 -42c-3 -17 -5 -35 -6 -52zM79 538c11 -105 42 -202 94 -293c47 -73 110 -122 190 -147c79 -25 160 -31 243 -18c75 13 143 42 206 86c52 36 96 86 131 149s59 125 73 184c24 101 35 201 32 300
s-14 198 -33 299c-11 59 -30 112 -57 157s-59 91 -96 138c-48 58 -115 96 -200 113s-161 10 -228 -23c-77 -39 -141 -82 -193 -130c-53 -49 -95 -116 -126 -202c-41 -111 -59 -227 -54 -346c-1 -89 5 -178 18 -267z" />
    <glyph glyph-name="P" unicode="P" horiz-adv-x="1202" 
d="M449 751c-53 -11 -85 -10 -96 3s-15 43 -12 90v31v54c-1 27 -1 58 -1 91c-1 33 -1 63 0 89c1 25 2 41 4 47c19 36 46 59 79 69c33 9 68 10 106 2c69 -22 114 -61 137 -116l17 -65c5 -57 -6 -111 -34 -163c-29 -52 -72 -90 -129 -114zM482 1124l49 50c-13 4 -27 7 -42 8
l-32 -33zM556 1163l-33 -33l-24 -24l1 -1c19 12 41 19 64 21l19 19c-9 7 -18 13 -27 18zM8 203v-11c-1 -52 0 -90 3 -115c2 -25 8 -45 19 -60c10 -16 27 -36 52 -59c13 -13 29 -29 47 -48c5 -5 17 -9 36 -11s39 -3 62 -2c23 0 42 0 59 1h25c11 0 23 0 36 -1
c31 -3 61 -2 90 4c29 5 49 24 60 57c3 13 4 34 5 65c0 31 -1 65 -2 103c-1 50 -2 96 -1 139s5 71 12 85c3 4 10 8 22 11c11 3 24 6 38 9c13 2 25 4 35 5c5 1 9 1 12 2c78 12 141 30 189 55c47 24 101 61 162 112c13 13 25 27 36 42c71 97 111 205 118 325
c6 119 -16 218 -65 297c-49 78 -115 152 -198 222c-61 55 -132 89 -213 102c-48 7 -93 10 -136 7s-87 -16 -132 -39c-4 5 -7 8 -9 11c-3 2 -5 4 -6 5l-8 8s-9 8 -16 15c-9 9 -29 15 -62 18s-66 4 -101 3s-59 -2 -74 -3c-6 -1 -12 -1 -18 -1c-27 1 -47 -3 -60 -11
c-13 -9 -19 -30 -20 -65c-3 -83 -4 -165 -3 -247c1 -42 2 -84 3 -125c5 -113 6 -225 3 -337c-1 -53 -1 -105 1 -158c3 -53 3 -105 2 -158zM103 0l2 2l31 1l-18 -19zM136 -34l36 37l31 1c5 0 11 0 17 -1h1l-21 -20l-29 -30c-14 1 -22 2 -25 3zM204 -49l50 50
c9 -1 19 -1 28 -1l-49 -50c-10 1 -20 1 -29 1zM268 -50l54 54c14 3 27 8 38 16l13 -14l-57 -56h-48zM352 -49l38 37l22 -23l-13 -12c-12 -1 -28 -2 -47 -2zM385 54c2 5 4 11 5 18l50 49v-47l-37 -38zM421 19l21 21c1 -1 1 -3 1 -4c1 -12 2 -25 2 -38l-2 -2
c-8 7 -15 15 -22 23zM439 157l-46 -46v29l46 45v-9v-19zM440 221l-47 -46v45c-1 1 -1 2 -1 3l49 48c-1 -17 -1 -33 -1 -50zM443 309c-9 -8 -17 -16 -26 -25s-17 -17 -25 -26c0 1 0 3 -1 4v25l54 53c-1 -10 -1 -20 -2 -31zM447 379l-57 -57c0 17 0 33 1 48l34 35l23 -24z
M407 424l-14 -15c1 10 2 19 3 27zM425 467c10 3 21 5 33 7l-20 -20zM456 435l46 46c2 0 4 0 5 1h2c18 3 35 6 50 9l-71 -71h-17zM525 420l83 83c16 4 31 9 45 14c-13 -12 -25 -24 -37 -37c-13 -12 -25 -24 -38 -37l-21 -21c-11 -1 -22 -2 -32 -2zM599 428c27 27 55 54 82 81
c13 13 27 27 41 40c40 24 86 57 138 100c14 13 26 27 37 42c19 27 37 55 52 85l59 59l59 59c-1 -17 -4 -35 -7 -52l-263 -263l-137 -137c-21 -6 -41 -11 -61 -14zM713 458l46 45c96 97 192 193 288 290c-5 -17 -11 -33 -18 -50c-89 -89 -179 -178 -269 -267
c-15 -7 -31 -13 -47 -18zM830 509c55 55 110 109 165 164c-13 -23 -28 -45 -44 -67c-30 -37 -70 -69 -121 -97zM1070 932l-94 -93c6 16 12 32 17 49c25 25 51 51 76 77c1 -11 1 -22 1 -33zM1067 999l-63 -63c4 18 7 36 9 54l49 48c2 -13 4 -26 5 -39zM1056 1067l-40 -39
c1 17 2 34 1 51l28 28c3 -11 7 -23 10 -35zM1036 1134l-21 -21c-1 13 -3 27 -5 40l13 13c5 -10 9 -21 13 -32zM1011 1189l-7 -6c-2 10 -4 20 -7 29c5 -7 9 -15 14 -23zM433 1175l6 -7l11 11c-6 -1 -12 -2 -17 -4zM451 1094l-24 25l-31 -31c-1 -15 -1 -32 -2 -50zM409 1138
l-8 8c-1 -3 -2 -10 -3 -19zM394 1001v-30v-15l54 54c1 22 2 36 4 41c5 8 10 16 15 23l-29 -29zM394 918v-31l53 54v10v21zM394 852v-46l52 53l3 2c-1 13 -1 28 -1 44zM429 803l21 6c0 2 0 5 -1 10v5zM502 826c17 7 31 13 43 20c37 25 63 59 78 100c14 41 15 83 3 126
c-20 5 -41 5 -64 2c-28 -5 -45 -14 -51 -29s-8 -34 -7 -57v-20zM764 641c-89 -55 -167 -88 -234 -100c-67 -13 -117 -18 -150 -16c-19 0 -31 -1 -34 -3c-3 -3 -4 -9 -5 -17s-2 -15 -2 -22v-8c-8 -104 -10 -208 -6 -313c0 -5 0 -12 1 -19c3 -17 3 -34 1 -51s-11 -28 -28 -33
c-13 -2 -35 -3 -68 -4s-65 0 -96 2c-32 1 -53 5 -64 10c-6 5 -10 25 -13 60s-4 75 -4 122c0 46 1 89 2 130c1 40 1 68 2 85c1 50 1 100 -1 150c-1 45 -1 89 0 134c2 121 1 241 -3 362c-2 73 -3 147 -3 220c0 3 0 8 -1 14v57s1 44 2 63s2 30 5 34c3 1 15 2 36 3s46 2 75 3
c28 0 53 0 76 -1c22 -1 35 -2 40 -5c2 -2 4 -6 5 -11s1 -11 2 -18c1 -11 2 -21 5 -30c2 -10 7 -17 14 -21c5 -3 11 -3 16 0c5 2 10 6 16 11c9 9 24 19 45 28c47 19 88 30 123 31s77 -3 126 -13c165 -35 266 -134 303 -298c37 -171 2 -326 -105 -465c-21 -29 -47 -52 -78 -71
z" />
    <glyph glyph-name="Q" unicode="Q" horiz-adv-x="1401" 
d="M1173 1038c5 -11 10 -23 15 -34l-13 -12l-9 39zM461 541c-1 5 -1 10 -2 15l-13 -13c6 -9 13 -19 20 -28c-2 9 -4 17 -5 26zM433 567l24 24v29l-33 -32zM415 615l44 43c1 17 2 34 5 52l-57 -56c2 -13 5 -26 8 -39zM404 688c9 9 19 18 28 27l27 27l11 11c3 19 7 39 12 59
l-77 -77c-1 -11 -1 -20 -1 -29v-18zM408 774l89 89c9 27 19 53 31 77c-19 -19 -38 -37 -57 -56l-57 -57c-3 -18 -5 -36 -6 -53zM422 871c75 74 150 148 225 223c-11 6 -22 11 -33 14c-3 -3 -6 -5 -9 -8c-55 -55 -111 -111 -166 -167l-3 -3c-5 -19 -10 -39 -14 -59zM455 987
l22 22l52 52s35 34 52 51c-21 0 -41 -8 -60 -25c-27 -25 -49 -58 -66 -100zM668 1080l-23 -24c14 5 29 7 44 7c-7 6 -14 12 -21 17zM77 368c39 -94 99 -179 180 -256s168 -131 262 -162c43 -14 87 -24 132 -30c45 -7 90 -6 135 1c79 13 153 39 222 77c7 4 12 6 17 6
c4 0 8 -3 13 -10c7 -9 14 -17 22 -24c8 -8 15 -16 22 -25c13 -17 30 -20 51 -8c21 11 44 29 71 54c34 31 73 59 116 84c21 12 23 27 7 45c-21 24 -42 47 -64 69c-31 29 -38 63 -20 102c45 117 67 248 64 393c-3 144 -32 273 -89 388c-77 150 -181 279 -311 386
c-19 15 -38 27 -57 38s-41 21 -66 30c-31 10 -61 16 -88 18c-8 1 -16 2 -25 3c-115 18 -222 -3 -322 -63c-144 -94 -242 -223 -295 -387c-36 -115 -52 -238 -48 -367c3 -130 27 -251 71 -362zM508 402c-90 55 -142 137 -155 245c-9 64 -5 136 10 215s36 144 64 197
c25 45 54 76 87 94s74 19 125 4c79 -27 139 -83 178 -169s51 -181 37 -285c-14 -105 -61 -198 -141 -280c-33 -32 -67 -49 -101 -50c-35 -1 -69 8 -104 29zM552 443c45 -22 89 -12 131 31c65 71 105 151 118 240c13 88 -2 176 -46 263c-3 5 -6 11 -9 17
c-39 21 -78 17 -117 -12c-43 -43 -73 -103 -90 -180s-26 -144 -27 -201c0 -59 13 -111 40 -158zM889 161c-79 -45 -153 -72 -223 -81c-71 -9 -147 -1 -230 26c-102 30 -184 86 -246 167c-55 80 -91 175 -109 286c-19 111 -24 212 -15 304c9 111 35 214 80 311
s113 178 205 244c75 55 159 83 251 86c139 1 247 -48 326 -149c45 -56 85 -114 118 -174c33 -61 58 -127 74 -198c21 -97 27 -202 18 -313s-34 -212 -74 -302c-7 -18 -3 -38 12 -60c14 -23 29 -42 45 -59c5 -6 10 -11 14 -16c1 -1 2 -3 3 -4c7 -8 11 -13 11 -16
c-1 -3 -5 -8 -14 -15c-1 -1 -3 -2 -4 -3c-37 -29 -73 -59 -109 -89c-8 -7 -14 -9 -19 -6s-13 11 -22 24c-7 10 -17 23 -30 39c-9 11 -16 17 -23 19c-7 1 -12 1 -17 -2s-9 -7 -13 -11c-3 -3 -6 -6 -9 -8zM431 49c13 -3 25 -7 38 -10l-6 -7c-11 5 -22 11 -32 17zM498 32
c9 -1 17 -3 25 -4l-15 -15c-7 3 -14 5 -21 8zM555 23c15 -1 31 -2 46 -3l-28 -28c-10 3 -20 6 -29 9c-3 1 -6 1 -9 2zM637 21c11 1 21 2 32 4l-45 -45c-7 1 -15 3 -23 5zM713 33c23 5 46 12 68 19l-81 -81c-15 1 -30 2 -45 4l15 15zM838 73c21 9 42 19 62 30c7 5 13 7 18 6
l-133 -133c-16 -3 -32 -4 -49 -5zM937 91l23 -25l-56 -55c-25 -11 -49 -19 -73 -25c35 35 71 70 106 105zM977 47l1 -2l-5 -2zM1166 152c13 9 25 17 37 24c5 -7 10 -14 15 -19l-66 -66s-44 -44 -67 -66c-5 7 -12 16 -20 27zM1235 137l3 -3c5 -5 8 -10 11 -13l-23 -23
c-35 -34 -70 -68 -105 -103c-7 -4 -14 -1 -20 8zM1171 277c-2 3 -4 5 -6 7c-6 6 -11 12 -16 17l60 60c-7 -25 -16 -48 -25 -71zM1133 322c-6 11 -9 23 -8 37l15 14l94 95c-3 -20 -7 -39 -12 -58c-29 -29 -59 -59 -89 -88zM1141 412c7 21 14 43 21 66l42 42l42 42
c-1 -17 -3 -33 -5 -50l-64 -63zM1173 526c3 12 5 24 8 37l69 70c0 -11 0 -21 -1 -32l-43 -43c-11 -11 -22 -21 -33 -32zM1188 608c2 17 4 33 5 50c15 14 29 28 43 43l13 13c1 -15 1 -29 1 -44zM1196 697c1 11 1 23 2 34l46 46l3 -30zM1198 768c0 15 0 29 -1 44l37 37
c3 -13 5 -26 6 -39zM1196 846c-1 15 -3 30 -4 45l26 27c4 -13 7 -27 10 -40zM1187 924c-1 13 -3 26 -6 39l17 16l12 -33z" />
    <glyph glyph-name="R" unicode="R" horiz-adv-x="1208" 
d="M123 -83l-97 102c-11 17 -17 40 -18 69s-2 52 -1 71c1 3 1 5 1 7l3 289c1 53 1 106 -2 159c-2 52 -2 104 -1 157c3 113 2 225 -3 338c-1 41 -2 83 -3 124c-1 82 0 164 3 247c1 35 7 56 20 65c13 8 33 12 60 11c6 0 12 0 18 1c9 1 20 1 34 2c36 3 76 5 120 6
c43 1 73 -5 90 -16l1 1c7 -6 12 -11 16 -15c3 -4 6 -7 9 -9c3 -3 6 -5 9 -8s6 -7 11 -12c0 1 0 1 1 1c11 6 22 11 32 16c10 4 22 8 35 11c61 9 121 9 182 -2c81 -13 152 -47 213 -102c83 -70 149 -144 198 -222s71 -177 65 -297c-7 -120 -47 -228 -119 -325c0 -1 0 -1 -1 -1
c-10 -15 -22 -29 -35 -41c-13 -11 -25 -21 -36 -31c-15 -15 -31 -29 -48 -41s-37 -22 -62 -30c-21 -8 -29 -21 -24 -39s16 -36 33 -53c7 -7 17 -15 28 -24c21 -15 43 -34 66 -59c17 -17 35 -35 52 -53c1 0 1 0 1 -1c4 -3 9 -7 14 -12c23 -18 44 -40 64 -67
c19 -27 21 -56 5 -86c-20 -33 -46 -66 -78 -98c-32 -33 -68 -53 -108 -60c-23 -2 -46 3 -69 14s-43 24 -60 40c-65 66 -131 138 -200 216c-17 19 -32 36 -47 53c-1 -33 0 -65 2 -96c5 -57 4 -110 -5 -159c-9 -33 -31 -53 -64 -58c-34 -6 -68 -7 -103 -3c-13 1 -26 1 -37 1
c-7 0 -15 0 -26 -1c-25 -1 -53 -1 -82 1c-29 1 -48 8 -57 19zM369 6l-58 -58c16 1 31 1 46 2l34 33zM275 -52l62 62c-17 -6 -37 -9 -59 -10l-52 -52h49zM381 55l1 -1l55 56c0 15 0 31 1 48v1l-47 -47c-1 -22 -5 -41 -10 -57zM399 37c4 -4 8 -8 11 -12c4 -3 8 -7 11 -11
l18 17c-1 1 -1 1 -1 2c0 3 0 6 -1 9v32zM438 195v14v14l-47 -47v-27zM437 258c-1 21 -2 35 -3 40l-2 3l-44 -44c0 -10 0 -21 1 -33v-13zM418 324c-5 7 -9 12 -13 17l-18 -19v-25v-4zM417 -44l-9 9l-13 -13c11 1 18 3 22 4zM243 1c-9 0 -18 0 -27 1l-52 -51c7 -1 17 -1 28 -2
zM182 4h-2l-48 -1l-15 -16c8 -8 16 -16 23 -25l30 29zM436 1168c8 -9 16 -17 25 -25l37 37c-16 3 -33 3 -50 0zM478 1125l17 -18c7 4 13 7 20 10l42 41c-10 6 -20 11 -31 15l-34 -34zM562 1127c9 1 19 1 30 0l-15 15zM462 1078l-14 16c-11 -10 -21 -20 -31 -30l-30 -30v-45
l56 55c0 3 0 6 1 7c5 10 11 19 18 27zM430 1112l-24 26l-18 -18c-1 -9 -1 -19 0 -28v-19v-3zM387 951v-31l52 52c0 11 0 22 1 32zM387 884l-1 -46l30 29l24 25c0 14 0 29 -1 44zM388 802c3 -1 7 -2 12 -1c5 0 11 1 18 2l23 23v29zM786 1418c-41 27 -90 46 -147 57
c-52 11 -100 15 -144 11s-88 -22 -133 -55c-5 -4 -11 -8 -19 -11c-8 -4 -15 -4 -22 -1c-4 3 -7 9 -8 16s-2 14 -2 23c0 13 -1 24 -4 34c-3 9 -11 15 -23 16c-21 0 -43 -1 -65 -3c-17 -1 -33 -2 -49 -2h-24c-15 1 -29 1 -44 1c-15 -1 -28 -3 -37 -7c-3 -3 -5 -14 -6 -31
c-1 -18 -2 -38 -2 -59c0 -22 0 -41 1 -57c1 -9 1 -16 1 -20c0 -73 1 -147 3 -220c4 -121 5 -241 3 -362c-1 -45 -1 -89 0 -134c2 -50 2 -100 1 -150c-1 -17 -1 -45 -2 -85c-1 -41 -2 -84 -2 -130c0 -47 1 -87 4 -122s7 -55 13 -60c11 -5 32 -9 63 -11s62 -3 94 -2s54 2 66 5
c17 5 27 16 29 31s2 31 -1 46c0 4 0 8 -1 12l1 141c0 5 0 11 -1 20c-1 14 -1 30 -1 48c-1 17 0 33 2 48c1 15 4 24 9 29c18 12 36 12 55 1c18 -11 35 -27 50 -47s27 -37 35 -51c59 -90 128 -171 209 -244c28 -27 54 -40 79 -37c25 2 54 23 89 62c34 39 47 68 39 88
s-26 39 -55 58c-9 7 -19 14 -29 22l-118 114c-43 45 -69 79 -78 104s-6 44 9 58c15 13 36 27 65 40c24 11 49 25 76 42c26 17 50 39 73 68c106 139 141 294 104 465c-21 102 -73 182 -156 241zM1007 1189l-7 -6c3 -13 5 -25 7 -38l14 14c-5 11 -9 21 -14 30zM1032 1133
l-22 -21c2 -16 3 -32 3 -48l31 31c-3 13 -7 26 -12 38zM1051 1067l-39 -39c-1 -17 -3 -33 -5 -50l52 51c-2 13 -5 25 -8 38zM1063 997l-64 -63c-3 -15 -6 -29 -10 -44l76 76c-1 11 -1 21 -2 31zM1065 931l-46 -46l-47 -47c-11 -29 -24 -57 -39 -84l129 129c2 16 3 32 3 48z
M1055 840c-73 -73 -145 -146 -218 -219l-109 -109l-30 -30c4 -5 8 -11 12 -16c112 110 223 220 334 331c4 14 8 28 11 43zM1025 742l-33 -32c-79 -79 -158 -157 -237 -236c13 7 27 15 42 22c17 9 36 18 55 29l123 123c19 31 36 62 50 94zM686 508l49 48c-8 -3 -16 -6 -25 -9
c-23 -8 -31 -21 -24 -39zM951 157c-8 -14 -18 -29 -29 -44l37 37c-1 1 -3 2 -4 3zM979 133l-162 -161c5 -5 11 -8 17 -11c49 49 98 97 148 146l11 12c-4 5 -9 9 -14 14zM1005 94c-24 -24 -48 -48 -72 -71c-24 -24 -48 -48 -73 -72c31 -5 65 15 104 62c31 35 45 62 41 81z
M797 -12l38 38c-17 -12 -34 -21 -52 -26c5 -5 9 -9 14 -12zM346 751c-8 9 -12 25 -13 48s-1 43 0 61v15v54c-1 28 -1 59 -1 92c-1 33 -1 62 0 88c1 25 2 41 4 47c19 36 46 59 79 69c33 9 68 10 106 2c73 -23 120 -66 140 -129s17 -126 -9 -190c-27 -64 -73 -110 -140 -139
c-14 -5 -32 -10 -55 -15s-46 -8 -67 -9s-36 1 -44 6zM537 846c37 25 63 59 78 100c14 41 15 83 3 126c-20 5 -41 5 -64 2c-28 -5 -45 -14 -51 -29s-8 -34 -7 -57v-20l-2 -142c17 7 31 13 43 20z" />
    <glyph glyph-name="S" unicode="S" horiz-adv-x="1314" 
d="M302 466c35 -30 67 -55 97 -74c30 -20 67 -37 112 -52c52 -17 104 -22 155 -15s93 34 127 83c25 42 27 81 6 118c-22 37 -53 69 -93 97c-41 28 -77 50 -108 66l-9 6c-16 9 -31 17 -46 26c-44 24 -85 48 -122 72c-37 23 -76 52 -115 87c-66 55 -106 131 -121 229
c-13 101 9 193 66 276s135 136 235 157c129 23 249 -4 360 -81c12 -7 25 -17 40 -29c15 -13 22 -26 23 -41c-2 -20 -11 -43 -26 -70s-32 -52 -50 -75c-18 -24 -32 -41 -42 -52c-6 3 -12 7 -18 10c-31 18 -62 33 -93 46c-31 12 -66 16 -104 11c-44 -7 -75 -29 -93 -64
c-18 -36 -19 -75 -2 -116c23 -35 48 -62 77 -81c29 -20 60 -38 93 -54c13 -6 26 -13 39 -20c52 -27 102 -58 151 -92c48 -34 90 -74 127 -120c59 -77 92 -161 97 -252s-19 -172 -73 -243s-140 -117 -259 -136c-62 -10 -115 -14 -160 -12s-98 15 -160 39l-130 62
c-21 12 -47 30 -77 53c-31 23 -57 45 -80 66c-24 22 -41 42 -50 59c2 15 12 35 30 59c18 23 38 46 60 69c22 22 40 39 53 51zM985 1334c6 -5 12 -11 17 -16l-168 -168l-2 2l56 85zM68 268c67 -73 137 -136 211 -191s162 -102 263 -139c13 -4 30 -8 53 -13
c22 -5 44 -10 66 -13c21 -4 38 -5 49 -4c89 5 173 19 251 43c77 24 146 77 205 160c35 54 55 112 60 175c5 62 0 123 -15 184c-15 51 -42 101 -79 150c-37 48 -78 90 -123 127l-71 72c-43 40 -90 75 -142 106s-94 54 -126 69c-19 10 -30 16 -33 18c-8 19 -7 39 2 60
c13 20 31 31 54 33s46 -1 71 -8c24 -8 44 -16 61 -25c12 -8 23 -17 33 -28c12 -13 24 -22 37 -26c12 -4 26 4 42 23c9 12 24 34 46 67s44 66 65 99s34 56 40 69c5 17 2 32 -9 47c-12 14 -24 26 -37 35c-3 3 -6 5 -8 8l-22 22c-29 33 -61 62 -94 88c-71 53 -140 90 -206 109
c-67 19 -144 23 -233 13c-49 -7 -92 -24 -131 -49s-74 -56 -107 -92c-112 -123 -144 -265 -96 -426c25 -71 73 -141 142 -211c69 -71 135 -128 198 -172c37 -25 76 -48 117 -68c8 -5 16 -9 24 -13c10 -5 20 -10 29 -15c31 -15 60 -32 89 -49c14 -31 12 -58 -5 -81
c-18 -23 -52 -38 -101 -45c-58 -3 -116 10 -173 41s-108 66 -151 106c-7 7 -15 16 -22 26c-9 13 -18 24 -28 33c-11 9 -22 12 -35 9c-15 -5 -39 -22 -70 -50c-31 -29 -61 -58 -89 -87c-29 -30 -47 -51 -54 -62c-11 -21 -8 -44 7 -67c15 -24 30 -43 45 -58zM851 1132l165 165
c3 -15 -2 -35 -13 -59c-22 -21 -44 -43 -65 -64l-65 -65c-7 7 -15 15 -22 23zM893 1092l50 50c-18 -24 -33 -42 -44 -53zM517 23c15 -3 29 -5 42 -7l-18 -18c-7 2 -13 4 -19 7l-16 7zM591 13h11c13 1 25 2 38 3l-38 -38c-11 3 -23 7 -35 11zM680 21c19 2 37 4 56 7l-62 -62
c-14 1 -28 3 -43 6zM780 36c21 5 42 11 63 18c-28 -29 -56 -57 -85 -86c-17 -2 -34 -3 -50 -3zM906 80c56 27 106 73 151 137c7 11 14 21 20 32l97 96c0 -16 -1 -32 -3 -49l-211 -211l-105 -105c-5 -1 -9 -1 -14 -2c-15 -2 -29 -4 -43 -6l6 6zM1102 311c6 19 11 39 14 60
l49 48c3 -13 5 -26 7 -40c-9 -9 -19 -18 -28 -27c-14 -14 -28 -28 -42 -41zM1120 412c1 15 1 31 0 46l26 26c4 -11 8 -23 11 -35zM1118 492c-1 13 -3 27 -6 40l9 9c5 -10 10 -20 15 -31zM1164 253c-3 -14 -6 -27 -10 -40c-70 -69 -140 -139 -210 -209
c-14 -5 -28 -10 -43 -14zM1124 146c-29 -45 -65 -81 -109 -108l72 72c13 12 25 24 37 36zM579 1053c-7 6 -14 13 -21 20l120 121c12 -5 23 -10 34 -16l-22 -22c-61 -6 -98 -40 -111 -103zM541 1094c-7 9 -11 19 -14 30c29 29 57 57 85 86c13 -1 26 -4 39 -7c-1 0 -1 0 -2 -1
zM525 1158c1 7 3 13 6 20c9 17 24 27 44 30zM734 1164c4 -3 8 -6 11 -9c-6 1 -12 1 -19 2z" />
    <glyph glyph-name="T" unicode="T" horiz-adv-x="1267" 
d="M979 1075c-17 1 -34 2 -51 4c-29 3 -57 4 -85 3h-6c-7 -1 -12 -1 -15 -2s-4 -3 -5 -6s-1 -9 -1 -16c1 -1 1 -2 1 -3c1 -68 2 -136 3 -205c2 -85 4 -170 5 -255c1 -156 0 -308 -5 -455c-1 -58 -3 -117 -4 -177c0 -23 -5 -40 -14 -50s-26 -15 -49 -15h-146
c-29 -1 -58 -1 -87 -1c-23 0 -40 2 -52 5c-13 3 -23 9 -32 16l-100 104c-4 4 -7 10 -8 19s-2 21 -1 37l3 1016c-51 1 -102 1 -153 2c-11 1 -22 3 -32 6c-11 3 -19 6 -26 11l-99 105c-11 11 -16 27 -17 49c-2 79 -3 157 -2 236c0 19 7 36 21 52c14 15 31 24 50 25
c75 3 165 4 268 5c103 0 191 -2 263 -6c99 -5 198 -7 297 -6c29 0 57 0 86 -1h5c12 1 24 0 37 -1c12 -2 22 -7 31 -14l98 -101c14 -8 23 -23 28 -44c8 -53 11 -97 9 -134s-5 -67 -9 -92c-5 -30 -7 -55 -4 -76c3 -15 -1 -26 -10 -33s-21 -11 -36 -10c-25 1 -51 2 -76 4
c-27 1 -53 3 -80 4zM694 7l-25 -25l-28 -28h49l28 28zM605 -46l50 50h-10h-20l-50 -50h30zM755 1177l8 -8l15 -15l31 31c-14 1 -28 2 -43 3zM799 1138c10 1 26 1 48 0l41 42h-8h-9c-9 1 -19 1 -28 2zM881 1137c14 -1 28 -1 43 -2l39 39c-9 1 -19 1 -28 2c-5 1 -9 1 -14 1z
M959 1134c17 -1 33 -2 48 -3l44 44c-10 -3 -28 -3 -53 -2zM1040 1129c17 -1 31 -2 42 -3l9 9l-22 23zM747 1123l-22 23l-16 -16l1 -44zM710 1050l1 -47l50 49l-1 47zM712 968l1 -44l49 50l-1 43zM713 888l1 -48l50 49l-1 48zM715 805v-23s0 -15 1 -22l44 45l5 5v31v13z
M716 723v-30c17 16 33 32 50 49v15v16l-44 -44zM717 657v-46l49 49v46zM717 574v-28l48 48v29zM717 509c0 -15 0 -31 -1 -47l50 50l-1 29v16zM716 425v-7c0 -13 0 -25 -1 -38l52 52v34c0 3 0 6 -1 9zM715 343c-1 -16 -1 -32 -2 -49l55 55c0 15 0 31 -1 47zM712 257
c-1 -16 -1 -32 -2 -48c19 19 39 38 58 57v46zM709 172l-1 -50l58 58c1 16 1 32 1 49zM707 86v-30l28 28l28 28c1 10 1 20 2 31zM724 37l15 -15l9 -9l12 11c0 17 0 33 1 50zM457 3l-22 -22l24 -24l45 46h-47zM540 3l-49 -49h49l49 49h-24h-25zM735 -36l9 -9l-18 -1zM95 1201
l9 -9l9 9h-18zM148 1200l-26 -26l19 -20h7l45 45c-15 1 -30 1 -45 1zM230 1199l-46 -46l45 -1l46 46zM311 1198l-46 -46l44 -1l7 7l14 13c1 12 0 20 -2 23s-8 4 -17 4zM1073 1215l9 -9l54 54c1 18 2 36 2 53c-22 -22 -44 -44 -66 -67c-1 -11 0 -22 1 -31zM1076 1287l61 61
c-1 14 -2 28 -3 41l-52 -51c-1 -16 -3 -31 -5 -44c-1 -3 -1 -5 -1 -7zM1085 1376l44 43c-1 2 -1 4 -2 5l-20 22l-21 -21c0 -17 0 -34 -1 -49zM1133 1222l-34 -34c4 -3 8 -7 11 -11c4 -4 8 -8 12 -11l5 5c3 17 5 34 6 51zM657 947c-1 57 -2 114 -4 171c-1 28 -1 56 -2 85
c-1 13 2 23 7 29s14 10 28 11c17 1 42 1 75 0s67 -3 101 -5s61 -3 82 -4c17 -1 31 -2 41 -3c10 -2 17 -2 21 -1s7 6 8 13c15 79 19 158 12 238v2c-1 11 -3 18 -4 23s-4 8 -9 9s-14 1 -25 1h-35c-123 1 -246 3 -369 7c-165 7 -329 7 -494 2c-2 -1 -4 -1 -6 -1
c-9 0 -16 0 -20 -1s-6 -4 -7 -9s-1 -12 -1 -23c0 -69 1 -139 2 -208v-3c0 -7 1 -12 2 -15s5 -5 11 -6s16 -1 30 -1h39l182 -4c29 1 47 -2 54 -8c6 -7 9 -25 9 -56l-2 -1044v-69c-1 -13 5 -19 18 -18c77 1 155 1 233 1c7 0 12 1 15 4c3 2 4 7 3 14c-1 35 0 69 1 104
c7 155 9 309 4 464v93c1 69 1 139 0 208z" />
    <glyph glyph-name="U" unicode="U" horiz-adv-x="1363" 
d="M522 -49c-89 11 -162 37 -219 80c-58 43 -114 94 -168 154c-1 1 -2 3 -3 4c-44 49 -74 107 -89 174s-23 136 -24 205c-2 97 -4 195 -7 292c-7 201 -10 402 -9 603c0 7 0 15 -1 24c-1 11 -2 23 -1 34c0 11 2 21 6 29c9 13 22 20 39 22s33 2 50 1h19c35 0 71 0 106 1
c36 0 72 0 107 1h10h28c8 -1 14 -2 18 -5l98 -101c9 -1 14 -6 15 -13s1 -20 -1 -37c-1 -18 -1 -36 -1 -54v-28c-1 -163 1 -325 7 -488c1 -62 3 -124 4 -186c1 -19 2 -46 5 -79c2 -34 7 -68 14 -101c37 0 74 8 110 25c35 17 63 37 84 62c41 56 67 116 78 179s18 128 19 196
c3 97 3 193 -2 289c-1 31 -1 63 -2 95c-1 9 -1 21 -1 34c-1 33 -2 68 -2 106s3 68 9 90c3 7 7 12 12 17c5 4 10 7 16 10c6 2 24 3 54 4s63 1 100 1c36 -1 67 -1 93 -1c16 -1 27 -1 32 -1c9 1 17 0 26 -2c8 -2 15 -6 22 -12c31 -31 62 -63 93 -95c11 -25 16 -53 13 -84v-18
c-1 -51 -1 -103 0 -155c1 -104 0 -208 -2 -311c-3 -107 -4 -215 -4 -323c0 -99 -1 -198 -3 -297c0 -14 0 -36 1 -66c1 -44 1 -89 1 -134c0 -46 -2 -76 -6 -89c-8 -16 -21 -27 -39 -32s-37 -9 -56 -10c-9 -1 -17 -2 -24 -3c-14 -3 -36 -5 -66 -6c-31 -1 -60 -1 -89 1
c-29 1 -48 5 -57 12l-60 64c-3 -2 -4 -3 -5 -4c-49 -30 -105 -51 -168 -63s-123 -16 -180 -11zM433 537l23 22c-2 15 -4 29 -5 44l-30 -31c3 -13 7 -24 12 -35zM460 527l-14 -13c5 -8 12 -14 19 -17c-2 10 -4 20 -5 30zM951 57l-21 -21c5 -5 10 -9 17 -12l34 34
c-11 -1 -21 -1 -30 -1zM1020 60l-47 -47l15 -3c8 -2 16 -4 25 -5l62 61c-17 -2 -36 -4 -55 -6zM1122 77l-75 -74c9 -1 18 -1 27 0c16 15 32 31 47 46l23 23l-10 11c-3 -2 -7 -4 -12 -6zM1162 53l-49 -49c19 2 38 4 55 7l17 18zM1161 116l13 -14l36 35v28zM1193 83l19 -20
c0 13 0 26 -1 39zM1210 202c1 15 1 29 1 44v4l-47 -47c0 -17 0 -33 -1 -48zM1212 287c1 11 1 21 1 31l-50 -50c0 -3 0 -6 1 -9v-20l3 3zM1214 356v46l-52 -52c0 -12 0 -25 1 -39v-6zM1213 437v47l-26 -25l-25 -25v-37v-11zM1213 522v45l-49 -49c-1 -15 -1 -31 -1 -46z
M1214 604v18l1 29l-51 -50v-23v-24zM1215 689l1 46l-51 -51v-46zM1217 771v32l-52 -52v-31zM1218 840l1 46l-42 -41l-11 -12c0 -15 0 -30 -1 -45zM1219 922l1 33l-53 -53c-1 -11 -1 -22 -1 -33zM1220 992c1 15 1 30 1 45v1l-53 -53c0 -15 0 -31 -1 -46zM1221 1073v25v26
l-51 -51c0 -17 0 -35 -1 -52zM1221 1160v2v43l-50 -50v-23v-22zM1221 1240v48l-50 -50v-48zM1221 1324v45l-50 -50v-45zM1221 1405v32l-51 -51v-32zM1216 1468l-21 23l-25 -24v-30v-15zM1177 1509l-6 7c-1 -5 -1 -9 -1 -14zM438 1433l-52 -51v-32l52 51v32zM437 1365
l-51 -51v-22c0 -8 0 -16 1 -23l50 51v45zM437 1283l-50 -51v-29l49 49c1 10 1 20 1 31zM436 1216l-48 -48c0 -15 0 -30 1 -45l29 29l19 19c-1 15 -1 30 -1 45zM437 1134l-47 -48l1 -44l47 47c-1 15 -1 30 -1 45zM439 1054l-47 -47l1 -45l47 47c-1 15 -1 30 -1 45zM441 973
l-47 -47l1 -45l5 5l42 41zM443 892l-47 -47c1 -15 1 -30 1 -45l47 46v23c-1 7 -1 15 -1 23zM445 811l-47 -47c0 -8 0 -17 1 -28h1l46 46c-1 9 -1 19 -1 29zM446 746l-45 -45c1 -14 3 -29 4 -44l42 42c-1 15 -1 31 -1 47zM447 663l-37 -37c1 -8 2 -16 4 -24l34 35
c0 9 0 17 -1 26zM387 1419l42 42l-22 23l-20 -19v-23v-23zM981 108c38 1 73 6 106 15c9 2 14 5 16 9c1 4 2 10 1 17v7c0 19 0 39 -1 58s-2 39 -2 58c1 46 2 92 3 139l2 316c1 43 1 86 2 129c3 137 5 274 5 411c-1 83 -1 165 0 247c0 8 -1 14 -4 17s-9 5 -17 4h-45
c-21 1 -44 1 -69 1h-66c-20 -1 -33 -2 -38 -4c-6 -14 -9 -39 -8 -76c0 -37 1 -73 3 -106c1 -20 2 -35 2 -45c1 -27 1 -54 1 -81c1 -81 1 -162 0 -243c-2 -81 -9 -162 -20 -241c-12 -85 -42 -154 -89 -207c-48 -53 -115 -88 -202 -103c-47 -9 -88 -5 -123 13s-60 56 -73 114
c-17 80 -26 161 -27 243s-2 164 -5 247c-4 121 -5 242 -4 363c1 27 1 55 0 83v4c1 11 0 17 -3 20c-3 2 -10 3 -21 3h-2h-126h-84c-19 -1 -30 -3 -33 -8s-4 -15 -2 -28c0 -4 0 -9 1 -15c1 -42 1 -84 1 -126c0 -51 1 -102 2 -153c2 -98 4 -196 7 -293c3 -88 5 -176 7 -263v-19
c-1 -73 5 -144 17 -213s43 -131 92 -185c54 -54 120 -87 197 -100s152 -9 227 11c74 19 134 51 180 94c21 21 39 34 54 38s25 -13 30 -51c1 -5 1 -14 1 -27c0 -14 0 -28 1 -41s2 -22 4 -26zM813 59v0c2 1 4 2 5 3s2 4 2 8s-1 10 -2 18v2l-1 1l-52 -53c16 6 32 13 48 21z
M713 22l105 104v5c1 9 2 18 2 25c-1 7 -3 11 -6 13h-2l-94 -94l-33 -33s-22 -21 -33 -32c21 3 41 7 61 12zM612 6l96 96c-22 -10 -45 -18 -69 -25l-73 -73c15 0 31 1 46 2zM532 6l60 60c-19 -3 -38 -6 -57 -8l-46 -46c15 -3 29 -5 43 -6zM460 18l37 37c-10 -1 -20 -1 -30 -1
l-30 -29c7 -3 15 -5 23 -7zM411 34l22 22c-15 1 -29 2 -44 4l-11 -11c11 -6 22 -11 33 -15zM355 61l4 5c-5 1 -11 3 -17 4c5 -3 9 -6 13 -9z" />
    <glyph glyph-name="V" unicode="V" horiz-adv-x="1570" 
d="M582 103c-14 15 -28 45 -43 90c-1 1 -1 2 -1 3c-69 179 -135 360 -198 542c-9 25 -18 51 -27 77c-49 140 -99 279 -150 418l-27 75c-3 9 -7 18 -10 27c-5 16 -11 32 -17 47c-6 16 -13 31 -20 46c-11 23 -20 46 -27 69c23 1 47 3 71 5l30 3s28 1 55 1s53 0 78 -1
s40 -3 47 -6c9 -9 28 -48 55 -118c27 -71 56 -151 88 -241c31 -91 58 -170 81 -238s35 -104 36 -107c3 -7 5 -13 7 -20c29 -91 63 -178 100 -260c12 -22 23 -32 34 -31c10 1 19 9 28 22c8 13 14 26 19 39c15 39 30 89 45 149c15 59 28 110 38 153c5 19 8 33 10 42l120 448
c1 7 3 17 6 30c4 17 8 35 13 56c5 20 10 38 15 54s11 26 16 31c7 4 20 6 39 7s41 1 66 0s47 -3 67 -4c19 -1 32 -1 41 -2c9 0 17 0 24 1c9 1 15 1 18 0s4 -5 3 -11c-1 -7 -4 -18 -9 -33c-2 -7 -4 -14 -7 -23l-95 -303c-31 -98 -60 -196 -87 -295c-29 -104 -59 -207 -92 -309
c-18 -55 -36 -109 -55 -163c-4 -13 -11 -35 -20 -67c-8 -27 -16 -55 -25 -85s-17 -56 -25 -78c-8 -23 -15 -37 -20 -42c-22 -9 -51 -14 -88 -17s-68 -5 -92 -5h-11c-18 0 -37 1 -56 4c-19 2 -35 9 -48 20zM476 1348c4 -9 8 -20 13 -32l-6 -6c-2 5 -4 11 -6 16
c-2 6 -4 12 -6 17zM462 1369l-9 23c3 -3 7 -10 12 -20zM636 19l8 8c13 -1 27 -2 43 -3l-25 -25c-9 5 -17 12 -26 20zM685 -13l37 37c16 -1 32 0 49 1l-47 -48c-13 2 -26 5 -39 10zM757 -25l52 52c20 2 38 5 55 8l-30 -30l-31 -31c-17 0 -32 0 -46 1zM839 -26l35 35l17 17
l27 27l24 -25l-50 -50c-19 -2 -36 -3 -53 -4zM932 -17l27 26l14 -15l-4 -4c-11 -3 -24 -5 -37 -7zM537 60l27 -30c17 -19 34 -38 53 -55c19 -18 39 -31 61 -40c25 -8 65 -13 120 -16s108 0 159 8c50 8 79 23 88 46c18 68 38 135 60 202c4 11 8 21 11 32c9 29 19 59 28 89
c50 152 97 305 140 460c28 99 58 198 89 296c12 39 24 77 36 115c3 9 7 23 14 43c11 33 22 70 35 111s22 73 28 97c3 12 2 21 -1 27c-4 5 -10 11 -17 16c-6 5 -13 11 -20 18c-25 25 -49 49 -72 73c-8 7 -18 11 -31 13c-13 1 -24 2 -34 1c-2 1 -4 1 -5 1c-9 0 -21 0 -37 1
c-28 1 -60 2 -96 3c-37 1 -70 0 -101 -3s-52 -10 -63 -20c-9 -12 -20 -39 -31 -80c-11 -42 -22 -83 -31 -123c-7 -27 -12 -46 -15 -59c-37 -130 -71 -260 -103 -391c-4 -15 -8 -29 -11 -44c-3 -11 -5 -21 -8 -31c-11 -46 -23 -91 -36 -136c-8 23 -22 62 -41 117
c-24 71 -52 151 -83 240s-60 169 -87 242c-27 72 -47 119 -59 140c-7 9 -15 16 -25 20l-95 98c-11 8 -25 13 -40 15s-30 3 -45 2c-7 0 -13 0 -19 1c-61 3 -121 1 -182 -4c-10 -1 -20 -1 -31 -2c-15 0 -29 -1 -43 -3c-11 -3 -18 -9 -20 -20c-3 -11 -3 -22 0 -34
c3 -13 6 -23 9 -31c9 -23 18 -45 27 -68c13 -31 26 -62 37 -93c13 -36 27 -72 40 -108c46 -124 91 -249 135 -374c9 -25 17 -50 26 -75c29 -85 59 -169 89 -253c24 -66 49 -132 74 -198c23 -59 45 -119 67 -179c1 -2 1 -4 1 -5c7 -22 16 -39 28 -52zM948 83
c27 27 55 55 83 82l20 20l-21 -69l-58 -58v1zM990 40l24 24c-5 -13 -9 -25 -13 -36zM1066 236c-30 -29 -60 -59 -89 -88l-29 -29c6 21 12 43 19 65l121 120l-13 -36c-2 -7 -5 -18 -9 -32zM1107 360l-124 -124c5 16 10 32 15 47c3 8 5 16 7 23l125 123
c-8 -23 -16 -46 -23 -69zM1147 482c-10 -10 -20 -20 -30 -29l-30 -30c-21 -21 -43 -43 -65 -64l21 65l118 117l5 6c-6 -22 -12 -44 -19 -65zM1182 600l-121 -122c7 23 14 45 21 68l118 118c-6 -21 -12 -43 -18 -64zM1215 713c-1 0 -1 0 -2 -1c-38 -38 -76 -76 -115 -114
c5 14 9 28 14 43l115 115zM1241 808c-37 -38 -75 -76 -113 -114c6 21 12 43 19 64c37 37 73 74 110 111l2 2l-9 -33zM1274 921l-113 -113c4 15 8 30 13 45l38 38c25 26 51 52 76 77c-5 -16 -9 -32 -14 -47zM1305 1021l-117 -117l18 63l120 120l-6 -18c-4 -13 -8 -24 -11 -35
zM1343 1139c-41 -40 -81 -80 -122 -121c8 24 16 48 23 73l81 81c14 14 28 28 42 41c-9 -25 -17 -50 -24 -74zM1383 1266l-61 -61l-61 -61c7 22 13 44 20 65l81 81c13 13 27 27 41 40c-6 -19 -12 -39 -19 -60c0 -1 0 -3 -1 -4zM1417 1379l-120 -119l4 13c3 7 6 19 11 35
c3 7 5 15 8 24c35 35 71 71 107 106l4 -5c-4 -15 -9 -33 -14 -54zM1409 1456l-36 -36l-36 -36c7 22 13 44 20 65l30 30zM746 590l-3 -10l-3 7l5 5zM730 613c-2 6 -4 12 -6 17c-2 6 -4 12 -7 18l7 6c1 -4 2 -8 3 -11c3 -9 6 -17 9 -24zM707 674c-2 5 -4 11 -5 17
c-2 5 -4 11 -6 16l7 7l11 -33zM686 734c-4 11 -8 23 -13 34l9 8l12 -34zM664 795l-8 21l9 9l8 -22zM647 843l-12 35l9 9l12 -35zM625 904l-7 23l9 9l8 -22zM608 954l-12 35l10 9l11 -34zM587 1015l-13 36l10 9c1 -5 3 -9 5 -14c3 -7 5 -14 7 -21zM565 1078l-12 34l9 9
l12 -33zM544 1139l-12 34l8 9l6 -15c2 -6 4 -12 7 -19zM522 1201l-12 33l8 8l12 -33zM501 1260l-8 23l7 7l3 -9c2 -4 4 -8 5 -13z" />
    <glyph glyph-name="W" unicode="W" horiz-adv-x="2261" 
d="M487 1302l-13 33l5 5c5 -9 9 -20 14 -32zM503 1281c3 -7 6 -15 9 -22l-8 -7l-8 22zM2033 1169l-25 -71c-27 -26 -53 -52 -79 -78l-58 -58c8 23 16 47 25 70l74 74zM1987 1042c-9 -27 -19 -53 -29 -79l-135 -135l27 78c46 45 92 91 137 136zM1938 908l-24 -69l-1 -1
c-44 -44 -88 -88 -132 -133l23 69zM1893 781l-18 -51c-44 -44 -88 -88 -132 -131c3 8 6 16 9 25c3 8 6 16 9 25zM1856 676l-24 -69l-133 -133l7 20c6 17 12 33 18 50l79 79zM1812 550c-5 -16 -11 -32 -16 -47c-45 -45 -91 -90 -136 -135l-2 -2l18 48zM1776 448v-1
c-8 -23 -16 -46 -25 -69l-7 -8l-135 -135l28 74zM1730 319v-1c-9 -23 -17 -47 -26 -71c-12 -11 -24 -23 -36 -34l-36 -36l-72 -72l27 71l119 119zM1682 190c-9 -25 -19 -51 -29 -76l-71 -70l-12 12c-3 4 -7 8 -11 12zM1631 55c-7 -17 -13 -31 -19 -41l-12 11zM1916 1088
c9 25 19 51 28 76c46 45 92 91 138 137c-3 -9 -6 -17 -9 -24c-5 -13 -10 -27 -15 -41c-1 -4 -3 -8 -4 -12c-46 -45 -92 -91 -138 -136zM1965 1220l26 71c11 11 22 21 33 32c32 33 64 65 97 97l7 -7c-5 -16 -12 -33 -20 -52c-32 -31 -64 -63 -96 -94c-15 -16 -31 -32 -47 -47
zM2014 1349l20 52l14 13l41 40l15 -16c-20 -19 -40 -39 -60 -59zM2057 1459l8 20l6 -6zM939 80c9 9 18 17 27 26l27 27c20 21 40 41 61 61c-7 -22 -14 -45 -21 -70l-70 -69c-5 5 -11 11 -16 17zM981 37l35 35c-7 -21 -13 -38 -18 -52zM1069 246l-60 -60
c-19 -20 -39 -40 -59 -60c5 21 11 42 18 63l104 103l6 -17s-3 -10 -9 -29zM1063 319l-79 -78l24 72l43 42zM1041 382l-14 -14l10 29zM966 -11c-12 -3 -26 -5 -41 -7l25 24zM933 25l-29 -29l-19 -19c-18 -1 -35 -2 -51 -3c25 25 50 51 75 76zM858 34l-60 -60
c-13 1 -27 2 -42 4l49 49c19 1 36 4 53 7zM768 25l-42 -42l-39 9l32 32c16 -1 32 0 49 1zM684 25l-23 -24c-5 2 -10 4 -14 6l-5 6l14 13c9 -1 18 -1 28 -1zM634 -42c19 -18 59 -30 122 -36c63 -7 124 -6 184 3c60 8 95 24 105 48c19 69 39 138 61 205c1 1 1 2 1 3
c11 -34 20 -68 29 -102c2 -6 8 -15 19 -27c11 -13 23 -26 37 -40c13 -14 25 -26 36 -37l16 -16c19 -18 53 -30 103 -35c49 -6 100 -8 152 -5c51 3 89 8 113 16c19 7 32 17 40 29c8 11 15 26 21 44c0 1 0 2 1 3c22 61 44 121 67 181c25 65 50 131 74 196c29 85 59 169 88 254
c9 25 17 50 26 75c44 125 89 249 135 372c13 37 27 73 40 110c12 31 24 62 37 93c9 23 19 45 28 68c3 7 6 17 9 30c2 12 2 23 0 34s-9 18 -20 21c-31 32 -61 63 -92 94c-5 7 -12 11 -23 13c-11 1 -24 2 -37 2c-11 0 -21 0 -31 1c-61 5 -121 7 -182 4c-6 -1 -12 -1 -19 -1
c-18 1 -36 -1 -54 -4s-32 -12 -42 -26c-7 -13 -18 -36 -31 -69c-14 -34 -27 -68 -40 -102c-13 -35 -22 -59 -27 -74l-205 -582l-35 137c-15 64 -46 112 -91 143c-11 11 -21 21 -30 31c-25 29 -52 54 -79 74c-28 19 -65 30 -111 33c-47 1 -84 -10 -111 -34
c-27 -25 -47 -55 -60 -92c-14 -37 -25 -75 -33 -114c-3 -10 -5 -19 -7 -28c-3 -11 -5 -21 -8 -32c-11 -45 -23 -90 -36 -135c-42 117 -83 235 -123 353c-15 44 -31 88 -46 132l-87 224c-1 2 -1 4 -2 5c-4 9 -7 16 -9 21c-3 4 -5 7 -8 10s-7 6 -12 9c-2 1 -4 3 -7 5
c-30 31 -60 62 -89 92c-11 11 -24 17 -41 20s-34 4 -51 3c-7 0 -13 0 -19 1c-61 3 -121 1 -182 -4c-10 -1 -20 -1 -31 -2c-15 0 -29 -1 -43 -3c-11 -3 -18 -9 -20 -20c-3 -11 -3 -22 0 -34c3 -13 6 -23 9 -31c9 -23 18 -45 27 -68c13 -31 26 -62 37 -93
c12 -31 24 -63 35 -94c48 -129 95 -258 140 -388c8 -23 16 -47 25 -71c29 -86 59 -172 90 -257c24 -66 49 -132 74 -198c23 -59 45 -119 67 -179c0 -2 0 -4 1 -5c7 -23 16 -40 29 -53c32 -34 64 -68 96 -101zM1236 30c5 -1 11 -1 18 -2l-8 -7zM1263 2l24 23c8 0 17 0 26 -1
l-31 -31c-5 2 -11 4 -16 6zM1309 -16l40 39c17 0 33 1 50 2l-49 -49c-13 2 -27 5 -41 8zM1383 -27l55 55c20 2 38 5 53 9l-33 -33l-32 -32c-14 -1 -28 0 -43 1zM1464 -27l64 65l24 -25l-39 -39h-28c-5 0 -10 0 -17 -1h-4zM1552 -23c11 1 20 4 27 7l-10 10zM1938 1308
c-10 -27 -20 -55 -31 -82c-50 -137 -99 -274 -147 -411c-9 -26 -18 -52 -27 -77c-62 -182 -128 -363 -198 -542c-16 -51 -32 -84 -49 -98s-54 -20 -109 -19c-25 0 -55 2 -92 5s-66 8 -89 17c-7 7 -17 29 -28 66c-12 37 -24 76 -35 117c-11 37 -19 66 -26 87l-42 117
c-4 9 -10 15 -19 18s-17 2 -26 -1c-9 -4 -15 -11 -18 -20c-5 -17 -10 -33 -15 -49c-6 -21 -13 -42 -20 -63c-4 -13 -11 -35 -20 -67c-8 -27 -16 -55 -25 -85s-17 -56 -25 -78c-8 -23 -15 -37 -20 -42c-22 -9 -51 -14 -88 -17s-68 -5 -92 -5c-56 -1 -92 5 -109 19
s-34 47 -50 98c-69 179 -135 360 -197 542c-9 25 -18 51 -27 77c-49 140 -100 279 -151 418l-27 75c-4 11 -8 21 -11 31c-5 15 -11 29 -16 43c-6 16 -13 32 -20 47c-11 22 -20 45 -27 68c23 1 47 3 71 5l30 3s28 1 55 1s53 0 78 -1s41 -3 47 -6c9 -9 28 -48 55 -118
c27 -71 56 -151 88 -241c31 -91 58 -170 81 -238s35 -104 36 -107l9 -27c29 -89 62 -174 98 -253c12 -22 23 -32 34 -31c10 1 19 9 28 22c8 13 14 26 19 39c15 39 30 89 46 149c15 60 28 111 37 154c5 19 8 32 10 41c1 3 2 7 3 10c8 40 22 78 41 113s52 52 99 53
c53 0 92 -20 119 -61c21 -36 35 -74 43 -115c7 -27 13 -54 20 -81c13 -60 29 -120 47 -180c2 -5 4 -12 6 -19c6 -24 14 -49 25 -75c10 -26 22 -42 36 -49c13 -7 28 7 45 41l22 48c31 79 76 206 134 379c45 133 88 254 127 363s66 170 80 183c6 3 22 5 47 6s51 1 78 1
c26 0 44 0 54 -1l30 -3c24 -2 48 -4 72 -5c-8 -23 -17 -46 -28 -69c-7 -15 -13 -30 -19 -46c-6 -15 -12 -31 -18 -47zM1340 608c-1 -2 -2 -5 -3 -10c-1 -3 -2 -5 -3 -7l-5 -6l-10 36l14 14c3 -9 5 -18 7 -27zM1311 649l-6 24l15 15l6 -24zM1297 702l-10 35l17 18
c1 -1 1 -1 1 -2c3 -11 5 -23 8 -35l-3 -3zM1279 765l-7 25l19 18c2 -7 4 -14 5 -21c1 -1 1 -2 1 -3v-1zM1264 819l-8 32l-1 4l15 15c5 -11 9 -22 12 -33zM1248 884c-3 11 -6 23 -9 35c7 -8 14 -16 19 -25zM746 590l-3 -10l-4 10l5 5zM729 616c-3 9 -7 18 -10 27
c-1 3 -2 5 -3 8l7 6c1 -5 3 -11 5 -16c3 -7 5 -13 7 -20zM706 677l-7 21l7 7l7 -21zM689 724l-6 18c-2 5 -4 11 -7 17l9 8l12 -35zM667 786l-8 22l9 9l8 -22zM650 834l-13 35l10 10l12 -35zM628 896l-12 35l9 10l12 -35zM606 958l-12 35l10 10l12 -35zM585 1020l-12 33
l10 10l12 -33zM564 1080l-12 35l9 9c3 -7 5 -15 8 -22c1 -4 3 -8 4 -12zM542 1142l-7 21l9 9l8 -21zM525 1191l-11 34l8 8c3 -9 7 -19 10 -28c1 -2 1 -4 2 -6z" />
    <glyph glyph-name="X" unicode="X" horiz-adv-x="1594" 
d="M234 -55c-3 1 -8 7 -17 16s-20 20 -31 33c-11 12 -22 23 -31 34c-10 10 -17 17 -20 21c-13 7 -19 19 -16 35c2 15 8 32 17 51c9 18 18 34 27 48c5 8 9 15 12 20c65 126 126 253 185 382c5 12 11 24 17 36c23 47 37 84 44 111c6 27 4 52 -5 75c-10 23 -27 54 -52 92
c-9 15 -19 31 -30 48c-7 11 -27 44 -61 101c-34 56 -72 120 -114 191c-43 71 -80 135 -111 190s-47 87 -48 96c5 25 19 41 41 47c21 5 43 8 66 8h8c6 0 13 0 22 1c25 1 57 2 95 3c37 1 72 -1 105 -4s54 -11 65 -22c31 -31 62 -62 93 -95c7 -3 13 -6 16 -10l39 -71
c27 -50 52 -95 77 -135c24 -40 51 -84 81 -133c1 -1 1 -2 2 -3c21 47 42 95 64 142c23 50 45 101 67 152c0 1 0 2 1 3c5 11 13 29 23 53c10 23 20 46 31 67c10 21 17 33 22 38c14 10 37 16 69 17c31 1 61 0 90 -1c14 -1 25 -1 34 -1c6 0 14 0 24 1c20 1 43 1 70 1
s51 -2 74 -5s38 -10 45 -19c33 -33 66 -66 99 -100c5 -5 6 -13 4 -24s-5 -23 -10 -36s-10 -22 -13 -29c-1 -3 -1 -4 -2 -5c-34 -80 -70 -160 -108 -240c-20 -43 -40 -87 -59 -130c-5 -12 -13 -27 -22 -46c-25 -47 -50 -101 -74 -160c-25 -59 -33 -105 -25 -138
c16 -41 37 -83 63 -126c25 -43 52 -86 80 -129c31 -45 58 -89 83 -132c39 -69 82 -136 129 -200c30 -37 45 -66 44 -87s-29 -34 -84 -37c-26 -1 -52 -2 -78 -1h-18h-17c-21 -1 -47 -1 -80 0c-33 0 -63 1 -91 2c-29 1 -46 3 -53 6c-4 4 -10 11 -19 20c-11 11 -24 24 -38 39
c-14 14 -26 27 -37 40c-11 12 -17 20 -19 25c-14 41 -38 91 -71 149s-63 106 -88 145c-31 -54 -62 -109 -91 -164c-9 -17 -19 -35 -29 -52c-29 -49 -54 -100 -75 -152c-13 -32 -28 -51 -46 -56c-19 -5 -37 -6 -54 -3c-5 1 -10 1 -14 2c-19 1 -49 0 -91 -1
c-39 -1 -76 -1 -113 -1s-61 2 -73 7zM1055 953l192 192l36 81l-186 -186c-13 -27 -27 -56 -42 -87zM1218 1079l-190 -190c-9 -22 -15 -43 -20 -62l2 -2c57 56 113 112 169 168c11 23 21 47 32 70c2 5 4 11 7 16zM200 43l13 -13l14 14zM262 44l-32 -32l16 -16h16l48 48h-48z
M346 45l-49 -49h49l49 49h-49zM427 42l-47 -47c8 -1 17 -1 26 -2c6 -1 12 -1 19 -1l56 55l-3 3c-9 -5 -18 -7 -26 -8s-16 -1 -25 0zM498 29l-40 -39h2c10 -1 19 -1 28 -2l25 25zM530 -5l-7 -7c5 0 10 0 13 1zM507 81l4 -4l36 36l164 164c16 33 34 67 54 102
c-15 -14 -29 -28 -43 -42l-87 -87l-48 -48l-48 -48c-8 -17 -15 -35 -22 -52c-3 -7 -6 -14 -10 -21zM577 229c67 67 134 133 201 200c-7 9 -13 18 -19 27l-125 -124c-2 -5 -4 -9 -7 -13c-2 -4 -4 -8 -6 -13c-9 -17 -19 -34 -29 -51c-5 -9 -10 -17 -15 -26zM678 411l66 66
c-3 4 -5 8 -8 11c-3 4 -5 8 -8 12c-17 -29 -33 -59 -50 -89zM676 207l-148 -147l15 -16l103 103v1c10 19 20 39 30 59zM611 76l-50 -50l13 -14c11 14 23 35 37 64zM1061 45l-2 -1l8 -8c5 -6 11 -12 16 -17l26 26h-48zM1145 45l-44 -44l6 -7h16l51 51h-29zM1211 45l-52 -52
h35c5 1 10 1 14 1l51 51h-48zM1295 45l-52 -52h5c7 -1 14 -1 22 -1l27 27l26 26h-3h-25zM1366 51l-60 -59h49l61 62l-13 22c-4 -11 -16 -20 -37 -25zM1430 31l-37 -37c14 1 26 3 35 6c9 2 14 5 15 8zM1028 807c7 -8 15 -16 22 -23l59 58l39 84l-80 -80
c-13 -13 -27 -26 -40 -39zM1069 765l5 -6c3 7 5 13 8 19zM1309 1287c8 18 16 36 23 55l-172 -172l-2 -2c-9 -20 -18 -40 -27 -59c29 30 59 60 89 89s60 59 89 89zM1356 1401l2 8l16 37l-9 10l-137 -137l-39 -84c55 55 111 111 167 166zM1348 1474l-17 17l-48 -49
c-9 -19 -17 -39 -26 -59zM1314 1509l-3 3l-3 -9zM1058 713l-20 21l-16 -17c5 -10 10 -20 15 -31l20 19c0 3 0 5 1 8zM1020 753l-17 18c1 -7 3 -17 7 -28zM1050 662c5 -10 11 -20 17 -29l3 3c-5 12 -8 24 -11 35zM1007 142c10 -21 20 -34 30 -38c10 -5 24 -6 43 -5h32h6
c11 -1 27 -1 50 -1c23 -1 47 -1 72 0c25 0 46 1 65 4c18 2 28 6 30 11l-43 72l-57 87c-53 79 -104 161 -154 244s-92 165 -127 248c-7 18 -9 36 -4 53c4 17 10 34 17 51c2 5 4 10 7 15c25 61 52 122 81 181l9 18c13 29 33 71 58 127c25 55 49 112 74 171
c25 58 43 105 56 140c-12 4 -36 7 -73 8s-73 1 -109 0c-37 -1 -61 -2 -74 -3c-7 -1 -17 -2 -28 -5s-20 -7 -25 -12c-22 -46 -43 -93 -62 -141c-15 -35 -30 -71 -46 -106c-19 -42 -37 -84 -54 -127c-11 -27 -22 -55 -33 -82l-18 -39c-12 -25 -23 -34 -33 -29s-24 22 -41 51
c-11 16 -21 32 -31 48c-18 27 -35 54 -52 81l-48 83l-127 213c-13 23 -23 40 -32 50s-19 16 -30 18c-12 2 -29 2 -50 1h-31c-63 -1 -126 -5 -189 -11c6 -21 22 -53 48 -98s51 -86 75 -125c13 -22 23 -38 30 -49c5 -9 15 -26 29 -50c25 -40 54 -89 89 -147
c34 -59 65 -113 93 -163c27 -50 44 -83 49 -100c5 -33 -3 -75 -26 -128s-46 -101 -69 -144c-7 -12 -12 -23 -17 -33c-19 -39 -37 -78 -55 -117c-35 -82 -75 -161 -121 -238c-8 -13 -11 -20 -10 -23s6 -4 16 -3h1c22 1 40 1 53 1c13 -1 27 -2 40 -3c12 -1 27 -1 46 -2
c10 -1 19 -1 28 -2c25 -3 47 -2 65 2c18 3 34 16 47 37c16 29 40 75 71 139c33 69 67 135 100 198c33 62 57 97 71 104c15 2 30 -8 46 -31s31 -47 44 -72c8 -14 15 -26 21 -35c13 -21 25 -41 38 -60c49 -72 95 -150 139 -234z" />
    <glyph glyph-name="Y" unicode="Y" horiz-adv-x="1502" 
d="M952 590v0l-23 23l122 122l20 19c-19 -33 -36 -66 -51 -97c-11 -11 -21 -21 -32 -31c-8 -8 -16 -16 -24 -25zM991 592c-4 -11 -8 -21 -11 -31l-10 10zM1172 939c-17 -32 -36 -65 -55 -100l-28 -29l-171 -171c7 23 18 49 32 78l44 44zM983 787c16 31 33 63 51 96
c24 24 48 48 71 72l144 144c-13 -30 -27 -59 -40 -88c-75 -75 -151 -150 -226 -224zM1078 965c2 3 4 5 5 8c17 31 33 61 48 89l176 176c2 1 4 3 5 5c-5 -11 -9 -22 -14 -33c-7 -15 -14 -31 -21 -47c-66 -66 -132 -132 -199 -198zM1167 1134l1 2l27 57l169 169
c-7 -15 -13 -30 -20 -45c-2 -4 -4 -8 -6 -13c-28 -28 -56 -56 -85 -84zM1222 1257c5 13 11 25 16 38s11 26 17 39l106 106l22 -23c-54 -53 -108 -107 -161 -160zM1281 1395c9 21 18 41 27 61l19 19l17 -17zM538 121c3 -17 14 -37 34 -59c19 -23 39 -43 58 -60l21 -21
c17 -16 41 -27 72 -32s56 -8 77 -8h15c34 -1 73 2 118 8c45 5 75 21 90 46c5 15 6 53 5 114s-4 126 -7 195c-4 85 -6 147 -5 184c2 21 11 50 26 86s31 72 50 108c18 35 33 63 44 84c10 19 20 37 31 56c39 68 75 137 110 208c25 55 49 110 72 165c27 65 55 130 86 193
c5 9 7 17 7 24c-1 7 -6 15 -16 23l-98 101c-7 4 -12 8 -17 12c-5 5 -11 10 -16 13c-6 3 -13 5 -22 5c-97 0 -193 0 -290 1c-26 1 -43 -11 -50 -36c-38 -102 -77 -195 -118 -278c-21 -43 -42 -90 -64 -139c-3 -7 -5 -13 -8 -19c-60 109 -119 218 -176 328c-1 1 -6 7 -16 17
l-36 36c-14 13 -27 26 -38 37l-21 21l-1 1c-9 15 -23 22 -43 19c-72 -6 -143 -6 -213 1c-63 5 -111 6 -146 1s-44 -25 -25 -60c28 -51 55 -102 81 -153c31 -61 64 -122 98 -181c63 -109 126 -217 190 -324c3 -6 8 -14 15 -24c18 -30 38 -64 61 -103s37 -67 44 -84
c5 -20 8 -66 11 -138s5 -145 6 -220c1 -69 3 -118 4 -148zM662 32l15 15c9 -1 18 -1 29 -1l-29 -29zM700 5l42 42c17 0 35 1 52 3l-49 -48h-5c-18 1 -31 2 -40 3zM779 0l56 56c22 4 39 10 52 17l5 -5l-1 -1c-23 -23 -45 -45 -67 -68c-19 0 -34 0 -45 1zM860 0l50 50l24 -25
l-22 -22c-17 -2 -34 -3 -52 -3zM964 482v-30c-17 -17 -33 -33 -50 -49l-2 27zM964 415v-46l-47 -48c-1 11 -1 22 -2 33v13zM965 333c0 -9 0 -17 1 -26l-24 -24l-24 -24v27zM967 271l1 -47l-48 -48c0 14 0 30 -1 48zM969 189c1 -6 1 -12 1 -19c0 -8 0 -16 1 -23l-49 -49l-6 7
c1 7 2 18 3 34zM971 111c1 -18 1 -34 1 -48l-8 -8c-8 9 -16 17 -24 25zM911 465c-1 17 -1 32 -2 46l30 29l23 -24zM908 547v4v22l13 -14zM1100 1115c-26 -54 -54 -107 -84 -158c-29 -48 -55 -97 -80 -147c-5 -10 -10 -21 -15 -32c-17 -31 -32 -64 -45 -98
c-13 -35 -20 -69 -20 -103c0 -29 0 -59 1 -88c0 -49 1 -99 2 -148c0 -5 0 -12 1 -22c1 -19 2 -42 3 -69s1 -53 1 -76c-1 -24 -2 -40 -3 -48c-3 -7 -18 -12 -43 -15c-25 -4 -54 -6 -87 -7s-62 0 -88 2c-27 2 -43 5 -48 10s-7 12 -8 23s-2 20 -2 28v4v59c1 45 1 98 1 161
c-1 62 -3 120 -6 174c-4 54 -10 92 -18 113c-139 220 -271 444 -394 673l-74 137l-2 2c-1 2 -1 4 -2 6c-1 1 -1 3 0 5c36 3 72 3 107 -1c86 -7 143 -8 171 -4c15 1 27 1 35 0c7 -1 14 -6 19 -13c5 -8 12 -21 20 -39l27 -54l109 -194c17 -29 33 -59 50 -88l51 -90
c21 -35 36 -52 47 -53c10 -1 21 11 34 37c79 160 151 323 215 490c2 6 5 11 8 15c3 3 7 5 14 5h206h69c-1 -7 -10 -29 -25 -66c-16 -38 -35 -81 -56 -129s-41 -91 -58 -130s-28 -63 -33 -72z" />
    <glyph glyph-name="Z" unicode="Z" horiz-adv-x="1085" 
d="M125 1050l-99 105c-10 11 -16 26 -17 44c-2 18 -2 36 -1 53c1 8 1 15 1 22c0 79 0 158 1 237c0 14 3 24 8 31s14 11 29 12c23 3 47 5 71 4c91 -1 183 -1 275 1c22 1 44 1 67 1c37 1 77 0 120 -1c91 -5 173 -3 245 5c5 1 13 1 23 2c9 1 19 0 28 -1s16 -4 21 -8
c11 -11 22 -23 33 -35c19 -23 40 -44 63 -63l3 -3c5 -3 10 -7 13 -11c3 -5 5 -11 5 -18c0 -5 0 -10 1 -15s1 -11 2 -16c0 -15 0 -31 1 -50c4 -77 5 -163 2 -260s-17 -170 -42 -219c-32 -51 -67 -100 -106 -147c-11 -15 -22 -29 -33 -43l-157 -217c40 2 80 4 119 7h32
s29 -1 43 -3c13 -2 21 -6 24 -11c33 -33 65 -66 98 -100c5 -4 8 -15 11 -32s5 -37 6 -60s1 -43 2 -62c1 -15 1 -26 1 -33c1 -4 1 -9 1 -16c1 -15 3 -33 4 -54c1 -22 2 -42 2 -61s-2 -31 -6 -37c-8 -9 -23 -14 -45 -15s-42 -2 -61 -1c-8 1 -15 1 -20 1l-382 -8
c-10 -1 -24 -1 -43 -2c-35 -2 -76 -4 -123 -5c-48 -1 -92 -1 -133 0s-68 6 -82 13l-99 105c-6 8 -9 26 -8 54c-1 3 -1 7 -1 10c-1 19 -3 49 -8 88c-4 35 -7 68 -10 99s-3 51 0 60c1 3 5 8 10 15s11 14 18 21c6 7 11 14 16 19c3 3 5 5 6 7c54 63 105 129 152 198
c47 68 94 137 139 207c37 58 75 115 114 172l-148 -3c-5 -1 -10 -1 -17 -1c-17 -1 -37 -1 -60 -1c-24 0 -46 1 -66 4c-21 3 -35 8 -43 15zM942 1018l28 28c1 10 1 21 1 33l-45 -45zM968 1009l-9 -9l8 -9c1 5 1 11 1 18zM111 73l-4 -5c4 -4 8 -8 11 -12l12 -12l28 28
c-16 0 -32 0 -47 1zM194 73l-47 -47l8 -8c4 -1 13 -2 28 -3l60 59c-17 -1 -33 -1 -49 -1zM279 75l-61 -61h49l62 63c-5 -1 -11 -1 -17 -1c-11 -1 -22 -1 -33 -1zM366 78l-64 -63h6c14 0 29 0 44 1l64 64zM452 81l-64 -64l32 1l64 64c-11 0 -21 0 -32 -1zM521 83
c-15 -14 -29 -28 -43 -43l-21 -21c17 1 34 1 50 2l17 17l47 47c-17 -1 -33 -1 -50 -2zM607 85l-64 -63l31 1l62 63zM672 87l-62 -62h27l23 1l62 61h-25h-25zM758 88l-62 -62c14 1 29 1 46 1l1 1l60 60h-2h-16h-27zM838 87l-35 -35l-24 -24h3c16 1 32 1 48 2l61 62
c-17 -3 -34 -5 -53 -5zM909 73l-42 -41c18 1 35 2 50 3l14 15zM916 127l6 -5l47 47c0 2 0 4 -1 5c0 14 0 28 -1 41l-50 -50c0 -14 0 -27 -1 -38zM915 200l25 25l25 25c-1 15 -1 29 -2 42l-51 -51c1 -12 2 -26 3 -41zM910 275l51 51l-1 3l-21 22l-31 -30zM907 356l14 14
l-14 15l-1 -2zM970 134l-31 -30c8 -8 16 -16 23 -24l9 9c0 13 0 28 -1 45zM898 1062l10 -10l64 64c1 15 1 31 1 46l-61 -61l-9 -9c-1 -11 -3 -21 -5 -30zM974 1198v33l-64 -64c-1 -12 -2 -24 -3 -35zM974 1268v44l-61 -60c0 -15 0 -31 -1 -46zM973 1347c-1 19 -2 35 -3 48
l-57 -58v-50zM965 1425l-22 23l-32 -31c1 -14 1 -29 1 -44zM926 1466l-17 18c0 -10 0 -21 1 -33zM950 946l-21 23c-76 -75 -152 -150 -227 -225c-23 -31 -46 -61 -68 -92c-6 -9 -12 -17 -17 -26c-11 -15 -22 -31 -33 -47c90 90 180 180 269 270l32 32zM911 987l-15 16
l-23 -23c-14 -27 -32 -55 -54 -84c31 30 61 60 92 91zM495 455v-1l45 2c67 67 135 133 202 200c19 19 39 39 59 58l29 29c43 59 77 108 102 148l-117 -117zM578 457l40 1c23 29 61 80 115 152c-51 -50 -102 -100 -153 -151zM102 1137l13 -14l15 15zM168 1138l-35 -34
c7 -6 13 -13 20 -20l8 1l54 54zM253 1140l-55 -55l31 1c18 18 36 36 55 54h-31zM321 1141l-55 -54l48 1l54 54c-9 0 -17 0 -22 -1h-25zM407 1144l-25 -26l-30 -29h29l56 55h-30zM473 1144l-54 -54l46 1l38 38l11 11c-12 2 -26 3 -41 4zM525 1039
c-52 -75 -102 -148 -150 -221c-87 -135 -183 -268 -289 -401c-15 -18 -25 -33 -30 -44c-6 -12 -9 -22 -8 -31c0 -9 2 -18 5 -29c5 -15 8 -36 10 -64v-12c0 -17 1 -37 4 -58c2 -22 7 -39 16 -50c79 -8 158 -10 237 -6c25 1 51 2 77 3c44 2 88 4 132 5c12 0 35 0 68 1
s70 2 109 3s74 3 104 6c29 2 47 5 52 9c1 4 1 18 1 42c0 23 0 50 -1 81s-3 59 -4 84s-3 41 -5 48c-3 3 -12 5 -26 6c-15 1 -31 1 -48 0s-33 -3 -46 -4c-9 -1 -16 -1 -20 -1l-210 -8c-4 0 -9 0 -14 -1c-9 -1 -19 -2 -30 -2s-18 2 -23 6c-9 11 -6 31 8 58c13 27 31 56 53 87
s41 56 57 76c8 10 14 17 17 22c9 11 23 31 43 58c27 37 59 79 94 128c35 48 67 93 95 134c27 41 44 69 49 84c5 24 9 63 11 116s3 109 3 166c-1 57 -1 103 -2 138v22c0 11 -1 17 -3 19c-3 2 -9 2 -19 1h-1c-77 -8 -147 -9 -211 -4c-23 1 -47 2 -74 3c-67 1 -133 0 -199 -4
c-56 -3 -112 -4 -168 -4c-35 1 -69 1 -104 2h-2c-9 0 -16 -1 -21 -2c-6 -1 -9 -5 -9 -12v-9c-1 -21 -1 -54 -1 -97c-1 -43 0 -84 1 -122c1 -39 4 -61 8 -68c6 -3 27 -4 62 -3c35 0 78 1 128 3c67 3 131 4 194 5c63 0 107 -3 132 -9c4 -1 8 -6 12 -13s6 -16 6 -26
c0 -11 -4 -21 -11 -31z" />
    <glyph glyph-name="a" unicode="a" horiz-adv-x="1107" 
d="M832 465v-333v-2c1 -19 0 -32 -4 -38c-5 -6 -17 -9 -38 -8c-3 0 -7 -1 -10 -2s-5 -1 -8 -1c-7 -1 -14 -1 -20 -2c-31 -5 -51 -4 -62 3s-16 30 -15 68c0 3 0 7 1 10c1 1 1 3 1 4c3 19 -1 30 -12 35c-11 4 -24 0 -37 -11c-10 -10 -20 -19 -31 -28c-13 -11 -26 -23 -38 -35
c-36 -35 -75 -55 -116 -62s-85 -4 -131 10c-106 29 -179 95 -220 198c-17 46 -27 91 -32 135c-5 43 -2 89 9 137c27 109 78 190 153 242c75 51 168 69 281 53c22 -4 38 -9 49 -14c11 -6 20 -12 28 -19c6 -5 13 -11 22 -16c21 -11 35 -17 44 -16c9 0 14 4 16 12
c2 7 3 16 2 25c-1 11 0 20 3 27c2 7 8 10 19 9c43 -8 78 -11 103 -8c17 1 30 1 38 -2s11 -11 10 -25c-5 -81 -6 -163 -5 -244c1 -34 1 -68 0 -102zM484 -72l138 138c1 -8 3 -14 4 -18c1 -5 3 -9 6 -12l-111 -112c-12 1 -24 2 -37 4zM588 79l-141 -141c-15 5 -31 11 -46 17
l51 51c19 4 38 12 58 23s38 21 53 32c15 10 23 16 25 17v1zM749 -4l32 31c23 3 45 4 65 5l-67 -67c-10 10 -20 20 -30 31zM802 -59l71 71l32 -33l-38 -38l-57 -8zM921 -51l6 6l5 -5zM766 -105c9 -13 24 -18 43 -15c72 11 123 17 152 17c19 1 33 2 41 4s13 7 15 15
c2 7 3 20 2 37v3v222c-3 178 -1 356 8 533v19c-1 7 -3 13 -7 18c-38 38 -66 67 -85 88c-17 19 -31 32 -40 41c-9 8 -19 13 -28 15c-10 1 -24 2 -42 2c-29 -2 -86 1 -171 10c-21 4 -36 -4 -45 -25c-3 -9 -7 -13 -12 -13s-13 3 -24 8c-19 11 -53 19 -104 26
c-91 5 -171 -11 -240 -50s-124 -93 -163 -163c-40 -71 -62 -150 -65 -239c-1 -55 9 -112 30 -171c20 -59 49 -110 86 -153c36 -63 89 -118 160 -167c70 -49 145 -77 225 -86s152 16 217 73l2 -2c15 -16 30 -32 45 -47zM681 -16c-31 -31 -68 -50 -111 -57l84 84
c7 -6 16 -15 27 -27zM403 3l-34 -33c-9 5 -19 10 -28 15l22 21c14 -2 27 -3 40 -3zM323 13l-11 -11c-12 8 -24 16 -35 24c16 -5 31 -10 46 -13zM889 76v14v45l74 74v-60l-73 -73h-1zM913 52l50 50v-65l-18 -18c-11 11 -21 22 -32 33zM963 255l-74 -74c0 22 0 44 -1 65l25 25
l50 49v-65zM963 368l-75 -75v37l75 75v-37zM963 452l-75 -75c-1 21 -1 43 -1 64l76 76v-65zM963 565c-25 -25 -51 -50 -76 -75v38l77 77c0 -13 0 -27 -1 -40zM966 655l-78 -79v65l76 75c2 -7 3 -14 4 -21v-17c-1 -7 -1 -15 -1 -22zM943 744l-53 -53c0 21 1 41 2 62l21 22z
M480 551c12 -4 23 -9 33 -16l-122 -122c-11 13 -16 28 -16 45l95 94h5s3 0 4 -1h1zM416 391l121 121c11 -14 15 -31 14 -51l-85 -84c-18 0 -35 5 -50 14zM469 327c32 1 58 9 79 24s34 39 40 73c5 29 5 58 0 86s-20 51 -44 70c-35 21 -70 26 -104 17c-35 -10 -62 -30 -83 -59
c-21 -30 -29 -65 -24 -104c9 -31 26 -57 51 -77s53 -30 85 -30z" />
    <glyph glyph-name="b" unicode="b" horiz-adv-x="1271" 
d="M482 457c3 56 20 96 51 121c31 24 66 33 103 27c37 -7 66 -27 86 -62c19 -35 19 -84 -2 -147c-20 -44 -49 -68 -86 -71s-72 8 -103 33s-48 58 -49 99zM766 -58c25 1 49 4 73 10l184 185l94 93c5 22 7 45 8 68c-119 -119 -239 -237 -359 -356zM729 -115
c-49 2 -89 10 -120 24c-31 13 -54 26 -71 38c-13 10 -24 16 -32 17c-5 -9 -7 -17 -8 -24c-1 -8 -1 -15 -1 -22c1 -7 0 -14 -1 -19s-5 -9 -12 -12s-18 -5 -33 -6h-1c-45 -1 -95 -3 -152 -4c-37 -1 -67 -2 -92 -3c-15 0 -25 5 -31 15c-39 40 -77 81 -116 122
c-13 5 -21 17 -22 35c-1 14 -3 28 -5 43c-4 33 -7 67 -8 101c0 64 0 128 -1 191c-1 406 -5 811 -11 1215c-1 17 -2 35 -4 53c-5 38 -5 71 2 99s31 42 72 43h1h43s51 0 82 -1s58 -3 83 -5c25 -3 40 -6 45 -10l131 -134c11 -14 18 -36 20 -67c1 -31 1 -57 0 -76v-3
c-5 -143 -7 -288 -6 -435v-185c75 25 151 32 227 19s144 -46 205 -99c14 -10 35 -30 64 -59c28 -29 53 -56 75 -81c9 -10 17 -18 22 -24c25 -28 45 -59 59 -94c39 -111 49 -217 31 -316c-19 -99 -64 -180 -137 -242c-73 -63 -173 -94 -298 -94zM965 300c23 66 30 136 21 210
s-33 141 -74 200s-99 100 -174 123c-41 11 -88 14 -141 9s-103 -18 -149 -39c-46 -22 -80 -53 -102 -93c-4 -9 -9 -13 -16 -13s-15 2 -24 5c-9 4 -15 10 -16 18c-1 7 -1 16 1 26c1 6 1 12 1 18c1 33 2 98 3 193s1 199 2 312s1 211 0 296c-1 84 -3 132 -6 144
c-3 6 -16 12 -39 19c-23 6 -48 10 -76 12s-52 0 -73 -7s-32 -20 -33 -39c1 -37 2 -99 1 -186s-2 -170 -3 -247c-1 -35 -1 -63 -1 -86c-1 -153 2 -306 7 -458c7 -178 9 -356 6 -533c0 -27 3 -54 8 -83c2 -13 4 -28 5 -43c21 6 50 10 87 11s68 1 94 0h11c14 0 23 3 26 10
s5 16 4 27c-1 9 0 20 2 31s8 21 17 32c14 14 26 19 36 15c10 -5 19 -12 26 -21l10 -10c59 -49 128 -75 205 -78s148 16 214 55s113 95 140 170zM447 1l-9 9l-16 -16l23 -24c-1 11 0 21 2 31zM381 -46l-18 -18c13 0 25 0 35 -1zM357 -21l-30 31l-80 -80c20 3 42 4 66 5z
M385 67l-18 -18l30 -30l17 17zM283 13l-66 -1l-41 -41l32 -33zM561 21l-22 -22c7 -5 15 -10 24 -14l35 34c-13 0 -26 1 -37 2zM789 50l-105 -105c11 -1 22 -2 34 -3l16 16l138 136c-25 -17 -52 -32 -83 -44zM962 184l163 162c-1 12 -2 24 -4 37l-112 -113
c-12 -31 -28 -59 -47 -86zM973 37l-58 -59c75 34 133 93 176 177zM138 10l14 -15l15 15h-29zM648 20l-52 -51c15 -6 31 -11 47 -16l77 77c-23 -5 -47 -8 -72 -10zM1055 565c-7 12 -15 24 -24 35l-6 -6c4 -17 7 -33 10 -50zM427 945l-84 -84c-3 -27 -1 -45 6 -55c2 1 4 2 7 3
l70 70zM1030 341l83 83c-3 15 -8 31 -13 46l-60 -60c-1 -23 -5 -46 -10 -69zM1087 504c-5 10 -9 20 -14 29l-33 -33c1 -13 2 -27 2 -41zM427 1516l-1 44l-74 -74v-45zM422 1603l-29 31l-38 -38l-2 -61zM370 1658l-13 13v-27zM493 37c6 -6 12 -12 18 -17l9 9
c-9 2 -18 5 -27 8zM427 1054l-2 -3l-75 -75l-1 -35c0 -8 0 -17 -1 -26l79 79v60zM428 1165l-78 -77v-64l78 77v64zM428 1274l-77 -78v-59l77 77v60zM428 1363l-77 -78v-42l77 77v43zM428 1470l-77 -76v-60l77 77v59zM657 394c18 29 27 56 27 80l-98 -96c23 -11 47 -5 71 16z
M676 515c-6 15 -15 26 -27 34l-112 -112c4 -15 11 -28 21 -39zM609 559c-21 -2 -41 -17 -59 -44c-5 -9 -9 -19 -12 -28l21 21z" />
    <glyph glyph-name="c" unicode="c" horiz-adv-x="1136" 
d="M572 262c27 5 50 12 69 21c24 13 47 18 70 15c18 -5 37 -16 57 -33c19 -18 38 -36 56 -55c10 -11 19 -20 28 -28c-7 -10 -14 -18 -21 -25s-16 -13 -26 -19c-109 -67 -225 -89 -350 -66c-2 0 -4 0 -5 1c-4 1 -8 2 -11 3c-117 22 -205 68 -262 138s-86 147 -87 232
c-1 84 23 158 74 223c31 37 66 72 106 104c72 53 152 80 239 80s169 -19 245 -56c24 -11 38 -21 42 -30c3 -9 -1 -24 -12 -45c-3 -7 -5 -13 -7 -20c-3 -9 -6 -17 -10 -24c-4 -8 -10 -14 -18 -18c-8 -3 -17 -4 -26 -2c-9 1 -19 4 -28 8c-7 3 -14 5 -21 7
c-87 19 -166 8 -239 -31c-73 -40 -117 -96 -132 -168c-6 -47 5 -86 33 -119c27 -33 63 -58 107 -74c44 -17 87 -23 129 -19zM848 585l64 64l18 -20l-15 -37l-38 -37c-9 10 -19 20 -29 30zM888 673l-64 -64l-11 12c9 23 18 45 28 66c1 1 1 3 2 4l15 15zM36 349
c21 -73 60 -142 116 -207c55 -65 119 -120 190 -165s140 -75 208 -88c2 -1 4 -1 6 -2c1 0 3 0 5 -1c92 -18 176 -16 252 5c75 21 135 48 178 81s63 58 59 76c-3 8 -14 22 -31 41s-36 38 -57 58s-37 36 -50 47c-9 13 -23 28 -42 46c-19 17 -37 34 -54 50
c-18 15 -30 26 -37 32c-7 5 -14 10 -19 15c-17 15 -30 25 -39 30c-10 5 -21 5 -32 1s-28 -12 -50 -25c-1 -1 -2 -1 -3 -2c-49 -27 -95 -34 -136 -22c5 55 35 100 88 134c53 33 115 45 185 34c27 -5 51 -11 73 -18c24 -9 44 -13 61 -14c16 -1 27 6 33 23c10 27 21 53 33 79
c10 21 19 41 28 62c5 12 2 22 -7 31l-123 122c-9 14 -22 29 -41 45c-19 15 -36 27 -52 34c-95 41 -191 61 -286 58c-96 -3 -187 -36 -272 -99c-82 -63 -139 -132 -171 -209c-33 -77 -37 -161 -13 -252zM816 536c-5 1 -9 3 -14 4l5 5zM784 569l-22 -21c-21 2 -42 2 -64 0
l46 46h1c7 -3 14 -5 21 -6zM709 606l-69 -69c-46 -13 -87 -34 -123 -63l144 144c16 -3 32 -7 48 -12zM620 624c-77 -77 -154 -153 -231 -230c-2 2 -4 5 -5 8c-2 3 -4 6 -5 9c-2 3 -3 5 -4 8c-1 2 -1 3 -1 3c68 68 136 136 204 203c14 1 28 0 42 -1zM521 615
c-1 -1 -9 -8 -22 -21s-29 -29 -48 -47l-51 -51c-15 -16 -25 -26 -30 -30c0 0 2 6 5 18c3 11 9 26 19 43c9 17 24 33 45 49c20 16 47 29 82 39zM412 370l67 67c-21 -25 -36 -54 -43 -86c-8 6 -16 12 -24 19zM820 79c-51 -50 -101 -100 -151 -150c-19 0 -37 1 -56 4l101 101
c36 11 71 26 106 45zM650 16l-76 -75c-13 3 -25 5 -36 8l60 60c17 1 35 4 52 7zM548 7l-48 -48c-15 5 -30 10 -44 15l35 36c19 -2 38 -3 57 -3zM450 16l-27 -27c-14 7 -28 16 -41 25l13 13c18 -4 36 -8 55 -11zM357 38l-3 -3l-2 2l-3 3zM718 -70c64 64 128 128 192 191
l21 -21l-40 -40c-41 -41 -82 -81 -123 -122c-16 -4 -33 -7 -50 -8zM833 -44c21 20 41 40 61 60l60 60l28 -28c-7 -10 -13 -18 -20 -24c-7 -7 -16 -13 -27 -20c-33 -20 -67 -36 -102 -48z" />
    <glyph glyph-name="d" unicode="d" horiz-adv-x="1245" 
d="M963 956c-1 -10 -1 -37 0 -82c1 -77 2 -174 3 -293c0 -119 -2 -227 -5 -325c-4 -99 -11 -156 -21 -172c-9 0 -24 0 -46 -1s-44 -3 -65 -4c-22 -1 -37 -3 -46 -5c-11 -2 -18 1 -21 8s-4 17 -3 29c0 11 -1 22 -4 33c-3 10 -9 17 -20 21c-11 3 -21 3 -29 -2
c-9 -5 -18 -13 -28 -23c-15 -15 -35 -31 -62 -47s-66 -27 -117 -33c-58 -6 -117 -3 -176 10c-59 12 -111 36 -155 71s-72 85 -85 150c-13 79 -12 156 4 229s49 142 100 206c73 87 169 129 288 126c39 -3 72 -17 99 -42s50 -53 69 -82c23 -30 41 -43 56 -38c14 5 21 21 21 49
c-2 121 -2 245 1 372c5 185 3 364 -6 537v1c-1 6 -1 16 -1 30c0 13 2 26 7 38c4 12 12 18 23 19h5c22 -1 52 -2 90 -3c38 -2 67 -4 87 -6c15 -1 26 -5 32 -10c5 -6 8 -17 8 -32c5 -110 7 -238 6 -383s-4 -261 -9 -346zM1029 1554c0 20 0 40 -1 59l19 18l29 -30l-14 -15z
M1094 1569l3 -18l1 -19l-68 -68v20v21zM1044 1719l-17 17c-11 12 -22 21 -32 28c-10 6 -26 11 -47 15c-39 7 -82 11 -129 12s-82 0 -105 -2c-17 -1 -30 -7 -38 -18c-9 -11 -14 -25 -17 -40s-4 -29 -3 -41v-20v0c9 -233 10 -460 5 -681c-1 -49 -1 -98 -2 -149
c0 -14 -2 -20 -7 -19s-14 6 -25 17c-15 15 -37 31 -66 48c-29 16 -67 23 -112 21c-143 -9 -254 -70 -335 -183c-27 -39 -47 -79 -61 -122s-24 -87 -31 -132c-15 -87 -7 -171 23 -254c20 -47 54 -97 103 -148c48 -52 89 -89 124 -112c148 -97 306 -116 474 -57
c19 7 36 15 52 26c3 3 7 5 10 7c7 -7 14 -14 19 -20c11 -12 20 -20 27 -25s16 -8 28 -7c11 1 29 4 52 9c16 3 41 5 75 6c33 1 63 2 88 3h19c13 5 22 44 27 119c5 74 7 158 7 252c-1 94 -2 173 -3 238c-1 39 -1 63 -1 74c1 41 3 90 4 145c5 143 9 298 12 464
c2 166 -2 299 -11 398c-3 15 -16 35 -38 60s-45 48 -69 71zM1030 1416l70 70c1 -19 1 -39 1 -59l-71 -72v61zM1029 1305l73 73v-38l-36 -36l-37 -37v38zM1028 1218l75 74v-61l-76 -76zM1026 1106l76 76c0 -21 0 -41 -1 -60c-25 -25 -51 -51 -77 -76c1 20 1 40 2 60z
M1023 996l77 77c0 -22 0 -43 -1 -64l-78 -78zM1020 882l78 77c-1 -9 -1 -17 -1 -25c-1 -13 -1 -25 -1 -38c-26 -25 -52 -51 -78 -77zM1017 769l77 77c-1 -21 -1 -43 -1 -65l-77 -77c0 15 0 31 1 47v18zM1016 657l78 77v-38c-26 -25 -52 -51 -77 -77zM1018 571l77 77v-33v-30
l-77 -77v63zM1019 461l76 76l1 -36l-77 -77v37zM1019 376l33 33l44 44v-32v-33l-78 -78c0 22 0 44 1 66zM1017 263l78 78v-60l-80 -80c1 19 1 40 2 62zM1012 151c14 13 28 27 41 41c14 13 28 27 41 41c-1 -23 -1 -46 -1 -67l-17 -16l-71 -71c3 19 5 43 7 72zM1020 48l71 70
c-1 -24 -3 -46 -4 -67l-35 -35zM1075 -8l8 8c-1 -5 -1 -10 -2 -14zM1011 -25l-28 -29l-70 -5l67 67zM957 31l-84 -83l-21 21c-3 4 -7 8 -10 11l47 47zM840 24l-21 -20l-18 18zM703 60c3 -9 6 -16 9 -22s8 -12 14 -19l-94 -92c-21 -3 -43 -5 -66 -4zM641 43l-118 -118
c-13 1 -25 3 -38 5l90 90c13 3 27 7 41 12c9 3 17 7 25 11zM515 6l-69 -68c-9 2 -17 4 -24 6s-15 5 -23 8l47 48c23 1 46 3 69 6zM401 0l-21 -21l-14 -14c-10 5 -20 10 -29 16l24 23c13 -1 27 -3 40 -4zM321 12l-13 -13c-10 7 -19 15 -27 24c13 -4 26 -8 40 -11zM691 -61
l57 56l21 -22c-23 -15 -49 -26 -78 -34zM541 473c1 -7 1 -14 1 -21l-75 -74c-10 -1 -19 -1 -27 1c-9 1 -15 3 -20 5s-8 3 -7 3c38 39 76 77 115 115c0 1 0 1 1 2c5 -10 9 -20 12 -31zM508 530l-119 -120c-3 5 -6 10 -8 17c-3 11 -4 23 -2 35l86 85c17 -1 31 -6 43 -17z
M504 592l-52 5c-49 -9 -83 -32 -104 -69s-27 -75 -18 -114s33 -66 73 -80c60 -15 109 -6 146 28c37 33 53 74 50 121s-35 83 -95 109z" />
    <glyph glyph-name="e" unicode="e" horiz-adv-x="1077" 
d="M129 132c-41 49 -72 100 -95 154c-23 53 -32 111 -28 172c7 98 36 184 87 258c50 74 126 133 227 178c121 51 237 44 350 -23c55 -32 110 -73 165 -124s99 -106 132 -167s46 -123 38 -184c-9 -39 -33 -68 -72 -85c-39 -18 -80 -32 -122 -41c-17 -4 -32 -8 -46 -12l58 -79
c2 -3 7 -8 16 -17l31 -31c16 -15 33 -31 50 -48s31 -33 43 -46c11 -13 17 -22 18 -27c-1 -13 -8 -25 -23 -38s-31 -25 -48 -35c-18 -11 -33 -18 -44 -23c-83 -36 -169 -55 -260 -56c-111 1 -202 26 -272 75c-71 48 -139 114 -205 199zM350 -8l10 10c-9 1 -18 3 -27 6
c5 -6 11 -11 17 -16zM402 -4l-25 -25c8 -5 16 -9 25 -14l36 36zM487 -7l-52 -51c16 -7 32 -12 49 -16l72 72c-23 -3 -46 -4 -69 -5zM613 8l-89 -89c11 -1 23 -2 34 -3l105 104c-16 -5 -33 -9 -50 -12zM741 49l-135 -134c23 1 46 3 69 6l163 162l-17 17
c-23 -20 -49 -37 -80 -51zM862 58l-128 -126l84 24l72 72zM664 82c21 7 42 15 63 25c21 9 39 23 56 40c-35 35 -60 64 -74 87c-11 17 -21 29 -30 35s-20 4 -34 -6c-40 -25 -86 -36 -138 -33c-53 3 -94 24 -125 63c-17 27 -18 48 -3 61s34 24 57 31c83 31 167 58 253 80
c34 9 67 19 99 32c14 5 22 14 23 28c0 5 0 9 1 14c5 26 5 52 0 79c-15 65 -45 116 -92 155c-47 38 -103 67 -168 86c-62 18 -120 18 -174 1c-54 -18 -103 -47 -148 -86c-63 -54 -108 -117 -135 -188c-28 -72 -34 -146 -18 -222c15 -77 56 -150 122 -219
c61 -59 135 -90 221 -95s167 6 244 32zM696 338l104 104c-31 -13 -61 -23 -90 -30l-106 -105c9 5 18 11 27 16c12 8 23 14 34 18s21 3 31 -3zM532 284l111 110c-28 -8 -58 -17 -91 -28l-73 -73c17 -8 34 -11 53 -9zM450 313l27 27c-19 -7 -31 -13 -36 -18zM846 438
l-125 -125c2 -2 4 -4 6 -7c14 4 27 8 38 11l101 100zM889 392l-58 -57c24 6 53 15 86 28zM868 509l48 49c-7 13 -14 25 -23 36l-14 -14c0 -23 -4 -47 -11 -71zM932 524l-46 -46l21 -21l34 34c-2 11 -5 22 -9 33zM946 448l-16 -15l10 -10l4 -4c1 10 2 20 2 29zM442 585l15 3
c19 3 34 7 44 14c10 6 8 18 -6 36zM469 659c-19 7 -34 5 -47 -7s-18 -30 -15 -54zM457 719c34 -3 63 -18 86 -44s32 -55 28 -86c-5 -24 -20 -39 -47 -44c-15 -4 -32 -9 -49 -16c-25 -9 -48 -16 -69 -19c-21 -4 -36 2 -45 18c-21 49 -23 94 -6 133c16 39 50 59 102 58z" />
    <glyph glyph-name="f" unicode="f" horiz-adv-x="916" 
d="M698 641l74 74l28 -29c-3 -6 -10 -15 -23 -27c-13 -13 -25 -24 -36 -35l-13 -13zM749 739l-64 -64c1 7 3 14 4 19c3 12 6 21 8 27c1 6 4 11 7 15s7 9 14 15c3 3 7 6 11 10zM462 543l-63 -63s-42 -41 -63 -62l6 65l91 91zM410 598l-57 -57c7 31 19 57 36 79zM332 366
l108 109c-9 -25 -13 -41 -14 -48c-1 -5 -3 -9 -4 -12s-4 -7 -9 -12s-12 -13 -22 -22c-13 -13 -34 -33 -61 -60c1 15 1 30 2 45zM329 273l85 86c-3 -22 -5 -44 -6 -66l-75 -75c-3 13 -4 31 -4 55zM369 206l36 35c-1 -13 -1 -25 -2 -37c-12 0 -23 1 -34 2zM135 -679l29 3
l-16 -16zM172 -717l46 46l69 6l-84 -84c-10 11 -20 21 -31 32zM237 -763l92 92l29 -31l-59 -58c-25 -2 -45 -3 -62 -3zM353 -755l29 28l21 -22c-2 -1 -7 -1 -16 -2s-21 -3 -34 -4zM45 -666c23 -25 42 -47 57 -65c27 -35 53 -59 78 -71s70 -15 134 -8c9 1 20 2 33 3
c27 1 55 4 82 8c27 3 44 10 51 21c3 9 3 40 1 92s-5 110 -9 174s-8 118 -11 163c-2 29 -3 49 -4 58v5c-1 18 -1 38 2 60c3 21 13 36 30 43c29 8 65 13 107 14c43 1 83 6 120 14c4 3 8 13 13 32s8 41 11 66s3 49 2 71c-2 22 -7 38 -16 47c-38 40 -76 79 -114 118
c-15 14 -34 22 -56 25s-47 3 -75 1h-20c2 41 5 82 9 123s11 76 22 107c22 55 51 84 88 87c36 3 76 -2 120 -17c8 -3 16 -5 23 -7c17 -5 34 -8 52 -7c17 0 29 10 35 29c12 49 22 85 31 110c9 24 13 43 14 57c1 13 -5 28 -17 43s-33 37 -63 66l-30 30c-6 6 -11 12 -16 17
c-15 16 -29 29 -43 39s-35 20 -64 29c-52 18 -113 28 -182 30c-70 1 -137 -11 -201 -36c-65 -26 -114 -71 -149 -136c-43 -95 -69 -209 -77 -344c-9 -135 -11 -269 -8 -401v-143c1 -103 6 -227 15 -373c1 -23 3 -47 4 -70v-17c1 -16 2 -32 5 -48c2 -17 7 -30 16 -39z
M370 -631l53 53v-2c1 -19 1 -37 2 -56l-26 -25c-10 10 -20 20 -29 30zM420 -531l-68 -69c0 17 -1 37 -2 59l67 67zM414 -429l-67 -66c0 9 0 19 -1 29c-1 3 -1 5 -1 7l66 67c1 -15 2 -27 3 -37zM408 -346l-66 -66l-4 56l67 67zM404 -243l-69 -69c0 2 0 4 -1 6
c-1 11 -1 22 -2 33l73 73c-1 -13 -1 -27 -1 -43zM401 -154l-72 -72c-1 21 -1 40 -2 58l45 44zM349 -99l-22 -22c0 19 1 32 4 40zM375 -45c11 3 22 5 34 6l-20 -20zM413 -83c11 11 19 19 25 26c7 7 12 13 16 16c3 3 7 5 12 6c4 1 10 1 18 1c9 1 22 2 40 3l-82 -82l-15 15
s-9 10 -14 15zM477 -127l92 92l21 -23l-69 -68c-16 0 -31 0 -44 -1zM568 -127l45 45l29 -30l-8 -9zM608 4l48 48c9 -9 15 -17 20 -24l-46 -46zM653 -41l34 33c0 -14 -2 -35 -6 -62c-9 10 -19 20 -28 29zM632 76l-26 -26c1 16 3 32 4 49c8 -9 15 -16 22 -23zM528 557l-2 2
l72 72c13 -4 25 -6 36 -7c-13 -12 -23 -22 -30 -29c-6 -7 -11 -12 -14 -15c-4 -4 -7 -7 -9 -8c-2 -2 -4 -3 -5 -3c-1 -1 -3 -1 -4 0c-3 0 -7 0 -13 -1s-16 -5 -31 -11zM627 571l31 30l29 -31l-6 -6c-17 3 -35 6 -54 7zM560 641l-57 -57l-30 30v0l39 39c17 -3 33 -7 48 -12z
M470 658l-20 -20l-15 15c11 3 23 5 35 5zM762 575l-11 12l23 23zM460 152c15 1 31 1 47 2c15 0 26 -1 32 -2c9 -9 13 -24 13 -43s-1 -37 -3 -52v-8c-5 -21 -20 -33 -45 -37s-54 -5 -87 -4c-31 1 -60 0 -85 -3c-26 -4 -43 -15 -52 -32c-5 -13 -7 -35 -7 -66s1 -65 4 -100
c2 -36 4 -66 6 -90c1 -9 1 -16 1 -21c6 -85 10 -170 12 -255v-7c1 -16 0 -28 -3 -36c-4 -9 -15 -14 -34 -15c-8 -1 -19 -2 -34 -4c-17 -2 -36 -4 -56 -6c-21 -2 -39 -3 -54 -2c-16 1 -26 3 -29 8c-2 5 -4 17 -5 37c-2 19 -3 41 -4 65c-1 23 -2 43 -3 60c-1 9 -1 15 -1 19
c-17 299 -17 597 -2 896c6 99 28 194 67 285c25 52 64 90 115 113s106 34 165 35s113 -6 163 -21c5 -1 10 -3 15 -4c20 -4 38 -10 54 -19s21 -25 16 -46c-1 -3 -3 -7 -4 -11c-5 -17 -11 -35 -19 -56c-9 -21 -18 -35 -29 -41c-7 -3 -22 -1 -45 4s-51 9 -83 11
c-32 1 -64 -5 -95 -18s-58 -40 -81 -79c-15 -41 -24 -89 -29 -142s-8 -103 -9 -148c-1 -5 -1 -10 -1 -15s-1 -13 -2 -23c-1 -19 -2 -38 -3 -58c-1 -21 1 -35 5 -44c8 -9 23 -16 46 -20s47 -6 74 -7s50 -1 69 0z" />
    <glyph glyph-name="g" unicode="g" horiz-adv-x="1090" 
d="M572 -104c0 -35 -3 -68 -10 -99s-23 -61 -46 -88c-39 -43 -76 -61 -109 -53c-34 8 -66 36 -95 83c-3 4 -6 9 -9 15c-8 15 -18 30 -29 45c-11 14 -24 20 -39 19c-9 -3 -27 -14 -52 -35c-26 -21 -51 -44 -76 -67s-42 -40 -51 -49c-13 -19 -12 -43 2 -73
c13 -31 31 -60 54 -89s41 -50 55 -64c16 -16 31 -31 44 -45c52 -58 102 -102 151 -131c48 -30 119 -48 213 -54c67 -3 127 12 180 45c53 32 99 75 136 128c37 55 63 118 76 188c13 69 20 137 23 203c13 255 17 510 12 765c-1 33 0 66 1 99c1 23 1 46 2 69v12
c0 13 0 24 -1 31s-3 13 -7 19c-5 5 -12 13 -22 22c-2 3 -4 5 -7 8c-33 35 -67 69 -102 104c-5 6 -10 10 -17 13s-14 4 -21 5c-54 9 -98 14 -131 14c-33 -1 -59 -4 -76 -9s-29 -11 -36 -18s-12 -14 -14 -19c-2 -4 -4 -6 -5 -6s-4 1 -8 4c-11 7 -30 16 -58 26s-64 14 -108 11
c-45 -3 -97 -21 -156 -54c-77 -46 -136 -108 -176 -185c-40 -78 -59 -161 -57 -248c1 -88 26 -170 73 -246c33 -49 83 -104 150 -164c66 -60 128 -97 185 -112c53 -11 107 -18 161 -20zM406 411c-9 3 -16 8 -22 14l109 109c6 -7 11 -14 15 -22c-34 -34 -68 -68 -102 -101z
M510 466c-10 -37 -31 -58 -62 -62zM305 43l2 2c19 -3 37 -6 56 -9l-23 -23c-11 8 -23 18 -35 30zM368 -5l37 36c21 -1 41 -2 62 -1l-53 -54c-16 5 -31 12 -46 19zM451 -33l68 68c17 3 34 7 51 12c2 -5 3 -13 4 -22l-23 -22l-45 -45c-19 3 -38 6 -55 9zM547 -48l27 27v-12
c-1 -6 -1 -12 -1 -17c-9 1 -17 1 -26 2zM946 729l-17 -17c-15 -15 -30 -29 -45 -44l-13 -13v59l46 46zM893 785l-21 -21c1 14 1 28 2 42zM872 607l75 75v-62l-74 -75c-1 13 -1 25 -1 38v24zM873 497l74 74l1 -60c-13 -13 -25 -25 -38 -37c-12 -13 -24 -25 -37 -37v60z
M873 388l75 74v-32v-31l-75 -75v64zM872 276l76 75v-39c-25 -25 -51 -50 -76 -76v20v20zM871 187l77 77c-1 -22 -1 -44 -1 -65l-78 -78c1 21 1 43 1 64c0 1 0 1 1 2zM867 72l79 79v-37c-27 -27 -53 -54 -80 -81v20c1 7 1 13 1 19zM863 -17l82 81c-1 -21 -1 -43 -2 -64v-2
l-83 -83c1 23 2 45 3 68zM857 -135l84 84c-1 -7 -1 -14 -1 -21c-1 -13 -1 -27 -2 -41l-4 -4c-27 -28 -55 -56 -83 -84c2 23 4 45 6 66zM843 -255c31 31 62 61 93 92c0 -7 0 -14 -1 -21c-1 -15 -1 -30 -2 -46l-41 -41l-66 -66c7 27 13 54 17 82zM802 -407l128 128
c-1 -23 -3 -47 -6 -70c-59 -59 -117 -117 -175 -176c-59 -59 -117 -118 -176 -177l-15 -15s-9 -10 -14 -15c-19 1 -39 4 -60 8l89 89c69 24 132 75 188 153c16 23 30 48 41 75zM510 -651l-63 -62c-14 5 -28 12 -42 19l39 39c23 -1 45 1 66 4zM402 -652l-9 -9
c-5 -5 -11 -11 -17 -16c-13 8 -25 17 -36 28l6 6c19 -4 37 -7 56 -9zM588 -733c109 109 219 219 328 329c-5 -30 -13 -59 -22 -86c-47 -47 -95 -94 -142 -141l-94 -94c-22 -5 -45 -8 -70 -8zM737 -693l108 108c-33 -48 -69 -84 -108 -108zM228 -531c-7 6 -13 12 -20 18
c-9 7 -17 15 -25 23c-6 7 -16 18 -29 35s-25 34 -35 51s-13 30 -10 39c3 5 11 15 24 29s26 28 40 42c13 13 23 22 28 26c3 2 5 4 8 6c7 6 13 10 19 11c5 1 12 -3 19 -12c6 -9 12 -17 19 -26c26 -41 57 -74 92 -98s82 -20 141 12c58 35 94 76 109 124s21 104 20 167v29
c-1 25 0 52 1 80s5 49 10 63c5 11 5 19 -1 25c-7 6 -15 9 -25 10c-9 0 -17 -1 -24 -3c-7 -3 -14 -6 -21 -10c-11 -6 -25 -12 -43 -17c-19 -5 -46 -8 -82 -7c-37 0 -87 6 -150 18c-66 15 -118 48 -156 99s-62 108 -73 172c-15 89 -4 176 35 260c38 83 96 148 175 193
c51 27 95 42 131 44c35 1 65 -4 88 -15c23 -12 43 -25 59 -39c19 -17 37 -25 52 -26c14 2 22 7 25 16c3 8 3 17 1 28v13c0 11 6 19 19 23c12 4 26 6 42 6c15 0 28 0 39 -1c3 -1 5 -1 7 -1c10 -1 19 -1 27 -1c19 1 33 -1 42 -7s13 -23 12 -50c-1 -57 -2 -113 -1 -170v-81
c1 -185 -2 -369 -10 -554c-1 -17 -1 -34 -2 -53c-1 -65 -6 -133 -15 -202c-9 -70 -29 -132 -60 -185c-46 -76 -99 -126 -160 -151s-135 -28 -221 -11c-44 11 -84 31 -121 58zM449 338c19 3 36 8 51 14c14 6 28 17 41 32c24 28 36 57 37 87c0 30 -9 61 -26 93
c-37 46 -80 66 -127 60c-48 -6 -85 -30 -111 -71s-25 -92 4 -152c32 -47 76 -68 131 -63zM385 536c31 21 58 27 80 18l-101 -101c-13 29 -6 57 21 83z" />
    <glyph glyph-name="h" unicode="h" horiz-adv-x="1129" 
d="M335 1261c1 21 1 41 2 61l80 81c-1 -20 -1 -40 -2 -60v-2zM414 1292c-1 -15 -1 -31 -1 -46l-78 -78v45zM990 -35l-15 16l14 14c0 -11 0 -21 1 -30zM988 43l-38 -37c-10 10 -20 20 -29 30l27 27l40 40v-60zM989 151l-70 -70c-1 5 -1 11 -2 16c-1 7 -2 15 -3 22l76 76
c-1 -15 -1 -29 -1 -44zM990 244l-76 -76c1 19 1 40 1 61l30 30c14 13 28 27 41 41l4 4v-60zM989 350l-74 -74v66l71 71zM983 458l-68 -67c0 19 0 39 -1 58l62 62c3 -17 5 -34 7 -53zM968 550l-55 -55c-1 21 -2 41 -3 61l43 42c5 -15 10 -31 15 -48zM937 631l-30 -30
c-2 19 -4 37 -6 54l9 8l13 -13c4 -5 9 -11 14 -19zM101 1h9l-4 -4zM130 -28l27 27c11 -1 22 -1 33 -2h2l-44 -43zM172 -71l68 67c19 0 38 1 57 4l4 -5l-73 -73h-7c-13 -1 -27 -1 -42 -1zM277 -78l48 48l29 -30l-22 -21c-8 0 -16 0 -23 1c-11 1 -22 2 -32 2zM137 -119
c4 -8 11 -13 20 -14s20 -2 35 -1s32 2 53 1h5c57 -5 114 -5 172 -2c17 1 28 5 34 12c5 6 8 18 8 36v43c-1 41 0 81 3 121c3 39 11 81 24 124c11 34 31 71 58 111c27 39 57 72 88 99c1 -30 1 -76 -1 -137c-1 -51 -2 -101 -2 -149c0 -49 2 -85 6 -109c1 -5 1 -8 2 -10
c1 -3 2 -5 3 -7s3 -4 6 -6l5 -5c7 -8 16 -18 27 -30c18 -19 37 -39 56 -59s34 -34 46 -41c7 -5 18 -6 33 -5c31 1 62 1 92 0c28 -1 57 0 86 1c21 1 35 9 42 23c7 13 11 29 11 47s-1 35 -3 51c-1 10 -2 18 -2 24c0 13 0 26 1 39c1 81 1 170 0 266s-8 180 -19 252
c-5 28 -14 54 -27 79c-19 34 -53 76 -100 126s-86 87 -116 111c-49 39 -100 59 -154 62c-55 2 -110 -11 -165 -38c0 71 0 143 1 215c1 64 3 128 6 192c5 105 6 209 5 314c0 16 0 28 -1 36c-1 7 -4 14 -7 19s-9 11 -17 18c-2 3 -5 5 -8 8s-9 10 -20 22c-11 11 -24 24 -37 38
c-14 13 -26 25 -36 36c-10 10 -15 15 -16 15c-4 4 -11 7 -21 10c-10 2 -20 3 -31 4s-19 0 -25 -1c-41 -5 -87 -7 -137 -6c-23 0 -44 0 -63 -1c-18 0 -30 -3 -36 -9s-9 -18 -8 -35c-1 -65 -1 -129 -2 -193c-1 -161 -3 -321 -5 -482c-3 -273 -5 -545 -4 -818v-111v-16
c-1 -45 -1 -79 1 -101s8 -39 17 -52s24 -29 45 -48c18 -16 42 -39 72 -69zM333 44v45l33 33c22 21 44 43 66 65c-7 -25 -12 -51 -15 -76l-76 -76zM366 11l44 44c-1 -21 -2 -41 -3 -62l-12 -12l-15 15s-9 10 -14 15zM455 258c-16 -17 -32 -33 -49 -49l-72 -72v39l36 35
l122 123c-15 -25 -27 -50 -37 -76zM624 516l-102 -102s-68 -68 -102 -103l-82 -81c3 24 7 48 13 73c85 85 170 169 255 254c9 -13 15 -26 18 -41zM577 575c-67 -66 -133 -132 -200 -199c5 12 12 24 19 35c10 16 25 37 46 64c20 27 42 51 67 72c24 21 47 30 68 28zM886 -9
l24 -26l-25 -25l-29 -29l-49 2l-5 5l71 71c6 0 10 1 13 2zM823 -13l-44 -45l-20 21l23 24h10c11 -1 21 -1 31 0zM904 -90l30 30l20 -20l-11 -11zM346 1664l26 25l31 -33l-58 -57c1 21 1 43 1 65zM344 1551l77 76v-59l-79 -79c1 20 1 40 2 61v1zM340 1440l81 81v-3
c0 -11 0 -22 -1 -33c0 -11 0 -23 -1 -34l-81 -81c1 15 1 31 2 47v23zM335 1122l77 77c-1 -21 -1 -41 -1 -61l-77 -76zM334 1013l76 76c-1 -15 -1 -29 -1 -43l-75 -75v42zM334 924l74 75v-61l-74 -74v60zM334 816l74 74l-1 -29c-11 -9 -22 -18 -31 -28
c-13 -14 -27 -25 -42 -34v17zM824 729c18 -48 29 -113 32 -195s4 -165 2 -248c-3 -109 0 -189 8 -239c-11 -2 -29 -3 -54 -4c-26 -1 -51 0 -74 1s-37 4 -42 7c-5 7 -8 25 -8 54s1 64 3 106c2 49 3 100 4 153c0 52 -3 98 -10 138c-11 63 -34 105 -68 127
c-35 22 -80 14 -137 -25c-66 -51 -115 -116 -148 -195c-33 -80 -51 -159 -54 -237c-1 -23 -1 -43 0 -60c1 -19 1 -34 -2 -44c-3 -11 -10 -16 -23 -15h-29c-13 -1 -27 -1 -41 0l-97 4c-5 0 -9 -1 -13 -2c-5 -1 -9 -1 -12 0c-3 0 -6 3 -8 8l17 1655c-1 20 1 32 6 37
c5 4 17 6 36 5h3c21 1 45 2 72 3s51 2 72 3s32 -9 32 -30c-1 -13 -1 -25 0 -38c1 -15 1 -31 0 -46c-10 -252 -15 -504 -14 -756l-2 -165c1 -9 3 -18 7 -27s10 -16 17 -19c7 -4 14 -2 23 5c3 3 6 8 10 17c7 15 16 30 29 45c35 37 69 66 104 85c34 19 78 32 132 41
c46 6 91 -6 134 -36s74 -68 93 -113z" />
    <glyph glyph-name="i" unicode="i" horiz-adv-x="561" 
d="M130 -28l-21 23l4 4c17 1 32 2 46 1zM203 -2c10 -1 19 -2 28 -3s17 -2 26 -3l-71 -70c-3 0 -5 0 -7 1l-26 26zM233 -79l72 71h2l19 -21l-47 -47c-7 0 -13 0 -20 -1c-8 -1 -17 -2 -26 -2zM322 -79l27 26l27 -28c-15 -2 -33 -1 -54 2zM22 3c41 -43 81 -86 122 -129
c8 -8 20 -12 37 -13s36 0 57 3c24 3 48 4 71 3c7 -1 16 -2 27 -3c17 -2 35 -4 54 -5c19 -2 37 -2 52 0s25 8 28 17c1 6 2 29 2 69c0 39 0 85 -1 137s-1 100 -2 144s-2 74 -3 89c0 37 1 91 4 161c3 60 5 117 6 171c1 53 -1 89 -6 108c-3 7 -9 16 -19 28c-11 12 -23 25 -36 38
c-14 13 -26 25 -37 36c-8 8 -14 14 -18 17c30 13 56 34 77 64c21 29 34 61 38 96s-6 66 -29 93c-43 45 -87 90 -130 134l-1 -1l-99 82c-17 13 -36 15 -56 8c-79 -25 -126 -78 -142 -159c-12 -55 1 -101 40 -137c43 -45 85 -90 128 -135c-53 -1 -100 -4 -141 -10
c-19 -3 -31 -7 -36 -13c-5 -7 -6 -20 -4 -40c7 -145 11 -290 11 -435c0 -41 0 -77 1 -108c1 -43 2 -86 1 -128s-4 -92 -9 -151c-1 -9 0 -16 3 -21zM410 -33l-20 21l21 21c0 -13 0 -27 -1 -42zM412 56l-45 -45l-22 22l66 66c1 -15 1 -29 1 -43zM410 145l-69 -69v40v20l67 66
c0 -15 0 -29 1 -43zM407 249l-65 -66c0 15 0 29 -1 44l67 67c-1 -15 -1 -30 -1 -45zM409 342l-69 -68c-1 19 -1 39 -1 58l72 73c-1 -21 -1 -42 -2 -63zM414 454l-76 -76c-1 11 -1 22 -1 33c-1 11 -1 21 -1 32l81 81v-25zM417 571l-82 -81c0 20 0 40 1 61c27 27 55 53 82 80z
M418 679l-80 -79c1 11 1 21 2 32s1 23 2 35l71 70l6 -6zM390 761l-46 -45c1 20 1 40 1 61l16 15zM73 477c-1 42 -3 86 -4 131c-2 70 -4 141 -6 214c-1 17 0 28 4 32c3 4 14 6 31 6s40 0 67 1c37 0 68 0 92 1c17 1 27 -3 30 -13s4 -24 3 -43c-1 -7 -1 -14 -1 -21
c0 -69 -2 -137 -6 -206c-6 -98 -7 -194 -4 -287c3 -65 3 -130 0 -195c-2 -25 -11 -40 -28 -43c-17 -4 -37 -4 -60 0c-21 4 -42 5 -63 3c-27 -5 -44 -4 -49 2c-6 6 -8 20 -7 41v15c1 92 2 184 1 276v86zM185 1065c-28 1 -53 10 -74 28s-33 39 -34 63c2 29 12 57 31 84
c18 26 37 41 58 44c11 0 26 -6 44 -18c17 -13 33 -27 48 -42c14 -16 22 -29 23 -40c0 -23 -9 -48 -26 -75c-18 -27 -41 -41 -70 -44zM339 1140c3 -2 6 -5 9 -8s6 -7 9 -10l-48 -47c14 21 24 43 30 65zM253 1019l-36 -35l-16 17c19 3 36 9 52 18zM240 960l19 18l121 120
c7 -8 14 -16 20 -23c-45 -45 -89 -89 -134 -133c-9 5 -17 11 -26 18zM303 932c18 17 36 35 54 53c18 17 36 35 54 53c-3 -27 -15 -51 -34 -73c-20 -22 -45 -33 -74 -33z" />
    <glyph glyph-name="j" unicode="j" horiz-adv-x="723" 
d="M-3 -611c-7 5 -14 11 -21 17l12 13c21 -3 42 -4 63 -3l-38 -38c-5 3 -11 7 -16 11zM43 -637l58 58c28 4 56 11 83 21l-96 -95c-16 4 -31 9 -45 16zM128 -660l137 136c31 13 60 29 88 48s50 40 66 64c17 27 30 54 40 81l118 118c-1 -23 -3 -46 -6 -70
c-79 -80 -159 -160 -238 -240l-119 -119l-21 -21c-22 -1 -44 0 -65 3zM243 -659c107 107 214 215 321 322c-5 -29 -11 -56 -18 -82c-49 -49 -99 -98 -148 -147c-25 -24 -49 -48 -73 -73c-27 -9 -54 -15 -82 -20zM413 -598l103 103l-1 -3c-24 -39 -58 -73 -102 -100z
M580 -164l-48 -47l-53 -54c6 26 11 52 14 79l89 89l-1 -33c0 -11 0 -22 -1 -34zM583 -49l-84 -84v5c1 4 1 8 1 11c1 15 3 32 4 49l80 79c-1 -10 -1 -20 -1 -30v-30zM584 59l-78 -78c1 21 1 44 2 67l76 76v-65zM584 172c-11 -11 -22 -23 -33 -34c-5 -5 -11 -11 -17 -16
c-4 -5 -8 -9 -12 -13h-1c0 -1 0 -1 -1 -1c-1 -1 -1 -2 -2 -3c-3 -3 -6 -5 -9 -8c1 12 1 24 1 37l74 74v-36zM584 256l-74 -74v64l73 73c1 -21 1 -42 1 -63zM583 367c-25 -24 -49 -48 -73 -72v19v19l72 72v-18c0 -7 0 -13 1 -20zM581 451l-71 -71c-1 11 -1 21 -1 32v31l70 70
zM578 561l-70 -70v10c-1 17 -1 33 -1 50l69 69c1 -9 1 -17 1 -26c1 -11 1 -22 1 -33zM575 667l-69 -69l-1 62l68 67v-16c1 -14 1 -29 2 -44zM550 752l-46 -45l-1 58l18 18zM-70 -138c-10 11 -22 14 -37 7c-35 -15 -70 -41 -104 -79c-34 -39 -60 -75 -79 -108
c-9 -19 -5 -43 10 -71s34 -56 58 -83c24 -28 45 -51 64 -69l16 -16c65 -71 134 -121 208 -148c73 -27 161 -21 264 19c39 15 79 33 122 56c42 23 75 51 98 85c27 45 47 93 59 143c11 49 19 100 22 151c8 106 12 229 11 368s-4 277 -8 412c0 21 0 43 -1 64c-1 33 -1 59 0 79
c1 26 0 46 -2 60c-2 13 -8 26 -18 39c-10 12 -27 29 -50 51c-13 13 -28 28 -46 47c46 23 78 61 95 114s7 101 -29 146l-177 180c-33 37 -74 52 -121 43c-48 -9 -88 -34 -120 -75s-42 -91 -29 -149c12 -37 36 -69 71 -94c15 -15 33 -33 52 -55c29 -35 57 -62 84 -83
c-50 1 -102 1 -156 1h-139c-16 1 -27 -2 -32 -7c-6 -5 -9 -15 -8 -30c1 -63 5 -125 10 -187c1 -19 8 -31 20 -36c6 -7 20 -21 41 -42c21 -22 42 -44 64 -67s37 -39 46 -48c5 -103 7 -220 5 -351s-17 -241 -46 -330c-5 -17 -15 -36 -28 -57c-14 -21 -30 -33 -49 -37
c-7 17 -22 39 -46 64s-47 47 -69 68c-11 10 -19 18 -26 25zM184 607l-20 -19l-18 19l26 25c7 -3 11 -12 12 -25zM128 636l-5 -5l-5 4zM-133 -477c-10 7 -24 20 -43 38s-34 37 -47 58c-13 20 -17 37 -10 51l3 3c13 25 29 49 47 73s39 43 63 57c15 -10 32 -29 52 -56
c19 -26 41 -50 65 -72c23 -23 49 -33 78 -31c28 2 59 26 93 71c37 55 59 123 67 202c7 79 10 154 8 227v66l-4 406c0 23 -3 41 -8 54s-19 19 -40 20c-31 1 -55 2 -71 1s-27 0 -34 1s-12 6 -13 14c-2 7 -3 20 -3 37c-1 18 -2 43 -4 75c-2 18 6 26 23 24c33 -1 69 -2 110 -1
c65 1 125 -1 178 -6c12 -1 23 0 32 1s20 2 32 4h2c11 -280 14 -559 8 -836c-1 -54 -5 -117 -14 -188s-27 -131 -53 -180c-32 -52 -79 -93 -142 -122s-128 -44 -197 -44s-128 18 -178 53zM399 1213c2 -3 4 -5 5 -7c4 -4 7 -8 9 -11c2 -4 3 -9 4 -15s0 -15 -1 -26
c-5 -43 -22 -71 -52 -83s-62 -9 -95 8c-45 26 -67 56 -67 91c-1 34 12 63 37 87c8 7 16 10 24 11s16 1 25 0c7 -1 15 -2 22 -1c21 1 38 -3 51 -12c12 -10 23 -22 32 -35c2 -3 4 -5 6 -7zM483 1126c5 -3 10 -7 15 -11l-30 -30c7 13 12 27 15 41zM383 1001l-26 -26
c-4 5 -8 10 -11 16c13 1 25 5 37 10zM384 953l92 92l45 45c1 -1 2 -3 3 -4c5 -7 11 -13 17 -20c3 -3 4 -7 5 -12l-120 -120c-15 4 -29 10 -42 19zM473 932l72 72c-11 -44 -35 -68 -72 -72z" />
    <glyph glyph-name="k" unicode="k" horiz-adv-x="985" 
d="M318 903c1 21 3 43 4 64l77 77v-4c1 -18 2 -36 2 -54zM401 937c-1 -22 -2 -44 -3 -65l-84 -84c0 19 0 37 1 55v9zM375 16l-13 -13c-10 10 -20 20 -29 30l41 40c-1 -19 -1 -38 1 -57zM380 128l-72 -71l-9 10c1 11 1 23 1 36c0 3 0 5 1 8l44 44c11 -9 23 -18 35 -27z
M318 176l-14 -14c1 7 2 15 3 22zM110 8l11 11c5 -1 9 -1 13 -1c7 -1 15 -1 22 -1l-28 -28c-5 5 -11 12 -18 19zM152 -36l52 52c25 -1 45 1 60 6l5 -5l-74 -74h-4c-5 -1 -10 -1 -13 0s-7 3 -11 6s-9 8 -15 15zM243 -57l49 49l29 -30l-24 -23c-11 1 -22 1 -33 2
c-7 1 -14 1 -21 2zM6 30c19 -24 41 -47 66 -68s46 -43 64 -66c3 -2 12 -4 29 -5c16 -2 34 -4 55 -5s39 -2 56 -3c11 0 19 0 24 -1c42 -2 72 0 91 5s30 15 34 28s6 31 6 53c-1 23 2 50 7 83c64 -51 129 -100 196 -147c5 -3 9 -7 14 -10c11 -8 20 -16 28 -25
c9 -9 18 -16 27 -23c14 -6 32 -1 53 16s41 37 61 61s35 44 46 59c3 3 5 6 7 9c9 11 17 24 24 40s6 30 -5 43l-129 133c-8 13 -21 26 -39 40c-19 13 -37 26 -56 38c-10 6 -19 11 -26 16c14 23 27 41 40 56c12 15 29 32 50 51c27 27 54 56 80 86c11 11 21 23 32 35
c5 6 13 13 23 21c9 8 18 16 26 24c7 8 12 15 14 20c1 7 -7 20 -23 40c-17 19 -37 41 -60 66c-23 24 -45 46 -66 67s-35 35 -44 42c-7 7 -16 16 -27 29c-17 19 -35 37 -54 55s-33 28 -44 30c-15 0 -34 -11 -55 -33s-41 -44 -59 -67c-9 -11 -16 -20 -22 -27v3
c5 67 7 132 5 194c-5 127 -6 248 -1 364c3 84 4 172 3 264c0 18 -6 33 -19 45c-3 3 -10 12 -23 25s-28 28 -43 44c-16 16 -30 30 -41 42l-18 18c-19 19 -48 30 -87 34s-78 3 -117 -2s-68 -12 -85 -21c-5 -5 -9 -14 -10 -28c-2 -15 -3 -30 -2 -47c0 -17 0 -32 1 -45
c1 -8 1 -14 1 -17c1 -184 0 -370 -3 -557c-3 -219 -4 -436 -2 -652c0 -51 -1 -100 -4 -148c-3 -44 -4 -88 -4 -132c0 -8 1 -22 3 -43c1 -21 3 -38 4 -53c1 -9 2 -13 2 -13c-1 -2 -1 -4 -2 -5c-3 -5 -5 -11 -6 -18s0 -13 4 -18zM649 17c9 8 17 17 26 27l83 83l30 -31
l-109 -109l-12 12zM703 -38l49 49l60 60l11 -12c1 -6 2 -12 1 -18c-34 -33 -68 -66 -101 -99zM328 1698l30 -32l-31 -30c1 20 1 41 1 62zM327 1588l54 54l16 -16c1 -4 2 -12 3 -25l-75 -74c1 20 1 40 2 61zM324 1478l39 39l39 39c1 -20 1 -42 1 -67l-81 -80c1 22 1 44 2 65
v4zM321 1362l82 81v-3c-1 -19 -1 -38 -1 -57l-81 -82v61zM321 1254l81 80l-1 -45l-79 -79c-1 0 -1 0 -1 1v43zM323 1165l77 77v-60l-75 -74v19c-1 13 -1 25 -2 38zM326 1059l73 74v-43l-75 -74c1 15 1 29 2 43zM314 740l41 41l41 41c-1 -21 -3 -42 -4 -63l-78 -78v1v58z
M674 210c15 -16 20 -34 15 -53c-6 -19 -17 -37 -32 -54c-16 -17 -31 -30 -45 -39c-21 -9 -47 -3 -79 19c-33 21 -67 48 -102 80c-37 33 -70 59 -101 79s-54 22 -70 6c-11 -13 -16 -28 -17 -44c-1 -17 -1 -33 1 -50c3 -19 4 -35 1 -50s-13 -25 -30 -30c-30 -2 -57 -2 -82 1
c-9 1 -18 1 -29 2c-19 1 -31 1 -38 0c-5 -1 -9 0 -10 1s-2 4 -1 10c1 3 1 6 1 9l8 454c-1 247 0 495 3 742c1 111 1 223 2 334v25c-1 13 -1 28 -1 45c-1 16 -1 31 0 44s2 21 5 25c8 9 27 13 56 14s57 -1 85 -5c28 -5 45 -10 51 -17c2 -4 4 -16 5 -35s1 -41 2 -65v-63v-27
c1 -59 0 -117 -2 -173c-3 -69 -4 -143 -1 -221c3 -93 0 -186 -7 -278c-1 -10 -1 -20 -2 -30c-2 -37 -3 -73 -3 -109c-1 -29 -2 -57 -3 -86v-7c-1 -13 -2 -31 -3 -54s1 -44 5 -61c4 -18 12 -26 25 -23l300 337l126 -121c-7 -13 -23 -33 -47 -60s-51 -58 -82 -91
c-35 -37 -67 -72 -95 -104c-29 -33 -46 -56 -52 -71c-2 -15 14 -37 48 -64s71 -54 112 -81c38 -26 66 -46 83 -61zM728 477l-138 -138c-11 9 -21 19 -32 28c56 55 112 111 167 167l95 94c7 -6 12 -13 17 -20c-5 -9 -17 -26 -38 -50c-21 -25 -44 -52 -71 -81zM796 651
l-52 -52c-71 -70 -141 -140 -211 -210c-7 6 -15 12 -22 19l132 132c43 44 87 88 131 131c3 -2 5 -4 7 -6c5 -5 10 -9 15 -14zM748 694l-95 -94c4 3 8 7 11 11c21 25 48 53 83 85z" />
    <glyph glyph-name="l" unicode="l" horiz-adv-x="565" 
d="M142 -12l-30 30l14 14c18 1 38 1 60 1zM234 32c16 0 30 0 43 -1l-77 -76h-26l-8 9zM247 -46l67 67l29 -30l-37 -37h-59zM354 -46l13 12l11 -12h-24zM414 0l-7 7l7 6v-13zM414 61l-30 -30l-16 16l-14 14l60 60v-60zM414 168l-72 -72l-4 14c0 3 0 12 -1 26l77 77v-45z
M415 260l-78 -77v60l78 77v-60zM415 367l-78 -78v64v4c26 26 52 52 78 77v-67zM415 482l-78 -77l1 60l77 77v-60zM415 589l-77 -77v64l77 77v-64zM416 700l-77 -76v60l77 76v-60zM416 807l-76 -76v43l38 38s25 25 38 37v-42zM416 896l-76 -75l1 61l75 74v-60zM416 1004
l-75 -75v45l66 64l9 9v-43zM416 1094l-74 -73v60l74 73v-60zM416 1202l-24 -24c-17 -17 -33 -33 -50 -49l1 66l73 72v-65zM416 1314l-73 -72v61l73 71v-60zM416 1422c-24 -24 -48 -48 -72 -71v62l71 70c1 -19 1 -39 1 -61zM415 1530l-71 -70v60l71 69v-59zM411 1634
c-23 -22 -45 -44 -67 -66v20v20l47 47zM368 1679l-25 -24v42v8zM27 25c40 -42 80 -84 119 -125c9 -10 21 -13 37 -10c43 7 84 11 121 10s69 -2 96 -5c24 -2 42 -3 53 -2c19 2 30 7 31 16s-2 19 -7 32c-5 11 -7 23 -8 35c-1 269 0 537 3 804c3 215 4 431 4 648
c-1 53 -2 107 -3 160v18c1 10 1 20 0 30c-1 9 -3 17 -7 24l-142 143c-69 21 -140 28 -212 21c-15 -1 -27 -2 -38 -2c-21 -1 -36 -3 -45 -6s-15 -11 -17 -24c-3 -13 -4 -34 -3 -63c1 -67 2 -134 3 -200c5 -196 5 -394 -1 -593c0 -16 0 -32 1 -49c1 -38 1 -76 0 -114
c-3 -227 -7 -453 -11 -680c-1 -5 0 -12 2 -22c1 -10 4 -19 8 -28s9 -15 16 -18zM69 831c7 342 6 636 -4 883c0 3 0 5 -1 8c-1 7 -1 14 0 21s3 12 8 17c7 5 21 8 42 11c21 2 43 3 68 3s46 -1 65 -2c19 -2 30 -4 33 -7c2 -10 3 -86 4 -227s1 -309 1 -502s0 -373 -1 -539
c-1 -181 -1 -298 -1 -351v-9c1 -25 -1 -40 -7 -45s-23 -7 -52 -5c-28 3 -74 2 -138 -1c-12 -1 -20 1 -24 6s-6 13 -5 24c1 32 1 64 2 97v57c3 145 5 278 7 398c1 65 2 119 3 163z" />
    <glyph glyph-name="m" unicode="m" horiz-adv-x="1582" 
d="M432 517c10 2 21 2 32 1c3 0 5 0 8 -1c-47 -47 -93 -94 -140 -141c5 22 11 42 19 61zM395 190c-3 -24 -4 -45 -5 -63l-73 -73c0 7 0 16 -1 25s-2 21 -2 34l82 83zM406 253l-94 -95v42l108 107c-5 -17 -10 -35 -14 -54zM542 428l7 7c0 -1 0 -1 1 -2v-3c-1 0 -3 0 -4 -1
c-1 0 -3 0 -4 -1zM536 469l-23 -23c-66 -66 -132 -132 -199 -198c1 23 4 47 7 70c61 62 123 124 185 186c13 -9 23 -21 30 -35zM334 25l54 53c0 -19 0 -40 1 -62l-23 -23l-11 11zM389 -30l2 2v-5zM115 -7l34 1l-18 -17zM154 -47l42 43l64 2l-76 -76c-10 11 -20 21 -30 31z
M224 -85l70 70l32 -33l-4 -3c-3 -4 -7 -8 -11 -11l-22 -22zM335 -84l13 13l11 -13h-24zM2 46c3 -11 15 -29 36 -55c20 -26 42 -51 66 -76s42 -41 55 -48c8 -3 24 -5 47 -6s48 -2 74 -1h61h8h6c35 -1 59 4 74 13s20 33 17 72c-3 36 -4 86 -2 150s11 125 28 182s45 92 85 105
l7 -196c1 -19 1 -39 1 -58c-1 -25 0 -49 1 -73c1 -15 9 -26 24 -33l111 -117c10 -14 28 -23 54 -27c25 -5 52 -6 80 -5s50 3 67 4c3 1 6 1 9 1c11 1 21 1 31 1c17 -1 31 1 42 6s17 20 18 43c1 21 1 42 1 63c-1 58 2 116 9 173s24 112 53 165c1 -18 1 -41 1 -68
c1 -46 3 -92 6 -137c3 -46 9 -76 20 -89c3 -1 5 -3 8 -4l123 -129c15 -9 30 -15 46 -16s32 -1 49 1c7 0 13 0 19 1c77 3 124 13 141 31c16 18 21 66 15 143c-1 104 -7 203 -19 296c-13 93 -40 181 -82 262s-107 156 -196 224c-53 40 -111 59 -174 58
c-63 -2 -122 -25 -176 -68l-52 -52c-7 -7 -13 -14 -20 -21c-3 -3 -5 -5 -7 -8c-5 -6 -10 -10 -13 -11c-4 -2 -8 1 -13 8c-25 45 -57 82 -98 112c-44 27 -96 40 -155 37c-60 -3 -112 -18 -157 -44c-9 -5 -15 -11 -19 -16c-3 -3 -7 -6 -11 -9c-4 7 -6 15 -7 23s-3 15 -6 22
c-3 6 -11 11 -24 15c-13 3 -33 4 -60 3s-54 0 -80 2c-36 3 -66 2 -89 -3s-34 -21 -31 -49c2 -19 3 -68 3 -149s0 -172 -1 -272c-1 -101 -2 -189 -3 -265c0 -53 0 -90 -1 -111zM684 6c9 0 18 0 27 1l-14 -14zM761 10l19 2c9 1 17 1 25 1l-64 -65l-21 22zM840 1l31 -33
l-38 -38c-19 1 -38 4 -57 7zM894 -55l13 -14c-9 -1 -18 -1 -28 -2zM873 81c1 13 1 27 1 42l92 92c-3 -17 -6 -33 -9 -49zM874 170c0 21 1 44 2 67c44 43 88 87 131 130l50 49v-4c-34 -34 -59 -79 -75 -135l-93 -92zM881 288c1 11 3 21 4 32c3 15 6 30 11 46l136 136
c7 -11 12 -26 17 -45c-56 -56 -112 -112 -168 -169zM924 440c13 27 26 49 41 65s29 23 43 20zM950 111c-3 -23 -5 -45 -6 -64v-6l-32 -32l-11 11l-21 21zM944 -6v-18l-9 9zM1360 85c2 7 3 15 4 24l71 71c1 -21 2 -42 3 -62l-56 -55zM1405 39l34 34c1 -23 1 -43 1 -61l-4 -4z
M1432 225c-23 -22 -45 -44 -67 -67c-1 9 -1 18 -2 26v12l-1 18l65 65c2 -18 4 -36 5 -54zM1423 322l-62 -62c-1 21 -2 41 -3 62l57 56c3 -19 5 -37 8 -56zM1407 419l-52 -52c-1 11 -1 23 -2 34l48 48zM1391 487l-43 -42c-2 19 -4 37 -7 56l35 35c5 -15 10 -32 15 -49z
M1362 570l-28 -28c-3 11 -5 21 -7 32l22 22c5 -8 9 -17 13 -26zM1331 626l-13 -13c-4 14 -8 28 -13 43c9 -9 18 -19 26 -30zM1395 -33l-22 -23c-25 -5 -49 -7 -70 -7l62 62zM1342 23l-79 -79h-1c-10 11 -20 22 -31 33l53 52c17 3 32 6 43 10zM1231 24l-23 -23l-19 20h6
c11 1 23 2 36 3zM1155 806c8 -9 15 -16 22 -23c11 -11 21 -22 29 -32s16 -23 23 -39c29 -68 50 -150 61 -245s16 -178 17 -247c0 -13 0 -27 1 -42c1 -18 2 -35 2 -51c-2 -15 -11 -27 -27 -35c-17 -9 -36 -14 -57 -17s-41 -3 -58 -1c-18 1 -29 4 -34 7c-5 7 -8 18 -9 33
c-1 14 -2 26 -2 37v4v36c0 41 -1 78 -3 111s-7 69 -16 109c-5 25 -12 53 -21 82s-22 52 -39 69s-40 22 -68 13c-43 -17 -75 -49 -97 -95c-23 -47 -38 -97 -47 -151s-15 -101 -18 -141c-2 -31 -2 -54 -1 -71c1 -16 1 -28 -1 -35c-3 -7 -10 -12 -22 -14c-13 -3 -33 -4 -62 -5
c-8 -1 -16 -1 -24 -2c-21 -3 -40 -2 -57 1s-25 17 -26 41c0 39 -1 87 -3 143c-3 56 -7 104 -13 144c-8 53 -26 98 -55 135s-73 50 -134 38c-57 -15 -94 -44 -113 -88s-31 -94 -38 -151c-4 -38 -6 -76 -7 -114c-1 -8 -1 -16 -1 -24c-1 -12 0 -29 2 -51c1 -16 1 -31 2 -45
c0 -15 -1 -24 -2 -29c-2 -5 -12 -8 -31 -10s-41 -3 -66 -3c-25 -1 -47 0 -66 1s-30 3 -33 6s-4 12 -5 25s-1 26 -1 41s0 27 1 37v10l5 633c-1 20 0 32 5 36s17 5 37 3c6 -1 12 -1 18 -2c25 -3 50 -4 75 -2c4 0 8 0 11 1c11 2 19 3 24 2s8 -4 10 -10s4 -16 5 -30
c3 -26 11 -40 23 -43s25 4 39 19c30 31 64 51 101 59s76 11 117 8c37 -3 67 -13 90 -30c23 -18 44 -42 65 -71c12 -19 21 -40 27 -62c5 -21 12 -35 20 -42s22 3 41 28c17 23 34 44 49 61s33 37 54 58c40 36 86 56 137 61s99 -8 144 -39z" />
    <glyph glyph-name="n" unicode="n" horiz-adv-x="1131" 
d="M677 102c-1 25 -3 50 -4 76c-3 97 -11 195 -22 292c-10 67 -29 110 -58 128s-61 20 -96 7c-36 -13 -69 -34 -100 -61s-55 -53 -70 -77c-22 -38 -35 -83 -38 -134s-4 -101 -1 -148c1 -13 1 -25 2 -36v-11c3 -24 2 -41 -3 -52s-18 -17 -41 -19c-23 -3 -62 -4 -115 -4h-49
c0 27 -1 55 -2 82c-1 26 -1 52 -2 79c0 59 -1 119 -2 178c-2 60 -3 120 -3 180c-1 86 -3 148 -7 186c-3 26 -3 45 -2 57c1 11 5 18 13 21s21 4 40 4c11 0 23 0 37 1c15 1 27 2 38 3c15 2 27 2 34 1s11 -6 14 -13c2 -8 4 -21 6 -38c0 -3 0 -6 1 -9c1 -5 1 -11 2 -16
c0 -11 1 -21 4 -29c2 -8 7 -13 15 -16c11 -3 23 -2 35 4c11 6 24 15 39 27c27 25 70 50 127 75c54 21 108 29 162 25c54 -5 99 -30 135 -77c35 -55 58 -133 68 -234s15 -199 16 -292c1 -55 2 -100 5 -137c1 -6 1 -12 1 -17c3 -16 2 -27 -1 -34c-4 -7 -16 -11 -36 -12
s-53 -2 -100 -1c-19 0 -31 2 -35 6c-5 4 -7 15 -7 33v2zM159 -33l-16 16s-10 11 -15 16l9 9c22 1 44 3 66 4zM253 13c11 0 22 0 32 -1c11 -1 20 -1 28 -1c-28 -27 -56 -55 -84 -83c0 -1 0 -1 -1 -1h-1h-29l-16 15zM915 57l65 65c1 -21 1 -41 2 -60l-36 -36
c-10 11 -20 21 -31 31zM970 2l14 14c1 -11 1 -21 2 -31zM979 170l-63 -62c1 19 0 38 -2 57l63 63c1 -20 1 -39 2 -58zM975 273l-64 -64c-1 11 -1 23 -2 35v4l64 65c1 -13 2 -27 2 -40zM970 358l-62 -62c0 20 0 39 -1 58l16 17l42 42c2 -18 4 -36 5 -55zM960 454l-55 -54
c0 14 0 28 -1 42l50 50c2 -12 4 -25 6 -38zM945 532l-44 -44c-1 18 -3 36 -5 55l36 36c5 -15 9 -30 13 -47zM919 612l-27 -27c-3 19 -6 39 -9 58l12 12c9 -13 17 -27 24 -43zM958 -70l-2 -1l-59 1l32 31zM906 -14l-57 -56l-49 1l-5 5l72 72c7 1 12 2 15 3zM815 6l-45 -45
c-5 5 -10 11 -15 16l-15 15l14 14c19 -1 39 -1 61 0zM629 26l132 -139c11 -9 30 -14 57 -13c55 -2 110 -2 165 -1c35 -1 55 14 59 47c6 45 7 87 2 125c-2 19 -3 40 -4 65c-1 23 -1 46 -2 69c0 90 -5 178 -15 263c-1 4 -1 8 -2 12c-6 51 -16 100 -29 147
c-14 47 -40 88 -79 123c-21 20 -41 40 -60 61c-39 47 -83 85 -132 112c-53 25 -106 33 -161 26c-55 -8 -108 -24 -157 -49l-92 -58c-3 0 -5 2 -6 7c-1 4 -1 10 -2 17c0 10 -1 21 -2 32c-2 11 -7 20 -15 28s-21 12 -39 13c-21 -1 -41 -3 -62 -4c-37 -1 -74 -4 -111 -7
c-29 -3 -49 -9 -59 -19c-10 -11 -14 -29 -13 -56s3 -53 4 -79c3 -52 5 -105 6 -158c0 -68 2 -139 5 -212c5 -97 6 -191 5 -281l-1 -43c1 -3 1 -6 1 -9c1 -9 2 -17 4 -23c2 -7 7 -11 14 -14l123 -129c5 -5 15 -8 30 -9c63 5 125 8 188 9c13 0 24 0 35 -1c19 -3 35 -2 47 3
c11 5 17 19 17 43c-1 19 -1 38 -2 55c-5 63 -4 133 2 210c1 2 1 4 1 6c2 35 7 65 15 90c7 24 25 50 54 77c12 12 27 25 46 39c9 -109 15 -219 20 -328c0 -7 1 -15 3 -24c1 -9 5 -16 10 -23zM350 56c0 19 0 37 -1 52l69 69c-1 -21 -1 -42 -1 -63l-61 -60l-2 -2zM378 27l40 40
c0 -2 0 -4 1 -5c1 -17 1 -32 1 -47v0c0 -3 0 -5 1 -7l-12 -12c-10 11 -20 21 -31 31zM424 232l-77 -77c-1 19 -2 38 -2 59l104 104c-13 -26 -21 -55 -25 -86zM583 451l9 9v-4l-6 -3c-1 -1 -2 -1 -3 -2zM585 501c-80 -79 -160 -159 -239 -238c1 17 2 37 4 60v5l217 217
c8 -11 14 -26 18 -44zM533 561c-25 -26 -51 -52 -76 -77c-26 -25 -52 -51 -77 -77l-23 -23c3 20 9 39 18 56s24 36 45 56c13 13 29 27 50 42s42 22 63 23zM368 -45l-23 -23c-22 -2 -44 -3 -67 -4l60 59z" />
    <glyph glyph-name="o" unicode="o" horiz-adv-x="998" 
d="M746 461c-1 -9 -1 -17 -2 -24c-1 -17 -2 -32 -3 -45c-9 -101 -57 -180 -142 -237c-35 -24 -72 -43 -110 -57c-39 -15 -80 -21 -125 -19c-31 1 -64 8 -99 19s-66 27 -91 48c-63 59 -99 125 -109 196s0 141 29 211s70 133 123 189c55 57 123 90 203 97c33 1 71 -9 114 -30
c42 -21 76 -44 102 -67c43 -46 72 -89 86 -128c13 -40 21 -91 24 -153zM359 482c14 13 31 20 50 20c7 -1 15 -3 22 -8l-83 -83c-7 10 -10 20 -10 30c1 14 6 26 17 37zM55 202c19 -31 46 -66 83 -104c37 -39 69 -71 97 -97c37 -37 78 -66 125 -86s107 -28 182 -24
c65 4 123 22 175 53s99 72 140 121c31 37 51 78 60 125c14 66 18 132 11 199s-27 128 -60 183c-35 52 -85 108 -151 168s-123 102 -170 125c-42 22 -87 32 -136 29c-87 -9 -161 -43 -224 -104c-51 -51 -93 -109 -126 -174c-33 -66 -52 -135 -55 -206c-4 -71 12 -141 49 -208
zM876 327c-1 -5 -1 -11 -1 -16c0 -4 0 -8 -1 -12c-119 -118 -237 -236 -356 -354h-24c-11 1 -22 2 -32 3c23 23 47 47 70 71l70 70c45 28 86 64 125 109c11 13 20 27 28 43c20 19 40 39 59 58c20 20 40 40 60 59c1 -10 1 -20 2 -31zM869 401l-85 -85c7 26 11 53 14 81l60 59
c5 -17 8 -36 11 -55zM847 492l-46 -45c0 19 -1 39 -2 58l28 27c8 -13 15 -27 20 -40zM808 561l-14 -14c-2 15 -5 28 -8 41c8 -9 15 -18 22 -27zM511 44l-89 -88c-18 4 -35 9 -50 16l53 53c29 3 58 10 86 19zM375 23l-35 -35c-13 8 -24 16 -35 25l14 15c19 -3 37 -4 56 -5z
M572 -49c99 99 199 198 298 297c-2 -19 -5 -38 -10 -55c-75 -74 -149 -148 -224 -223c-21 -8 -42 -14 -64 -19zM745 32l71 71c-19 -27 -43 -50 -71 -71zM465 438l-66 -66c-10 3 -19 8 -28 15c18 18 36 36 54 53c9 10 19 20 29 29c7 -10 10 -20 11 -31zM521 433
c-1 29 -12 57 -35 85c-23 27 -47 43 -72 47c-32 0 -61 -12 -88 -37s-42 -54 -44 -86c1 -32 14 -61 39 -86s55 -40 88 -43c31 -1 57 10 78 33c21 22 32 51 34 87z" />
    <glyph glyph-name="p" unicode="p" horiz-adv-x="1178" 
d="M70 132c2 159 0 317 -6 476c-2 57 -4 113 -5 170c-1 7 -1 14 -1 21c-1 19 0 33 1 42c1 8 4 13 10 15c5 1 15 2 28 1h36h40h45h8c21 0 34 -3 38 -9c4 -7 5 -24 4 -51c-1 -19 -1 -47 0 -83c1 -19 8 -32 20 -39s27 1 44 22c75 105 176 159 303 161c42 0 78 -13 108 -40
c33 -28 63 -60 88 -97l30 -55c23 -51 41 -102 54 -155c12 -53 12 -108 0 -164c-11 -49 -28 -94 -52 -134c-25 -40 -60 -72 -106 -97c-47 -23 -101 -34 -162 -35s-116 6 -164 20c-28 10 -49 21 -62 33c-9 7 -16 11 -23 14c-7 2 -15 0 -22 -7c-13 -9 -21 -18 -26 -27
s-8 -22 -8 -40c0 -153 -1 -307 -3 -460c-1 -49 -1 -98 -2 -147v-7v-27c1 -15 -5 -24 -17 -27s-29 -2 -52 1c-34 5 -78 5 -131 -2c-14 -1 -21 5 -21 19c0 107 1 214 4 321c3 130 4 259 2 387zM519 504c7 6 15 9 26 8c14 0 27 -2 39 -7l-96 -96c-7 25 -2 52 16 79c1 2 3 4 4 5
zM822 822c-23 24 -48 45 -75 62s-57 27 -90 29c-104 7 -197 -22 -279 -86c-11 11 -22 22 -32 33l-38 38l-1 1c-10 11 -26 16 -48 16h-107c-41 -1 -77 -1 -108 -2c-17 1 -28 -2 -33 -7s-7 -17 -8 -35c-2 -85 -1 -171 4 -256c1 -13 1 -27 1 -40c9 -311 10 -625 3 -943
c-1 -73 -3 -146 -4 -219v-3c0 -9 0 -18 1 -25c1 -8 3 -16 8 -25l2 -4l129 -136c5 -9 12 -14 19 -15s15 0 24 4c9 3 18 4 27 4c5 1 9 1 14 2c39 5 76 5 110 1c39 -5 70 -3 94 6c24 8 36 34 37 79c1 199 3 399 5 598v8c-1 5 -1 10 0 15s3 11 7 17c45 -23 91 -37 138 -43
c47 -7 94 -8 143 -3c53 4 101 17 146 38s83 54 115 100c71 101 97 212 77 335c-11 63 -30 123 -55 180c-25 56 -61 107 -106 153zM460 26l8 7c19 -3 38 -6 57 -7l-25 -26c-11 9 -20 14 -29 15zM528 -18l42 42c13 0 26 0 39 1l-55 -55c-10 3 -19 7 -26 12zM591 -40l39 38
l32 32c29 4 57 11 84 20l-99 -99c-19 2 -38 5 -56 9zM691 -52l363 361c1 -20 0 -40 -2 -61c-101 -99 -201 -199 -301 -299c-20 -1 -40 -2 -60 -1zM806 -44c77 77 155 153 232 230c-11 -41 -27 -78 -49 -112l-77 -78c-8 -5 -16 -9 -25 -14c-24 -12 -51 -21 -81 -26zM1049 353
l-108 -109c14 31 24 63 30 94l67 66c5 -17 8 -34 11 -51zM1027 441l-13 -13l-35 -35c1 13 1 25 0 38l38 38c4 -9 7 -19 10 -28zM1004 504l-28 -28c-3 17 -6 35 -9 53l18 18c3 -5 5 -10 7 -15c4 -9 8 -19 12 -28zM968 578l-11 -10l-9 30l4 4c5 -8 11 -16 16 -24zM427 -23
c-4 -8 -6 -20 -6 -37v-18l-20 -20l-57 -57v65l74 74c1 1 1 1 2 1zM397 10l-52 -53v41l32 32zM354 54l-8 -8c1 9 1 14 2 15zM344 -201l76 76v-40l-76 -76v40zM344 -288l75 76v-65l-75 -74v63zM344 -398l75 74l-1 -62l-74 -75v63zM343 -508l75 75l-1 -64l-76 -75
c1 17 1 38 2 64zM350 -610l67 67l-1 -67l-33 -34c-4 3 -8 7 -12 11c-7 7 -14 15 -21 23zM405 -667l11 10v-21zM384 -729c-10 1 -23 1 -38 2l18 19zM342 -685l-7 -7l-17 -17l-17 -17c-23 1 -45 1 -68 0l76 76zM261 -651l-78 -78h-4c-9 9 -19 19 -28 29l50 50
c21 -1 41 -2 60 -1zM157 -649c-9 -9 -19 -19 -29 -28c-4 5 -8 9 -12 13l-13 13c16 2 34 3 54 2zM504 378l112 110c12 -9 22 -19 29 -32c-36 -35 -72 -70 -107 -105c-13 6 -25 15 -34 27zM581 345l73 72c-1 -14 -8 -28 -19 -41c-17 -19 -35 -29 -54 -31zM570 292
c29 1 56 10 80 28c23 17 40 41 50 70c11 35 8 66 -8 93c-17 27 -38 48 -64 63s-48 23 -67 24h-16c-9 1 -17 1 -23 0s-12 -3 -19 -6c-7 -4 -16 -10 -27 -18c-9 -6 -16 -14 -21 -23c-5 -10 -10 -20 -13 -29c-20 -53 -16 -100 11 -140s66 -61 117 -62z" />
    <glyph glyph-name="q" unicode="q" horiz-adv-x="1171" 
d="M1081 813c-43 45 -85 88 -127 131c-5 6 -14 8 -29 7s-36 -2 -63 -1c-27 0 -55 1 -82 2c-28 1 -49 2 -64 3c-32 1 -51 -7 -58 -25c-7 -19 -11 -41 -10 -66c1 -16 0 -31 -2 -46c-18 37 -54 70 -107 97s-114 39 -181 34s-132 -38 -193 -99c-84 -93 -132 -197 -145 -311
c-13 -115 3 -220 49 -315c25 -56 59 -103 103 -140l112 -118c45 -41 102 -67 171 -80s132 -14 191 -5v-129v-387c0 -23 4 -39 11 -48l132 -139c9 -7 25 -10 49 -11c23 -1 48 0 74 2c26 1 46 3 60 5h6c14 1 27 2 38 3c30 1 52 3 65 5s21 6 24 13s4 17 4 32c0 11 1 26 2 44
c-13 295 -18 586 -15 873c1 211 -1 423 -6 636zM451 544c11 1 21 -2 32 -9c3 -2 6 -5 10 -9l-94 -93l-1 3c-5 19 -6 37 -2 53zM978 -649v11c0 11 1 24 2 40l70 69v-60l-66 -66zM1008 -680l43 43c1 -23 1 -42 2 -58l-15 -15l-10 10zM1049 -482l-71 -70v19c-1 6 -1 12 -1 18
l72 73v-40zM1049 -393l-28 -28l-46 -46c-1 15 -1 29 -2 44v14l76 76v-60zM1049 -286l-78 -77v21s0 13 -1 20l79 78v-42zM1049 -194l-80 -80c0 20 0 40 -1 59c9 9 18 17 27 26l54 54v-59zM1049 -88l-81 -80c-1 21 -1 43 -1 64l81 82zM1048 27l-82 -82v59l32 32l50 50v-59z
M1048 133l-82 -82v63l82 83v-64zM1048 245l-82 -82v59l81 82c1 -19 1 -39 1 -59zM1047 350l-81 -81v43l80 80c1 -7 1 -14 1 -21v-21zM1046 440l-80 -80v59l79 79c0 -19 0 -38 1 -58zM1044 544l-79 -78v44l78 77v-23c1 -7 1 -13 1 -20zM1041 633l-76 -75v39v20l73 73
c1 -17 2 -36 3 -57zM1035 734l-71 -71v34v33l60 60l6 -7c2 -12 4 -28 5 -49zM1001 814l-38 -38v1c-1 19 -1 39 -1 58l9 10zM997 -751l-13 -13l-4 -3l-63 -4l51 51zM944 -695l-78 -79l-41 -2l-12 12l75 75l48 3zM836 -692l-47 -47l-18 19l25 25zM192 142
c-50 54 -84 116 -102 186s-22 141 -13 214c16 111 63 205 142 282c49 47 101 72 156 75c55 2 105 -11 150 -38c45 -28 78 -63 99 -105c3 -3 5 -7 8 -10c6 -8 13 -15 21 -20c7 -5 17 -6 28 -2c13 7 21 19 22 36s1 35 -2 55c-3 21 -3 40 0 56c2 16 12 25 30 26h31
c29 1 56 2 83 1c26 -1 42 -7 49 -16c12 -32 19 -139 22 -322c2 -183 3 -380 2 -590c0 -125 0 -237 1 -335c1 -99 2 -169 5 -212c3 -25 1 -40 -4 -46s-20 -9 -44 -9c-17 -1 -33 -3 -50 -4c-30 -4 -60 -6 -90 -5h-1c-15 0 -25 2 -28 6c-4 3 -6 13 -5 29l-3 686
c0 12 -1 25 -4 39s-9 24 -17 29s-20 1 -35 -12c-29 -29 -62 -48 -101 -58c-47 -10 -99 -13 -156 -8c-58 5 -109 18 -152 41l-41 32zM310 24l9 -3l-4 -4zM340 -6l20 20c19 -3 37 -4 56 -5l-38 -38c-14 7 -27 14 -38 23zM413 -44l5 5l48 49c16 1 32 2 47 5l-68 -68
c-11 3 -21 6 -32 9zM485 -61l45 45l46 46c23 7 46 15 70 26v-16l-90 -90l-16 -16c-19 1 -37 2 -55 5zM589 -66l57 57v-41l-14 -13c-13 -1 -28 -2 -43 -3zM414 399l100 100c9 -12 16 -26 23 -41l-95 -94c-10 8 -19 20 -28 35zM473 348c10 9 20 19 30 29l30 30l14 14
c1 -12 0 -23 -5 -34c-15 -31 -38 -44 -69 -39zM492 288c33 -2 61 13 86 45s35 67 31 106c-4 21 -15 45 -32 73c-17 27 -37 51 -58 72c-21 20 -40 30 -56 29c-49 -7 -84 -27 -103 -60c-20 -33 -27 -70 -22 -110c5 -41 21 -76 48 -106c27 -31 62 -47 106 -49z" />
    <glyph glyph-name="r" unicode="r" horiz-adv-x="1026" 
d="M800 688c9 -11 18 -23 26 -36l-17 -17c-3 15 -7 32 -11 51zM170 -82l-18 18l61 60l63 3l-80 -80c-11 0 -19 0 -26 -1zM245 -79l61 60l32 -34l-25 -25h-21c-15 -1 -31 -1 -47 -1zM164 -6l-35 -34l-10 10c-7 7 -14 15 -21 22zM842 512l30 31c6 -17 11 -34 15 -51l-13 -12
l-16 16zM860 578l-33 -33c-1 13 -4 30 -9 51l25 24c6 -13 12 -27 17 -42zM879 391c-23 -12 -48 -22 -76 -30l54 54zM834 439c-31 -29 -61 -59 -91 -89c-3 -1 -5 -1 -7 -1c-9 10 -19 20 -29 30l95 94zM733 452l-49 -49l-24 25c23 5 47 13 73 24zM3 37c-1 -13 0 -23 3 -28
s8 -12 15 -19c35 -37 70 -73 105 -110c0 -1 0 -1 1 -2c8 -9 15 -15 22 -18c6 -3 16 -5 29 -4h4c29 1 67 3 116 5c48 1 86 3 113 4c20 1 34 5 41 13s11 23 12 46c2 62 3 125 2 189c0 84 2 166 6 247c1 29 9 56 23 81c13 25 34 42 63 53c2 -9 4 -18 5 -25c1 -11 4 -21 7 -28
s9 -14 19 -21l99 -105l6 -6c7 -9 15 -15 23 -20c7 -5 17 -6 30 -5c28 5 53 11 74 18s45 16 71 29c7 3 14 7 20 10c19 7 32 15 41 25c9 9 11 26 6 51c-19 109 -51 199 -96 270c-45 70 -107 134 -186 193c-58 43 -118 65 -180 66c-63 1 -126 -16 -189 -50
c-21 19 -40 31 -58 38c-19 7 -42 11 -70 12c-56 4 -100 -2 -131 -18s-48 -54 -49 -115c1 -259 2 -517 3 -776zM409 -44l-7 8l8 7v-10c-1 -2 -1 -4 -1 -5zM410 19l-31 -32c-5 6 -11 12 -16 17l-17 17l65 65c0 -25 0 -47 -1 -67zM412 134l-79 -78c1 15 1 36 2 62l77 76v-60z
M413 242l-77 -77v65c13 13 26 25 39 38l39 39c0 -20 0 -42 -1 -65zM417 356l-80 -79v61c32 31 64 63 97 95c-6 -13 -11 -27 -14 -40c-1 -7 -2 -20 -3 -37zM531 578c-64 -64 -128 -128 -193 -192c0 15 0 30 1 43c13 13 26 25 39 38l39 39l98 97c6 -8 11 -16 16 -25zM490 625
c-25 -25 -50 -49 -75 -74s-50 -49 -75 -74c1 3 1 5 1 7v10c1 19 5 37 11 55l82 81c22 5 41 4 56 -5zM693 782c12 -15 22 -31 29 -48l47 -166v-4c1 -6 2 -12 2 -17c-1 -5 -4 -10 -9 -14c-25 -15 -48 -26 -71 -33s-49 -12 -76 -17c-5 37 -16 76 -33 117s-40 68 -71 81
c-59 18 -108 11 -146 -22s-63 -78 -76 -133c-2 -13 -4 -40 -5 -83s-2 -90 -3 -142s-1 -98 -1 -137c-1 -30 -1 -51 -1 -63c0 -13 -1 -23 -2 -29s-5 -10 -10 -11c-5 -2 -14 -3 -25 -4h-1c-8 0 -22 0 -43 -1s-43 -1 -64 -2c-22 -1 -37 -2 -46 -3c-21 -4 -31 6 -30 29
c1 49 1 99 0 148c0 23 0 45 -1 68c0 49 0 97 -1 145c-1 131 -1 261 -2 391c1 7 2 14 4 19c1 5 5 10 10 15c37 32 80 42 128 31c25 -3 41 -9 48 -17s10 -26 9 -53c0 -12 3 -22 10 -30s16 -8 28 0c11 9 21 17 32 26c25 24 55 43 88 57c45 15 88 17 128 8
c39 -10 75 -29 106 -56l16 -16c11 -11 21 -23 32 -34z" />
    <glyph glyph-name="s" unicode="s" horiz-adv-x="945" 
d="M742 355c11 -11 21 -22 29 -34l-32 -32c2 21 2 42 0 63zM508 623c-3 1 -6 2 -9 4c-3 1 -6 2 -9 4l31 30c9 -5 18 -11 25 -16l15 -9l-24 -23zM573 602l19 18c7 -3 11 -4 14 -4h4l3 -3s2 -3 4 -5l-16 -16zM637 581l3 2l5 -5zM491 679l-33 -33c-9 5 -17 10 -25 15l31 31
c9 -3 18 -8 27 -13zM427 702l-16 -17c-1 4 0 7 2 10c3 4 8 6 14 7zM136 29h3c3 -1 5 -1 7 -2l-4 -4zM165 -1l22 22c19 -3 38 -5 59 -6c-15 -15 -31 -30 -46 -45c-12 8 -24 18 -35 29zM231 -46l58 58c20 -1 40 -1 60 -1l-71 -70c-12 3 -26 6 -41 11c-2 1 -4 1 -6 2zM317 -67
l79 78c19 1 36 2 51 3c7 1 15 2 22 3l-79 -80l-9 -8c-21 -1 -43 1 -64 4zM426 -71l100 99c75 18 134 64 176 139c11 21 19 42 25 63l62 62c7 -15 13 -31 16 -48c-105 -105 -211 -211 -317 -316h-28c-12 1 -23 1 -34 1zM536 -70l275 273c1 -14 0 -28 -2 -43l-112 -112
c-37 -38 -74 -76 -111 -113c-16 -3 -33 -4 -50 -5zM646 -50c50 50 100 100 150 151c-13 -41 -33 -74 -59 -98c-26 -25 -56 -42 -91 -53zM6 82c23 -23 42 -44 57 -62c27 -34 55 -60 82 -79s69 -34 128 -47c43 -8 95 -13 154 -15c59 -3 109 -2 151 2c56 5 106 19 149 42
s78 60 105 110c35 69 46 140 33 213s-52 132 -116 178l-30 18c-4 3 -8 9 -13 19c-7 15 -21 35 -44 61c3 -2 6 -4 9 -7c17 -13 36 -23 56 -30c20 -8 39 -4 56 11c10 11 23 29 38 56s27 54 36 83c9 28 11 50 5 66l-138 143c-21 21 -54 42 -98 61c-45 19 -82 33 -113 42
c-67 17 -136 21 -206 12c-70 -10 -129 -34 -178 -73s-74 -94 -77 -164c1 -67 16 -120 47 -161c17 -17 33 -34 48 -51c38 -43 77 -82 116 -117c39 -36 86 -69 142 -98c-23 -15 -53 -21 -89 -18c-37 3 -67 9 -91 17c-23 8 -44 18 -62 30c-23 16 -43 23 -60 22
c-18 -1 -35 -24 -50 -69c-13 -43 -27 -85 -41 -128c-3 -10 -6 -21 -8 -33c-3 -13 -2 -24 2 -34zM149 589c-33 47 -47 92 -42 135s23 81 55 113c32 31 73 53 122 64c133 25 257 4 372 -65c3 -2 5 -3 8 -4c5 -3 8 -5 10 -7s3 -5 4 -8c0 -3 0 -9 -1 -16c-3 -21 -10 -44 -23 -71
s-29 -44 -48 -49c-3 0 -9 3 -19 8s-21 11 -34 18s-26 13 -38 20c-15 9 -25 14 -31 17c-45 18 -79 20 -102 5c-24 -15 -34 -36 -31 -64s22 -52 59 -73c7 -4 15 -8 22 -11c49 -23 94 -49 136 -77c41 -28 73 -63 94 -105s25 -95 11 -160c-23 -84 -66 -139 -129 -164
c-64 -26 -135 -37 -214 -33c-20 1 -37 1 -52 1c-29 0 -54 1 -76 4s-53 10 -92 23c-5 1 -10 3 -14 4c-13 3 -22 6 -26 11s-4 15 1 30c5 16 10 32 14 48c7 29 16 56 25 83c1 4 3 7 4 10c1 5 2 7 3 8s2 0 5 -2c2 -1 5 -3 8 -5c28 -15 64 -27 108 -38s87 -14 130 -10
c42 3 74 19 97 46c39 55 19 103 -62 142l-147 79c-19 11 -33 22 -44 31s-23 20 -37 35c-7 8 -15 17 -26 27zM749 553l-14 14l63 62c-5 -16 -11 -31 -19 -45c-9 -14 -19 -24 -30 -31zM803 681l-91 -90c-11 11 -21 22 -32 33l4 4c15 14 29 28 44 43l43 43zM747 739l-63 -64
c13 25 25 49 35 72l11 11z" />
    <glyph glyph-name="t" unicode="t" horiz-adv-x="782" 
d="M578 801l29 -30l-46 -47c3 20 5 42 6 67zM424 1546v-16l-77 -76v30v33l67 67l5 -6c2 -4 3 -9 4 -16s1 -12 1 -16zM390 1608l-43 -43v60l14 14zM348 1407l1 1l74 75v-31v-29l-76 -76v16c1 14 1 29 1 44zM347 1298l75 75v-66l-76 -75zM346 1184l75 75l-1 -61l-75 -74
c1 20 1 40 1 60zM344 1073l75 75l-1 -43l-75 -75v2c1 13 1 27 1 41zM342 982l50 50c9 8 17 16 26 25c-1 -18 -1 -36 -1 -53v-8l-45 -45l-15 -15c-9 5 -14 20 -15 46zM403 933l14 14v-14h-14zM62 97c11 -16 30 -39 59 -70c28 -31 58 -62 90 -91c32 -30 59 -50 80 -61
c54 -25 114 -33 179 -25c65 7 119 27 164 59c38 32 59 80 63 143c3 63 -9 111 -38 145l-131 134c-9 8 -18 12 -29 13s-22 -1 -34 -5c0 46 0 92 1 138c0 12 0 24 1 37c0 9 2 16 7 19c4 3 10 4 19 4c49 1 97 2 145 5h1c8 1 16 2 24 4c7 2 14 7 20 14c5 11 10 32 13 63
s4 62 3 93c-2 31 -8 51 -17 60c-42 44 -84 87 -125 129c-9 10 -22 17 -38 20c-17 3 -31 5 -44 6c1 73 2 145 2 217c0 27 0 54 1 81c1 37 1 77 0 120c-1 65 -1 133 2 204c3 26 -4 49 -22 68c-42 44 -84 87 -126 130c-11 12 -25 19 -42 20c-33 2 -70 4 -112 5s-79 3 -112 4
c-21 1 -34 -1 -39 -7s-8 -20 -8 -41c-1 -237 -4 -473 -9 -708c-5 -227 -8 -455 -9 -683c-1 -97 20 -178 61 -244zM119 113c-42 62 -63 137 -62 224c-1 277 2 555 9 832c4 166 7 332 9 499v20c-1 12 0 21 2 26c1 5 6 8 14 9s21 0 39 -2c10 -1 22 -1 37 -1c15 -1 30 -1 45 -2
c18 0 33 0 44 -1c17 0 28 -2 32 -5c3 -4 5 -15 5 -32c0 -113 -1 -223 -3 -328c-2 -103 -3 -207 -4 -314c0 -16 0 -30 -1 -43c-4 -52 1 -85 16 -98c15 -14 57 -19 127 -16h17c25 3 42 0 53 -8c10 -9 14 -34 12 -75v-18c0 -17 -1 -29 -4 -36s-11 -12 -24 -13
c-13 -2 -35 -3 -66 -2c-22 0 -50 0 -83 -1c-35 1 -52 -14 -52 -46c-3 -62 -3 -124 -2 -185v-31c0 -38 2 -75 7 -111c5 -37 17 -64 36 -83s50 -22 93 -7c5 2 11 4 17 7c12 6 24 10 36 12c11 1 21 -4 28 -15c11 -21 15 -49 13 -84s-10 -64 -25 -87c-20 -23 -46 -39 -79 -46
c-33 -8 -64 -13 -95 -16c-57 -6 -109 7 -154 39c-12 13 -24 25 -37 38zM550 99c10 23 15 48 15 75l18 18l31 -33l-63 -62zM575 73l58 57c5 -14 8 -30 9 -49l-38 -38l-10 10c-6 7 -12 13 -19 20zM628 19l12 12c-1 -7 -3 -14 -4 -20zM608 -44c-23 -21 -51 -35 -85 -42l64 64z
M563 3l-98 -98h-3l-21 -3c-13 -1 -26 -1 -38 0l132 131zM483 29l-122 -122c-17 4 -33 10 -47 17l67 67c38 9 72 21 102 38zM324 -18l-39 -39c-7 5 -14 11 -20 18l20 20c13 0 26 0 39 1zM583 697l48 48l5 -5l3 -51l-25 -24c-10 11 -20 21 -31 32zM573 624l-29 -29
c-14 0 -27 0 -39 -1h-25l63 63zM514 677l-179 -179c-1 21 -1 41 0 62l115 115zM400 673l-65 -64c1 13 1 26 1 39c0 9 2 16 7 19s11 4 19 4zM335 450l76 76v-62l-48 -48c-9 -8 -17 -16 -25 -24c-1 19 -2 39 -3 58zM345 350l66 66v-63l-39 -39c-12 3 -21 15 -27 36z" />
    <glyph glyph-name="u" unicode="u" horiz-adv-x="1085" 
d="M988 781c0 1 -6 7 -18 20c-12 12 -26 26 -42 43c-17 16 -32 31 -45 45l-25 25c-19 12 -45 19 -76 22c-31 2 -60 3 -85 2h-7c-7 0 -14 0 -21 1c-25 1 -49 0 -73 -4c-25 -4 -41 -16 -50 -36c-3 -16 -4 -49 -1 -100c2 -46 2 -97 1 -154s-8 -110 -21 -161s-36 -91 -69 -119
c-1 34 -1 65 -1 93v33c0 16 0 37 1 64c2 41 3 82 3 125c-1 43 -5 74 -12 93l-130 134c-10 17 -35 28 -75 33c-41 5 -83 6 -127 3s-76 -8 -96 -15c-4 -5 -7 -18 -9 -39s-3 -44 -3 -68c-1 -25 -1 -44 -1 -58v-9c0 -23 0 -46 -1 -69c-3 -129 -1 -258 6 -387
c11 -91 50 -174 117 -251s141 -128 224 -155c54 -15 106 -21 156 -18s100 17 149 44c12 -13 21 -24 27 -31c7 -9 13 -15 18 -18c5 -4 11 -6 20 -7c8 -1 20 -1 37 -1c21 1 43 2 67 3c23 1 44 3 63 4c12 1 21 2 28 2c9 1 18 1 26 1c20 -1 35 2 45 7s16 19 17 42
c-1 39 -3 111 -5 217c-2 105 -4 215 -6 328c-1 88 -2 162 -3 222s-2 91 -3 94zM878 812l29 -31l-46 -46l-1 59zM874 52v9l69 70v-21v-22l-53 -53zM913 12l30 29c-1 -19 -1 -37 -2 -55v-3c-9 9 -19 19 -28 29zM943 179l-70 -70l-1 59l71 70v-58v-1zM942 284l-71 -71l-1 44
l71 71c1 -14 1 -28 1 -42v-2zM941 375l-72 -71l-1 59l71 70c0 -9 0 -19 1 -29c0 -9 0 -19 1 -29zM938 479l-71 -71l-1 66l70 69c1 -21 1 -43 2 -64zM934 590l-69 -69l-1 59l68 67c0 -9 0 -17 1 -25c0 -11 0 -21 1 -32zM930 692l-67 -66l-1 63l65 64c1 -15 1 -31 2 -47
c1 -5 1 -9 1 -14zM902 -59l-19 -19c-19 -2 -41 -4 -64 -5l54 54zM850 -5l-80 -79c-18 0 -30 1 -35 4l-1 1l84 84l22 1zM766 2l-56 -56l-15 15l-15 15l23 22zM574 9l-61 -61l-20 -20c-19 -1 -39 0 -59 2c15 14 29 28 44 43c29 29 59 58 88 87c0 -7 1 -15 2 -25s3 -19 6 -26z
M491 33c-17 -16 -33 -32 -49 -48l-49 -49c-17 4 -33 9 -48 16l58 58c31 4 61 12 88 23zM351 7l-39 -38c-13 7 -24 16 -34 26l16 16c19 -2 38 -3 57 -4zM551 -63l45 45l21 -22l-2 -2c-20 -9 -41 -16 -64 -21zM328 772l20 21l33 -35l-55 -54c1 2 1 4 1 6c1 22 1 43 1 62z
M325 656l69 69c1 -11 1 -22 2 -33c0 -11 0 -19 -1 -26l-71 -71c1 21 1 41 1 61zM324 547l69 69v-20c-1 -9 -1 -17 -1 -26l-67 -66c-1 14 -1 28 -1 43zM328 460l62 62c-1 -21 -1 -41 -1 -61l-54 -54c-3 16 -6 34 -7 53zM347 370l42 42c0 -14 0 -28 1 -41l-24 -23
c-7 5 -13 12 -18 21zM797 866c13 -249 18 -497 14 -746v-19c1 -15 0 -26 -5 -33s-19 -10 -42 -10c-15 -1 -30 -3 -44 -4c-21 -3 -42 -4 -64 -5c-13 1 -22 6 -25 16c-4 10 -6 22 -7 37c-1 13 -3 25 -6 38c-5 15 -12 21 -22 18s-23 -11 -40 -23c-17 -13 -39 -26 -66 -39
c-27 -14 -58 -24 -95 -30c-85 -11 -158 2 -219 40c-61 37 -95 102 -103 193c-6 167 -7 333 -4 500v24c-2 26 1 44 8 53s28 13 61 11c21 -1 39 -2 54 -1c31 1 52 -2 62 -11c9 -9 13 -35 11 -78c-1 -16 -1 -33 -2 -50c-7 -113 -6 -222 3 -327c9 -63 32 -104 69 -121
s79 -16 126 4c55 26 91 65 110 116s29 105 32 161c1 7 1 13 1 20c5 49 7 98 8 147c0 7 0 16 -1 27c-2 21 -3 42 -2 64c0 22 4 36 11 43c3 1 14 2 32 3c17 1 37 1 60 1c22 -1 42 -2 59 -5s25 -8 26 -14z" />
    <glyph glyph-name="v" unicode="v" horiz-adv-x="1166" 
d="M485 514c-1 4 -3 9 -6 14c-1 5 -3 10 -6 15l12 12c3 -6 5 -12 8 -18c1 -4 3 -8 4 -11zM525 -65l-23 24l40 39c30 -1 52 0 67 4l2 -2l-63 -63l-7 -7c-6 1 -11 3 -16 5zM581 -75l52 51l30 -32l-24 -23c-19 1 -38 2 -58 4zM685 -81l1 2l1 -2h-2zM497 0l-18 -17l-19 20
c5 -1 10 -1 17 -1c6 -1 13 -1 20 -2zM366 19c33 -36 67 -72 101 -107c9 -11 19 -19 29 -26s22 -12 37 -13c57 -4 113 -7 169 -10c36 -3 62 12 78 45c37 77 76 181 118 311c32 99 63 184 92 255c30 69 58 138 83 209c4 12 7 27 10 45c2 17 -1 31 -9 42l-130 134
c-8 7 -25 12 -52 14c-27 1 -54 2 -82 1s-48 -2 -59 -3c-10 -1 -20 -2 -30 -1c-10 0 -19 0 -27 -1c-19 -5 -35 -20 -47 -45s-22 -50 -29 -73c-2 -7 -4 -12 -5 -17l-79 -195l-63 161c-4 9 -14 22 -30 39s-34 34 -53 52c-24 23 -42 42 -54 55c-6 9 -13 15 -20 20
c-7 4 -18 6 -31 6c-77 3 -136 3 -177 2c-41 -2 -69 -6 -84 -11s-21 -12 -19 -21c1 -9 6 -20 15 -33c7 -11 14 -23 20 -36l71 -181c25 -67 53 -135 83 -204c40 -90 75 -177 105 -261l57 -141zM738 -50l-11 11l31 32c-7 -17 -13 -32 -20 -43zM788 68l-84 -83
c-10 11 -20 21 -31 32l150 150c-12 -35 -24 -68 -35 -99zM847 238c-66 -66 -132 -132 -197 -198l-1 1c15 29 31 66 48 111l183 182c-11 -31 -22 -63 -33 -96zM905 406l-38 -38c-48 -47 -96 -95 -143 -143c11 32 22 65 33 98l189 189c-9 -20 -15 -37 -20 -50
c-7 -17 -14 -35 -21 -56zM981 595c-45 -45 -89 -90 -134 -135l-66 -66c11 32 22 63 32 92l209 208c-11 -29 -25 -62 -41 -99zM1022 741c-60 -59 -120 -119 -179 -178l-3 -3c7 17 13 33 19 47l24 60l71 71l36 36zM967 799l-53 -52l24 60l11 11zM358 168
c-19 57 -38 107 -59 151c-11 24 -22 50 -33 78c-19 47 -39 93 -59 140c-37 87 -71 173 -104 260c-1 4 -3 8 -5 12c-4 9 -7 17 -9 26c-2 8 -2 16 1 24c44 4 88 5 133 4c5 0 11 0 16 1c14 1 26 0 37 -3c10 -3 18 -13 23 -28l26 -72l94 -224c1 -3 3 -6 5 -11
c5 -15 13 -32 22 -53s20 -38 31 -52s23 -19 35 -14c10 7 19 19 28 36s16 32 21 45l89 240c3 7 5 15 7 24c5 21 12 41 21 61s21 35 38 44c11 4 28 6 52 7c23 1 47 0 72 -1c24 -1 42 -3 55 -5c-19 -65 -42 -127 -69 -188c-11 -25 -21 -50 -31 -75c-21 -55 -45 -123 -73 -205
c-21 -63 -41 -122 -61 -178s-38 -99 -53 -129c-11 -22 -28 -32 -52 -30c-43 1 -87 4 -130 8c-19 1 -32 10 -38 28l-15 39s-10 26 -15 40zM410 701l12 12c7 -11 13 -25 18 -42c1 -1 1 -2 1 -3l-13 -12zM442 622l11 12c6 -15 12 -31 18 -46l-11 -12z" />
    <glyph glyph-name="w" unicode="w" horiz-adv-x="1584" 
d="M911 16c15 1 29 2 42 3l-48 -48c-8 5 -16 10 -23 16zM856 10c-1 1 -1 2 -2 3c-2 1 -4 3 -5 5h15zM891 376l-2 -2c-15 5 -27 12 -37 23l31 31c2 -19 5 -37 8 -52zM879 473l-47 -47c-7 14 -13 29 -16 45l60 60c1 -19 2 -39 3 -58zM875 577l-67 -66c-1 12 -3 24 -4 36l70 69
c0 -13 0 -26 1 -39zM873 665l-71 -72v3l-1 57l64 63l6 -7c1 -3 2 -17 2 -44zM841 740l-40 -40l-1 42l21 20zM270 879c-16 9 -31 15 -46 17c-15 1 -31 2 -48 1c-5 -1 -9 -1 -14 -1h-24c-52 3 -88 -3 -108 -17s-28 -52 -23 -115c1 -24 3 -48 4 -73c3 -96 12 -191 25 -284
s41 -184 85 -273l22 -28c13 -15 27 -30 41 -45c43 -51 90 -96 141 -133c51 -38 112 -54 184 -47c47 7 85 20 114 41c29 20 59 45 89 76l7 7c5 5 10 10 14 15c7 8 13 14 19 17c5 3 11 1 18 -7c37 -53 74 -91 110 -113c35 -23 84 -34 147 -35c98 1 178 28 240 83
c61 54 109 123 142 208s57 173 71 266c13 92 21 176 23 253v4c1 11 0 24 -1 38c-1 13 -5 25 -12 34l-144 145c-8 3 -21 6 -39 7c-19 1 -38 1 -58 1c-21 0 -38 0 -52 -1h-12h-10c-30 1 -52 -2 -67 -10s-21 -30 -20 -66c1 -43 0 -98 -4 -165c-4 -68 -17 -131 -38 -190
s-57 -97 -106 -114c-4 23 -7 52 -8 88c-1 35 -2 67 -3 96c0 9 0 16 -1 22c0 19 1 38 2 59c2 22 3 42 3 61c-1 18 -4 31 -11 39l-130 133c-17 17 -44 26 -80 28c-36 1 -67 1 -92 -1h-13c-14 -1 -26 -1 -37 0c-19 3 -35 2 -46 -3s-19 -20 -22 -45v-20c1 -80 -3 -159 -13 -238
c-4 -25 -11 -52 -21 -80c-10 -29 -22 -55 -37 -78c-3 31 -4 68 -5 109c-1 42 -2 82 -5 119s-9 64 -20 80c-9 13 -22 28 -41 47s-38 37 -57 55zM361 702c1 -5 3 -10 4 -16c-12 -11 -24 -23 -35 -34s-23 -22 -34 -33c0 9 0 16 -1 21v36l47 47zM317 748l-22 -23
c-1 16 -1 32 -2 49zM300 574l69 68c1 -18 1 -38 1 -60l-63 -64c-3 19 -6 38 -7 56zM314 478l57 56c1 -19 2 -39 3 -59l-45 -44c-6 14 -11 30 -15 47zM348 401l30 30l6 -39c-14 -5 -26 -2 -36 9zM1371 807h1l29 -30l-33 -33zM1364 691l61 61l16 -16c3 -9 4 -18 5 -29l-91 -91
zM1347 561l6 6l94 94c0 -20 -1 -40 -2 -61c-25 -25 -49 -50 -74 -75c-13 -13 -25 -25 -38 -37c5 24 10 48 14 73zM1318 423l124 124c-1 -16 -3 -32 -5 -48l-125 -125c-5 -4 -9 -8 -13 -12c7 20 13 40 19 61zM1269 285c53 53 107 105 160 158c-5 -25 -10 -49 -15 -73
c-27 -27 -54 -55 -81 -82s-54 -53 -81 -80c-89 -90 -179 -180 -268 -269c-16 3 -32 8 -48 15l79 78c60 19 111 51 152 96c41 44 75 96 102 157zM1028 -66l174 174l195 195c-7 -21 -13 -41 -20 -61c-101 -100 -203 -200 -304 -300l-5 -5c-13 -2 -27 -3 -40 -3zM1137 -43
c41 41 82 81 123 122c27 27 54 53 81 80c-10 -19 -21 -38 -32 -56c-46 -68 -103 -117 -172 -146zM938 318c44 10 79 29 106 57c26 27 46 62 60 104c13 39 22 85 29 140c7 54 10 101 10 142c-1 17 -1 31 -1 43c-1 20 -1 35 1 44s9 14 21 16s32 3 59 2h30c21 1 36 0 45 -1
c9 -2 15 -7 17 -14c1 -7 2 -20 2 -37v-9c1 -85 -9 -180 -30 -285s-57 -200 -109 -283c-37 -56 -83 -99 -137 -130c-55 -31 -111 -43 -170 -37s-112 36 -161 91c-19 24 -32 48 -40 71c-8 22 -16 36 -25 42s-23 -2 -42 -25c-3 -3 -5 -6 -7 -9c-27 -38 -57 -73 -90 -104
s-72 -52 -118 -63c-18 -2 -34 -3 -49 -3c-15 -1 -31 1 -49 5c-23 6 -43 15 -58 26c-16 11 -32 26 -49 43c-32 40 -56 93 -72 158s-27 132 -32 202c-6 69 -10 131 -12 185c0 6 0 12 -1 17c-1 12 -1 23 -2 34c-5 31 -3 57 5 76s34 28 77 29c44 1 71 -3 81 -12
c9 -10 13 -35 12 -74l5 -162c1 -27 7 -63 17 -108s26 -84 48 -116c21 -33 50 -44 87 -34c44 17 77 49 100 97s39 99 48 154s14 100 16 137c2 29 2 51 1 68c-1 16 -1 28 2 35c2 7 10 12 23 14s34 3 64 4c10 0 20 0 29 1c21 3 37 2 49 -3c11 -6 16 -23 15 -51
c-2 -78 1 -156 9 -233c3 -35 11 -73 24 -113c12 -41 31 -74 57 -101c25 -27 60 -37 105 -30zM707 83l-112 -113c-23 -15 -48 -25 -77 -30l-21 -3c60 59 120 119 180 178c10 -11 20 -22 30 -32zM655 142c-69 -68 -137 -136 -206 -205c-17 1 -34 5 -49 10l226 225
c4 0 8 -3 13 -8c1 -1 2 -3 3 -4c5 -6 9 -12 13 -18zM431 26l-63 -64c-13 8 -25 17 -37 28l23 22c28 1 54 5 77 14z" />
    <glyph glyph-name="x" unicode="x" horiz-adv-x="1221" 
d="M514 190c10 -6 22 -15 35 -28l-212 -212c-9 9 -17 18 -26 26c11 15 23 30 36 47c2 2 4 4 5 6c54 54 108 108 162 161zM969 501l-47 -51l-56 -56l-18 19l195 194l12 -8c-25 -30 -51 -60 -78 -89c-3 -3 -5 -6 -8 -9zM1015 627l-95 -95l-95 -95c-11 10 -21 20 -31 31l-1 1
c62 62 124 124 186 185c11 -9 23 -18 36 -27zM258 935c-8 6 -15 10 -21 11c-13 -1 -33 -11 -58 -31c-26 -20 -53 -44 -80 -71s-50 -52 -69 -75s-29 -39 -30 -46c3 -20 18 -45 46 -75c27 -31 55 -60 84 -87c20 -19 35 -33 44 -44c4 -4 8 -8 11 -12c21 -23 34 -42 39 -57
s-2 -36 -21 -61c-19 -26 -52 -66 -99 -119c-12 -14 -25 -29 -40 -45c-3 -3 -5 -7 -8 -10c-19 -19 -31 -38 -38 -55c-7 -18 0 -38 21 -61c55 -43 103 -86 146 -127c11 -9 26 -23 45 -41c29 -27 60 -55 93 -82c32 -27 56 -43 73 -47c15 8 32 24 51 49c19 24 38 51 59 80
c22 31 43 60 63 85s37 41 52 48c6 2 13 0 22 -5c27 -34 48 -60 61 -78c3 -5 6 -8 8 -11l120 -125c4 -4 8 -8 11 -12c7 -7 13 -14 20 -19c7 -6 15 -10 25 -12c17 -2 34 5 53 22c18 16 35 34 52 54c8 9 15 17 22 24c6 7 15 15 27 26c20 18 40 37 59 58c19 20 28 36 27 47
c-3 9 -13 23 -30 44c-17 20 -38 43 -62 69c-29 32 -57 63 -82 94c-25 30 -42 54 -50 73c1 9 13 29 36 58s48 59 77 92c28 32 51 58 69 78c7 7 12 13 15 17c27 29 31 54 12 74l-131 133c-9 9 -23 21 -44 36c-33 22 -69 53 -108 92c-10 11 -23 22 -40 33s-33 16 -47 14
c-5 -3 -21 -20 -48 -51s-57 -66 -90 -104c-23 -27 -44 -52 -62 -73c-19 -21 -32 -36 -39 -43l-116 134zM91 135c-3 13 4 31 22 54c18 22 40 47 67 74s52 55 75 83c23 27 37 53 42 76c3 24 -10 54 -39 89s-62 70 -98 105c-44 43 -73 76 -86 100c-1 5 5 15 18 30
c12 14 26 29 42 46c16 16 29 29 40 39l9 9c5 4 9 8 12 11c9 11 17 17 24 20c6 2 14 -1 23 -10s23 -24 42 -47c17 -20 39 -46 66 -77c22 -24 41 -45 57 -64c26 -32 47 -54 63 -67c15 -13 30 -17 45 -10c15 8 35 26 60 54c24 27 50 58 77 92c23 28 44 54 64 77s37 40 50 49
c47 -53 100 -99 158 -136l-162 -180c-5 -5 -9 -10 -13 -15c-36 -37 -54 -66 -55 -85s17 -50 55 -91c7 -9 15 -17 22 -25c50 -60 102 -119 156 -178c-44 -37 -77 -67 -98 -90s-36 -40 -44 -51c-7 -9 -11 -14 -14 -15s-6 0 -10 5c-9 11 -20 26 -33 43c-37 48 -78 98 -123 149
s-81 81 -107 88c-12 0 -29 -11 -51 -33c-22 -23 -45 -50 -70 -82c-25 -33 -48 -63 -69 -92c-15 -20 -27 -36 -37 -49s-16 -21 -19 -22c-3 0 -12 6 -28 19c-16 12 -34 26 -54 43c-21 16 -39 30 -54 43s-24 20 -25 21zM360 -73l213 212c3 -3 5 -7 8 -10c1 -1 3 -2 4 -3
c-33 -32 -64 -68 -93 -108l-111 -113zM819 -35c9 9 18 19 27 28c13 14 26 28 39 41c6 7 15 15 26 26c21 19 42 38 61 59c9 -10 19 -20 28 -30c0 -1 0 -1 1 -2c-26 -25 -52 -51 -78 -77s-52 -52 -77 -78c-7 9 -16 20 -27 33zM866 -95c52 53 104 105 157 157
c10 -11 20 -23 31 -34l-50 -49l-37 -37l-72 -72c-5 4 -13 15 -26 32z" />
    <glyph glyph-name="y" unicode="y" horiz-adv-x="1114" 
d="M521 17c9 4 17 9 24 14c9 7 17 11 24 13c6 2 10 -1 11 -10c1 -6 1 -12 2 -18l-102 -102c-17 2 -34 6 -51 11zM394 -61c-8 4 -16 9 -23 14l37 37c15 1 29 4 44 7c-9 -10 -19 -20 -29 -29zM962 -44l-85 -85c4 23 8 46 11 71l74 74v-60zM963 64c-13 -12 -25 -24 -37 -36
l-33 -33c2 21 3 44 4 68l66 65v-64zM963 178l-54 -54l-10 -10c1 20 1 41 2 62l62 62v-60zM963 285l-61 -61v63l61 61v-63zM963 397l-61 -61v60l54 54l7 7v-60zM963 504l-61 -61v41l61 62v-42zM963 594l-62 -62v59l63 63zM964 701l-64 -64v44l64 64v-44zM944 774l-45 -45v5
v55l16 15zM865 -191l96 96c0 -14 -1 -28 -2 -42c-37 -37 -73 -73 -110 -109c5 17 11 36 16 55zM810 -333c49 48 97 96 145 144c-2 -23 -5 -47 -9 -70c-115 -116 -231 -232 -347 -347c-25 -6 -51 -10 -76 -12c51 51 102 101 153 152c59 34 103 78 134 133zM586 -507
c-19 -19 -38 -37 -57 -56l-57 -57c-12 0 -24 0 -37 1l95 95c20 5 39 11 56 17zM469 -537l-76 -77c-18 3 -36 7 -53 12l19 20l37 36c25 1 49 4 73 9zM346 -548l-42 -42c-15 5 -29 12 -43 19l26 26c20 -2 40 -3 59 -3zM246 -539l-16 -16c-13 8 -26 17 -39 26l1 1
c17 -5 35 -8 54 -11zM665 -588l267 266c-5 -20 -12 -39 -20 -57c-63 -62 -125 -124 -187 -186c-20 -9 -40 -16 -60 -23zM45 -488c32 -35 67 -66 106 -94c69 -49 144 -79 227 -91c83 -13 166 -10 249 7c136 31 232 84 288 161c56 76 91 181 104 315c8 76 12 177 13 302
s0 245 -1 362c-1 72 -1 133 -1 183c0 13 1 25 2 38c1 18 2 34 1 49s-5 26 -12 33c-42 44 -84 87 -126 129c-7 10 -19 12 -35 7c-23 -6 -46 -7 -68 -4c-7 1 -13 1 -20 2c-34 1 -69 3 -104 4c-20 1 -39 1 -58 2c-28 1 -43 -11 -45 -35c-4 -63 -6 -130 -6 -203
c0 -39 -1 -76 -2 -111v-13c1 -39 -3 -84 -10 -136s-27 -89 -59 -111c-5 60 -6 110 -3 149v11c1 35 1 70 0 105c-2 61 -1 120 3 178c1 8 -1 15 -4 20l-136 141c-6 5 -15 6 -28 4l-273 1c-20 0 -33 -3 -39 -10s-6 -20 -1 -37c5 -22 9 -63 12 -124s5 -127 6 -199
c1 -55 3 -107 5 -154c1 -47 4 -84 7 -109c7 -55 24 -102 49 -141s56 -77 93 -113c50 -57 103 -103 160 -136c57 -34 129 -46 216 -36c-13 -23 -34 -41 -61 -56c-55 -27 -112 -39 -169 -38c-58 1 -112 22 -161 63c-13 12 -24 26 -35 42c-12 17 -24 30 -37 41s-27 12 -44 5
c-12 -7 -28 -25 -48 -53c-21 -29 -40 -58 -58 -88c-18 -31 -29 -53 -34 -68c-1 -19 2 -36 11 -51c8 -15 19 -30 32 -44c31 -33 63 -66 94 -99zM399 777l-45 -46v41l25 26zM355 685l31 31l31 31c1 -19 1 -38 1 -59l-63 -63v60zM354 575l64 64v-9c0 -17 0 -35 -1 -54l-64 -63
c0 23 0 43 1 62zM355 467l62 62v-60l-55 -56c-3 17 -6 35 -7 54zM371 373l23 23l24 23c0 -21 1 -42 2 -61l-28 -27c-9 12 -16 26 -21 42zM417 308l6 6c0 -3 0 -7 1 -10c-3 1 -5 3 -7 4zM55 -391c-48 33 -73 63 -74 88c-2 25 13 58 44 99c7 11 13 20 17 27c5 11 10 17 15 19
c4 2 10 -2 19 -12c47 -57 95 -94 142 -111s107 -20 180 -8c80 11 138 32 173 63c35 30 56 73 64 129c3 19 5 44 8 75s4 60 4 87c-1 27 -4 44 -9 52c-13 18 -24 26 -34 24c-11 -2 -23 -9 -37 -21c-3 -3 -6 -5 -9 -8c-101 -75 -202 -86 -304 -34c-25 14 -49 33 -72 56
s-41 45 -54 68c-12 27 -20 57 -23 90c-4 33 -6 65 -6 94c-1 71 -4 142 -8 212c-5 73 -8 147 -9 222c0 19 2 30 5 33s14 5 33 5c43 0 85 -1 128 -4c25 1 38 -12 39 -38c1 -34 1 -75 0 -123c-2 -79 0 -157 5 -235s23 -135 52 -170c27 -27 60 -44 98 -50c64 -3 109 21 136 72
s42 112 47 184c5 71 6 136 3 195c-1 25 -1 47 0 66v29c-1 36 2 58 10 66c7 7 29 9 65 5c9 -1 20 -1 31 -1c6 -1 13 -1 20 -1c13 0 27 -1 40 -2s23 -5 31 -11c8 -7 12 -16 13 -27c0 -11 -1 -23 -2 -35c-1 -9 -2 -17 -3 -25c0 -69 0 -140 1 -213c2 -122 2 -240 -1 -353
c-1 -24 -1 -49 -1 -74c0 -66 -3 -133 -10 -201s-25 -131 -54 -189s-77 -105 -142 -140c-96 -49 -194 -72 -294 -69s-192 34 -277 95zM579 -78c-17 -4 -34 -7 -50 -8l54 54c0 -15 -1 -31 -4 -46zM358 -11l-16 -16c-7 6 -14 12 -21 19c12 -1 24 -2 37 -3z" />
    <glyph glyph-name="z" unicode="z" horiz-adv-x="1054" 
d="M100 874c152 11 301 11 447 2c27 -1 55 -3 83 -4c7 0 17 0 30 1s28 2 43 3c15 0 28 -1 39 -2c11 -2 17 -6 18 -11c1 -11 2 -32 2 -62c-1 -31 -1 -63 -2 -98s-2 -64 -3 -88v-21c-2 -24 -11 -46 -28 -65c-17 -20 -36 -38 -56 -55l-27 -24c-13 -13 -27 -26 -43 -40
c-25 -23 -47 -45 -67 -64c-1 -1 -3 -3 -4 -5c-12 -11 -21 -22 -28 -34s-5 -24 7 -36c4 -2 15 -3 32 -3c17 -1 38 -1 62 0c23 1 46 1 67 2c27 1 46 1 56 1c27 0 43 -6 48 -18c5 -13 5 -35 2 -66c-1 -7 -1 -14 -2 -22v-30c2 -17 0 -31 -5 -40c-5 -10 -20 -16 -45 -17l-492 -8
c-13 -1 -27 -1 -40 -2c-27 -3 -51 -2 -70 1s-30 14 -33 34c-1 53 24 108 74 163s105 107 166 157c18 15 35 30 51 45c18 15 40 36 65 62s41 52 50 77s-2 43 -33 54c-9 2 -28 3 -59 3s-66 0 -105 -1c-52 -1 -99 -2 -141 -2c-43 0 -67 3 -74 8c-1 1 -1 8 -2 19s-2 25 -3 42
c-1 16 -3 33 -4 50c-1 15 -1 29 -2 41c-1 11 -2 19 -2 24c-3 19 6 28 28 29zM197 536c-3 3 -7 7 -11 10c-7 7 -14 15 -21 22l33 34h34h32l-40 -39zM311 602c24 0 43 -1 58 -2l-73 -72c-21 -1 -41 -1 -60 0zM831 897c-3 10 -15 17 -35 22s-42 8 -66 9s-44 2 -60 2h-11
c-26 1 -52 1 -79 2c-171 9 -337 8 -499 -2c-54 -2 -79 -26 -74 -72c1 -6 1 -13 2 -21c1 -24 2 -52 5 -85s7 -63 12 -90s12 -45 21 -53c39 -41 77 -81 115 -121l3 -3c4 -5 7 -8 9 -9c2 -2 4 -3 7 -4c2 -1 5 -1 9 -1c3 0 6 0 10 -1c21 -1 50 -2 85 -2c-11 -9 -21 -19 -31 -28
c-49 -42 -93 -86 -134 -132c-41 -47 -69 -100 -84 -159c-7 -25 -11 -48 -12 -70c-1 -23 5 -41 18 -56c29 -29 52 -54 70 -73c26 -27 46 -47 60 -58c13 -12 27 -19 41 -20s34 0 59 3c35 6 96 10 183 11l344 1c7 0 16 0 25 -1c25 -1 51 0 77 3s45 14 56 33c5 15 10 38 13 71
s4 66 4 99c-1 33 -3 57 -6 72c-3 6 -10 16 -22 30c-13 13 -27 28 -42 44c-16 16 -30 30 -42 41l-14 14c22 19 42 38 60 57s30 37 37 54c4 14 7 42 10 85c2 42 4 87 5 135c1 47 1 86 2 115v9c1 5 1 10 0 15c-1 4 -5 8 -11 11c-40 42 -80 83 -120 123zM873 771l-45 -45
c1 23 1 44 2 65l13 13zM826 677l65 64c1 -11 1 -23 1 -38c-21 -21 -41 -41 -62 -61c-2 -2 -4 -4 -5 -6v10c1 10 1 20 1 31zM821 585l70 69c0 -21 0 -43 -1 -65l-56 -56l-17 16c2 9 3 21 4 36zM857 509l32 32v-8c0 -11 0 -21 -1 -30l-13 -13zM836 73l70 70c3 -15 4 -35 3 -60
l-41 -42c-11 11 -21 22 -32 32zM891 18l16 16v-5v-28zM887 170l-49 -48c2 22 3 45 4 69l13 13zM879 -53l-60 -1l31 31zM827 1l-55 -56l-66 -2l84 85l9 3zM736 20l-39 -39l-39 -39l-65 -1l79 79h21c13 -1 28 -1 43 0zM626 20l-80 -80l-64 -2l82 82h62zM517 21l-83 -84l-64 -1
l84 85h63zM408 21l-85 -86h-3h-13c-9 -1 -18 -1 -28 -2l88 87c13 1 27 1 41 1zM318 19l-85 -84c-12 1 -23 3 -33 6l-11 11l64 64c23 1 45 2 65 3zM204 13l-37 -37l-22 22l11 12c17 1 33 2 48 3zM871 411c-19 -26 -41 -50 -68 -71c-5 -4 -9 -8 -14 -13c-9 1 -18 2 -27 2
l44 44l52 51zM834 449c-13 -13 -27 -27 -40 -41c-27 -27 -54 -53 -81 -80c-7 -1 -15 -1 -22 -1c-6 -1 -12 -1 -18 -1l143 142zM793 492c-53 -53 -107 -107 -161 -160c-2 -3 -4 -5 -6 -7c-3 0 -7 0 -10 1c33 40 67 73 100 100c26 21 50 45 73 71zM344 529l43 42
c-12 -15 -25 -29 -38 -42h-5zM151 602l-9 -10l-9 10h9h9z" />
    </font>
</defs>
</svg>
